<svg xmlns="http://www.w3.org/2000/svg" width="34.092" height="33.991" viewBox="0 0 34.092 33.991">
  <g id="Group_4331" data-name="Group 4331" transform="translate(-758.599 -21.632)">
    <path id="Path_11348" data-name="Path 11348" d="M778.178,41.185c-3.35,0-6.7.006-10.049-.01a.465.465,0,0,0-.548.4c-.4,1.323-.84,2.637-1.261,3.956-.166.519-.134.56.415.56l19.4,0c.74,0,1.178.332,1.241.927a1,1,0,0,1-.812,1.135,2.474,2.474,0,0,1-.51.039q-9.7,0-19.4,0a2.329,2.329,0,0,1-2.36-3.218c.43-1.348.835-2.706,1.308-4.039a3.9,3.9,0,0,0,.154-1.916c-.389-2.8-.739-5.606-1.123-8.407-.2-1.462-.442-2.917-.655-4.376a.693.693,0,0,0-.469-.568c-1.343-.618-2.676-1.257-4.012-1.889a3.669,3.669,0,0,1-.376-.189,1.043,1.043,0,0,1-.426-1.34,1,1,0,0,1,1.294-.537c1.81.861,3.6,1.764,5.4,2.646a1.549,1.549,0,0,0,.436.137q7.355,1.169,14.711,2.331c3.366.533,6.734,1.059,10.1,1.6a2.3,2.3,0,0,1,1.958,3.016q-1.035,4-2.1,7.988a2.364,2.364,0,0,1-2.643,1.982c-3.225-.008-6.45,0-9.676,0ZM766.3,26.7a2.594,2.594,0,0,0,0,.261c.187,1.432.378,2.864.564,4.3q.48,3.7.953,7.392c.04.319.176.433.514.434,1.916.01,3.831.047,5.746.073q6.891.092,13.782.185c.314,0,.519-.039.612-.4q1.023-3.975,2.084-7.939c.1-.364-.023-.48-.349-.531q-3.919-.612-7.837-1.233-6.361-1.005-12.722-2.013C768.545,27.054,767.442,26.882,766.3,26.7Z" fill="#fff"/>
    <path id="Path_11349" data-name="Path 11349" d="M765.058,55.623a2.936,2.936,0,0,1-3.02-3,3.023,3.023,0,0,1,3.04-3.011,2.941,2.941,0,0,1,3,3.021A3.014,3.014,0,0,1,765.058,55.623Zm-.005-4.336a1.35,1.35,0,0,0-1.345,1.331,1.266,1.266,0,0,0,1.353,1.336,1.35,1.35,0,0,0,1.345-1.331A1.265,1.265,0,0,0,765.053,51.287Z" fill="#fff"/>
    <path id="Path_11350" data-name="Path 11350" d="M784.826,55.622a2.931,2.931,0,0,1-2.969-3.044,3.015,3.015,0,0,1,3.086-2.96,2.944,2.944,0,0,1,2.947,3.068A3.015,3.015,0,0,1,784.826,55.622Zm.051-1.668a1.358,1.358,0,0,0,1.347-1.333,1.27,1.27,0,0,0-1.355-1.334,1.349,1.349,0,0,0-1.344,1.331A1.267,1.267,0,0,0,784.877,53.954Z" fill="#fff"/>
  </g>
</svg>
