<?xml version="1.0" standalone="no"?>
<!DOCTYPE svg PUBLIC "-//W3C//DTD SVG 20010904//EN"
 "http://www.w3.org/TR/2001/REC-SVG-20010904/DTD/svg10.dtd">
<svg version="1.0" xmlns="http://www.w3.org/2000/svg"
 width="1107.000000pt" height="1280.000000pt" viewBox="0 0 1107.000000 1280.000000"
 preserveAspectRatio="xMidYMid meet">
<metadata>
Created by potrace 1.15, written by Peter Selinger 2001-2017
</metadata>
<g transform="translate(0.000000,1280.000000) scale(0.100000,-0.100000)"
fill="#000000" stroke="none">
<path d="M8860 12714 c-78 -133 -215 -387 -565 -1054 -289 -551 -571 -1084
-697 -1315 -27 -49 -54 -92 -60 -96 -7 -4 -35 -11 -63 -14 -138 -18 -364 -90
-566 -180 -612 -272 -1329 -895 -1924 -1670 -63 -82 -115 -152 -115 -155 0 -3
137 -4 304 -2 l304 3 79 67 c271 234 392 320 575 407 96 45 315 121 324 112 4
-4 -54 -671 -66 -762 -37 -262 -175 -651 -396 -1113 l-73 -152 -108 39 -109
38 -635 -849 c-594 -797 -738 -982 -753 -967 -8 8 78 149 184 302 159 228
1012 1395 1363 1862 21 28 37 55 36 60 -1 6 -110 47 -243 92 l-241 82 -21 -22
c-169 -180 -400 -460 -957 -1157 -706 -884 -727 -910 -727 -894 0 19 82 148
184 288 167 229 514 670 1124 1427 l23 28 -98 30 c-54 17 -155 48 -225 69
l-127 40 -108 -132 c-200 -243 -1250 -1481 -1287 -1515 -20 -19 -36 -30 -36
-25 0 21 103 181 185 289 159 209 500 616 889 1060 75 86 92 111 81 118 -8 4
-61 25 -118 47 -56 21 -125 47 -153 58 l-52 21 -273 -307 c-433 -485 -912
-1014 -1311 -1448 -203 -221 -392 -431 -420 -465 -125 -155 -255 -388 -328
-589 -138 -377 -176 -885 -99 -1334 20 -116 20 -119 1 -140 -10 -11 -364 -400
-786 -863 -422 -463 -767 -845 -768 -849 0 -6 1973 -1166 2008 -1181 14 -5 91
117 356 572 480 820 807 1346 1099 1766 l109 156 46 7 c26 3 65 6 88 6 64 0
229 27 361 59 562 137 1175 488 1835 1051 123 104 584 549 577 556 -2 2 -137
19 -302 39 l-298 35 -171 -112 c-296 -195 -531 -298 -763 -335 -56 -9 -105
-14 -108 -12 -7 7 128 647 161 762 75 266 269 647 548 1076 58 90 70 102 89
97 61 -16 337 -69 340 -65 2 2 88 153 192 334 462 807 888 1516 903 1501 13
-14 -506 -961 -1100 -2004 -83 -145 -146 -267 -142 -271 5 -4 115 -29 244 -55
129 -27 239 -50 245 -52 17 -7 273 369 490 721 405 655 869 1371 911 1406 16
13 16 12 4 -11 -72 -138 -349 -598 -761 -1260 -159 -256 -290 -469 -291 -475
-1 -5 101 -28 226 -51 l228 -41 37 60 c82 134 529 810 696 1052 289 420 504
701 439 573 -67 -134 -368 -598 -762 -1179 l-181 -266 172 -42 c95 -22 175
-41 179 -41 3 0 102 138 219 308 413 595 845 1212 1149 1637 356 498 362 507
441 665 110 219 184 489 210 760 13 136 7 419 -11 560 -18 138 -67 367 -104
484 l-34 108 730 882 c402 484 737 888 745 897 12 15 -90 61 -1049 472 -585
251 -1071 459 -1080 462 -13 5 -28 -13 -68 -81z"/>
</g>
</svg>
