<svg xmlns="http://www.w3.org/2000/svg" width="16.348" height="16.348" viewBox="0 0 16.348 16.348">
  <path id="about_us" d="M2034.318,1333.551a8.174,8.174,0,1,0,8.174,8.175A8.184,8.184,0,0,0,2034.318,1333.551Zm-.831,2.32a1.421,1.421,0,0,1,.915-.271,1.035,1.035,0,0,1,.784.336,1.28,1.28,0,0,1,.318.916,1.17,1.17,0,0,1-.56,1.026,1.87,1.87,0,0,1-1.009.374.629.629,0,0,1-.588-.42,2.29,2.29,0,0,1-.2-.98A1.2,1.2,0,0,1,2033.487,1335.871Zm2.12,11.633a1.676,1.676,0,0,1-1.037.346.925.925,0,0,1-.784-.409,1.6,1.6,0,0,1-.3-.969v-5.494q0-.354-.261-.354a2.182,2.182,0,0,0-1.1.635,2.506,2.506,0,0,1,.766-.971,1.948,1.948,0,0,1,1.269-.617.841.841,0,0,1,.813.448,2.287,2.287,0,0,1,.233,1.065v5.248c.05.348.18.522.392.522a.881.881,0,0,0,.523-.242l.392-.318A3.808,3.808,0,0,1,2035.607,1347.5Z" transform="translate(-2026.144 -1333.551)" fill="#fff"/>
</svg>
