<svg height="53.406" viewBox="0 0 53.57 53.406" width="53.57" xmlns="http://www.w3.org/2000/svg" xmlns:xlink="http://www.w3.org/1999/xlink"><linearGradient id="a" gradientUnits="objectBoundingBox" x1=".843" x2=".147" y1=".844" y2=".146"><stop offset="0" stop-color="#fff"/><stop offset="1" stop-color="#cbceda"/></linearGradient><linearGradient id="b" x1=".843" x2=".149" xlink:href="#a" y1=".844" y2=".148"/><linearGradient id="c" x1=".844" x2=".15" xlink:href="#a" y1=".845" y2=".149"/><linearGradient id="d" x1=".844" x2=".151" xlink:href="#a" y1=".845" y2=".15"/><linearGradient id="e" x1=".844" x2=".153" xlink:href="#a" y1=".845" y2=".152"/><linearGradient id="f" x1=".844" x2=".154" xlink:href="#a" y1=".845" y2=".153"/><linearGradient id="g" x1=".845" x2=".156" xlink:href="#a" y1=".846" y2=".155"/><linearGradient id="h" x1=".845" x2=".157" xlink:href="#a" y1=".846" y2=".156"/><linearGradient id="i" x1=".845" x2=".158" xlink:href="#a" y1=".846" y2=".157"/><linearGradient id="j" x1=".845" x2=".16" xlink:href="#a" y1=".846" y2=".159"/><linearGradient id="k" x1=".845" x2=".161" xlink:href="#a" y1=".847" y2=".16"/><linearGradient id="l" x1=".846" x2=".163" xlink:href="#a" y1=".847" y2=".162"/><linearGradient id="m" x1=".846" x2=".164" xlink:href="#a" y1=".847" y2=".163"/><linearGradient id="n" x1=".846" x2=".165" xlink:href="#a" y1=".847" y2=".164"/><linearGradient id="o" x1=".846" x2=".167" xlink:href="#a" y1=".848" y2=".166"/><linearGradient id="p" x1=".847" x2=".168" xlink:href="#a" y1=".848" y2=".167"/><linearGradient id="q" x1=".847" x2=".17" xlink:href="#a" y1=".848" y2=".169"/><linearGradient id="r" x1=".847" x2=".171" xlink:href="#a" y1=".848" y2=".17"/><linearGradient id="s" x1=".847" x2=".172" xlink:href="#a" y1=".848" y2=".171"/><linearGradient id="t" x1=".848" x2=".174" xlink:href="#a" y1=".849" y2=".173"/><linearGradient id="u" x1=".848" x2=".175" xlink:href="#a" y1=".849" y2=".174"/><linearGradient id="v" x1=".848" x2=".177" xlink:href="#a" y1=".849" y2=".176"/><linearGradient id="w" x1=".848" x2=".178" xlink:href="#a" y1=".849" y2=".177"/><linearGradient id="x" x1=".849" x2=".179" xlink:href="#a" y1=".85" y2=".178"/><linearGradient id="y" x1=".849" x2=".181" xlink:href="#a" y1=".85" y2=".18"/><linearGradient id="z" x1=".849" x2=".182" xlink:href="#a" y1=".85" y2=".181"/><linearGradient id="A" x1=".849" x2=".184" xlink:href="#a" y1=".85" y2=".183"/><linearGradient id="B" x1="302.222" x2="301.556" xlink:href="#a" y1="-58.677" y2="-59.344"/><linearGradient id="C" x1="305.342" x2="304.676" xlink:href="#a" y1="-59.292" y2="-59.96"/><linearGradient id="D" x1="308.527" x2="307.862" xlink:href="#a" y1="-59.924" y2="-60.591"/><linearGradient id="E" x1="311.786" x2="311.12" xlink:href="#a" y1="-60.565" y2="-61.233"/><linearGradient id="F" x1="315.108" x2="314.442" xlink:href="#a" y1="-61.222" y2="-61.89"/><linearGradient id="G" x1="318.502" x2="317.837" xlink:href="#a" y1="-61.893" y2="-62.561"/><linearGradient id="H" x1="321.977" x2="321.311" xlink:href="#a" y1="-62.578" y2="-63.246"/><linearGradient id="I" x1="325.522" x2="324.857" xlink:href="#a" y1="-63.28" y2="-63.948"/><linearGradient id="J" x1="329.146" x2="328.48" xlink:href="#a" y1="-63.995" y2="-64.663"/><linearGradient id="K" x1="332.858" x2="332.193" xlink:href="#a" y1="-64.728" y2="-65.396"/><linearGradient id="L" x1="336.65" x2="335.984" xlink:href="#a" y1="-65.478" y2="-66.145"/><linearGradient id="M" x1="340.535" x2="339.869" xlink:href="#a" y1="-66.243" y2="-66.911"/><linearGradient id="N" x1="344.503" x2="343.838" xlink:href="#a" y1="-67.029" y2="-67.697"/><linearGradient id="O" x1="348.567" x2="347.901" xlink:href="#a" y1="-67.831" y2="-68.499"/><linearGradient id="P" x1="352.726" x2="352.061" xlink:href="#a" y1="-68.654" y2="-69.321"/><linearGradient id="Q" x1="356.996" x2="356.33" xlink:href="#a" y1="-69.496" y2="-70.164"/><linearGradient id="R" x1="361.361" x2="360.695" xlink:href="#a" y1="-70.358" y2="-71.025"/><linearGradient id="S" x1="365.843" x2="365.177" xlink:href="#a" y1="-71.244" y2="-71.912"/><linearGradient id="T" x1="370.43" x2="369.764" xlink:href="#a" y1="-72.149" y2="-72.817"/><linearGradient id="U" x1="375.133" x2="374.467" xlink:href="#a" y1="-73.077" y2="-73.745"/><linearGradient id="V" x1="379.957" x2="379.291" xlink:href="#a" y1="-74.033" y2="-74.701"/><linearGradient id="W" x1="384.917" x2="384.251" xlink:href="#a" y1="-75.01" y2="-75.678"/><linearGradient id="X" gradientUnits="objectBoundingBox" x1=".19" x2=".953" y1=".189" y2=".954"><stop offset="0" stop-color="#009790"/><stop offset=".24" stop-color="#009891"/><stop offset=".35" stop-color="#009891"/><stop offset=".57" stop-color="#00787e"/><stop offset=".88" stop-color="#122559"/><stop offset="1" stop-color="#13245a"/></linearGradient><g transform="translate(-1493.891 -978.452)"><path d="m1547.461 1005.155a26.785 26.785 0 1 1 -26.785-26.7 26.745 26.745 0 0 1 26.785 26.7z" fill="url(#a)"/><path d="m1547.192 1005.155a26.516 26.516 0 1 1 -26.516-26.435 26.476 26.476 0 0 1 26.516 26.435z" fill="url(#b)"/><path d="m1546.923 1005.155a26.247 26.247 0 1 1 -26.247-26.167 26.208 26.208 0 0 1 26.247 26.167z" fill="url(#c)"/><path d="m1546.654 1005.155a25.978 25.978 0 1 1 -25.978-25.9 25.938 25.938 0 0 1 25.978 25.9z" fill="url(#d)"/><path d="m1546.385 1005.155a25.709 25.709 0 1 1 -25.709-25.631 25.67 25.67 0 0 1 25.709 25.631z" fill="url(#e)"/><path d="m1546.116 1005.155a25.44 25.44 0 1 1 -25.44-25.363 25.4 25.4 0 0 1 25.44 25.363z" fill="url(#f)"/><path d="m1545.847 1005.155a25.171 25.171 0 1 1 -25.171-25.1 25.133 25.133 0 0 1 25.171 25.1z" fill="url(#g)"/><path d="m1545.578 1005.155a24.9 24.9 0 1 1 -24.9-24.826 24.864 24.864 0 0 1 24.9 24.826z" fill="url(#h)"/><path d="m1545.309 1005.155a24.634 24.634 0 1 1 -24.633-24.558 24.6 24.6 0 0 1 24.633 24.558z" fill="url(#i)"/><path d="m1545.04 1005.155a24.365 24.365 0 1 1 -24.364-24.29 24.327 24.327 0 0 1 24.364 24.29z" fill="url(#j)"/><path d="m1544.771 1005.155a24.1 24.1 0 1 1 -24.095-24.022 24.059 24.059 0 0 1 24.095 24.022z" fill="url(#k)"/><path d="m1544.5 1005.155a23.827 23.827 0 1 1 -23.826-23.754 23.791 23.791 0 0 1 23.826 23.754z" fill="url(#l)"/><path d="m1544.233 1005.155a23.558 23.558 0 1 1 -23.557-23.486 23.521 23.521 0 0 1 23.557 23.486z" fill="url(#m)"/><path d="m1543.964 1005.155a23.289 23.289 0 1 1 -23.288-23.218 23.253 23.253 0 0 1 23.288 23.218z" fill="url(#n)"/><path d="m1543.695 1005.155a23.02 23.02 0 1 1 -23.019-22.95 22.984 22.984 0 0 1 23.019 22.95z" fill="url(#o)"/><path d="m1543.426 1005.155a22.751 22.751 0 1 1 -22.75-22.682 22.716 22.716 0 0 1 22.75 22.682z" fill="url(#p)"/><path d="m1543.157 1005.155a22.482 22.482 0 1 1 -22.481-22.413 22.447 22.447 0 0 1 22.481 22.413z" fill="url(#q)"/><path d="m1542.888 1005.155a22.213 22.213 0 1 1 -22.212-22.145 22.179 22.179 0 0 1 22.212 22.145z" fill="url(#r)"/><path d="m1542.62 1005.155a21.944 21.944 0 1 1 -21.944-21.877 21.911 21.911 0 0 1 21.944 21.877z" fill="url(#s)"/><path d="m1542.351 1005.155a21.675 21.675 0 1 1 -21.675-21.609 21.643 21.643 0 0 1 21.675 21.609z" fill="url(#t)"/><path d="m1542.082 1005.155a21.406 21.406 0 1 1 -21.406-21.341 21.374 21.374 0 0 1 21.406 21.341z" fill="url(#u)"/><path d="m1541.813 1005.155a21.137 21.137 0 1 1 -21.137-21.073 21.1 21.1 0 0 1 21.137 21.073z" fill="url(#v)"/><path d="m1541.544 1005.155a20.868 20.868 0 1 1 -20.868-20.805 20.836 20.836 0 0 1 20.868 20.805z" fill="url(#w)"/><path d="m1541.275 1005.155a20.6 20.6 0 1 1 -20.6-20.537 20.568 20.568 0 0 1 20.6 20.537z" fill="url(#x)"/><path d="m1541.006 1005.155a20.33 20.33 0 1 1 -20.33-20.269 20.3 20.3 0 0 1 20.33 20.269z" fill="url(#y)"/><path d="m1540.737 1005.155a20.062 20.062 0 1 1 -20.061-20 20.031 20.031 0 0 1 20.061 20z" fill="url(#z)"/><path d="m1540.468 1005.155a19.793 19.793 0 1 1 -19.792-19.732 19.762 19.762 0 0 1 19.792 19.732z" fill="url(#A)"/><path d="m1495.691 1005.155a24.985 24.985 0 1 1 24.985 24.908 24.947 24.947 0 0 1 -24.985-24.908z" fill="url(#B)" opacity="0"/><path d="m1495.947 1005.155a24.729 24.729 0 1 1 24.729 24.653 24.691 24.691 0 0 1 -24.729-24.653z" fill="url(#C)" opacity=".048"/><path d="m1496.2 1005.155a24.473 24.473 0 1 1 24.473 24.4 24.435 24.435 0 0 1 -24.473-24.4z" fill="url(#D)" opacity=".095"/><path d="m1496.46 1005.155a24.216 24.216 0 1 1 24.216 24.142 24.179 24.179 0 0 1 -24.216-24.142z" fill="url(#E)" opacity=".143"/><path d="m1496.716 1005.155a23.96 23.96 0 1 1 23.96 23.887 23.923 23.923 0 0 1 -23.96-23.887z" fill="url(#F)" opacity=".19"/><path d="m1496.972 1005.155a23.7 23.7 0 1 1 23.7 23.631 23.667 23.667 0 0 1 -23.7-23.631z" fill="url(#G)" opacity=".238"/><path d="m1497.228 1005.155a23.448 23.448 0 1 1 23.448 23.376 23.412 23.412 0 0 1 -23.448-23.376z" fill="url(#H)" opacity=".286"/><path d="m1497.484 1005.155a23.192 23.192 0 1 1 23.192 23.12 23.157 23.157 0 0 1 -23.192-23.12z" fill="url(#I)" opacity=".333"/><path d="m1497.74 1005.155a22.936 22.936 0 1 1 22.936 22.865 22.9 22.9 0 0 1 -22.936-22.865z" fill="url(#J)" opacity=".381"/><path d="m1498 1005.155a22.679 22.679 0 1 1 22.679 22.61 22.644 22.644 0 0 1 -22.679-22.61z" fill="url(#K)" opacity=".429"/><path d="m1498.253 1005.155a22.423 22.423 0 1 1 22.423 22.354 22.389 22.389 0 0 1 -22.423-22.354z" fill="url(#L)" opacity=".476"/><path d="m1498.509 1005.155a22.167 22.167 0 1 1 22.167 22.1 22.134 22.134 0 0 1 -22.167-22.1z" fill="url(#M)" opacity=".524"/><path d="m1498.765 1005.155a21.911 21.911 0 1 1 21.911 21.845 21.878 21.878 0 0 1 -21.911-21.845z" fill="url(#N)" opacity=".571"/><path d="m1499.021 1005.155a21.655 21.655 0 1 1 21.655 21.588 21.622 21.622 0 0 1 -21.655-21.588z" fill="url(#O)" opacity=".619"/><path d="m1499.277 1005.155a21.4 21.4 0 1 1 21.4 21.333 21.366 21.366 0 0 1 -21.4-21.333z" fill="url(#P)" opacity=".667"/><path d="m1499.534 1005.155a21.142 21.142 0 1 1 21.142 21.077 21.11 21.11 0 0 1 -21.142-21.077z" fill="url(#Q)" opacity=".714"/><path d="m1499.79 1005.155a20.886 20.886 0 1 1 20.886 20.822 20.855 20.855 0 0 1 -20.886-20.822z" fill="url(#R)" opacity=".762"/><path d="m1500.046 1005.155a20.63 20.63 0 1 1 20.63 20.566 20.6 20.6 0 0 1 -20.63-20.566z" fill="url(#S)" opacity=".81"/><path d="m1500.3 1005.155a20.374 20.374 0 1 1 20.374 20.311 20.343 20.343 0 0 1 -20.374-20.311z" fill="url(#T)" opacity=".857"/><path d="m1500.558 1005.155a20.118 20.118 0 1 1 20.118 20.056 20.088 20.088 0 0 1 -20.118-20.056z" fill="url(#U)" opacity=".905"/><path d="m1500.814 1005.155a19.862 19.862 0 1 1 19.862 19.8 19.831 19.831 0 0 1 -19.862-19.8z" fill="url(#V)" opacity=".952"/><path d="m1501.071 1005.155a19.605 19.605 0 1 1 19.6 19.545 19.575 19.575 0 0 1 -19.6-19.545z" fill="url(#W)"/><path d="m1542.148 1005.155c0 .346-.008.692-.032 1.038a21.272 21.272 0 1 1 .032-1.038z" fill="url(#X)"/><path d="m1532.692 1002.245h-9.078v-9.045a2.312 2.312 0 0 0 -4.623 0v9.049h-9.077a2.305 2.305 0 1 0 0 4.61h9.077v9.049a2.312 2.312 0 0 0 4.623 0v-9.049h9.078a2.3 2.3 0 1 0 0-4.61z" fill="#fff"/></g></svg>