<svg xmlns="http://www.w3.org/2000/svg" xmlns:xlink="http://www.w3.org/1999/xlink" width="53.57" height="53.406" viewBox="0 0 53.57 53.406">
  <defs>
    <linearGradient id="linear-gradient" x1="0.843" y1="0.844" x2="0.147" y2="0.146" gradientUnits="objectBoundingBox">
      <stop offset="0" stop-color="#fff"/>
      <stop offset="1" stop-color="#cbceda"/>
    </linearGradient>
    <linearGradient id="linear-gradient-2" x1="0.843" y1="0.844" x2="0.149" y2="0.148" xlink:href="#linear-gradient"/>
    <linearGradient id="linear-gradient-3" x1="0.844" y1="0.845" x2="0.15" y2="0.149" xlink:href="#linear-gradient"/>
    <linearGradient id="linear-gradient-4" x1="0.844" y1="0.845" x2="0.151" y2="0.15" xlink:href="#linear-gradient"/>
    <linearGradient id="linear-gradient-5" x1="0.844" y1="0.845" x2="0.153" y2="0.152" xlink:href="#linear-gradient"/>
    <linearGradient id="linear-gradient-6" x1="0.844" y1="0.845" x2="0.154" y2="0.153" xlink:href="#linear-gradient"/>
    <linearGradient id="linear-gradient-7" x1="0.845" y1="0.846" x2="0.156" y2="0.155" xlink:href="#linear-gradient"/>
    <linearGradient id="linear-gradient-8" x1="0.845" y1="0.846" x2="0.157" y2="0.156" xlink:href="#linear-gradient"/>
    <linearGradient id="linear-gradient-9" x1="0.845" y1="0.846" x2="0.158" y2="0.157" xlink:href="#linear-gradient"/>
    <linearGradient id="linear-gradient-10" x1="0.845" y1="0.846" x2="0.16" y2="0.159" xlink:href="#linear-gradient"/>
    <linearGradient id="linear-gradient-11" x1="0.845" y1="0.847" x2="0.161" y2="0.16" xlink:href="#linear-gradient"/>
    <linearGradient id="linear-gradient-12" x1="0.846" y1="0.847" x2="0.163" y2="0.162" xlink:href="#linear-gradient"/>
    <linearGradient id="linear-gradient-13" x1="0.846" y1="0.847" x2="0.164" y2="0.163" xlink:href="#linear-gradient"/>
    <linearGradient id="linear-gradient-14" x1="0.846" y1="0.847" x2="0.165" y2="0.164" xlink:href="#linear-gradient"/>
    <linearGradient id="linear-gradient-15" x1="0.846" y1="0.848" x2="0.167" y2="0.166" xlink:href="#linear-gradient"/>
    <linearGradient id="linear-gradient-16" x1="0.847" y1="0.848" x2="0.168" y2="0.167" xlink:href="#linear-gradient"/>
    <linearGradient id="linear-gradient-17" x1="0.847" y1="0.848" x2="0.17" y2="0.169" xlink:href="#linear-gradient"/>
    <linearGradient id="linear-gradient-18" x1="0.847" y1="0.848" x2="0.171" y2="0.17" xlink:href="#linear-gradient"/>
    <linearGradient id="linear-gradient-19" x1="0.847" y1="0.848" x2="0.172" y2="0.171" xlink:href="#linear-gradient"/>
    <linearGradient id="linear-gradient-20" x1="0.848" y1="0.849" x2="0.174" y2="0.173" xlink:href="#linear-gradient"/>
    <linearGradient id="linear-gradient-21" x1="0.848" y1="0.849" x2="0.175" y2="0.174" xlink:href="#linear-gradient"/>
    <linearGradient id="linear-gradient-22" x1="0.848" y1="0.849" x2="0.177" y2="0.176" xlink:href="#linear-gradient"/>
    <linearGradient id="linear-gradient-23" x1="0.848" y1="0.849" x2="0.178" y2="0.177" xlink:href="#linear-gradient"/>
    <linearGradient id="linear-gradient-24" x1="0.849" y1="0.85" x2="0.179" y2="0.178" xlink:href="#linear-gradient"/>
    <linearGradient id="linear-gradient-25" x1="0.849" y1="0.85" x2="0.181" y2="0.18" xlink:href="#linear-gradient"/>
    <linearGradient id="linear-gradient-26" x1="0.849" y1="0.85" x2="0.182" y2="0.181" xlink:href="#linear-gradient"/>
    <linearGradient id="linear-gradient-27" x1="0.849" y1="0.85" x2="0.184" y2="0.183" xlink:href="#linear-gradient"/>
    <linearGradient id="linear-gradient-28" x1="302.222" y1="-58.677" x2="301.556" y2="-59.344" xlink:href="#linear-gradient"/>
    <linearGradient id="linear-gradient-29" x1="305.342" y1="-59.292" x2="304.676" y2="-59.96" xlink:href="#linear-gradient"/>
    <linearGradient id="linear-gradient-30" x1="308.527" y1="-59.924" x2="307.862" y2="-60.591" xlink:href="#linear-gradient"/>
    <linearGradient id="linear-gradient-31" x1="311.786" y1="-60.565" x2="311.12" y2="-61.233" xlink:href="#linear-gradient"/>
    <linearGradient id="linear-gradient-32" x1="315.108" y1="-61.222" x2="314.442" y2="-61.89" xlink:href="#linear-gradient"/>
    <linearGradient id="linear-gradient-33" x1="318.502" y1="-61.893" x2="317.837" y2="-62.561" xlink:href="#linear-gradient"/>
    <linearGradient id="linear-gradient-34" x1="321.977" y1="-62.578" x2="321.311" y2="-63.246" xlink:href="#linear-gradient"/>
    <linearGradient id="linear-gradient-35" x1="325.522" y1="-63.28" x2="324.857" y2="-63.948" xlink:href="#linear-gradient"/>
    <linearGradient id="linear-gradient-36" x1="329.146" y1="-63.995" x2="328.48" y2="-64.663" xlink:href="#linear-gradient"/>
    <linearGradient id="linear-gradient-37" x1="332.858" y1="-64.728" x2="332.193" y2="-65.396" xlink:href="#linear-gradient"/>
    <linearGradient id="linear-gradient-38" x1="336.65" y1="-65.478" x2="335.984" y2="-66.145" xlink:href="#linear-gradient"/>
    <linearGradient id="linear-gradient-39" x1="340.535" y1="-66.243" x2="339.869" y2="-66.911" xlink:href="#linear-gradient"/>
    <linearGradient id="linear-gradient-40" x1="344.503" y1="-67.029" x2="343.838" y2="-67.697" xlink:href="#linear-gradient"/>
    <linearGradient id="linear-gradient-41" x1="348.567" y1="-67.831" x2="347.901" y2="-68.499" xlink:href="#linear-gradient"/>
    <linearGradient id="linear-gradient-42" x1="352.726" y1="-68.654" x2="352.061" y2="-69.321" xlink:href="#linear-gradient"/>
    <linearGradient id="linear-gradient-43" x1="356.996" y1="-69.496" x2="356.33" y2="-70.164" xlink:href="#linear-gradient"/>
    <linearGradient id="linear-gradient-44" x1="361.361" y1="-70.358" x2="360.695" y2="-71.025" xlink:href="#linear-gradient"/>
    <linearGradient id="linear-gradient-45" x1="365.843" y1="-71.244" x2="365.177" y2="-71.912" xlink:href="#linear-gradient"/>
    <linearGradient id="linear-gradient-46" x1="370.43" y1="-72.149" x2="369.764" y2="-72.817" xlink:href="#linear-gradient"/>
    <linearGradient id="linear-gradient-47" x1="375.133" y1="-73.077" x2="374.467" y2="-73.745" xlink:href="#linear-gradient"/>
    <linearGradient id="linear-gradient-48" x1="379.957" y1="-74.033" x2="379.291" y2="-74.701" xlink:href="#linear-gradient"/>
    <linearGradient id="linear-gradient-49" x1="384.917" y1="-75.01" x2="384.251" y2="-75.678" xlink:href="#linear-gradient"/>
    <linearGradient id="linear-gradient-50" x1="0.19" y1="0.189" x2="0.953" y2="0.954" gradientUnits="objectBoundingBox">
      <stop offset="0" stop-color="#009790"/>
      <stop offset="0.24" stop-color="#009891"/>
      <stop offset="0.35" stop-color="#009891"/>
      <stop offset="0.57" stop-color="#00787e"/>
      <stop offset="0.88" stop-color="#122559"/>
      <stop offset="1" stop-color="#13245a"/>
    </linearGradient>
  </defs>
  <g id="add_product" data-name="add product" transform="translate(-1493.891 -978.452)">
    <g id="Group_1801" data-name="Group 1801">
      <g id="Group_1800" data-name="Group 1800">
        <g id="Group_1797" data-name="Group 1797">
          <path id="Path_6395" data-name="Path 6395" d="M1547.461,1005.155a26.785,26.785,0,1,1-26.785-26.7A26.745,26.745,0,0,1,1547.461,1005.155Z" fill="url(#linear-gradient)"/>
          <path id="Path_6396" data-name="Path 6396" d="M1547.192,1005.155a26.516,26.516,0,1,1-26.516-26.435A26.476,26.476,0,0,1,1547.192,1005.155Z" fill="url(#linear-gradient-2)"/>
          <path id="Path_6397" data-name="Path 6397" d="M1546.923,1005.155a26.247,26.247,0,1,1-26.247-26.167A26.208,26.208,0,0,1,1546.923,1005.155Z" fill="url(#linear-gradient-3)"/>
          <path id="Path_6398" data-name="Path 6398" d="M1546.654,1005.155a25.978,25.978,0,1,1-25.978-25.9A25.938,25.938,0,0,1,1546.654,1005.155Z" fill="url(#linear-gradient-4)"/>
          <path id="Path_6399" data-name="Path 6399" d="M1546.385,1005.155a25.709,25.709,0,1,1-25.709-25.631A25.67,25.67,0,0,1,1546.385,1005.155Z" fill="url(#linear-gradient-5)"/>
          <path id="Path_6400" data-name="Path 6400" d="M1546.116,1005.155a25.44,25.44,0,1,1-25.44-25.363A25.4,25.4,0,0,1,1546.116,1005.155Z" fill="url(#linear-gradient-6)"/>
          <path id="Path_6401" data-name="Path 6401" d="M1545.847,1005.155a25.171,25.171,0,1,1-25.171-25.1A25.133,25.133,0,0,1,1545.847,1005.155Z" fill="url(#linear-gradient-7)"/>
          <path id="Path_6402" data-name="Path 6402" d="M1545.578,1005.155a24.9,24.9,0,1,1-24.9-24.826A24.864,24.864,0,0,1,1545.578,1005.155Z" fill="url(#linear-gradient-8)"/>
          <path id="Path_6403" data-name="Path 6403" d="M1545.309,1005.155a24.634,24.634,0,1,1-24.633-24.558A24.6,24.6,0,0,1,1545.309,1005.155Z" fill="url(#linear-gradient-9)"/>
          <path id="Path_6404" data-name="Path 6404" d="M1545.04,1005.155a24.365,24.365,0,1,1-24.364-24.29A24.327,24.327,0,0,1,1545.04,1005.155Z" fill="url(#linear-gradient-10)"/>
          <path id="Path_6405" data-name="Path 6405" d="M1544.771,1005.155a24.1,24.1,0,1,1-24.095-24.022A24.059,24.059,0,0,1,1544.771,1005.155Z" fill="url(#linear-gradient-11)"/>
          <path id="Path_6406" data-name="Path 6406" d="M1544.5,1005.155a23.827,23.827,0,1,1-23.826-23.754A23.791,23.791,0,0,1,1544.5,1005.155Z" fill="url(#linear-gradient-12)"/>
          <path id="Path_6407" data-name="Path 6407" d="M1544.233,1005.155a23.558,23.558,0,1,1-23.557-23.486A23.521,23.521,0,0,1,1544.233,1005.155Z" fill="url(#linear-gradient-13)"/>
          <path id="Path_6408" data-name="Path 6408" d="M1543.964,1005.155a23.289,23.289,0,1,1-23.288-23.218A23.253,23.253,0,0,1,1543.964,1005.155Z" fill="url(#linear-gradient-14)"/>
          <path id="Path_6409" data-name="Path 6409" d="M1543.695,1005.155a23.02,23.02,0,1,1-23.019-22.95A22.984,22.984,0,0,1,1543.695,1005.155Z" fill="url(#linear-gradient-15)"/>
          <path id="Path_6410" data-name="Path 6410" d="M1543.426,1005.155a22.751,22.751,0,1,1-22.75-22.682A22.716,22.716,0,0,1,1543.426,1005.155Z" fill="url(#linear-gradient-16)"/>
          <path id="Path_6411" data-name="Path 6411" d="M1543.157,1005.155a22.482,22.482,0,1,1-22.481-22.413A22.447,22.447,0,0,1,1543.157,1005.155Z" fill="url(#linear-gradient-17)"/>
          <path id="Path_6412" data-name="Path 6412" d="M1542.888,1005.155a22.213,22.213,0,1,1-22.212-22.145A22.179,22.179,0,0,1,1542.888,1005.155Z" fill="url(#linear-gradient-18)"/>
          <path id="Path_6413" data-name="Path 6413" d="M1542.62,1005.155a21.944,21.944,0,1,1-21.944-21.877A21.911,21.911,0,0,1,1542.62,1005.155Z" fill="url(#linear-gradient-19)"/>
          <path id="Path_6414" data-name="Path 6414" d="M1542.351,1005.155a21.675,21.675,0,1,1-21.675-21.609A21.643,21.643,0,0,1,1542.351,1005.155Z" fill="url(#linear-gradient-20)"/>
          <path id="Path_6415" data-name="Path 6415" d="M1542.082,1005.155a21.406,21.406,0,1,1-21.406-21.341A21.374,21.374,0,0,1,1542.082,1005.155Z" fill="url(#linear-gradient-21)"/>
          <path id="Path_6416" data-name="Path 6416" d="M1541.813,1005.155a21.137,21.137,0,1,1-21.137-21.073A21.1,21.1,0,0,1,1541.813,1005.155Z" fill="url(#linear-gradient-22)"/>
          <path id="Path_6417" data-name="Path 6417" d="M1541.544,1005.155a20.868,20.868,0,1,1-20.868-20.805A20.836,20.836,0,0,1,1541.544,1005.155Z" fill="url(#linear-gradient-23)"/>
          <path id="Path_6418" data-name="Path 6418" d="M1541.275,1005.155a20.6,20.6,0,1,1-20.6-20.537A20.568,20.568,0,0,1,1541.275,1005.155Z" fill="url(#linear-gradient-24)"/>
          <path id="Path_6419" data-name="Path 6419" d="M1541.006,1005.155a20.33,20.33,0,1,1-20.33-20.269A20.3,20.3,0,0,1,1541.006,1005.155Z" fill="url(#linear-gradient-25)"/>
          <path id="Path_6420" data-name="Path 6420" d="M1540.737,1005.155a20.062,20.062,0,1,1-20.061-20A20.031,20.031,0,0,1,1540.737,1005.155Z" fill="url(#linear-gradient-26)"/>
          <path id="Path_6421" data-name="Path 6421" d="M1540.468,1005.155a19.793,19.793,0,1,1-19.792-19.732A19.762,19.762,0,0,1,1540.468,1005.155Z" fill="url(#linear-gradient-27)"/>
        </g>
        <g id="Group_1798" data-name="Group 1798">
          <path id="Path_6422" data-name="Path 6422" d="M1495.691,1005.155a24.985,24.985,0,1,1,24.985,24.908A24.947,24.947,0,0,1,1495.691,1005.155Z" opacity="0" fill="url(#linear-gradient-28)"/>
          <path id="Path_6423" data-name="Path 6423" d="M1495.947,1005.155a24.729,24.729,0,1,1,24.729,24.653A24.691,24.691,0,0,1,1495.947,1005.155Z" opacity="0.048" fill="url(#linear-gradient-29)"/>
          <path id="Path_6424" data-name="Path 6424" d="M1496.2,1005.155a24.473,24.473,0,1,1,24.473,24.4A24.435,24.435,0,0,1,1496.2,1005.155Z" opacity="0.095" fill="url(#linear-gradient-30)"/>
          <path id="Path_6425" data-name="Path 6425" d="M1496.46,1005.155a24.216,24.216,0,1,1,24.216,24.142A24.179,24.179,0,0,1,1496.46,1005.155Z" opacity="0.143" fill="url(#linear-gradient-31)"/>
          <path id="Path_6426" data-name="Path 6426" d="M1496.716,1005.155a23.96,23.96,0,1,1,23.96,23.887A23.923,23.923,0,0,1,1496.716,1005.155Z" opacity="0.19" fill="url(#linear-gradient-32)"/>
          <path id="Path_6427" data-name="Path 6427" d="M1496.972,1005.155a23.7,23.7,0,1,1,23.7,23.631A23.667,23.667,0,0,1,1496.972,1005.155Z" opacity="0.238" fill="url(#linear-gradient-33)"/>
          <path id="Path_6428" data-name="Path 6428" d="M1497.228,1005.155a23.448,23.448,0,1,1,23.448,23.376A23.412,23.412,0,0,1,1497.228,1005.155Z" opacity="0.286" fill="url(#linear-gradient-34)"/>
          <path id="Path_6429" data-name="Path 6429" d="M1497.484,1005.155a23.192,23.192,0,1,1,23.192,23.12A23.157,23.157,0,0,1,1497.484,1005.155Z" opacity="0.333" fill="url(#linear-gradient-35)"/>
          <path id="Path_6430" data-name="Path 6430" d="M1497.74,1005.155a22.936,22.936,0,1,1,22.936,22.865A22.9,22.9,0,0,1,1497.74,1005.155Z" opacity="0.381" fill="url(#linear-gradient-36)"/>
          <path id="Path_6431" data-name="Path 6431" d="M1498,1005.155a22.679,22.679,0,1,1,22.679,22.61A22.644,22.644,0,0,1,1498,1005.155Z" opacity="0.429" fill="url(#linear-gradient-37)"/>
          <path id="Path_6432" data-name="Path 6432" d="M1498.253,1005.155a22.423,22.423,0,1,1,22.423,22.354A22.389,22.389,0,0,1,1498.253,1005.155Z" opacity="0.476" fill="url(#linear-gradient-38)"/>
          <path id="Path_6433" data-name="Path 6433" d="M1498.509,1005.155a22.167,22.167,0,1,1,22.167,22.1A22.134,22.134,0,0,1,1498.509,1005.155Z" opacity="0.524" fill="url(#linear-gradient-39)"/>
          <path id="Path_6434" data-name="Path 6434" d="M1498.765,1005.155A21.911,21.911,0,1,1,1520.676,1027,21.878,21.878,0,0,1,1498.765,1005.155Z" opacity="0.571" fill="url(#linear-gradient-40)"/>
          <path id="Path_6435" data-name="Path 6435" d="M1499.021,1005.155a21.655,21.655,0,1,1,21.655,21.588A21.622,21.622,0,0,1,1499.021,1005.155Z" opacity="0.619" fill="url(#linear-gradient-41)"/>
          <path id="Path_6436" data-name="Path 6436" d="M1499.277,1005.155a21.4,21.4,0,1,1,21.4,21.333A21.366,21.366,0,0,1,1499.277,1005.155Z" opacity="0.667" fill="url(#linear-gradient-42)"/>
          <path id="Path_6437" data-name="Path 6437" d="M1499.534,1005.155a21.142,21.142,0,1,1,21.142,21.077A21.11,21.11,0,0,1,1499.534,1005.155Z" opacity="0.714" fill="url(#linear-gradient-43)"/>
          <path id="Path_6438" data-name="Path 6438" d="M1499.79,1005.155a20.886,20.886,0,1,1,20.886,20.822A20.855,20.855,0,0,1,1499.79,1005.155Z" opacity="0.762" fill="url(#linear-gradient-44)"/>
          <path id="Path_6439" data-name="Path 6439" d="M1500.046,1005.155a20.63,20.63,0,1,1,20.63,20.566A20.6,20.6,0,0,1,1500.046,1005.155Z" opacity="0.81" fill="url(#linear-gradient-45)"/>
          <path id="Path_6440" data-name="Path 6440" d="M1500.3,1005.155a20.374,20.374,0,1,1,20.374,20.311A20.343,20.343,0,0,1,1500.3,1005.155Z" opacity="0.857" fill="url(#linear-gradient-46)"/>
          <path id="Path_6441" data-name="Path 6441" d="M1500.558,1005.155a20.118,20.118,0,1,1,20.118,20.056A20.088,20.088,0,0,1,1500.558,1005.155Z" opacity="0.905" fill="url(#linear-gradient-47)"/>
          <path id="Path_6442" data-name="Path 6442" d="M1500.814,1005.155a19.862,19.862,0,1,1,19.862,19.8A19.831,19.831,0,0,1,1500.814,1005.155Z" opacity="0.952" fill="url(#linear-gradient-48)"/>
          <path id="Path_6443" data-name="Path 6443" d="M1501.071,1005.155a19.605,19.605,0,1,1,19.6,19.545A19.575,19.575,0,0,1,1501.071,1005.155Z" fill="url(#linear-gradient-49)"/>
        </g>
        <g id="Group_1799" data-name="Group 1799">
          <path id="Path_6444" data-name="Path 6444" d="M1542.148,1005.155c0,.346-.008.692-.032,1.038a21.272,21.272,0,1,1,.032-1.038Z" fill="url(#linear-gradient-50)"/>
        </g>
      </g>
    </g>
    <path id="Path_6445" data-name="Path 6445" d="M1532.692,1002.245h-9.078V993.2a2.312,2.312,0,0,0-4.623,0v9.049h-9.077a2.305,2.305,0,1,0,0,4.61h9.077v9.049a2.312,2.312,0,0,0,4.623,0v-9.049h9.078a2.3,2.3,0,1,0,0-4.61Z" fill="#fff"/>
  </g>
</svg>
