<svg xmlns="http://www.w3.org/2000/svg" width="21.82" height="27.566" viewBox="0 0 21.82 27.566">
  <path id="address" d="M35.786,1267.344h-.215c-.036-.135-.153-.2-.251-.27a36.087,36.087,0,0,1-5.078-4.6,23.206,23.206,0,0,1-4.176-6.3,13.025,13.025,0,0,1-1.271-6.237,10.933,10.933,0,0,1,9.223-10.035c.113-.019.238-.011.314-.124h2.692c.084.121.22.108.341.128a10.928,10.928,0,0,1,9.04,12.682,18.244,18.244,0,0,1-3.445,7.608,32.772,32.772,0,0,1-6.858,6.83C35.983,1267.116,35.836,1267.183,35.786,1267.344Zm.428-17.713q0-2.867,0-5.733c0-.371-.038-.414-.393-.413-1.839,0-3.678,0-5.517.01a3.059,3.059,0,0,0-2.41,1.229,3.691,3.691,0,0,0-.716,2.455q0,3.93,0,7.859c0,.847-.086.777.785.776.35,0,.374-.029.388-.386a2.131,2.131,0,0,1,1.059-1.8,2.261,2.261,0,0,1,3.455,1.79c.037.386.047.4.439.4q1.226,0,2.449,0c.441,0,.46-.019.46-.452Q36.215,1252.5,36.214,1249.631ZM37.4,1250.7v4.439c0,.716,0,.712.721.676.2-.01.278-.095.306-.29a2.374,2.374,0,0,1,4.7-.064c.047.268.154.383.42.354a1.96,1.96,0,0,1,.216,0c.381,0,.411-.031.411-.419,0-1.085.026-2.171-.007-3.255a8.163,8.163,0,0,0-.641-3.091,5.3,5.3,0,0,0-3.783-3.292,8.117,8.117,0,0,0-1.9-.177c-.42,0-.448.027-.448.438Q37.4,1248.365,37.4,1250.7Zm-5.656,5.108a1.2,1.2,0,1,0-1.206,1.19A1.212,1.212,0,0,0,31.745,1255.813Zm7.91-.079a1.189,1.189,0,0,0,2.378.056,1.209,1.209,0,0,0-1.178-1.242A1.2,1.2,0,0,0,39.655,1255.734Z" transform="translate(-24.765 -1239.778)" fill="#241f20"/>
</svg>
