<svg xmlns="http://www.w3.org/2000/svg" width="20.494" height="18.606" viewBox="0 0 20.494 18.606">
  <g id="best_rate" transform="translate(-2026.284 -1268.889)">
    <g id="Group_4217" data-name="Group 4217">
      <g id="Group_4214" data-name="Group 4214">
        <path id="Path_11184" data-name="Path 11184" d="M2036.825,1269.064l2.912,5.623a.33.33,0,0,0,.248.171l6.511.9a.309.309,0,0,1,.182.534l-4.712,4.377a.307.307,0,0,0-.094.278l1.112,6.18a.326.326,0,0,1-.477.33l-5.824-2.917a.343.343,0,0,0-.306,0l-5.823,2.917a.326.326,0,0,1-.477-.33l1.112-6.18a.3.3,0,0,0-.095-.278l-4.711-4.377a.309.309,0,0,1,.182-.534l6.511-.9a.33.33,0,0,0,.248-.171l2.912-5.623A.336.336,0,0,1,2036.825,1269.064Z" fill="#fff"/>
      </g>
      <g id="Group_4215" data-name="Group 4215">
        <path id="Path_11185" data-name="Path 11185" d="M2036.53,1270.363l-2.594,4.79a.87.87,0,0,1-.693.444l-5.634.49,5.952.266a.872.872,0,0,0,.856-.54Z" fill="#fb8d9a"/>
      </g>
      <g id="Group_4216" data-name="Group 4216">
        <path id="Path_11186" data-name="Path 11186" d="M2030.2,1286.418l-.128.711a.326.326,0,0,0,.477.33l5.823-2.917a.343.343,0,0,1,.306,0l5.824,2.917a.326.326,0,0,0,.477-.33l-1.112-6.18a.307.307,0,0,1,.094-.278l4.712-4.377a.309.309,0,0,0-.182-.534l-2.181-.3C2040.788,1281.491,2035.387,1284.667,2030.2,1286.418Z" fill="#fff"/>
      </g>
    </g>
  </g>
</svg>
