<svg xmlns="http://www.w3.org/2000/svg" width="34.092" height="33.991" viewBox="0 0 34.092 33.991">
  <g id="chart" transform="translate(-4854.076 -22.718)">
    <path id="Path_6910" data-name="Path 6910" d="M4873.655,42.271c-3.35,0-6.7.006-10.049-.01a.464.464,0,0,0-.548.4c-.4,1.323-.841,2.637-1.262,3.956-.165.519-.133.56.416.56l19.4,0c.741,0,1.178.333,1.241.928a1,1,0,0,1-.811,1.134,2.412,2.412,0,0,1-.51.04q-9.7,0-19.4,0a2.329,2.329,0,0,1-2.359-3.218c.429-1.349.834-2.706,1.308-4.039a3.9,3.9,0,0,0,.154-1.916c-.389-2.8-.74-5.606-1.123-8.407-.2-1.462-.442-2.917-.656-4.377a.688.688,0,0,0-.469-.567c-1.343-.618-2.676-1.257-4.012-1.89a3.938,3.938,0,0,1-.375-.188,1.043,1.043,0,0,1-.426-1.34,1,1,0,0,1,1.293-.537c1.81.861,3.6,1.764,5.4,2.646a1.537,1.537,0,0,0,.435.137q7.356,1.169,14.711,2.331c3.367.533,6.735,1.059,10.1,1.6a2.3,2.3,0,0,1,1.959,3.016q-1.036,4-2.1,7.989a2.362,2.362,0,0,1-2.642,1.982c-3.226-.009-6.451,0-9.676,0Zm-11.878-14.482c0,.139-.007.2,0,.261q.281,2.148.563,4.3.48,3.694.953,7.392c.041.319.177.433.515.434,1.915.009,3.831.047,5.746.073q6.891.092,13.782.185c.313.005.519-.039.611-.4q1.022-3.975,2.085-7.939c.1-.364-.023-.48-.35-.531q-3.918-.612-7.837-1.233l-12.722-2.013C4864.021,28.14,4862.918,27.968,4861.777,27.789Z" fill="#fff"/>
    <path id="Path_6911" data-name="Path 6911" d="M4860.535,56.709a2.937,2.937,0,0,1-3.02-3,3.022,3.022,0,0,1,3.04-3.011,2.94,2.94,0,0,1,3,3.021A3.014,3.014,0,0,1,4860.535,56.709Zm-.006-4.336a1.351,1.351,0,0,0-1.345,1.331,1.268,1.268,0,0,0,1.354,1.336,1.351,1.351,0,0,0,1.345-1.331A1.266,1.266,0,0,0,4860.529,52.373Z" fill="#fff"/>
    <path id="Path_6912" data-name="Path 6912" d="M4880.3,56.708a2.932,2.932,0,0,1-2.97-3.044,3.017,3.017,0,0,1,3.087-2.96,2.943,2.943,0,0,1,2.946,3.068A3.015,3.015,0,0,1,4880.3,56.708Zm.05-1.669a1.356,1.356,0,0,0,1.347-1.332,1.269,1.269,0,0,0-1.355-1.334A1.348,1.348,0,0,0,4879,53.7,1.265,1.265,0,0,0,4880.353,55.039Z" fill="#fff"/>
  </g>
</svg>
