<svg height="59.038" viewBox="0 0 59.219 59.038" width="59.219" xmlns="http://www.w3.org/2000/svg" xmlns:xlink="http://www.w3.org/1999/xlink"><linearGradient id="a" gradientUnits="objectBoundingBox" x1=".843" x2=".147" y1=".844" y2=".146"><stop offset="0" stop-color="#fff"/><stop offset="1" stop-color="#cbceda"/></linearGradient><linearGradient id="b" x1=".843" x2=".149" xlink:href="#a" y1=".844" y2=".148"/><linearGradient id="c" x1=".844" x2=".15" xlink:href="#a" y1=".845" y2=".149"/><linearGradient id="d" x1=".844" x2=".151" xlink:href="#a" y1=".845" y2=".15"/><linearGradient id="e" x1=".844" x2=".153" xlink:href="#a" y1=".845" y2=".152"/><linearGradient id="f" x1=".844" x2=".154" xlink:href="#a" y1=".845" y2=".153"/><linearGradient id="g" x1=".845" x2=".156" xlink:href="#a" y1=".846" y2=".155"/><linearGradient id="h" x1=".845" x2=".157" xlink:href="#a" y1=".846" y2=".156"/><linearGradient id="i" x1=".845" x2=".158" xlink:href="#a" y1=".846" y2=".157"/><linearGradient id="j" x1=".845" x2=".16" xlink:href="#a" y1=".846" y2=".159"/><linearGradient id="k" x1=".845" x2=".161" xlink:href="#a" y1=".847" y2=".16"/><linearGradient id="l" x1=".846" x2=".163" xlink:href="#a" y1=".847" y2=".162"/><linearGradient id="m" x1=".846" x2=".164" xlink:href="#a" y1=".847" y2=".163"/><linearGradient id="n" x1=".846" x2=".165" xlink:href="#a" y1=".847" y2=".164"/><linearGradient id="o" x1=".846" x2=".167" xlink:href="#a" y1=".848" y2=".166"/><linearGradient id="p" x1=".847" x2=".168" xlink:href="#a" y1=".848" y2=".167"/><linearGradient id="q" x1=".847" x2=".17" xlink:href="#a" y1=".848" y2=".169"/><linearGradient id="r" x1=".847" x2=".171" xlink:href="#a" y1=".848" y2=".17"/><linearGradient id="s" x1=".847" x2=".172" xlink:href="#a" y1=".848" y2=".171"/><linearGradient id="t" x1=".848" x2=".174" xlink:href="#a" y1=".849" y2=".173"/><linearGradient id="u" x1=".848" x2=".175" xlink:href="#a" y1=".849" y2=".174"/><linearGradient id="v" x1=".848" x2=".177" xlink:href="#a" y1=".849" y2=".176"/><linearGradient id="w" x1=".848" x2=".178" xlink:href="#a" y1=".849" y2=".177"/><linearGradient id="x" x1=".849" x2=".179" xlink:href="#a" y1=".85" y2=".178"/><linearGradient id="y" x1=".849" x2=".181" xlink:href="#a" y1=".85" y2=".18"/><linearGradient id="z" x1=".849" x2=".182" xlink:href="#a" y1=".85" y2=".181"/><linearGradient id="A" x1=".849" x2=".184" xlink:href="#a" y1=".85" y2=".183"/><linearGradient id="B" x1="74.396" x2="73.731" xlink:href="#a" y1="-20.846" y2="-21.513"/><linearGradient id="C" x1="75.158" x2="74.493" xlink:href="#a" y1="-21.071" y2="-21.739"/><linearGradient id="D" x1="75.937" x2="75.271" xlink:href="#a" y1="-21.3" y2="-21.968"/><linearGradient id="E" x1="76.73" x2="76.065" xlink:href="#a" y1="-21.534" y2="-22.202"/><linearGradient id="F" x1="77.542" x2="76.876" xlink:href="#a" y1="-21.774" y2="-22.442"/><linearGradient id="G" x1="78.371" x2="77.705" xlink:href="#a" y1="-22.018" y2="-22.686"/><linearGradient id="H" x1="79.218" x2="78.552" xlink:href="#a" y1="-22.268" y2="-22.936"/><linearGradient id="I" x1="80.084" x2="79.418" xlink:href="#a" y1="-22.523" y2="-23.191"/><linearGradient id="J" x1="80.968" x2="80.303" xlink:href="#a" y1="-22.785" y2="-23.452"/><linearGradient id="K" x1="81.873" x2="81.207" xlink:href="#a" y1="-23.051" y2="-23.719"/><linearGradient id="L" x1="82.799" x2="82.134" xlink:href="#a" y1="-23.324" y2="-23.992"/><linearGradient id="M" x1="83.746" x2="83.081" xlink:href="#a" y1="-23.604" y2="-24.272"/><linearGradient id="N" x1="84.716" x2="84.05" xlink:href="#a" y1="-23.89" y2="-24.557"/><linearGradient id="O" x1="85.708" x2="85.042" xlink:href="#a" y1="-24.182" y2="-24.85"/><linearGradient id="P" x1="86.723" x2="86.057" xlink:href="#a" y1="-24.482" y2="-25.15"/><linearGradient id="Q" x1="87.764" x2="87.099" xlink:href="#a" y1="-24.789" y2="-25.457"/><linearGradient id="R" x1="88.83" x2="88.165" xlink:href="#a" y1="-25.103" y2="-25.771"/><linearGradient id="S" x1="89.923" x2="89.257" xlink:href="#a" y1="-25.426" y2="-26.094"/><linearGradient id="T" x1="91.043" x2="90.377" xlink:href="#a" y1="-25.756" y2="-26.424"/><linearGradient id="U" x1="92.191" x2="91.525" xlink:href="#a" y1="-26.095" y2="-26.762"/><linearGradient id="V" x1="93.368" x2="92.702" xlink:href="#a" y1="-26.443" y2="-27.111"/><linearGradient id="W" x1="94.579" x2="93.913" xlink:href="#a" y1="-26.799" y2="-27.467"/><linearGradient id="X" gradientUnits="objectBoundingBox" x1=".19" x2=".953" y1=".189" y2=".954"><stop offset="0" stop-color="#009790"/><stop offset=".24" stop-color="#009891"/><stop offset=".35" stop-color="#009891"/><stop offset=".57" stop-color="#00787e"/><stop offset=".88" stop-color="#122559"/><stop offset="1" stop-color="#13245a"/></linearGradient><linearGradient id="Y" x1="0" x2="1" xlink:href="#a" y1=".5" y2=".5"/><g transform="translate(-6989.367 -90.315)"><g><path d="m7048.586 119.834a29.61 29.61 0 1 1 -29.609-29.519 29.564 29.564 0 0 1 29.609 29.519z" fill="url(#a)"/><path d="m7048.289 119.834a29.312 29.312 0 1 1 -29.312-29.223 29.267 29.267 0 0 1 29.312 29.223z" fill="url(#b)"/><path d="m7047.992 119.834a29.015 29.015 0 1 1 -29.015-28.927 28.971 28.971 0 0 1 29.015 28.927z" fill="url(#c)"/><path d="m7047.694 119.834a28.718 28.718 0 1 1 -28.717-28.63 28.674 28.674 0 0 1 28.717 28.63z" fill="url(#d)"/><path d="m7047.4 119.834a28.42 28.42 0 1 1 -28.42-28.334 28.377 28.377 0 0 1 28.42 28.334z" fill="url(#e)"/><path d="m7047.1 119.834a28.123 28.123 0 1 1 -28.123-28.034 28.081 28.081 0 0 1 28.123 28.034z" fill="url(#f)"/><path d="m7046.8 119.834a27.826 27.826 0 1 1 -27.825-27.741 27.783 27.783 0 0 1 27.825 27.741z" fill="url(#g)"/><path d="m7046.5 119.834a27.528 27.528 0 1 1 -27.528-27.445 27.486 27.486 0 0 1 27.528 27.445z" fill="url(#h)"/><path d="m7046.208 119.834a27.231 27.231 0 1 1 -27.231-27.148 27.19 27.19 0 0 1 27.231 27.148z" fill="url(#i)"/><path d="m7045.911 119.834a26.934 26.934 0 1 1 -26.934-26.852 26.893 26.893 0 0 1 26.934 26.852z" fill="url(#j)"/><path d="m7045.613 119.834a26.637 26.637 0 1 1 -26.636-26.555 26.6 26.6 0 0 1 26.636 26.555z" fill="url(#k)"/><path d="m7045.316 119.834a26.339 26.339 0 1 1 -26.339-26.259 26.3 26.3 0 0 1 26.339 26.259z" fill="url(#l)"/><path d="m7045.019 119.834a26.042 26.042 0 1 1 -26.042-25.963 26 26 0 0 1 26.042 25.963z" fill="url(#m)"/><path d="m7044.721 119.834a25.745 25.745 0 1 1 -25.744-25.666 25.706 25.706 0 0 1 25.744 25.666z" fill="url(#n)"/><path d="m7044.424 119.834a25.447 25.447 0 1 1 -25.447-25.37 25.408 25.408 0 0 1 25.447 25.37z" fill="url(#o)"/><path d="m7044.127 119.834a25.15 25.15 0 1 1 -25.15-25.074 25.112 25.112 0 0 1 25.15 25.074z" fill="url(#p)"/><path d="m7043.829 119.834a24.853 24.853 0 1 1 -24.852-24.777 24.815 24.815 0 0 1 24.852 24.777z" fill="url(#q)"/><path d="m7043.532 119.834a24.555 24.555 0 1 1 -24.555-24.481 24.518 24.518 0 0 1 24.555 24.481z" fill="url(#r)"/><path d="m7043.235 119.834a24.258 24.258 0 1 1 -24.258-24.184 24.221 24.221 0 0 1 24.258 24.184z" fill="url(#s)"/><path d="m7042.937 119.834a23.961 23.961 0 1 1 -23.96-23.888 23.924 23.924 0 0 1 23.96 23.888z" fill="url(#t)"/><path d="m7042.64 119.834a23.664 23.664 0 1 1 -23.663-23.592 23.627 23.627 0 0 1 23.663 23.592z" fill="url(#u)"/><path d="m7042.343 119.834a23.366 23.366 0 1 1 -23.366-23.295 23.331 23.331 0 0 1 23.366 23.295z" fill="url(#v)"/><path d="m7042.046 119.834a23.069 23.069 0 1 1 -23.069-23 23.034 23.034 0 0 1 23.069 23z" fill="url(#w)"/><path d="m7041.748 119.834a22.772 22.772 0 1 1 -22.771-22.7 22.737 22.737 0 0 1 22.771 22.7z" fill="url(#x)"/><path d="m7041.451 119.834a22.474 22.474 0 1 1 -22.474-22.406 22.44 22.44 0 0 1 22.474 22.406z" fill="url(#y)"/><path d="m7041.154 119.834a22.177 22.177 0 1 1 -22.177-22.11 22.143 22.143 0 0 1 22.177 22.11z" fill="url(#z)"/><path d="m7040.856 119.834a21.879 21.879 0 1 1 -21.879-21.813 21.846 21.846 0 0 1 21.879 21.813z" fill="url(#A)"/></g><g><path d="m6991.357 119.834a27.62 27.62 0 1 1 27.62 27.535 27.578 27.578 0 0 1 -27.62-27.535z" fill="url(#B)" opacity="0"/><path d="m6991.64 119.834a27.337 27.337 0 1 1 27.337 27.252 27.294 27.294 0 0 1 -27.337-27.252z" fill="url(#C)" opacity=".048"/><path d="m6991.924 119.834a27.053 27.053 0 1 1 27.053 26.97 27.012 27.012 0 0 1 -27.053-26.97z" fill="url(#D)" opacity=".095"/><path d="m6992.207 119.834a26.77 26.77 0 1 1 26.77 26.688 26.729 26.729 0 0 1 -26.77-26.688z" fill="url(#E)" opacity=".143"/><path d="m6992.49 119.834a26.487 26.487 0 1 1 26.487 26.4 26.446 26.446 0 0 1 -26.487-26.4z" fill="url(#F)" opacity=".19"/><path d="m6992.773 119.834a26.2 26.2 0 1 1 26.2 26.123 26.164 26.164 0 0 1 -26.2-26.123z" fill="url(#G)" opacity=".238"/><path d="m6993.056 119.834a25.921 25.921 0 1 1 25.921 25.841 25.882 25.882 0 0 1 -25.921-25.841z" fill="url(#H)" opacity=".286"/><path d="m6993.34 119.834a25.637 25.637 0 1 1 25.637 25.558 25.6 25.6 0 0 1 -25.637-25.558z" fill="url(#I)" opacity=".333"/><path d="m6993.623 119.834a25.354 25.354 0 1 1 25.354 25.276 25.315 25.315 0 0 1 -25.354-25.276z" fill="url(#J)" opacity=".381"/><path d="m6993.906 119.834a25.071 25.071 0 1 1 25.071 24.994 25.033 25.033 0 0 1 -25.071-24.994z" fill="url(#K)" opacity=".429"/><path d="m6994.189 119.834a24.788 24.788 0 1 1 24.788 24.712 24.751 24.751 0 0 1 -24.788-24.712z" fill="url(#L)" opacity=".476"/><path d="m6994.472 119.834a24.5 24.5 0 1 1 24.5 24.429 24.467 24.467 0 0 1 -24.5-24.429z" fill="url(#M)" opacity=".524"/><path d="m6994.756 119.834a24.221 24.221 0 1 1 24.221 24.147 24.184 24.184 0 0 1 -24.221-24.147z" fill="url(#N)" opacity=".571"/><path d="m6995.039 119.834a23.938 23.938 0 1 1 23.938 23.865 23.9 23.9 0 0 1 -23.938-23.865z" fill="url(#O)" opacity=".619"/><path d="m6995.322 119.834a23.655 23.655 0 1 1 23.655 23.582 23.619 23.619 0 0 1 -23.655-23.582z" fill="url(#P)" opacity=".667"/><path d="m6995.6 119.834a23.372 23.372 0 1 1 23.372 23.3 23.336 23.336 0 0 1 -23.372-23.3z" fill="url(#Q)" opacity=".714"/><path d="m6995.888 119.834a23.088 23.088 0 1 1 23.089 23.018 23.054 23.054 0 0 1 -23.089-23.018z" fill="url(#R)" opacity=".762"/><path d="m6996.172 119.834a22.805 22.805 0 1 1 22.805 22.735 22.77 22.77 0 0 1 -22.805-22.735z" fill="url(#S)" opacity=".81"/><path d="m6996.455 119.834a22.522 22.522 0 1 1 22.522 22.453 22.488 22.488 0 0 1 -22.522-22.453z" fill="url(#T)" opacity=".857"/><path d="m6996.738 119.834a22.239 22.239 0 1 1 22.239 22.171 22.205 22.205 0 0 1 -22.239-22.171z" fill="url(#U)" opacity=".905"/><path d="m6997.021 119.834a21.956 21.956 0 1 1 21.956 21.888 21.923 21.923 0 0 1 -21.956-21.888z" fill="url(#V)" opacity=".952"/><path d="m6997.3 119.834a21.672 21.672 0 1 1 21.673 21.606 21.64 21.64 0 0 1 -21.673-21.606z" fill="url(#W)"/></g><path d="m7042.714 119.834c0 .382-.009.765-.036 1.147a23.51 23.51 0 1 1 .036-1.147z" fill="url(#X)"/><g fill="url(#Y)"><path d="m7016.937 127.425-13.434 5.705 6.979-11.41z"/><path d="m7005.832 117.308c0 7.435 6.285 13.461 14.039 13.461s14.038-6.026 14.038-13.461-6.285-13.461-14.038-13.461-14.039 6.027-14.039 13.461zm6.8 3.1h14.483v2.013h-14.483zm0-4.1h14.483v2.012h-14.483zm0-4.1h14.483v2.012h-14.483z"/></g></g></svg>