<svg xmlns="http://www.w3.org/2000/svg" width="16.918" height="13.291" viewBox="0 0 16.918 13.291">
  <g id="contact_us" transform="translate(-2029.102 -1488.727)">
    <path id="Path_11173" data-name="Path 11173" d="M2046.02,1493.031v7.614c-.006.024-.014.047-.018.072a1.515,1.515,0,0,1-1.515,1.3h-13.851a1.5,1.5,0,0,1-1.442-1.02c-.042-.12-.062-.247-.092-.371v-7.595a.28.28,0,0,1,.06.038,6.674,6.674,0,0,0,1.134.924q2.11,1.456,4.215,2.922a15.4,15.4,0,0,0,1.55,1.042,3.332,3.332,0,0,0,1.359.43,3.08,3.08,0,0,0,1.641-.429,13.543,13.543,0,0,0,1.369-.909q2.113-1.476,4.237-2.94a7.559,7.559,0,0,0,1.3-1.045A.232.232,0,0,1,2046.02,1493.031Z" fill="#fff"/>
    <path id="Path_11174" data-name="Path 11174" d="M2029.1,1490.531v-.226c.031-.165.051-.334.1-.495a1.4,1.4,0,0,1,1.415-1.081c.244,0,.488,0,.733,0h9.791c1.119,0,2.237,0,3.355,0a1.513,1.513,0,0,1,1.48,1.161c.017.069.032.139.047.209v.3a.8.8,0,0,0-.018.081,2.529,2.529,0,0,1-.283.9,4.124,4.124,0,0,1-1.331,1.456l-5.154,3.6a5.865,5.865,0,0,1-1.045.609,1.479,1.479,0,0,1-1.169.033,5.674,5.674,0,0,1-1.155-.661q-2.407-1.681-4.814-3.364a5.817,5.817,0,0,1-1.193-1.026,3.365,3.365,0,0,1-.681-1.158C2029.143,1490.759,2029.126,1490.644,2029.1,1490.531Z" fill="#fff"/>
  </g>
</svg>
