<svg xmlns="http://www.w3.org/2000/svg" width="22.226" height="20.926" viewBox="0 0 22.226 20.926">
  <g id="drawer_section" transform="translate(-2025.155 -1103.942)">
    <path id="Path_11180" data-name="Path 11180" d="M2025.155,1104.5a.748.748,0,0,1,1.132-.45c1.009.4,2.016.8,3.029,1.185a.955.955,0,0,1,.615.644c.165.516.359,1.023.524,1.539.054.169.134.212.307.212q7.895-.008,15.789,0c.458,0,.74.181.815.554a.921.921,0,0,1-.03.445q-1.455,4.564-2.925,9.124a.719.719,0,0,1-.788.574q-5.157,0-10.316,0c-.107,0-.214-.017-.347-.029l-.655,1.817h11.157a2.678,2.678,0,0,1,.282.008.594.594,0,0,1,.56.584.6.6,0,0,1-.572.6c-.158.012-.318,0-.478.005-.054,0-.109.006-.2.012a2.131,2.131,0,0,1,.494,1.8,2.064,2.064,0,0,1-.834,1.327,2.1,2.1,0,0,1-2.678-.123,2.062,2.062,0,0,1-.719-1.459,2.154,2.154,0,0,1,.526-1.544h-4.631a2.163,2.163,0,0,1,.469,1.881,2.132,2.132,0,0,1-3.543,1.083c-.81-.723-.871-1.73-.161-2.979-.163,0-.311,0-.458,0a.6.6,0,0,1-.6-.86c.337-.954.676-1.907,1.032-2.854a2.089,2.089,0,0,1,.314-.444l.056.021c-.023-.073-.044-.147-.07-.22q-1.772-5.111-3.54-10.222a.471.471,0,0,0-.311-.317c-.871-.333-1.735-.684-2.607-1.014a.967.967,0,0,1-.642-.591Zm5.879,4.567c.166.481.334.941.482,1.407.049.155.128.191.279.19,1.127-.006,2.255,0,3.383,0,.07,0,.14-.006.215-.01v-1.583Zm10.525,0v1.564c.02.015.026.022.031.023,1.165,0,2.329.008,3.493.007a.169.169,0,0,0,.129-.082c.165-.5.322-1,.486-1.512Zm-4.717,4.856h3.262V1112.1h-3.262Zm-1.45,0V1112.1h-3.306l.63,1.818Zm1.455-4.857v1.585h3.257v-1.585Zm4.71,3.038v1.825h.221c.556,0,1.112,0,1.668,0,.229,0,.513.066.671-.044s.165-.4.234-.609c.124-.383.244-.767.373-1.171Zm-4.713,4.78h3.264v-1.511h-3.264Zm-1.455.02v-1.532h-2.168c.17.5.332.972.5,1.446a.2.2,0,0,0,.153.082C2034.37,1116.9,2034.861,1116.9,2035.389,1116.9Zm8.288-1.53h-2.121v1.527c.529,0,1.046,0,1.563,0a.129.129,0,0,0,.093-.073C2043.369,1116.341,2043.52,1115.862,2043.677,1115.369Zm-2.216,6.413a.947.947,0,1,0,.937.962A.954.954,0,0,0,2041.461,1121.782Zm-6.916.937a.946.946,0,1,0-.944.957A.941.941,0,0,0,2034.545,1122.719Z" fill="#fff"/>
  </g>
</svg>
