<svg xmlns="http://www.w3.org/2000/svg" width="18.925" height="18.924" viewBox="0 0 18.925 18.924">
  <g id="drawer_myStor" transform="translate(-2026.283 -1152.266)">
    <path id="Path_11181" data-name="Path 11181" d="M2031.972,1161.553v-.535h-.829v3.222h2.761v-3.222h-.739v.535Zm.654,2.425a.428.428,0,1,1,.428-.428A.428.428,0,0,1,2032.626,1163.978Z" fill="#fff"/>
    <path id="Path_11182" data-name="Path 11182" d="M2035.746,1152.266a9.462,9.462,0,1,0,9.462,9.462A9.463,9.463,0,0,0,2035.746,1152.266Zm-6.021,7.137,2.633-2.949h.421l-1.737,2.949v.7h.93v-.7l1.755-2.949h.316l-.878,2.879v.765h.878v-.7l.878-2.949h.245v3.644h1.189l-.1-3.644h.386l.7,2.55v1.094h1.088v-.66l-.772-2.984h.456l1.51,2.984v.66h.947v-.66l-1.79-2.984h.457l2.527,2.949v2.15h-.5v3.608h-11.047v-3.608h-.5Zm13.385,7.6h-14.729a1.382,1.382,0,0,1,1.381-1.381h11.967A1.382,1.382,0,0,1,2043.11,1167Z" fill="#fff"/>
    <path id="Path_11183" data-name="Path 11183" d="M2038.431,1161.553v-.535h-1.088v.535h-.948l-.015-.535h-1.214v.535h-.342v2.687h5.523v-3.222h-.724v.535Z" fill="#fff"/>
  </g>
</svg>
