<svg xmlns="http://www.w3.org/2000/svg" width="23.901" height="26.685" viewBox="0 0 23.901 26.685">
  <g id="drawer_nearby" transform="translate(-2025.584 -1201.624)">
    <g id="Group_4209" data-name="Group 4209">
      <path id="Path_11175" data-name="Path 11175" d="M2038.42,1212.52c.392-.018.769-.016,1.141-.057a2.263,2.263,0,0,0-.07-4.489c-.348-.028-.7,0-1.079,0-.006-.132-.01-.231-.016-.33a7.793,7.793,0,0,0-.064-1.05,2.029,2.029,0,0,0-1.643-1.7c-.058-.014-.116-.023-.219-.043.062-.1.1-.188.163-.264a6.968,6.968,0,0,1,5.337-2.939,7.077,7.077,0,0,1,7.314,5.37,5.466,5.466,0,0,1-1.066,5.031,17.749,17.749,0,0,1-1.427,1.62,9.3,9.3,0,0,0-2.53,4.513,56.132,56.132,0,0,0-1.241,6.222c-.128.874-.235,1.75-.345,2.625-.023.181-.067.333-.275.335-.227,0-.258-.174-.286-.355-.308-2.024-.58-4.054-.947-6.068-.221-1.21-.571-2.4-.9-3.586a6.879,6.879,0,0,0-1.781-3.142.443.443,0,0,1-.138-.407C2038.393,1213.382,2038.4,1212.962,2038.42,1212.52Zm8.08-4.433a4.112,4.112,0,0,0-.314-1.7c-.122-.268-.266-.561-.606-.556-.323.005-.482.284-.584.549a4.591,4.591,0,0,0,0,3.409c.1.271.259.56.6.554.329-.005.466-.289.585-.548A4.074,4.074,0,0,0,2046.5,1208.087Z" fill="#fff"/>
      <path id="Path_11176" data-name="Path 11176" d="M2040.9,1226.6a2.069,2.069,0,0,0,.624,1.635c-.291.014-.51.034-.728.036-1.234.012-2.47.057-3.7.021a6.7,6.7,0,0,1-2.874-.716,4.57,4.57,0,0,1-1.108-.778,2.072,2.072,0,0,1-.212-2.806,4.458,4.458,0,0,1,1.386-1.21c.309-.185.629-.351.932-.544a4.71,4.71,0,0,0,.474-.4,2.4,2.4,0,0,0-.516-.266,5.777,5.777,0,0,0-1.335-.224c-1.166.024-2.33.115-3.494.18a8.485,8.485,0,0,1-2.582-.189,2.752,2.752,0,0,1-2.01-1.679,1.877,1.877,0,0,1,.72-2.391,4.429,4.429,0,0,1,.94-.467,8.129,8.129,0,0,1,2.369-.438.793.793,0,0,1,.841.542,1.015,1.015,0,0,1-.277,1.035.567.567,0,0,1-.239.063c-.691.119-1.386.221-2.072.361a2.376,2.376,0,0,0-.625.291.263.263,0,0,0-.107.374.983.983,0,0,0,.7.628,5.615,5.615,0,0,0,1.34.2c1.122-.023,2.244-.108,3.365-.173a7.67,7.67,0,0,1,2.829.236,3.137,3.137,0,0,1,1.247.695,1.63,1.63,0,0,1,.241,2.174,4.055,4.055,0,0,1-1.435,1.183,7.066,7.066,0,0,0-1.1.748c-.516.451-.472.779.106,1.156a4.719,4.719,0,0,0,2.337.718c1.059.061,2.124.032,3.187.036C2040.367,1226.636,2040.615,1226.615,2040.9,1226.6Z" fill="#fff"/>
    </g>
    <g id="Group_4210" data-name="Group 4210">
      <path id="Path_11177" data-name="Path 11177" d="M2031.923,1210.318c-.99,0-1.98,0-2.97,0a.136.136,0,0,0-.161.116c-.12.391-.249.779-.373,1.169-.049.153-.04.165.123.165h5.732c.219,0,.348.1.367.274a.3.3,0,0,1-.24.335.686.686,0,0,1-.15.012h-5.733a.688.688,0,0,1-.7-.951c.127-.4.246-.8.386-1.193a1.143,1.143,0,0,0,.046-.565c-.115-.828-.219-1.656-.332-2.484-.059-.431-.131-.861-.194-1.292a.206.206,0,0,0-.139-.168c-.4-.182-.79-.371-1.185-.558a1.042,1.042,0,0,1-.111-.055.308.308,0,0,1-.126-.4.3.3,0,0,1,.382-.159c.535.255,1.064.521,1.6.782a.447.447,0,0,0,.129.04l4.347.689c.995.157,1.99.312,2.984.473a.679.679,0,0,1,.579.891q-.306,1.18-.62,2.359a.7.7,0,0,1-.781.585c-.953,0-1.906,0-2.859,0Zm-3.51-4.277c0,.041,0,.06,0,.078q.084.634.167,1.268c.094.728.189,1.456.281,2.184.012.094.053.127.153.128.566,0,1.132.014,1.7.021q2.035.027,4.072.055c.093,0,.154-.012.181-.118q.3-1.174.616-2.345c.029-.107-.007-.141-.1-.157q-1.158-.18-2.316-.364l-3.76-.594Z" fill="#fff"/>
      <path id="Path_11178" data-name="Path 11178" d="M2028.046,1214.583a.867.867,0,0,1-.892-.885.892.892,0,0,1,.9-.889.867.867,0,0,1,.885.892A.891.891,0,0,1,2028.046,1214.583Zm0-1.281a.4.4,0,0,0-.4.393.375.375,0,0,0,.4.4.4.4,0,0,0,.4-.393A.373.373,0,0,0,2028.044,1213.3Z" fill="#fff"/>
      <path id="Path_11179" data-name="Path 11179" d="M2033.888,1214.582a.866.866,0,0,1-.878-.9.892.892,0,0,1,.912-.874.87.87,0,0,1,.871.906A.89.89,0,0,1,2033.888,1214.582Zm.015-.492a.4.4,0,0,0,.4-.394.376.376,0,0,0-.4-.394.4.4,0,0,0-.4.393A.375.375,0,0,0,2033.9,1214.09Z" fill="#fff"/>
    </g>
  </g>
</svg>
