<svg height="65.818" viewBox="0 0 65.962 65.818" width="65.962" xmlns="http://www.w3.org/2000/svg" xmlns:xlink="http://www.w3.org/1999/xlink"><pattern id="a" height="100%" preserveAspectRatio="none" viewBox="0 0 0 0" width="100%"><image/></pattern><linearGradient id="b" gradientUnits="objectBoundingBox" x1=".133" x2=".608" y1="-.27" y2=".727"><stop offset="0" stop-color="#a39c8b"/><stop offset=".202" stop-color="#7f7a6c"/><stop offset=".752" stop-color="#24221e"/><stop offset="1"/></linearGradient><linearGradient id="c" gradientUnits="objectBoundingBox" x1=".574" x2=".494" y1="1.155" y2="-.1"><stop offset="0" stop-color="#4da9a3"/><stop offset=".041" stop-color="#3a9291"/><stop offset=".108" stop-color="#21747a"/><stop offset=".174" stop-color="#0e5e69"/><stop offset=".238" stop-color="#03515f"/><stop offset=".296" stop-color="#004d5c"/><stop offset=".315" stop-color="#03505e"/><stop offset=".586" stop-color="#2a8083"/><stop offset=".793" stop-color="#439d9a"/><stop offset=".911" stop-color="#4da9a3"/></linearGradient><linearGradient id="d" x1=".554" x2=".452" xlink:href="#b" y1="-.296" y2="1.214"/><linearGradient id="e" gradientUnits="objectBoundingBox" x1="763.386" x2="764.386" y1="-2126.834" y2="-2126.834"><stop offset="0" stop-color="#4da9a3"/><stop offset="1" stop-color="#004d5c"/></linearGradient><linearGradient id="f" x1="873.592" x2="874.592" xlink:href="#e" y1="-205.544" y2="-205.544"/><linearGradient id="g" x1="763.386" x2="764.386" xlink:href="#e" y1="-2149.594" y2="-2149.594"/><linearGradient id="h" x1="2810.754" x2="2812.031" xlink:href="#e" y1="-1702.439" y2="-1702.439"/><linearGradient id="i" x1="2812.174" x2="2812.508" xlink:href="#e" y1="-6497.282" y2="-6497.282"/><linearGradient id="j" gradientUnits="objectBoundingBox" x1="1062.693" x2="1063.693" y1="-1017.594" y2="-1017.594"><stop offset="0" stop-color="#9a1418"/><stop offset="1" stop-color="#e7855f"/></linearGradient><linearGradient id="k" x1="-2.28" x2="4.612" xlink:href="#b" y1="-3.289" y2="6.104"/><linearGradient id="l" x1="-2.37" x2="7.918" xlink:href="#b" y1="-2.719" y2="9.057"/><linearGradient id="m" x1="-.441" x2="4.965" xlink:href="#b" y1="-3.241" y2="18.257"/><linearGradient id="n" x1="-3.931" x2="1.476" xlink:href="#b" y1="-17.116" y2="4.382"/><linearGradient id="o" x1="-2.577" x2="3.535" xlink:href="#b" y1="-.312" y2="1.301"/><linearGradient id="p" x1=".5" x2=".5" xlink:href="#c" y1="1.535" y2=".02"/><linearGradient id="q" x1=".503" x2=".497" xlink:href="#b" y1="-.195" y2=".987"/><linearGradient id="r" x1=".5" x2=".5" xlink:href="#c" y1="1.135" y2="-.039"/><linearGradient id="s" x1="-.476" x2=".805" xlink:href="#c" y1=".5" y2=".5"/><linearGradient id="t" x1="-.454" x2=".808" xlink:href="#c" y1=".5" y2=".5"/><linearGradient id="u" x1="-.343" x2=".823" xlink:href="#c" y1=".5" y2=".5"/><linearGradient id="v" x1=".5" x2=".5" xlink:href="#c" y1="1.46" y2=".019"/><linearGradient id="w" x1=".518" x2=".487" xlink:href="#b" y1="-.145" y2="1.023"/><linearGradient id="x" x1="437.684" x2="438.684" xlink:href="#c" y1=".5" y2=".5"/><linearGradient id="y" x1="476.816" x2="476.798" xlink:href="#c" y1="1.989" y2=".128"/><linearGradient id="z" x1="448.412" x2="449.412" xlink:href="#c" y1=".5" y2=".5"/><linearGradient id="A" x1="467.345" x2="468.345" xlink:href="#c" y1=".5" y2=".5"/><linearGradient id="B" x1="462.388" x2="463.388" xlink:href="#c" y1=".5" y2=".5"/><linearGradient id="C" x1="457.536" x2="458.536" xlink:href="#c" y1=".5" y2=".5"/><linearGradient id="D" x1="452.688" x2="453.688" xlink:href="#c" y1=".5" y2=".5"/><linearGradient id="E" x1="820.629" x2="820.701" xlink:href="#b" y1="-1.274" y2="1.501"/><linearGradient id="F" x1="1274.381" x2="1273.732" xlink:href="#b" y1="-.506" y2=".961"/><linearGradient id="G" gradientUnits="objectBoundingBox" x1=".327" x2=".699" y1="1.165" y2="-.054"><stop offset="0" stop-color="#9a1418"/><stop offset=".035" stop-color="#a01e1e"/><stop offset=".18" stop-color="#b94235"/><stop offset=".326" stop-color="#cd5f47"/><stop offset=".47" stop-color="#db7454"/><stop offset=".612" stop-color="#e4805c"/><stop offset=".75" stop-color="#e7855f"/><stop offset="1" stop-color="#e7bc71"/></linearGradient><linearGradient id="H" gradientUnits="objectBoundingBox" x1=".5" x2=".5" y1="1.094" y2="-.025"><stop offset="0" stop-color="#c3f7ce"/><stop offset=".103" stop-color="#baf4ce"/><stop offset=".269" stop-color="#a2edce"/><stop offset=".478" stop-color="#7ce1d0"/><stop offset=".72" stop-color="#46d0d1"/><stop offset=".987" stop-color="#03bcd3"/><stop offset="1" stop-color="#00bbd4"/></linearGradient><linearGradient id="I" gradientUnits="objectBoundingBox" x1=".966" x2=".122" y1="-.026" y2=".973"><stop offset="0" stop-color="#d1c8b2"/><stop offset=".102" stop-color="#c5bca7"/><stop offset=".287" stop-color="#a59e8d"/><stop offset=".533" stop-color="#726d61"/><stop offset=".827" stop-color="#2c2a25"/><stop offset="1"/></linearGradient><linearGradient id="J" gradientUnits="objectBoundingBox" x1="1.345" x2=".018" y1="-.409" y2="1.019"><stop offset="0" stop-color="#7a7568"/><stop offset=".147" stop-color="#736e62"/><stop offset=".35" stop-color="#615d53"/><stop offset=".585" stop-color="#44413a"/><stop offset=".843" stop-color="#1c1b18"/><stop offset="1"/></linearGradient><linearGradient id="K" x1="0" x2="1" xlink:href="#c" y1=".5" y2=".5"/><linearGradient id="L" gradientUnits="objectBoundingBox" x1="3.225" x2="-.808" y1="-.014" y2=".779"><stop offset="0" stop-color="#a39c8b"/><stop offset=".199" stop-color="#878173"/><stop offset=".624" stop-color="#423f38"/><stop offset="1"/></linearGradient><linearGradient id="M" x1="0" x2="1" xlink:href="#j" y1=".5" y2=".5"/><linearGradient id="N" gradientUnits="objectBoundingBox" x1=".196" x2=".543" y1="-.011" y2=".984"><stop offset="0" stop-color="#a39c8b"/><stop offset=".19" stop-color="#9f9888"/><stop offset=".346" stop-color="#958f7f"/><stop offset=".492" stop-color="#847e70"/><stop offset=".63" stop-color="#6b675c"/><stop offset=".763" stop-color="#4c4941"/><stop offset=".891" stop-color="#262420"/><stop offset="1"/></linearGradient><linearGradient id="O" x1="2.252" x2="-.319" xlink:href="#N" y1=".341" y2=".574"/><linearGradient id="P" x1="1.462" x2=".109" xlink:href="#N" y1="-2.462" y2="1.651"/><linearGradient id="Q" x1="3.225" x2="-.808" xlink:href="#L" y1="-.014" y2=".779"/><linearGradient id="R" x1=".196" x2=".543" xlink:href="#N" y1="-.011" y2=".984"/><linearGradient id="S" gradientUnits="objectBoundingBox" x2="1" y1=".5" y2=".5"><stop offset="0" stop-color="#ffd586"/><stop offset=".032" stop-color="#f1b27a"/><stop offset=".066" stop-color="#e59470"/><stop offset=".103" stop-color="#dc7c68"/><stop offset=".141" stop-color="#d66c62"/><stop offset=".184" stop-color="#d2625f"/><stop offset=".238" stop-color="#d15f5e"/><stop offset=".805" stop-color="#ffd586"/></linearGradient><linearGradient id="T" x1="0" x2="1" xlink:href="#S" y1=".5" y2=".5"/><linearGradient id="U" x1=".724" x2=".352" xlink:href="#L" y1="-.022" y2="1.013"/><linearGradient id="V" x1="0" x2="1" xlink:href="#c" y1=".499" y2=".499"/><linearGradient id="W" x1="0" x2="1" xlink:href="#c" y1=".501" y2=".501"/><linearGradient id="X" x1="1.192" x2=".054" xlink:href="#L" y1="-3.302" y2="2.922"/><linearGradient id="Y" x1=".243" x2=".687" xlink:href="#G" y1="1.092" y2="-.083"/><linearGradient id="Z" x1=".658" x2=".392" xlink:href="#J" y1="-.165" y2=".738"/><linearGradient id="aa" x1="-.472" x2=".699" xlink:href="#c" y1=".5" y2=".5"/><linearGradient id="ab" x1="-.45" x2=".703" xlink:href="#c" y1=".5" y2=".5"/><linearGradient id="ac" x1="-.429" x2=".708" xlink:href="#c" y1=".5" y2=".5"/><linearGradient id="ad" x1="-.408" x2=".712" xlink:href="#c" y1=".5" y2=".5"/><linearGradient id="ae" x1="-.387" x2=".716" xlink:href="#c" y1=".5" y2=".5"/><linearGradient id="af" x1="-.282" x2=".738" xlink:href="#c" y1=".5" y2=".5"/><linearGradient id="ag" x1=".5" x2=".5" xlink:href="#c" y1="1.406" y2=".252"/><linearGradient id="ah" x1=".5" x2=".5" xlink:href="#c" y1="1.479" y2=".265"/><linearGradient id="ai" x1=".5" x2=".5" xlink:href="#c" y1="1.694" y2="-.135"/><linearGradient id="aj" x1=".5" x2=".5" xlink:href="#c" y1="1.188" y2=".003"/><linearGradient id="ak" x1=".5" x2=".5" xlink:href="#c" y1="1.135" y2="-.038"/><linearGradient id="al" x1=".5" x2=".5" xlink:href="#c" y1="1.535" y2=".019"/><linearGradient id="am" x1=".519" x2=".485" xlink:href="#b" y1="-.136" y2="1.023"/><linearGradient id="an" x1="-.543" x2=".796" xlink:href="#c" y1=".5" y2=".5"/><linearGradient id="ao" x1="-.52" x2=".799" xlink:href="#c" y1=".5" y2=".5"/><linearGradient id="ap" x1="-.498" x2=".802" xlink:href="#c" y1=".5" y2=".5"/><linearGradient id="aq" x1=".5" x2=".5" xlink:href="#c" y1="1.46" y2=".018"/><linearGradient id="ar" x1=".53" x2=".477" xlink:href="#b" y1="-.143" y2="1.026"/><linearGradient id="as" x1=".509" x2=".492" xlink:href="#c" y1="1.989" y2=".128"/><linearGradient id="at" x1=".453" x2=".525" xlink:href="#b" y1="-1.274" y2="1.501"/><linearGradient id="au" x1=".956" x2=".308" xlink:href="#b" y1="-.506" y2=".961"/><linearGradient id="av" x1=".509" x2=".492" xlink:href="#c" y1="1.988" y2=".128"/><linearGradient id="aw" x1=".453" x2=".524" xlink:href="#b" y1="-1.274" y2="1.501"/><linearGradient id="ax" x1=".987" x2=".057" xlink:href="#e" y1="-.2" y2="1.1"/><linearGradient id="ay" x1=".18" x2=".739" xlink:href="#H" y1="1.24" y2="-.052"/><linearGradient id="az" x1=".164" x2=".799" xlink:href="#G" y1="1.166" y2="-.148"/><linearGradient id="aA" x1="1.241" x2="-.794" xlink:href="#I" y1="-1.955" y2="4.773"/><linearGradient id="aB" x1="1.487" x2="-.547" xlink:href="#I" y1="-2.77" y2="3.958"/><linearGradient id="aC" x1="1.746" x2="-.288" xlink:href="#I" y1="-3.626" y2="3.102"/><linearGradient id="aD" gradientUnits="objectBoundingBox" x1=".5" x2=".5" y1="1.465" y2="-.067"><stop offset=".291" stop-color="#004d5c"/><stop offset=".311" stop-color="#03505e"/><stop offset=".583" stop-color="#2a8083"/><stop offset=".792" stop-color="#439d9a"/><stop offset=".911" stop-color="#4da9a3"/></linearGradient><linearGradient id="aE" x1=".584" x2=".451" xlink:href="#L" y1="-1.019" y2="1.232"/><g transform="translate(-4781.084 -448.124)"><path d="m4786.078 478.645q-.125 13.268-.248 26.536h3.787q-.123-13.268-.247-26.536zm-.056 26.223.021-2.463q.571.644 1.152 1.287-.583.588-1.173 1.176zm3.185-25.959.022 2.586q-.866-.618-1.718-1.234.855-.676 1.696-1.352zm-1.973 21.616q-.57-.643-1.134-1.287.573-.588 1.14-1.176zm.189-2.521q.938.617 1.888 1.234-.939.676-1.892 1.352zm-.182-.408q-.561-.644-1.117-1.287.565-.588 1.123-1.176zm.187-2.521q.924.618 1.86 1.234-.926.677-1.864 1.352zm-.179-.408q-.555-.643-1.1-1.287.557-.588 1.106-1.176zm.183-2.521q.91.618 1.832 1.235-.913.675-1.836 1.351zm-.176-.407q-.546-.645-1.083-1.288.548-.588 1.089-1.176zm.181-2.522q.9.618 1.8 1.235-.9.675-1.807 1.351.005-1.293.007-2.586zm-.174-.407q-.538-.643-1.066-1.288.541-.588 1.072-1.176zm.178-2.522q.882.618 1.776 1.235-.883.675-1.78 1.351zm-.171-.407q-.528-.644-1.049-1.288.531-.586 1.055-1.175zm.176-2.521q.867.617 1.747 1.234-.869.677-1.751 1.351zm0-2.929q.853.617 1.719 1.234-.855.676-1.723 1.352zm-.172 2.521q-.52-.643-1.033-1.287.524-.588 1.039-1.176zm1.954-1.114.021 2.586q-.879-.618-1.746-1.235.872-.675 1.729-1.351zm.024 2.929.022 2.586q-.892-.618-1.774-1.235.886-.675 1.756-1.351zm.025 2.929.022 2.586q-.907-.618-1.8-1.235.901-.675 1.782-1.347zm.025 2.929q.01 1.291.021 2.585-.921-.616-1.83-1.234.914-.676 1.813-1.351zm.024 2.928.022 2.586q-.936-.617-1.859-1.234.929-.676 1.841-1.352zm.025 2.929.022 2.586q-.949-.616-1.887-1.234.943-.677 1.869-1.352zm.024 2.929.025 2.589q-.963-.618-1.915-1.235.955-.678 1.894-1.354zm-1.964 4.108v-2.586q.951.616 1.916 1.234-.946.677-1.912 1.352zm1.989-1.179.022 2.586q-.978-.618-1.943-1.235.97-.675 1.921-1.351zm-2.177 1.114q-.579-.644-1.151-1.287.582-.588 1.157-1.176zm-1.16-3.978q.564.643 1.135 1.287-.575.588-1.156 1.176zm.025-2.929q.555.644 1.118 1.287-.565.588-1.139 1.176zm.024-2.929q.547.643 1.1 1.287-.557.588-1.122 1.176zm.025-2.929q.538.644 1.084 1.288-.549.587-1.1 1.175.009-1.232.02-2.463zm.025-2.929q.53.643 1.067 1.288-.54.588-1.088 1.176.014-1.233.025-2.464zm.024-2.929q.522.645 1.051 1.288-.532.588-1.071 1.176zm.025-2.928q.513.643 1.033 1.287-.524.588-1.054 1.176zm.024-2.929q.506.644 1.017 1.287-.514.588-1.037 1.176.014-1.232.024-2.463zm.1-.152h.951v1.2q-.478-.599-.949-1.2zm1.116 0h1.587q-.789.633-1.589 1.266zm-.039 26.178v-1.142q.894.57 1.8 1.142zm-.189 0h-1.08q.544-.541 1.083-1.084zm-1.431-26.7h3.863l-.042.336h-3.779zm1.24-3.951h1.174l.268 3.951h-1.71zm.479-8.8h.217l-.037 8.8h-.144z" fill="#004d5c"/><path d="m4787.619 474.471.1 3.748h-.863l.262-3.748z" fill="#348f8a"/><path d="m0 0h9v16h-9z" fill="url(#a)" transform="translate(4783.349 487.52)"/><path d="m4784.5 502.385h-.2v-9.17a.9.9 0 0 1 .9-.9h2.86a.7.7 0 0 0 .7-.7v-2.9a.9.9 0 0 1 .9-.9h2.418v.2h-2.418a.7.7 0 0 0 -.7.7v2.9a.9.9 0 0 1 -.9.9h-2.86a.7.7 0 0 0 -.7.7z" fill="url(#b)"/><path d="m4792.135 489.247h-.437l-.113-2.228h.55z" fill="url(#c)"/><path d="m4792.052 488.133h-.31l-.074-1.014h.384z" fill="url(#d)"/><path d="m0 0h1.641v.286h-1.641z" fill="url(#e)" transform="translate(4783.854 494.075)"/><path d="m0 0h1.434v2.969h-1.434z" fill="url(#f)" transform="translate(4783.958 494.361)"/><path d="m0 0h1.641v.286h-1.641z" fill="url(#g)" transform="translate(4783.854 497.33)"/><path d="m0 0h.596v.99h-.596z" fill="url(#h)" transform="translate(4783.362 495.35)"/><path d="m0 0h.596v.259h-.596z" fill="url(#i)" transform="translate(4782.766 495.716)"/><rect fill="url(#j)" height=".207" rx=".091" transform="matrix(0 -1 1 0 4782.96 496.967)" width="2.187"/><path d="m0 0h.277v.492h-.277z" fill="#004d5c" opacity=".3" transform="matrix(0 1 -1 0 4783.919 496.014)"/><path d="m0 0h.203v.492h-.203z" fill="url(#k)" transform="matrix(0 1 -1 0 4783.919 495.387)"/><path d="m4783 494.881c0-.078.136-.078.136 0v.334h-.136z" fill="url(#l)"/><path d="m4783 496.846c0 .077.136.077.136 0v-.335h-.136z" fill="#004d5c" opacity=".3"/><path d="m4784.989 494.11h.43v.215h-.43z" fill="#004d5c" opacity=".25"/><path d="m0 0h.258v.215h-.258z" fill="url(#m)" transform="translate(4783.92 494.11)"/><path d="m4784.989 497.366h.43v.215h-.43z" fill="#004d5c" opacity=".25"/><path d="m0 0h.258v.215h-.258z" fill="url(#n)" transform="translate(4783.92 497.366)"/><path d="m4785.051 494.425h.281v2.865h-.281z" fill="#004d5c" opacity=".25"/><path d="m0 0h.228v2.865h-.228z" fill="url(#o)" transform="translate(4784.007 494.425)"/><path d="m4828.449 503.906-1.1-25.121h.193l.032-.455h-1.192v-.282h.764l.091-2.131h-.846l.021-5.252v-.235l.006-1.545 1.162.4.064-.206-1.225-.418.009-2.382h-.272l.009 2.3-1-.341-.063.205 1.061.363.007 1.736v.233l.021 5.149h-.911l.09 2.131h.829v.282h-1.192l.032.455h.193l-1.1 25.121zm-.216-.216h-2.76l2.676-1.921zm-.1-2.323-3.459-2.311 3.287-1.608zm-.188-4.284-3.1-2 2.945-1.621zm-.174-3.995-2.76-1.786 2.622-1.373zm-.154-3.51-2.432-1.3 2.335-.928zm-.111-2.541-2.186-.881 2.113-.793zm-.483-7.384-1.644.727.063-1.434zm-1.174-.76h1.3l.026.594zm1.342.921.061 1.4-1.705-.673zm-.106 1.563-1.784.793.064-1.471zm.181.154.064 1.479-1.854-.683zm.153 3.516-2.037-.884 1.962-.84zm-2.132-2.561 1.863.687-1.929.825zm-.08 1.834 2.037.884-2.11.793zm-.087 1.987 2.208.889-2.286.909zm-.093 2.129 2.473 1.322-2.59 1.355zm-.133 3.044 2.781 1.8-2.93 1.612zm-.165 3.783 3.111 2.005-3.269 1.6zm3.329 6.31-2.948 2.117h-.75l.2-4.457z" fill="#004d5c"/><path d="m4825.475 476.032h1.674l-.127 1.85-.51-.061v-1.544l-1.037-.075z" fill="#348f8a"/><path d="m4832.578 506.168-.975-22.3h.171l.029-.4h-1.058v-.25h.736l.08-1.893h-.809l.018-4.571.258.113.071-.176-.328-.144.006-1.541v-.2l.008-2.038h-.241l.008 2.115v.2 1.372l-.254-.111-.071.176.326.143.019 4.663h-.751l.08 1.893h.678v.25h-1.058l.029.4h.171l-.975 22.3zm-3.556-1.9 2.375 1.706h-2.45zm.167-3.837 2.919 1.429-3.071 2.051zm.155-3.538 2.615 1.439-2.756 1.775zm.137-3.136 2.328 1.218-2.451 1.586zm.1-2.29 2.073.824-2.159 1.154zm.077-1.765 1.876.705-1.941.781zm1.768-5.7.056 1.273-1.46-.644zm-1.54.481.023-.527h1.155zm1.447.935-1.514.6.054-1.242zm.161.141.057 1.306-1.583-.7zm-.1 1.445-1.647.607.058-1.313zm-1.659.884 1.742.746-1.809.785zm1.885.6-1.713-.733 1.654-.61zm.078 1.774-1.874-.7 1.809-.785zm.081 1.872-2.029-.807 1.96-.789zm.117 2.671-2.3-1.2 2.195-1.173zm.147 3.355-2.6-1.432 2.469-1.6zm.154 3.53-2.9-1.421 2.762-1.78zm.014.324.173 3.957h-.665l-2.618-1.88z" fill="#004d5c"/><path d="m4831.4 481.422h-1.487l.113 1.642.453-.054v-1.37l.921-.066z" fill="#348f8a"/><path d="m4828.823 504.527h-1.582v-.016h-.1c-.27 0-.448-.264-.53-.6h1.9a1.219 1.219 0 0 0 .312.616z" fill="#004d5c"/><path d="m4828.823 502.382h-1.582v.016h-.1c-.382 0-.581.531-.581 1.056a1.98 1.98 0 0 0 .051.452h1.9a2.119 2.119 0 0 1 -.047-.452 1.844 1.844 0 0 1 .179-.834.9.9 0 0 1 .18-.238z" fill="url(#p)"/><path d="m4826.871 502.525h1.9l-.146.456-1.983-.077a.7.7 0 0 1 .229-.379z" fill="url(#q)"/><path d="m4826.614 503.906c.078.341.25.6.508.6h.094v.016h-.5a1.239 1.239 0 0 1 -.295-.621z" fill="#00354a"/><path d="m4826.716 502.382h.5v.016h-.094c-.366 0-.557.531-.557 1.056a2.037 2.037 0 0 0 .049.452h-.193a2.217 2.217 0 0 1 -.046-.452 1.912 1.912 0 0 1 .173-.834.94.94 0 0 1 .168-.238z" fill="#004d5c"/><path d="m4830.908 504.527h-1.582v-.016h-.1c-.269 0-.447-.264-.529-.6h1.9a1.212 1.212 0 0 0 .311.616z" fill="#004d5c"/><path d="m4830.908 502.382h-1.582v.016h-.1c-.381 0-.58.531-.58 1.056a1.953 1.953 0 0 0 .051.452h1.9a2.12 2.12 0 0 1 -.048-.452 1.844 1.844 0 0 1 .18-.834.9.9 0 0 1 .179-.238z" fill="url(#p)"/><path d="m4828.956 502.525h1.9l-.146.456-1.984-.077a.709.709 0 0 1 .23-.379z" fill="url(#q)"/><path d="m4828.7 503.906c.078.341.249.6.508.6h.094v.016h-.5a1.255 1.255 0 0 1 -.295-.621z" fill="#00354a"/><path d="m4828.8 502.382h.5v.016h-.094c-.366 0-.558.531-.558 1.056a2.008 2.008 0 0 0 .05.452h-.194a2.288 2.288 0 0 1 -.045-.452 1.912 1.912 0 0 1 .173-.834.917.917 0 0 1 .168-.238z" fill="#004d5c"/><path d="m4832.948 504.527h-1.582v-.016h-.1c-.269 0-.447-.264-.529-.6h1.9a1.212 1.212 0 0 0 .311.616z" fill="#004d5c"/><path d="m4832.948 502.382h-1.582v.016h-.1c-.381 0-.58.531-.58 1.056a1.98 1.98 0 0 0 .051.452h1.9a2.121 2.121 0 0 1 -.048-.452 1.844 1.844 0 0 1 .18-.834.9.9 0 0 1 .179-.238z" fill="url(#p)"/><path d="m4831 502.525h1.9l-.146.456-1.984-.077a.709.709 0 0 1 .23-.379z" fill="url(#q)"/><path d="m4830.739 503.906c.078.341.249.6.508.6h.094v.016h-.5a1.239 1.239 0 0 1 -.295-.621z" fill="#00354a"/><path d="m4830.841 502.382h.5v.016h-.094c-.366 0-.557.531-.557 1.056a2.037 2.037 0 0 0 .049.452h-.193a2.217 2.217 0 0 1 -.046-.452 1.912 1.912 0 0 1 .173-.834.917.917 0 0 1 .168-.238z" fill="#004d5c"/><path d="m4834.968 504.527h-1.583v-.016h-.1c-.269 0-.448-.264-.529-.6h1.9a1.224 1.224 0 0 0 .312.616z" fill="#004d5c"/><path d="m4834.968 502.382h-1.583v.016h-.1c-.381 0-.581.531-.581 1.056a1.927 1.927 0 0 0 .052.452h1.9a2.12 2.12 0 0 1 -.047-.452 1.837 1.837 0 0 1 .18-.834.9.9 0 0 1 .179-.238z" fill="url(#p)"/><path d="m4833.016 502.525h1.9l-.147.456-1.983-.077a.7.7 0 0 1 .23-.379z" fill="url(#q)"/><path d="m4832.758 503.906c.079.341.25.6.508.6h.095v.016h-.5a1.247 1.247 0 0 1 -.295-.621z" fill="#00354a"/><path d="m4832.861 502.382h.5v.016h-.095c-.366 0-.557.531-.557 1.056a2.037 2.037 0 0 0 .049.452h-.193a2.217 2.217 0 0 1 -.046-.452 1.9 1.9 0 0 1 .174-.834.917.917 0 0 1 .168-.238z" fill="#004d5c"/><path d="m4837.008 504.527h-1.583v-.016h-.1c-.269 0-.448-.264-.529-.6h1.9a1.224 1.224 0 0 0 .312.616z" fill="#004d5c"/><path d="m4837.008 502.382h-1.583v.016h-.1c-.381 0-.581.531-.581 1.056a1.927 1.927 0 0 0 .052.452h1.9a2.185 2.185 0 0 1 -.047-.452 1.837 1.837 0 0 1 .18-.834.9.9 0 0 1 .179-.238z" fill="url(#p)"/><path d="m4835.056 502.525h1.9l-.147.456-1.983-.077a.7.7 0 0 1 .23-.379z" fill="url(#q)"/><path d="m4834.8 503.906c.078.341.249.6.508.6h.094v.016h-.5a1.247 1.247 0 0 1 -.295-.621z" fill="#00354a"/><path d="m4834.9 502.382h.5v.016h-.094c-.366 0-.558.531-.558 1.056a1.98 1.98 0 0 0 .05.452h-.194a2.288 2.288 0 0 1 -.045-.452 1.9 1.9 0 0 1 .173-.834.905.905 0 0 1 .168-.238z" fill="#004d5c"/><path d="m4840.328 503.906a.956.956 0 0 0 .265.513v.108h-.161a1.256 1.256 0 0 1 -.3-.621z" fill="#00354a"/><path d="m4838.309 503.906c.078.341.249.6.508.6h.094v.016h-.5a1.235 1.235 0 0 1 -.295-.621z" fill="#00354a"/><path d="m4840.6 503.906-.012.513a.956.956 0 0 1 -.265-.513z" fill="#004d5c"/><path d="m4840.638 502.458a1.233 1.233 0 0 0 -.359 1 2.066 2.066 0 0 0 .049.452h-.193a2.288 2.288 0 0 1 -.045-.452 1.905 1.905 0 0 1 .172-.834.928.928 0 0 1 .168-.238h.21z" fill="#004d5c"/><path d="m4838.411 502.382h.5v.016h-.094c-.366 0-.558.531-.558 1.056a2.008 2.008 0 0 0 .05.452h-.193a2.184 2.184 0 0 1 -.046-.452 1.9 1.9 0 0 1 .173-.834.905.905 0 0 1 .168-.238z" fill="#004d5c"/><path d="m4837.81 504.527h.316a.588.588 0 0 1 -.415.192c-.438 0-.794-.575-.794-1.284s.356-1.285.794-1.285a.611.611 0 0 1 .454.232h-.355c-.278 0-.468.215-.57.507-.222.634-.032 1.638.57 1.638z" fill="#43b8b3"/><path d="m4836.917 503.435c0 .709.356 1.284.794 1.284h-.364c-.439 0-.794-.575-.794-1.284s.355-1.285.794-1.285h.364c-.438 0-.794.575-.794 1.285z" fill="url(#r)"/><path d="m4840.43 504.527h-1.519v-.016h-.094c-.259 0-.43-.264-.508-.6h1.826a1.256 1.256 0 0 0 .295.616z" fill="#004d5c"/><path d="m4838.411 504.527h-.6c-.6 0-.792-1-.57-1.638l.3 1.017h.575a1.235 1.235 0 0 0 .295.621z" fill="#004d5c"/><path d="m4840.43 502.382h-1.519v.016h-.094c-.366 0-.558.531-.558 1.056a2.008 2.008 0 0 0 .05.452h1.826a2.288 2.288 0 0 1 -.045-.452 1.905 1.905 0 0 1 .172-.834.928.928 0 0 1 .168-.238z" fill="url(#p)"/><path d="m4838.411 502.382h-.6c-.278 0-.468.215-.57.507l.3 1.017h.575a2.184 2.184 0 0 1 -.046-.452 1.9 1.9 0 0 1 .173-.834.905.905 0 0 1 .168-.238z" fill="url(#p)"/><path d="m0 0h.519v.19h-.519z" fill="#00354a" transform="matrix(.99990567 -.01373531 .01373531 .99990567 4841.632 509.819)"/><path d="m0 0h.495v.189h-.495z" fill="#00354a" transform="matrix(.99990567 -.01373531 .01373531 .99990567 4841.632 508.102)"/><path d="m0 0h.47v.189h-.47z" fill="#00354a" transform="matrix(1 -.01 .01 1 4841.632 506.068)"/><path d="m4841.967 504.115a1.7 1.7 0 0 0 -.383.487.3.3 0 0 0 -.028.117l-.016-.022-.015-.018-.009-.01-.012-.013-.021-.019a.136.136 0 0 0 -.02-.017.354.354 0 0 0 -.047-.032.136.136 0 0 0 -.024-.013.452.452 0 0 1 .018-.048 1.847 1.847 0 0 1 .42-.542.479.479 0 0 1 .137.13z" fill="#00354a"/><path d="m4842.152 509.815h1.625v.19h-1.625z" fill="#004d5c"/><path d="m4842.128 508.098h1.649v.189h-1.649z" fill="#004d5c"/><path d="m4842.104 506.065h1.674v.189h-1.674z" fill="#004d5c"/><path d="m4841.83 503.985a3.384 3.384 0 0 1 1.486-.891h.021c.016.019.031.038.046.058l.032.043c.022.031.043.062.064.1l.007.012a.232.232 0 0 0 -.147-.019 3.256 3.256 0 0 0 -1.372.833.479.479 0 0 0 -.137-.136z" fill="#004d5c"/><path d="m0 0h.517v.071h-.517z" fill="#004d5c" transform="matrix(1 -.009 .009 1 4841.633 509.746)"/><path d="m0 0h.513v.304h-.513z" fill="#004d5c" transform="matrix(.99972284 -.02354232 .02354232 .99972284 4841.63 509.446)"/><path d="m4842.129 508.288.014 1.152h-.51v-1.152z" fill="#004d5c"/><path d="m0 0h.493v.182h-.493z" fill="#004d5c" transform="matrix(1 -.011 .011 1 4841.632 507.919)"/><path d="m4842.1 506.254.021 1.662h-.492v-1.662z" fill="#004d5c"/><path d="m4842.083 504.432.02 1.633h-.47v-1.1a.434.434 0 0 0 -.015-.114l.011-.008-.024-.032a.4.4 0 0 0 -.049-.1.3.3 0 0 1 .028-.117 1.7 1.7 0 0 1 .383-.487.744.744 0 0 1 .116.325z" fill="#004d5c"/><path d="m4841.633 503.906a.613.613 0 0 1 .2.079 1.847 1.847 0 0 0 -.42.542.452.452 0 0 0 -.018.048.434.434 0 0 0 -.2-.048h-.261v-.016h-.1a.376.376 0 0 1 -.243-.092l.012-.513z" fill="#004d5c"/><path d="m4842.143 509.44.007.3v.071h1.626v-1.527h-1.648z" fill="url(#s)"/><path d="m4842.125 507.916v.182h1.65v-1.844h-1.675z" fill="url(#t)"/><path d="m4843.486 503.3a.232.232 0 0 0 -.147-.019 3.256 3.256 0 0 0 -1.372.833.744.744 0 0 1 .116.317l.02 1.633h1.675v-1.741a1.927 1.927 0 0 0 -.292-1.023z" fill="url(#u)"/><path d="m4841.836 502.382h-.9v.016h-.1a.351.351 0 0 0 -.2.06 1.233 1.233 0 0 0 -.359 1 2.066 2.066 0 0 0 .049.452h1.3a.613.613 0 0 1 .2.079 3.384 3.384 0 0 1 1.486-.891h.021a1.936 1.936 0 0 0 -1.497-.716z" fill="url(#v)"/><path d="m4837.711 502.472a.6.6 0 0 0 -.356.357l4.633.158a1.128 1.128 0 0 1 .855.8l.11 6.219h.661l-.081-5.985a1.613 1.613 0 0 0 -1.588-1.547z" fill="url(#w)"/><path d="m4835.622 485.156h-1.763q-.114 12.2-.228 24.4h3.483q-.114-12.2-.228-24.4zm.237 23.033q.534-.591 1.059-1.184l.02 2.266q-.538-.541-1.079-1.082zm-.291-21.547q-.784.567-1.58 1.135l.02-2.378q.774.621 1.56 1.243zm.249 16.37q.521.54 1.048 1.081-.518.593-1.042 1.184zm-.164 2.324q-.876-.621-1.74-1.242.873-.568 1.736-1.135zm.157-5.018q.514.541 1.033 1.082-.51.591-1.027 1.184zm-.162 2.325q-.862-.621-1.714-1.243.861-.567 1.711-1.135zm.156-5.018q.505.541 1.017 1.081-.5.593-1.012 1.184zm-.16 2.325q-.849-.623-1.688-1.243.847-.567 1.685-1.135zm.153-5.018q.5.54 1 1.081-.494.592-1 1.184zm-.157 2.324q-.837-.621-1.662-1.242.834-.568 1.659-1.136zm.15-5.018q.491.541.987 1.082-.487.591-.981 1.184zm-.154 2.325q-.824-.621-1.636-1.243.82-.567 1.632-1.135zm.148-5.018q.481.54.97 1.081-.478.592-.965 1.184zm-.152 2.325q-.812-.623-1.611-1.243.81-.569 1.607-1.135zm0-2.694q-.8-.621-1.585-1.243.8-.567 1.581-1.135zm.149-2.324q.474.54.955 1.081-.471.592-.949 1.184zm-.205 2.483q-.8.568-1.606 1.135l.02-2.378q.782.622 1.582 1.243zm0 2.693q-.81.568-1.632 1.136l.02-2.378q.799.621 1.611 1.242zm0 2.694q-.824.567-1.658 1.135l.02-2.378q.815.621 1.64 1.243zm0 2.693q-.836.568-1.683 1.135l.02-2.378q.83.623 1.668 1.243zm0 2.694q-.849.567-1.709 1.135l.02-2.378q.847.621 1.697 1.243zm0 2.693q-.862.567-1.735 1.135l.02-2.378q.862.621 1.727 1.241zm0 2.693q-.875.568-1.761 1.135l.02-2.377q.879.621 1.756 1.242zm-1.7 1.292q.886-.567 1.762-1.135v2.378q-.871-.621-1.747-1.243zm1.7 1.4q-.888.567-1.787 1.135.01-1.189.02-2.378.891.623 1.785 1.245zm.23-2.484q.527.542 1.064 1.082-.527.591-1.059 1.183zm1.091.872q-.534-.54-1.063-1.081.525-.592 1.044-1.184zm-.023-2.693q-.527-.541-1.047-1.082.517-.591 1.028-1.183zm-.022-2.694q-.519-.54-1.032-1.081.51-.593 1.013-1.184zm-.023-2.693q-.512-.54-1.016-1.081.5-.592 1-1.184zm-.023-2.693q-.5-.541-1-1.082.493-.591.981-1.183zm-.022-2.694q-.5-.54-.985-1.081.486-.592.966-1.184zm-.023-2.693q-.487-.541-.969-1.081.478-.592.95-1.184zm-.023-2.693q-.48-.541-.954-1.082.472-.591.935-1.184zm-.98-1.3v-1.105h.875q-.419.555-.857 1.106zm-.152.06q-.737-.582-1.462-1.164h1.46zm-1.606 22.918q.831-.525 1.654-1.051v1.051zm1.827-1q.5.5 1 1h-.993zm1.28-23.243h-3.475l-.039-.309h3.553zm-.855-.309h-1.572l.246-3.633h1.08zm-.72-3.633h-.133l-.033-8.1h.2z" fill="#004d5c"/><path d="m4835.469 481.318-.1 3.447h.794l-.241-3.447z" fill="#348f8a"/><path d="m4839.63 494.453h-1.146q-.073 7.932-.148 15.863h2.264q-.074-7.932-.148-15.863zm.154 14.973q.346-.385.689-.77l.012 1.472q-.352-.351-.701-.702zm-.189-14.007q-.51.369-1.027.738l.013-1.545q.504.404 1.019.807zm.162 10.641q.339.351.682.7-.338.385-.678.77zm-.107 1.511q-.568-.4-1.131-.808.568-.369 1.129-.737zm.1-3.262q.333.353.671.7-.331.386-.668.77zm-.1 1.512q-.561-.405-1.115-.808.559-.369 1.112-.738zm.1-3.262q.328.351.661.7-.327.384-.658.769zm-.1 1.511c-.369-.269-.734-.539-1.1-.808q.552-.369 1.1-.738zm.1-3.262q.324.351.651.7-.321.384-.647.769zm-.1 1.511q-.545-.4-1.08-.808.541-.369 1.078-.738zm.1-3.262q.318.352.641.7-.316.385-.638.77zm-.1 1.511q-.535-.4-1.063-.808.534-.367 1.061-.737zm.1-3.261c.208.234.419.468.63.7q-.311.385-.627.77zm-.1 1.511q-.528-.4-1.047-.808c.35-.246.7-.492 1.044-.738zm0-1.751q-.519-.4-1.03-.808.518-.369 1.028-.738zm.1-1.511.621.7q-.306.384-.617.769zm-.133 1.614q-.519.369-1.044.738l.013-1.546q.493.405 1.014.808zm0 1.751q-.528.369-1.061.738l.013-1.546q.504.403 1.031.808zm0 1.751q-.535.369-1.078.737l.013-1.545q.515.403 1.048.808zm0 1.75q-.544.369-1.094.738l.013-1.546q.522.405 1.064.808zm0 1.751q-.552.369-1.111.738l.013-1.546q.534.405 1.087.808zm0 1.751q-.561.369-1.128.738l.013-1.546q.544.404 1.106.808zm0 1.751q-.568.368-1.145.737l.013-1.545q.556.403 1.125.808zm-1.1.839q.576-.369 1.146-.738v1.546q-.587-.403-1.163-.808zm1.107.911q-.577.369-1.161.738l.013-1.546q.558.405 1.136.808zm.149-1.614q.345.351.692.7-.342.384-.688.769zm.71.567q-.349-.352-.691-.7.342-.385.678-.77zm-.015-1.751q-.342-.351-.681-.7c.225-.256.447-.513.669-.769zm-.015-1.751q-.338-.351-.67-.7.332-.384.658-.769zm-.014-1.75q-.333-.353-.661-.7.327-.386.648-.77zm-.015-1.751q-.327-.351-.651-.7c.215-.257.427-.513.639-.77zm-.015-1.751q-.322-.351-.64-.7.316-.384.628-.769zm-.015-1.751q-.316-.351-.63-.7.312-.384.618-.769zm-.014-1.75q-.312-.352-.62-.7.306-.386.607-.77zm-.637-.846v-.718h.568q-.295.36-.58.718zm-.1.039q-.477-.378-.949-.757h.948zm-1.053 14.894q.54-.342 1.075-.683v.683zm1.188-.648q.321.324.647.648h-.646zm.832-15.109h-2.259l-.025-.2h2.309zm-.556-.2h-1.022l.16-2.362h.7zm-.468-2.362h-.086l-.022-5.263h.129z" fill="#004d5c"/><path d="m4839.531 491.959-.062 2.241h.516l-.157-2.241z" fill="#348f8a"/><path d="m4790.461 496.515h.25v.259h-.44v-.259zm-4.516 0v.259h2.885v-.259z" fill="url(#x)"/><path d="m4790.461 496.515h-.322a1.813 1.813 0 0 0 -1.115-1.258l.017-.066a1.743 1.743 0 0 1 1.42 1.324zm-4.38 0h2.919a2.66 2.66 0 0 0 .023-1.258l.017-.066c-1.205-.306-2.761.135-2.959 1.324z" fill="url(#y)"/><path d="m4789 496.515h1.138a1.813 1.813 0 0 0 -1.115-1.258 2.66 2.66 0 0 1 -.023 1.258z" fill="#004d5c"/><path d="m4790.139 496.515h-1.31v.259h1.441v-.259z" fill="#004d5c"/><path d="m4788.592 503.464v.166h1.492v-.166z" fill="#00354a"/><path d="m4788.613 501.723v.165h1.442v-.165z" fill="#00354a"/><path d="m4788.634 499.981v.164h1.392v-.164z" fill="#00354a"/><path d="m4788.655 498.239v.164h1.341v-.164z" fill="#00354a"/><path d="m4786.015 499.981v.164h2.619v-.164z" fill="#004d5c"/><path d="m4785.991 501.723v.165h2.622v-.165z" fill="#004d5c"/><path d="m4785.967 503.464v.166h2.625v-.166z" fill="#004d5c"/><path d="m4790.078 503.464v.166h.5v-.166z" fill="#004d5c"/><path d="m4790.05 501.723v.165h.5v-.165z" fill="#004d5c"/><path d="m4790.021 499.981v.164h.506v-.164z" fill="#004d5c"/><path d="m4789.991 498.239v.164h.511v-.164z" fill="#004d5c"/><path d="m4786.039 498.239v.164h2.616v-.164z" fill="#004d5c"/><path d="m4788.589 503.63-.017 1.442h1.533l-.024-1.442z" fill="#004d5c"/><path d="m4788.61 501.888-.019 1.577h1.486l-.026-1.577z" fill="#004d5c"/><path d="m4788.632 500.145-.019 1.578h1.437l-.026-1.578z" fill="#004d5c"/><path d="m4788.653 498.4-.02 1.578h1.387l-.026-1.578z" fill="#004d5c"/><path d="m4786.06 496.774v.278l2.608.452-.009.734h1.336l-.012-.734.507-.452v-.278h-4.423z" fill="#004d5c"/><path d="m4790.577 503.63.02 1.442h-.492l-.024-1.442zm-4.613 0-.019 1.442h2.627l.018-1.442z" fill="url(#z)"/><path d="m4788.664 497.5-.009.735h-2.616l.016-1.187zm1.315 0 .012.735h.512l-.016-1.187z" fill="url(#A)"/><path d="m4788.653 498.4-.019 1.578h-2.619l.022-1.578zm1.341 0 .027 1.578h.506l-.022-1.578z" fill="url(#B)"/><path d="m4788.632 500.145-.019 1.578h-2.622l.022-1.578zm1.391 0 .027 1.578h.5l-.022-1.578z" fill="url(#C)"/><path d="m4788.611 501.888-.019 1.576h-2.625l.022-1.576zm1.441 0 .026 1.576h.5l-.022-1.576z" fill="url(#D)"/><path d="m4788.783 495.191a2.768 2.768 0 0 1 -.191 1.1 11.741 11.741 0 0 1 -2.353 0 2.349 2.349 0 0 1 2.544-1.1z" fill="url(#E)"/><path d="m4787.879 497.58-1.64-.4v7.7h1.491z" fill="url(#F)"/><path d="m4816.75 467.14.383 15.073h-.18l-.421-15.073z" fill="#780634"/><path d="m4810.951 465.688-.449 23.01h-3.191l.731-23.01z" fill="#780634"/><path d="m4817.286 465.688.731 23.01h-7.517l.448-23.01h6.335zm-.153 16.526-.384-15.074h-4.988l-.384 15.074z" fill="url(#G)"/><path d="m4816.532 467.14.421 15.073h-5.576l.384-15.073z" fill="url(#H)"/><path d="m4811.907 467.565-.148 6.719 4.965 6.361-.327-13.278z" fill="url(#I)"/><path d="m4815.346 464.2.222 1.485h-5.453v-.781h.477l.136-1.6h1.859l.2.9h2.561z" fill="#348f8a"/><path d="m4814.343 461.4-.005.441v.11.309l-.114.11v.862.11.862h-.094v-.862-.11-.862l-.113-.11v-.309-.11l-.005-.441z" fill="#004d5c"/><path d="m4812.03 460.942v.109h-.381v.419.862h.257v.11h-.257v.862h-.094v-.862h-.274v-.11h.273v-.862-.529-.441h.116v.441z" fill="#004d5c"/><path d="m4810.927 460.26v.141h-.491v.4h.326v.141h-.327v1.112h.331v.141h-.331v1.111h-.121v-1.111h-.354v-.141h.353v-1.112h-.349v-.142h.348v-.4h-.513v-.141h.512v-.568h.15v.568z" fill="#004d5c"/><path d="m4810.727 463.3-.136 1.6h-.477v.781h-1.585v-.781h.576l.277-1.6h1.344z" fill="#004d5c"/><path d="m4816.613 470.028v-.077l-1.52-.007.005-2.8h-.128l.005 2.8-1.706-.008v-2.795h-.128v2.795l-1.458-.007v.124l1.461-.007.006 3.16-1.547-.008v.126l1.55-.008.005 3.16-1.635-.008v.127l1.64-.008v3.16l-1.725-.009v.127l1.728-.008v2.358h.074v-2.358l1.74-.009v2.367h.075l.005-2.367 1.814-.009v-.074l-1.812-.009v-3.178l1.717-.009v-.075l-1.714-.009v-3.178l1.62-.008v-.076l-1.618-.008.006-3.178zm-3.347.017 1.706-.009v3.178l-1.716-.009zm-.006 3.27 1.718-.008v3.177l-1.728-.008zm-.011 6.431v-3.161l1.729-.008.006 3.177z" fill="#348f8a"/><path d="m4811.088 465.81h6.044l.772 22.869h-.266l-.807-22.4-5.744.15z" fill="url(#J)"/><path d="m4815.217 465.688h-2.494l.108-.681h2.278z" fill="#3da8a3"/><path d="m4812.03 464.4h-.991l.043-.681h.905z" fill="#3da8a3"/><path d="m4812.831 465.007h-.5l-.306.681h.693z" fill="#004d5c"/><path d="m4810.563 485.609 7.562 2.208 1.135 18.271h-14.237l1.727-21.083z" fill="#780634"/><path d="m4793.038 501.509v4.691h-.9v-4.689zm2.364 0v4.691h5.412v-4.689zm-3.267-5.364v5.065h.9v-5.065zm3.267 0v5.065h5.412v-5.065zm-3.267-5.365v5.065h.9v-5.065zm3.267 0v5.065h5.412v-5.065zm-3.267-5.365v5.066h.9v-5.066zm3.267 0v5.066h5.412v-5.066zm-3.267-4.355v4.057h.9v-3.259zm3.267.8v3.259h5.412v-4.169z" fill="url(#K)"/><path d="m4797.3 481.954 3.11-.6v24.457h-3.45z" fill="url(#L)"/><path d="m4793.038 501.21h2.364v.299h-2.364z" fill="#00354a"/><path d="m4793.038 495.845h2.364v.3h-2.364z" fill="#00354a"/><path d="m4793.038 490.481h2.364v.3h-2.364z" fill="#00354a"/><path d="m4793.038 485.117h2.364v.299h-2.364z" fill="#00354a"/><path d="m4793.038 501.509h2.364v4.688h-2.364z" fill="#004d5c"/><path d="m4793.038 496.145h2.364v5.065h-2.364z" fill="#004d5c"/><path d="m4793.038 490.78h2.364v5.065h-2.364z" fill="#004d5c"/><path d="m4793.038 485.415h2.364v5.065h-2.364z" fill="#004d5c"/><path d="m4800.814 480.395v.555l-5.412.908v3.258h-2.364v-3.258l-.9-.8v-.665h8.679z" fill="#004d5c"/><path d="m4795.402 501.21h5.412v.299h-5.412z" fill="#004d5c"/><path d="m4792.135 501.21h.903v.299h-.903z" fill="#004d5c"/><path d="m4795.402 495.845h5.412v.3h-5.412z" fill="#004d5c"/><path d="m4792.135 495.845h.903v.3h-.903z" fill="#004d5c"/><path d="m4795.402 490.481h5.412v.3h-5.412z" fill="#004d5c"/><path d="m4792.135 490.481h.903v.3h-.903z" fill="#004d5c"/><path d="m4792.135 485.117h.903v.299h-.903z" fill="#004d5c"/><path d="m4795.402 485.117h5.412v.299h-5.412z" fill="#004d5c"/><path d="m4795.769 479.707-.044.688h-3.231l-.066-.688h3.342z" fill="#004d5c"/><path d="m4792.427 479.707.066.688h-.79l-.078-.688zm7.484 0h-4.142l-.045.688h5.522l.078-.688z" fill="url(#K)"/><path d="m4796.39 477.069v2.638h-2.79l.078-2.638h2.715z" fill="#780634"/><path d="m4793.674 477.069-.077 2.638h-.559l.166-2.638zm5.162 0h-2.446v2.638h3.521l-.166-2.638z" fill="url(#M)"/><path d="m4795 465.553-.153 6.2h-.571l.195-6.2z" fill="#ffd380"/><path d="m4795.309 453.162-.152 6.2h-.487l.195-6.2z" fill="#ffd380"/><path d="m4795 448.124.088.615h-.255l-.1-.615z" fill="#ffd380"/><path d="m4796.075 471.749-.058 5.32h-1.3l.131-5.32z" fill="#780634"/><path d="m4796.208 459.358-.067 6.2h-1.141l.152-6.2z" fill="#780634"/><path d="m4797.946 448.739.012.382-1.642.283-.04 3.758h-.967l.093-3.774-.411-.267.012-.382z" fill="#780634"/><path d="m4794.851 471.749-.131 5.32h-.607l.167-5.32zm1.224 0-.058 5.32h2.819l-.167-5.32z" fill="url(#M)"/><path d="m4798.474 465.553.195 6.2h-2.594l.067-6.2z" fill="#ffe696"/><path d="m4795.156 459.358-.152 6.2h-.529l.194-6.2zm1.053 0-.067 6.2h2.332l-.2-6.2z" fill="url(#M)"/><path d="m4798.085 453.162.194 6.2h-2.071l.067-6.2z" fill="#ffe696"/><path d="m4798.212 448.124-.1.615h-2v-.615z" fill="#ffe696"/><path d="m4795.4 449.388-.093 3.774h-.445l.127-4.041zm.914.016-.04 3.758h1.809l-.127-4.041z" fill="url(#M)"/><path d="m4796.142 465.553-.067 6.2h-1.224l.153-6.2zm-.833-12.391-.153 6.2h1.053l.067-6.2zm-.306-5.038.088.615h1.026v-.615z" fill="#de7373"/><path d="m4796.874 448.229v.391h1.164l.092-.424z" fill="#fff7cc" opacity=".4"/><path d="m4798.581 477.077-.754-27.754-.953.277.166 27.469h.731z" fill="url(#N)"/><path d="m4797.771 477.069v2.638h1.94l-.133-2.638-1 .008z" fill="url(#O)"/><path d="m4801.188 479.8-.125.49h-2.81l-.1-.424-1.942-.066z" fill="url(#P)"/><path d="m4798.934 452.529v-.1h-5.234v.1h.112v.629h-.112v.41h5.238v-.41h-.112v-.629zm-5.07.629v-.629h.357v.629zm.413 0v-.629h.357v.629zm.414 0v-.629h.357v.629zm.413 0v-.629h.357v.629zm.413 0v-.629h.357v.629zm.413 0v-.629h.357v.629zm.413 0v-.629h.357v.629zm.413 0v-.629h.357v.629zm.413 0v-.629h.357v.629zm.413 0v-.629h.357v.629zm.413 0v-.629h.357v.629zm.771 0h-.357v-.629h.357z" fill="url(#K)"/><path d="m4794.851 453.568h3.247l.008.272-1.84.272h-.983l-.437-.332z" fill="#de7373"/><path d="m4800.654 501.509v4.691h-.9v-4.689zm2.364 0v4.691h5.412v-4.689zm-3.267-5.364v5.065h.9v-5.065zm3.267 0v5.065h5.412v-5.065zm-3.267-5.365v5.065h.9v-5.065zm3.267 0v5.065h5.412v-5.065zm-3.267-5.365v5.066h.9v-5.066zm3.267 0v5.066h5.412v-5.066zm-3.267-4.355v4.057h.9v-3.259zm3.267.8v3.259h5.412v-4.169z" fill="url(#K)"/><path d="m4804.915 481.954 3.11-.6v24.457h-3.45z" fill="url(#Q)"/><path d="m4800.654 501.21h2.364v.299h-2.364z" fill="#00354a"/><path d="m4800.654 495.845h2.364v.3h-2.364z" fill="#00354a"/><path d="m4800.654 490.481h2.364v.3h-2.364z" fill="#00354a"/><path d="m4800.654 485.117h2.364v.299h-2.364z" fill="#00354a"/><path d="m4800.654 501.509h2.364v4.688h-2.364z" fill="#004d5c"/><path d="m4800.654 496.145h2.364v5.065h-2.364z" fill="#004d5c"/><path d="m4800.654 490.78h2.364v5.065h-2.364z" fill="#004d5c"/><path d="m4800.654 485.415h2.364v5.065h-2.364z" fill="#004d5c"/><path d="m4808.43 480.395v.555l-5.412.908v3.258h-2.364v-3.258l-.9-.8v-.665h8.679z" fill="#004d5c"/><path d="m4803.018 501.21h5.412v.299h-5.412z" fill="#004d5c"/><path d="m4799.751 501.21h.903v.299h-.903z" fill="#004d5c"/><path d="m4803.018 495.845h5.412v.3h-5.412z" fill="#004d5c"/><path d="m4799.751 495.845h.903v.3h-.903z" fill="#004d5c"/><path d="m4803.018 490.481h5.412v.3h-5.412z" fill="#004d5c"/><path d="m4799.751 490.481h.903v.3h-.903z" fill="#004d5c"/><path d="m4799.751 485.117h.903v.299h-.903z" fill="#004d5c"/><path d="m4803.018 485.117h5.412v.299h-5.412z" fill="#004d5c"/><path d="m4803.385 479.707-.044.688h-3.231l-.066-.688h3.342z" fill="#004d5c"/><path d="m4800.043 479.707.066.688h-.79l-.078-.688zm7.484 0h-4.142l-.045.688h5.522l.078-.688z" fill="url(#K)"/><path d="m4804.006 477.069v2.638h-2.793l.078-2.638z" fill="#780634"/><path d="m4801.29 477.069-.077 2.638h-.559l.166-2.638zm5.162 0h-2.446v2.638h3.521l-.166-2.638z" fill="url(#M)"/><path d="m4802.62 465.553-.153 6.2h-.571l.195-6.2z" fill="#ffd380"/><path d="m4802.925 453.162-.152 6.2h-.487l.194-6.2z" fill="#ffd380"/><path d="m4802.619 448.124.088.615h-.254l-.1-.615z" fill="#ffd380"/><path d="m4803.691 471.749-.058 5.32h-1.3l.131-5.32z" fill="#780634"/><path d="m4803.825 459.358-.067 6.2h-1.138l.152-6.2z" fill="#780634"/><path d="m4805.562 448.739.012.382-1.642.283-.04 3.758h-.967l.093-3.774-.411-.267.012-.382z" fill="#780634"/><path d="m4802.467 471.749-.131 5.32h-.607l.167-5.32zm1.224 0-.058 5.32h2.819l-.167-5.32z" fill="url(#M)"/><path d="m4806.09 465.553.195 6.2h-2.594l.067-6.2z" fill="#ffe696"/><path d="m4802.773 459.358-.153 6.2h-.529l.194-6.2zm1.052 0-.067 6.2h2.332l-.194-6.2z" fill="url(#M)"/><path d="m4805.7 453.162.195 6.2h-2.071l.067-6.2z" fill="#ffe696"/><path d="m4805.828 448.124-.1.615h-2v-.615z" fill="#ffe696"/><path d="m4803.018 449.388-.093 3.774h-.445l.127-4.041zm.914.016-.04 3.758h1.809l-.127-4.041z" fill="url(#M)"/><path d="m4803.758 465.553-.067 6.2h-1.224l.153-6.2zm-.833-12.391-.152 6.2h1.052l.067-6.2zm-.306-5.038.088.615h1.026v-.615z" fill="#de7373"/><path d="m4804.49 448.229v.391h1.164l.091-.424z" fill="#fff7cc" opacity=".4"/><path d="m4806.2 477.077-.753-27.754-.953.277.166 27.469h.731z" fill="url(#R)"/><path d="m4805.387 477.069v2.638h1.94l-.133-2.638-1 .008z" fill="url(#O)"/><path d="m4808.8 479.8-.125.49h-2.81l-.1-.424-1.941-.066z" fill="url(#P)"/><path d="m4806.55 452.529v-.1h-5.237v.1h.111v.629h-.111v.41h5.237v-.41h-.112v-.629zm-5.07.629v-.629h.357v.629zm.414 0v-.629h.357v.629zm.413 0v-.629h.357v.629zm.413 0v-.629h.357v.629zm.413 0v-.629h.357v.629zm.413 0v-.629h.357v.629zm.413 0v-.629h.357v.629zm.413 0v-.629h.357v.629zm.413 0v-.629h.357v.629zm.414 0v-.629h.357v.629zm.413 0v-.629h.357v.629zm.77 0h-.357v-.629h.357z" fill="url(#K)"/><path d="m4802.467 453.568h3.247l.008.272-1.84.272h-.983l-.437-.332z" fill="#de7373"/><path d="m4822.319 479.076.229 3.214h-4.422l.056-1.971zm-7.133 0-.229 3.214h.92l.11-2.139-.8-1.075z" fill="url(#S)"/><path d="m4822.6 482.984.4 5.59h-5.179l.211-4.755zm-7.7.083-.392 5.507h.934l.433-4.876z" fill="url(#T)"/><path d="m4823.055 489.406.388 5.453h-5.915l.188-4.655zm-8.611.089-.382 5.364h.883l.321-5.032z" fill="url(#T)"/><path d="m4823.469 495.214.588 8.257h-6.906l.255-6.706 6.1-1.041zm-9.479.654-.541 7.6h.987l.552-6.794z" fill="url(#T)"/><path d="m4819.671 480.291 2.264-.742 1.76 23.506h-4.29z" fill="url(#U)"/><path d="m4822.515 478.223-.225.454h-7.076l-.225-.454z" fill="#004d5c"/><path d="m4822.643 477.491v.732h-7.781v-.732z" fill="url(#K)"/><path d="m4817.151 494.859v.355h-2.45v-.355z" fill="#004d5c"/><path d="m4817.528 488.574v.355h-2.35l.011-.355z" fill="#004d5c"/><path d="m4817.882 482.29v.355h-2.3v-.355z" fill="#004d5c"/><path d="m4814.7 494.859v.355h-1.053v-.355zm8.742 0h-6.292v.355h6.706v-.355z" fill="url(#V)"/><path d="m4823.438 488.574v.355h-5.91v-.355zm-8.928 0h-.443v.355h1.111l.011-.355z" fill="url(#W)"/><path d="m4815.587 482.29v.355h-1.1v-.355zm6.961 0h-4.666v.355h5.138v-.355z" fill="url(#V)"/><path d="m4823.469 495.214.036.511-6.1 1.041-.255 6.706h-2.715l.553-6.794-1-.809.047-.654h9.432z" fill="#c26053"/><path d="m4823.021 488.929.034.477-5.338.8-.188 4.655h-2.583l.321-5.032-.823-.332.041-.566h8.536z" fill="#c26053"/><path d="m4822.573 482.645.024.339-4.571.835-.211 4.755h-2.372l.432-4.877-.975-.631.03-.422h7.642z" fill="#c26053"/><path d="m4822.291 478.676.029.4-4.138 1.243-.055 1.971h-2.25l.111-2.139-.8-1.075.029-.4z" fill="#c26053"/><path d="m4814.957 477.546h7.641l-.05.609h-2.748l-.2-.391-4.648-.044z" fill="url(#X)"/><path d="m4827.6 490.4-.033 1.44h-2.474a.614.614 0 0 0 -.455-.233h-.364c-.438 0-.793.575-.793 1.285s.355 1.284.793 1.284h.364a.585.585 0 0 0 .415-.192h2.465l-.077 3.39h-.6a.612.612 0 0 0 -.454-.233h-.364c-.438 0-.793.575-.793 1.284s.355 1.285.793 1.285h.364a.593.593 0 0 0 .416-.192h.59l-.117 5.117h-4.414l-.128-14.235z" fill="url(#Y)"/><path d="m4822.86 490.533 4.58.111-.348 13.456h-.3v-11.639l-3.662-.518z" fill="url(#Z)"/><path d="m4822.731 490.4.128 14.235h-2.869l-.415-14.235z" fill="#780634"/><path d="m4823.567 493.477.277 11.159h.908l-.015-10.651z" fill="#780634"/><path d="m4825.235 498.6.492 6.032h.728l.029-5.118z" fill="#780634"/><path d="m4825.914 497.88c-.222.634-.032 1.638.57 1.638h.317a.593.593 0 0 1 -.416.192c-.438 0-.793-.575-.793-1.285s.355-1.284.793-1.284a.612.612 0 0 1 .454.233h-.355c-.278 0-.468.213-.57.506z" fill="#43b8b3"/><path d="m4826.983 498.9a.738.738 0 0 0 .408.591v.03h-.306a1.251 1.251 0 0 1 -.295-.621z" fill="#00354a"/><path d="m4832.814 499.518a1.251 1.251 0 0 1 -.295-.621h.193c.078.341.25.605.508.605h.095v.016z" fill="#00354a"/><path d="m4834.351 499.106a1.7 1.7 0 0 0 -.383.487.311.311 0 0 0 -.028.118l-.016-.022-.018-.022-.018-.02-.021-.019a.151.151 0 0 0 -.021-.018.4.4 0 0 0 -.07-.044.461.461 0 0 1 .018-.047 1.857 1.857 0 0 1 .42-.543.487.487 0 0 1 .137.13z" fill="#00354a"/><path d="m0 0h.47v.189h-.47z" fill="#00354a" transform="matrix(1 -.01 .01 1 4834.016 501.059)"/><path d="m0 0h.495v.189h-.495z" fill="#00354a" transform="matrix(1 -.014 .014 1 4834.016 503.093)"/><path d="m0 0h.519v.189h-.519z" fill="#00354a" transform="matrix(1 -.014 .014 1 4834.016 505.126)"/><path d="m0 0h.543v.189h-.543z" fill="#00354a" transform="matrix(.9999468 -.01031471 .01031471 .9999468 4834.016 507.158)"/><path d="m0 0h.567v.189h-.567z" fill="#00354a" transform="matrix(.9999468 -.01031471 .01031471 .9999468 4834.016 509.191)"/><path d="m4836.162 509.378v.791h-1.562l-.01-.791z" fill="url(#aa)"/><path d="m4836.162 507.345v1.843h-1.578l-.022-1.843z" fill="url(#ab)"/><path d="m4836.162 505.311v1.844h-1.6l-.022-1.844z" fill="url(#ac)"/><path d="m4836.162 503.278v1.844h-1.627l-.021-1.844z" fill="url(#ad)"/><path d="m4836.162 501.245v1.844h-1.651l-.022-1.844z" fill="url(#ae)"/><path d="m4836.162 499.315v1.742h-1.675l-.02-1.635a.738.738 0 0 0 -.116-.316 3.253 3.253 0 0 1 1.372-.833.234.234 0 0 1 .147.018 1.933 1.933 0 0 1 .292 1.024z" fill="url(#af)"/><path d="m4835.721 498.083h-.021a3.385 3.385 0 0 0 -1.486.891.605.605 0 0 0 -.2-.079h-1.305a2.037 2.037 0 0 1 -.049-.452c0-.524.191-1.056.557-1.056h.095v-.015h.905a1.94 1.94 0 0 1 1.504.711z" fill="url(#ag)"/><path d="m4830.7 497.374h2.11a.922.922 0 0 0 -.168.237 1.915 1.915 0 0 0 -.172.834 2.245 2.245 0 0 0 .045.452h-1.815z" fill="url(#ah)"/><path d="m4827.586 497.374v.015h-.095a.461.461 0 0 0 -.052 0c-.332.049-.5.554-.5 1.053a2.037 2.037 0 0 0 .049.452h1.577v-1.523z" fill="url(#ai)"/><path d="m4827.085 497.374h-.6c-.278 0-.468.213-.57.506l.3 1.017h.575a2.177 2.177 0 0 1 -.046-.452 1.915 1.915 0 0 1 .173-.834.922.922 0 0 1 .168-.237z" fill="url(#ai)"/><path d="m4825.592 498.425c0 .71.355 1.285.793 1.285h-.364c-.438 0-.793-.575-.793-1.285s.355-1.284.793-1.284h.364c-.438 0-.793.575-.793 1.284z" fill="url(#aj)"/><g fill="#004d5c"><path d="m4827.085 499.518h-.6c-.6 0-.792-1-.57-1.638l.3 1.017h.575a1.251 1.251 0 0 0 .295.621z"/><path d="m4827.4 498.9-.014.591a.738.738 0 0 1 -.408-.591z"/><path d="m4828.56 498.9v.621h-.974v-.021h-.095a.335.335 0 0 1 -.1-.014l.014-.591z"/><path d="m4832.814 499.518h-2.11v-.618h1.815a1.251 1.251 0 0 0 .295.618z"/><path d="m4834.017 498.9a.605.605 0 0 1 .2.079 1.857 1.857 0 0 0 -.42.543.461.461 0 0 0 -.018.047.434.434 0 0 0 -.2-.048h-.261v-.021h-.095c-.258 0-.43-.264-.508-.605z"/><path d="m4834.467 499.422.02 1.635h-.47v-1.1a.42.42 0 0 0 -.015-.114l.011-.009-.024-.031a.342.342 0 0 0 -.049-.094.311.311 0 0 1 .028-.118 1.7 1.7 0 0 1 .383-.487.738.738 0 0 1 .116.318z"/><path d="m4834.489 501.245.022 1.844h-.494v-1.844z"/><path d="m4834.513 503.278.021 1.844h-.518v-1.844z"/><path d="m4834.538 505.311.022 1.844h-.542v-1.844z"/><path d="m4834.562 507.345.022 1.843h-.566v-1.843z"/><path d="m4834.585 509.378.01.791h-.578v-.791z"/><path d="m4834.584 509.189h1.577v.189h-1.577z"/><path d="m4834.561 507.156h1.601v.189h-1.601z"/><path d="m4834.536 505.123h1.625v.189h-1.625z"/><path d="m4834.512 503.09h1.649v.189h-1.649z"/><path d="m4834.488 501.057h1.674v.189h-1.674z"/><path d="m4834.214 498.976a3.385 3.385 0 0 1 1.486-.891h.021c.017.022.035.043.05.065s.019.025.028.038.037.052.054.079l.017.026a.234.234 0 0 0 -.147-.018 3.253 3.253 0 0 0 -1.372.833.487.487 0 0 0 -.137-.132z"/><path d="m4833.22 497.389c-.366 0-.557.532-.557 1.056a2.037 2.037 0 0 0 .049.452h-.193a2.245 2.245 0 0 1 -.045-.452 1.915 1.915 0 0 1 .172-.834.922.922 0 0 1 .168-.237h.5v.015z"/><path d="m4827.439 497.392c-.332.049-.5.554-.5 1.053a2.037 2.037 0 0 0 .049.452h-.193a2.177 2.177 0 0 1 -.046-.452 1.915 1.915 0 0 1 .173-.834.922.922 0 0 1 .168-.237h.355z"/></g><path d="m4827.255 493.364a.95.95 0 0 0 .265.512v.108h-.16a1.231 1.231 0 0 1 -.295-.62z" fill="#00354a"/><path d="m4825.235 493.364c.079.34.25.6.508.6h.095v.015h-.5a1.231 1.231 0 0 1 -.295-.62z" fill="#00354a"/><path d="m4827.531 493.364-.011.512a.95.95 0 0 1 -.265-.512z" fill="#004d5c"/><path d="m4827.565 491.915a1.237 1.237 0 0 0 -.36 1 2.037 2.037 0 0 0 .05.452h-.193a2.191 2.191 0 0 1 -.046-.452 1.912 1.912 0 0 1 .173-.834.905.905 0 0 1 .168-.238h.209z" fill="#004d5c"/><path d="m4825.338 491.84h.5v.016h-.095c-.366 0-.557.531-.557 1.056a2.037 2.037 0 0 0 .049.452h-.193a2.225 2.225 0 0 1 -.046-.452 1.9 1.9 0 0 1 .174-.834.905.905 0 0 1 .168-.238z" fill="#004d5c"/><path d="m4824.737 493.984h.315a.585.585 0 0 1 -.415.192c-.438 0-.793-.575-.793-1.284s.355-1.285.793-1.285a.614.614 0 0 1 .455.233h-.355c-.278 0-.469.214-.571.507-.222.634-.032 1.637.571 1.637z" fill="#43b8b3"/><path d="m4823.844 492.892c0 .709.355 1.284.793 1.284h-.364c-.438 0-.793-.575-.793-1.284s.355-1.285.793-1.285h.364c-.437 0-.793.575-.793 1.285z" fill="url(#ak)"/><path d="m4827.357 493.984h-1.519v-.015h-.095c-.258 0-.429-.265-.508-.6h1.827a1.231 1.231 0 0 0 .295.615z" fill="#004d5c"/><path d="m4825.337 493.984h-.6c-.6 0-.793-1-.571-1.637l.3 1.017h.574a1.231 1.231 0 0 0 .297.62z" fill="#004d5c"/><path d="m4827.357 491.84h-1.519v.016h-.095c-.366 0-.557.531-.557 1.056a2.037 2.037 0 0 0 .049.452h1.827a2.191 2.191 0 0 1 -.046-.452 1.912 1.912 0 0 1 .173-.834.905.905 0 0 1 .168-.238z" fill="url(#al)"/><path d="m4825.338 491.84h-.6c-.278 0-.469.214-.571.507l.3 1.017h.574a2.225 2.225 0 0 1 -.046-.452 1.9 1.9 0 0 1 .174-.834.905.905 0 0 1 .169-.238z" fill="url(#al)"/><path d="m4826.422 497.43a.6.6 0 0 0 -.356.357l8.365.276a1.128 1.128 0 0 1 .855.8l.029 11.275h.66v-11.038a1.61 1.61 0 0 0 -1.587-1.547z" fill="url(#am)"/><path d="m0 0h.567v.189h-.567z" fill="#00354a" transform="matrix(.9999468 -.01031471 .01031471 .9999468 4828.559 503.658)"/><path d="m0 0h.543v.189h-.543z" fill="#00354a" transform="matrix(.9999468 -.01031471 .01031471 .9999468 4828.559 501.625)"/><path d="m0 0h.519v.189h-.519z" fill="#00354a" transform="matrix(.99990567 -.01373531 .01373531 .99990567 4828.558 499.592)"/><path d="m0 0h.495v.19h-.495z" fill="#00354a" transform="matrix(.99990567 -.01373531 .01373531 .99990567 4828.558 497.559)"/><path d="m0 0h.47v.189h-.47z" fill="#00354a" transform="matrix(1 -.01 .01 1 4828.559 495.525)"/><path d="m4828.893 493.573a1.7 1.7 0 0 0 -.383.486.314.314 0 0 0 -.027.118l-.016-.022-.015-.018-.01-.01-.012-.013-.02-.019-.021-.018a.38.38 0 0 0 -.046-.031.125.125 0 0 0 -.024-.013c.005-.015.01-.03.017-.047a1.877 1.877 0 0 1 .421-.543.474.474 0 0 1 .136.13z" fill="#00354a"/><path d="m4829.127 503.655h1.577v.189h-1.577z" fill="#004d5c"/><path d="m4829.103 501.622h1.601v.189h-1.601z" fill="#004d5c"/><path d="m4829.079 499.589h1.625v.189h-1.625z" fill="#004d5c"/><path d="m4829.055 497.556h1.649v.19h-1.649z" fill="#004d5c"/><path d="m4829.03 495.523h1.674v.189h-1.674z" fill="#004d5c"/><path d="m4828.757 493.442a3.387 3.387 0 0 1 1.485-.89h.022l.045.058c.011.015.022.029.032.044.022.031.044.062.064.094l.008.013a.228.228 0 0 0 -.148-.02 3.279 3.279 0 0 0 -1.372.834.474.474 0 0 0 -.136-.133z" fill="#004d5c"/><path d="m4829.128 503.844.01.791h-.578v-.791z" fill="#004d5c"/><path d="m4829.1 501.811.022 1.843h-.566v-1.843z" fill="#004d5c"/><path d="m4829.08 499.778.022 1.843h-.542v-1.843z" fill="#004d5c"/><path d="m0 0h.517v.071h-.517z" fill="#004d5c" transform="matrix(1 -.009 .009 1 4828.559 499.52)"/><path d="m0 0h.513v.621h-.513z" fill="#004d5c" transform="matrix(.99993345 -.01153637 .01153637 .99993345 4828.556 498.9)"/><path d="m4829.056 497.745.014 1.152h-.51v-1.152z" fill="#004d5c"/><path d="m0 0h.493v.182h-.493z" fill="#004d5c" transform="matrix(1 -.011 .011 1 4828.559 497.376)"/><path d="m4829.031 495.712.02 1.662h-.492v-1.662z" fill="#004d5c"/><path d="m4829.01 493.889.019 1.634h-.469v-1.1a.427.427 0 0 0 -.016-.115l.011-.008-.023-.032a.476.476 0 0 0 -.049-.094.314.314 0 0 1 .027-.118 1.7 1.7 0 0 1 .383-.486.726.726 0 0 1 .117.319z" fill="#004d5c"/><path d="m4828.56 493.364a.614.614 0 0 1 .2.078 1.877 1.877 0 0 0 -.421.543c-.007.017-.012.032-.017.047a.451.451 0 0 0 -.2-.048h-.261v-.015h-.094a.368.368 0 0 1 -.243-.093l.011-.512z" fill="#004d5c"/><path d="m4829.138 504.635h1.566v-.791h-1.576z" fill="url(#an)"/><path d="m4829.126 503.655h1.578v-1.843h-1.6z" fill="url(#ao)"/><path d="m4829.1 501.622h1.6v-1.843h-1.624z" fill="url(#ap)"/><path d="m4829.069 498.9.007.621v.071h1.627v-1.843h-1.648z" fill="url(#s)"/><path d="m4829.051 497.374v.182h1.651v-1.844h-1.673z" fill="url(#t)"/><path d="m4830.413 492.759a.228.228 0 0 0 -.148-.02 3.279 3.279 0 0 0 -1.372.834.726.726 0 0 1 .117.316l.019 1.634h1.675v-1.741a1.935 1.935 0 0 0 -.291-1.023z" fill="url(#u)"/><path d="m4828.762 491.84h-.905v.016h-.094a.352.352 0 0 0 -.2.059 1.237 1.237 0 0 0 -.36 1 2.037 2.037 0 0 0 .05.452h1.305a.614.614 0 0 1 .2.078 3.387 3.387 0 0 1 1.485-.89h.022a1.941 1.941 0 0 0 -1.503-.715z" fill="url(#aq)"/><path d="m4824.637 491.929a.6.6 0 0 0 -.356.358l4.634.158a1.127 1.127 0 0 1 .855.8l.11 11.392h.661l-.082-11.158a1.613 1.613 0 0 0 -1.587-1.548z" fill="url(#ar)"/><path d="m4815.193 494.156v.377h-.64v-.377zm6.09 0h-4v.377h4.193v-.377z" fill="url(#K)"/><path d="m4816.981 492.232.024.1a2.639 2.639 0 0 0 -1.621 1.829h-.467a2.532 2.532 0 0 1 2.064-1.929zm0 0 .024.1a3.866 3.866 0 0 0 .033 1.829h4.245c-.283-1.732-2.549-2.374-4.302-1.929z" fill="url(#as)"/><path d="m4817.038 494.156h-1.654a2.639 2.639 0 0 1 1.621-1.829 3.866 3.866 0 0 0 .033 1.829z" fill="#004d5c"/><path d="m4815.384 494.156h1.9v.376h-2.1v-.376z" fill="#004d5c"/><path d="m4817.634 504.256v.241h-2.167v-.241z" fill="#00354a"/><path d="m4817.6 501.725v.24h-2.1v-.24z" fill="#00354a"/><path d="m4817.572 499.193v.239h-2.022v-.239z" fill="#00354a"/><path d="m4817.542 496.661v.238h-1.942v-.238z" fill="#00354a"/><path d="m4821.378 499.193v.239h-3.806v-.239z" fill="#004d5c"/><path d="m4821.414 501.725v.24h-3.811v-.24z" fill="#004d5c"/><path d="m4821.448 504.256v.241h-3.815v-.241z" fill="#004d5c"/><path d="m4815.473 504.256v.241h-.721v-.241z" fill="#004d5c"/><path d="m4815.515 501.725v.24h-.727v-.24z" fill="#004d5c"/><path d="m4815.557 499.193v.239h-.735v-.239z" fill="#004d5c"/><path d="m4815.6 496.661v.238h-.743v-.238z" fill="#004d5c"/><path d="m4821.343 496.661v.238h-3.8v-.238z" fill="#004d5c"/><path d="m4817.637 504.5.025 2.1h-2.228l.035-2.1z" fill="#004d5c"/><path d="m4817.606 501.964.027 2.291h-2.161l.038-2.291z" fill="#004d5c"/><path d="m4817.576 499.432.027 2.293h-2.088l.039-2.293z" fill="#004d5c"/><path d="m4817.544 496.9.028 2.293h-2.015l.039-2.293z" fill="#004d5c"/><path d="m4821.314 494.533.006.4-3.791.657.013 1.067h-1.942l.018-1.067-.737-.657.006-.4h6.428z" fill="#004d5c"/><path d="m4815.469 504.5-.035 2.1h-.714l.028-2.1zm5.982 0h-3.814l.025 2.1h3.819l-.029-2.1z" fill="url(#K)"/><path d="m4821.32 494.937.023 1.724h-3.8l-.013-1.067zm-6.44 0-.024 1.724h.743l.018-1.067z" fill="url(#K)"/><path d="m4821.347 496.9.032 2.293h-3.807l-.028-2.293zm-6.494 0-.032 2.293h.736l.038-2.293z" fill="url(#K)"/><path d="m4821.382 499.432.032 2.293h-3.814l-.027-2.293zm-6.564 0-.031 2.293h.728l.038-2.293z" fill="url(#K)"/><path d="m4821.417 501.964.031 2.292h-3.814l-.028-2.292zm-6.634 0-.031 2.292h.721l.038-2.292z" fill="url(#K)"/><path d="m4817.356 492.232a4.024 4.024 0 0 0 .278 1.6 17.147 17.147 0 0 0 3.419 0 3.414 3.414 0 0 0 -3.697-1.6z" fill="url(#at)"/><path d="m4818.67 495.7 2.383-.582v11.192h-2.167z" fill="url(#au)"/><path d="m4790.415 493.668v.363h-.618v-.363zm5.881 0h-3.858v.363h4.049v-.363z" fill="url(#K)"/><path d="m4792.142 491.81.023.091a2.552 2.552 0 0 0 -1.565 1.767h-.451a2.443 2.443 0 0 1 1.993-1.858zm0 0 .023.091a3.754 3.754 0 0 0 .032 1.767h4.1c-.279-1.668-2.462-2.288-4.155-1.858z" fill="url(#av)"/><path d="m4792.2 493.668h-1.6a2.552 2.552 0 0 1 1.565-1.767 3.754 3.754 0 0 0 .035 1.767z" fill="#004d5c"/><path d="m4790.6 493.668h1.838v.363h-2.023v-.363z" fill="#004d5c"/><path d="m4792.772 503.421v.233h-2.093v-.233z" fill="#00354a"/><path d="m4792.743 500.977v.231h-2.023v-.231z" fill="#00354a"/><path d="m4792.713 498.532v.231h-1.953v-.231z" fill="#00354a"/><path d="m4792.684 496.087v.23h-1.884v-.23z" fill="#00354a"/><path d="m4796.389 498.532v.231h-3.676v-.231z" fill="#004d5c"/><path d="m4796.423 500.977v.231h-3.68v-.231z" fill="#004d5c"/><path d="m4796.456 503.421v.233h-3.685v-.233z" fill="#004d5c"/><path d="m4790.686 503.421v.233h-.7v-.233z" fill="#004d5c"/><path d="m4790.726 500.977v.231h-.7v-.231z" fill="#004d5c"/><path d="m4790.767 498.532v.231h-.71v-.231z" fill="#004d5c"/><path d="m4790.808 496.087v.23h-.717v-.23z" fill="#004d5c"/><path d="m4796.355 496.087v.23h-3.672v-.23z" fill="#004d5c"/><path d="m4792.775 503.654.024 2.024h-2.152l.034-2.024z" fill="#004d5c"/><path d="m4792.746 501.208.027 2.213h-2.087l.037-2.213z" fill="#004d5c"/><path d="m4792.716 498.763.026 2.214h-2.017l.037-2.214z" fill="#004d5c"/><path d="m4792.686 496.317.027 2.215h-1.946l.037-2.215z" fill="#004d5c"/><path d="m4796.327 494.031.005.391-3.661.635.013 1.031h-1.876l.017-1.031-.712-.635.006-.391z" fill="#004d5c"/><path d="m4790.682 503.654-.034 2.024h-.69l.028-2.024zm5.777 0h-3.684l.025 2.024h3.687l-.027-2.024z" fill="url(#K)"/><path d="m4796.332 494.422.023 1.665h-3.671l-.013-1.031zm-6.219 0-.023 1.665h.718l.017-1.031z" fill="url(#K)"/><path d="m4796.358 496.317.031 2.215h-3.676l-.027-2.215zm-6.271 0-.031 2.215h.711l.037-2.215z" fill="url(#K)"/><path d="m4796.392 498.763.031 2.214h-3.68l-.027-2.214zm-6.339 0-.03 2.214h.7l.037-2.214z" fill="url(#K)"/><path d="m4796.426 501.208.03 2.213h-3.684l-.026-2.213zm-6.406 0-.031 2.213h.7l.036-2.213z" fill="url(#K)"/><path d="m4792.5 491.81a3.891 3.891 0 0 0 .268 1.544 16.588 16.588 0 0 0 3.3 0 3.3 3.3 0 0 0 -3.568-1.544z" fill="url(#aw)"/><path d="m4793.773 495.162 2.3-.562v10.805h-2.093z" fill="url(#au)"/><path d="m4816.231 496.251h-11.008v-.4h11.008zm-.164 0-.141 10.439h-10.4l-.141-10.439h.131l.014 1.061.048.164.3-1.014-.056-.192.062-.018h.124l.063.018-.057.192.3 1.014.3-1.014-.056-.192.062-.018h.124l.063.018-.057.192.3 1.014.3-1.014-.057-.192.063-.018h.124l.062.018-.056.192.3 1.014.3-1.013-.057-.193.062-.018h.125l.062.018-.057.193.3 1.013.3-1.013-.056-.193.062-.018h.124l.063.018-.057.193.3 1.013.3-1.014-.056-.192.062-.018h.124l.063.018-.057.192.3 1.014.3-1.014-.057-.192.063-.018h.124l.062.018-.056.192.3 1.014.3-1.013-.057-.193.062-.018h.125l.062.018-.057.193.3 1.013.3-1.013-.056-.193.062-.018h.124l.063.018-.057.193.3 1.013.3-1.014-.057-.192.063-.018h.124l.063.018-.057.192.3 1.014.3-1.014-.057-.192.063-.018h.124l.062.018-.056.192.3 1.014.3-1.014-.057-.192.062-.018h.125l.062.018-.057.192.3 1.014.3-1.013-.056-.193.062-.018h.124l.063.018-.057.193.3 1.013.3-1.014-.057-.192.063-.018h.124l.062.018-.056.192.3 1.014.07-.238.013-.987zm-.214 1.684-.3 1.014.3 1.014.035-.119.023-1.712zm-9.838 5.991.3 1.013.3-1.013-.3-1.014zm.231-1.245-.3-1.014-.3 1.014.3 1.014zm.435 1.014.3-1.014-.3-1.014-.3 1.014zm-.3 1.475.3 1.014.3-1.014-.3-1.014zm.666-.231.3-1.013-.3-1.014-.3 1.014zm.367-1.244.3-1.014-.3-1.014-.3 1.014zm-.3 1.475.3 1.014.3-1.014-.3-1.014zm.666-.231.3-1.013-.3-1.014-.3 1.014zm.367-1.244.3-1.014-.3-1.014-.3 1.014zm-.3 1.475.3 1.014.3-1.014-.3-1.014zm.665-.231.3-1.013-.3-1.014-.3 1.014zm.367-1.244.3-1.014-.3-1.014-.3 1.014zm-.3 1.475.3 1.014.3-1.014-.3-1.014zm.666-.231.3-1.013-.3-1.014-.3 1.014zm.367-1.244.3-1.014-.3-1.014-.3 1.014zm-.3 1.475.3 1.014.3-1.014-.3-1.014zm.666-.231.3-1.013-.3-1.014-.3 1.014zm.367-1.244.3-1.014-.3-1.014-.3 1.014zm-.3 1.475.3 1.014.3-1.014-.3-1.014zm.666-.231.3-1.013-.3-1.014-.3 1.014zm.367-1.244.3-1.014-.3-1.014-.3 1.014zm-.3 1.475.3 1.014.3-1.014-.3-1.014zm.665-.231.3-1.013-.3-1.014-.3 1.014zm.367-1.244.3-1.014-.3-1.014-.3 1.014zm-.3 1.475.3 1.014.3-1.014-.3-1.014zm.666-.231.3-1.013-.3-1.014-.3 1.014zm.367-1.244.3-1.014-.3-1.014-.3 1.014zm-.3 1.475.3 1.014.3-1.014-.3-1.014zm.666-.231.3-1.013-.3-1.014-.3 1.014zm.367-1.244.3-1.014-.3-1.014-.3 1.014zm-.3 1.475.3 1.014.3-1.014-.3-1.014zm.666-.231.3-1.013-.3-1.014-.3 1.014zm.366-1.244.3-1.014-.3-1.014-.3 1.014zm-.3 1.475.3 1.014.3-1.014-.3-1.014zm.665-.231.3-1.013-.3-1.014-.3 1.014zm.367-1.244.3-1.014-.3-1.014-.3 1.014zm-.3 1.475.3 1.014.3-1.014-.3-1.014zm.666-.231.3-1.013-.3-1.014-.3 1.014zm.367-1.244.3-1.014-.3-1.014-.3 1.014zm0-2.488.3-1.014-.3-1.014-.3 1.014zm-.367-.784-.3 1.014.3 1.014.3-1.014zm-.068-.23-.3-1.014-.3 1.014.3 1.014zm-.666.23-.3 1.014.3 1.014.3-1.014zm-.068-.23-.3-1.014-.3 1.014.3 1.014zm-.665.23-.3 1.014.3 1.014.3-1.014zm-.068-.23-.3-1.014-.3 1.014.3 1.014zm-.666.23-.3 1.014.3 1.014.3-1.014zm-.068-.23-.3-1.014-.3 1.014.3 1.014zm-.666.23-.3 1.014.3 1.014.3-1.014zm-.068-.23-.3-1.014-.3 1.014.3 1.014zm-.666.23-.3 1.014.3 1.014.3-1.014zm-.067-.23-.3-1.014-.3 1.014.3 1.014zm-.666.23-.3 1.014.3 1.014.3-1.014zm-.068-.23-.3-1.014-.3 1.014.3 1.014zm-.666.23-.3 1.014.3 1.014.3-1.014zm-.068-.23-.3-1.014-.3 1.014.3 1.014zm-.666.23-.3 1.014.3 1.014.3-1.014zm-.068-.23-.3-1.014-.3 1.014.3 1.014zm-.666.23-.3 1.014.3 1.014.3-1.014zm-.067-.23-.3-1.014-.3 1.014.3 1.014zm-.666.23-.3 1.014.3 1.014.3-1.014zm-.068-.23-.3-1.014-.3 1.014.3 1.014zm-.666.23-.3 1.014.3 1.014.3-1.014zm-.068-.23-.3-1.014-.3 1.014.3 1.014zm-.666.23-.3 1.014.3 1.014.3-1.014zm-.068-.23-.3-1.014-.3 1.014.3 1.014zm-.666.23-.006.021.026 1.94.279-.947zm.052 4.34.247-.837-.27-.919zm.016.407.3 1.014.3-1.014-.3-1.014zm.41 1.389h.512l.043-.145-.3-1.014-.3 1.014zm.734 0h.512l.043-.145-.3-1.014-.3 1.014zm.734 0h.512l.043-.145-.3-1.014-.3 1.014zm.733 0h.513l.042-.145-.3-1.014-.3 1.014zm.734 0h.512l.043-.145-.3-1.014-.3 1.014zm.734 0h.512l.043-.145-.3-1.014-.3 1.014zm.734 0h.512l.043-.145-.3-1.014-.3 1.014zm.733 0h.512l.043-.145-.3-1.014-.3 1.014zm.734 0h.512l.043-.145-.3-1.014-.3 1.014zm.734 0h.512l.043-.145-.3-1.014-.3 1.014zm.734 0h.512l.043-.145-.3-1.014-.3 1.014zm.733 0h.512l.043-.145-.3-1.014-.3 1.014zm.734 0h.512l.043-.145-.3-1.014-.3 1.014zm.623-.375.3-1.014-.3-1.014-.3 1.014zm.335-1.353.025-1.9-.292.992zm.058-4.319-.026-.089-.3 1.014.3 1.014zm-.692-2.807.3 1.014.3-1.014-.3-1.014zm-.367 1.244.3 1.014.3-1.014-.3-1.014zm-.367-1.244.3 1.014.3-1.014-.3-1.014zm-.068.23-.3 1.014.3 1.014.3-1.014zm-.665-.23.3 1.014.3-1.014-.3-1.014zm-.068.23-.3 1.014.3 1.014.3-1.014zm-.666-.23.3 1.014.3-1.014-.3-1.014zm-.068.23-.3 1.014.3 1.014.3-1.014zm-.666-.23.3 1.014.3-1.014-.3-1.014zm-.367 1.244.3 1.014.3-1.014-.3-1.014zm-.367-1.244.3 1.014.3-1.014-.3-1.014zm-.068.23-.3 1.014.3 1.014.3-1.014zm-.665-.23.3 1.014.3-1.014-.3-1.014zm-.068.23-.3 1.014.3 1.014.3-1.014zm-.666-.23.3 1.014.3-1.014-.3-1.014zm-.068.23-.3 1.014.3 1.014.3-1.014zm-.666-.23.3 1.014.3-1.014-.3-1.014zm-.367 1.244.3 1.014.3-1.014-.3-1.014zm-.367-1.244.3 1.014.3-1.014-.3-1.014zm-.068.23-.3 1.014.3 1.014.3-1.014zm-.665-.23.3 1.014.3-1.014-.3-1.014zm-.068.23-.3 1.014.3 1.014.3-1.014zm-.666-.23.3 1.014.3-1.014-.3-1.014zm-.068.23-.3 1.014.3 1.014.3-1.014zm-.666-.23.3 1.014.3-1.014-.3-1.014zm-.367 1.244.3 1.014.3-1.014-.3-1.014zm-.367-1.244.3 1.014.3-1.014-.3-1.014zm-.106.36.025 1.852.013.046.3-1.014-.3-1.014zm.115 8.494h.18l.042-.145-.235-.8zm10.14 0 .014-1.018-.257.873.043.145z" fill="url(#ax)"/><path d="m4806.282 486.136v1.121.143 1.121h-.122v-1.121-.143-1.121l-.148-.143v-.4-.143l-.006-.573h.464l-.007.573v.143.4z" fill="#348f8a"/><path d="m4801.365 483.578v.519h.424v.184h-.424l-.006 1.444h.43v.184h-.431l-.006 1.445h-.157l-.006-1.445h-.46v-.184h.459l-.006-1.444h-.453v-.181h.453v-.519h-.666v-.184h.666v-.738h.195v.738h.623v.184z" fill="#348f8a"/><path d="m4802.942 484.423v.4.143 1.121h.334v.143h-.334v1.121h-.123v-1.121h-.356v-.143h.356v-1.121-.143-.4-.143-.573h.151v.573h.495v.143z" fill="#348f8a"/><path d="m4801.743 487.353-.177 2.082h-.619v1.016h-2.06v-1.016h.749l.36-2.082z" fill="#004d5c"/><path d="m4807.748 488.52.289 1.931h-7.089v-1.016h.619l.177-2.082h2.417l.26 1.167h3.328z" fill="#348f8a"/><path d="m4801.6 490.451v.887h-4.3v-.887z" fill="#de7373"/><path d="m4809.624 490.451v.887h-8.024v-.887z" fill="#ffe696"/><path d="m4801.843 491.338.155 15.384h-4.243l-.212-15.384z" fill="#780634"/><path d="m4808.644 499.717h.272v1.907h-.272z" fill="#780634"/><path d="m4808.644 496.603h.272v1.907h-.272z" fill="#780634"/><path d="m4808.644 493.488h.272v1.907h-.272z" fill="#780634"/><path d="m4808.644 499.717v1.907h-6.3v-1.907zm-6.3-3.114v1.906h6.3v-1.909zm0-3.115v1.907h6.3v-1.907z" fill="url(#ay)"/><path d="m4809.381 491.338-.213 15.384h-7.168l-.155-15.384zm-.466 10.286v-1.907h-6.573v1.907zm0-3.115v-1.909h-6.573v1.906h6.573zm0-3.114v-1.907h-6.573v1.907z" fill="url(#az)"/><path d="m4801.851 492.095 7.523-.327.006-.43h-7.538z" fill="#780634"/><path d="m4802.476 493.675.1.766 5.852.68.02-1.363z" fill="url(#aA)"/><path d="m4802.476 496.692.1.766 5.852.68.02-1.363z" fill="url(#aB)"/><path d="m4802.476 499.858.1.766 5.852.68.02-1.363z" fill="url(#aC)"/><path d="m4803.532 495.395h.116l.006-1.907h-.127z" fill="#348f8a"/><path d="m4804.852 495.395h.115l.006-1.907h-.127z" fill="#348f8a"/><path d="m4804.861 498.509h.1l.006-1.907h-.108z" fill="#348f8a"/><path d="m4806.165 493.488.006 1.907h.116l.006-1.907z" fill="#348f8a"/><path d="m4806.282 496.6h-.108l.006 1.907h.1z" fill="#348f8a"/><path d="m4803.639 498.509.005-1.907h-.108l.006 1.907z" fill="#348f8a"/><path d="m4804.954 499.717h-.089l.006 1.907h.077z" fill="#348f8a"/><path d="m4807.493 496.6.006 1.907h.1l.006-1.907z" fill="#348f8a"/><path d="m4803.629 501.624.006-1.907h-.089l.006 1.907z" fill="#348f8a"/><path d="m4807.483 493.488.006 1.907h.116l.006-1.907z" fill="#348f8a"/><path d="m4806.272 499.717h-.089l.006 1.907h.077z" fill="#348f8a"/><path d="m4807.592 499.717h-.089l.006 1.907h.078z" fill="#348f8a"/><path d="m4825.658 508.045a1.147 1.147 0 0 0 .881-.426l.006.005.264.976.78.288.651.213.4.7.85.352.774.131.471.066.112.4 1.152.175.132.322-.667-.022-2.85.018-.429-.189v-.4l-1.433-.1-2.054-.065h-.358l-.736.437-1.671.66-2.607.15-1.619.077-1.168-.136-.374.173-.58.012-.3.983-.689.11-1.835.975-5.154.017.021-.111-.4-.036-.076-.377-1.574-.233-.257-1.529-.53-.155-.121-.217-.315-.043 1.132-.093 1.309.085.99-.612.717-.067 1.472-.251 2.419-.376 1.527-.059 1.664.056 1.652-.039.918-.19.292-1.3-.046-.616.351-.158.429-.2.3-.021.289-.178h.006a1.032 1.032 0 0 0 .882.665l4.841.154z" fill="#692f06"/><path d="m4839.275 509.954-.447.288-.12.031-.43.06-.256-.1-.45-.012-.515-.045-.366.1-.573.132-.622.039-1.266.145-.74.027-.508-.186-1.329-.1-.917.019-.47-.066-.774-.132-.851-.352.255-.023.6-.016 1.355.016.855-.033.939.04.893.09.536.145.816.1.239-.057.035-.087.2-.126 1.249-.022.863.033h.843l.683.016z" fill="#db9825"/><path d="m4847.046 507.96-.1 1-.043.057-.132.039-.387.151-.187-.045-.467-.01-.408.147-1.29.3-1.1-.211h-.342l-.489.065-.625.588-.246-.067h-1.063l-.549-.466h-.3l-.673-.059-.99-.06-.959-.178-.358.049-.881.179-.7.2-.857-.26-1.382-.186-2 .094-1.056-.186h-.887l-.344-.01-.651-.213-.78-.288-.264-.976-.006-.005a3.5 3.5 0 0 0 .67-2.052l1.036.162 1.164.249 1.249.5.682.176.773-.007.474-.034.763-.447.586.1.387.5.116.4.123.264-.012.4.135.328.5.151.853.114.745.361.5-.058.993.112.632.307.709.044 1.445.22.379-.68h.8l1.372-.191 1.188.129 1.57-.774z" fill="#db9825"/><path d="m4835.186 504.83.077 1.973-.083 1.5-.5-.151-.135-.328.012-.4-.123-.264-.116-.4-.387-.5-.586-.1-.763.447-.474.034-.773.007-.682-.176-1.249-.5-1.164-.249-1.036-.162a3.707 3.707 0 0 0 -.763-2.712l.12-.122.374.372 2.878.721.739-.1.6-.122.553.305.608-.107.706-.137 1.178.212z" fill="#e8ac43"/><path d="m4825.506 502.53-4.841.155c-.607 0-1 .668-1.168 1.527-.028.14-.05.286-.066.435l-.3-.039-.387.044-.513.346-.2-.045-.558-.009-.018-.492-1.363.109-.8.127h-.18l-.434 1.106-.168-.243-.285.077-.41.186-.606-.087-1.081-.613-.178-.781.185-.121.4-1.28 1.494-.242 1.183.391 1.1-.475 2.434-.827 1.723-.435.741-.079.738-.392.432.027.565-.119.86.193 1.21.531.547.234 1 .995-.12.122a1.111 1.111 0 0 0 -.788-.329z" fill="#db9825"/><path d="m4812.664 507.658-.46.633-.755-.031-1.322.325-.011-.1-2.158.1-1.572.245.264.423-.1.868-1.509.01-1.376-.107-.146-.761.6-.486-.1-.253-1.827.135-.479.295-.546-.122-3.152-1.059-1.835-.309.193.951-1.065.6-1.094-.164-.647-.578-.587-.156-.215-.326-.586-.153-3.827-1.085-1.055.134-.059-.667-.954-.606-1.507-.746-.865-.444.186-.505-.029-.615-.457-.01-1.035-1.259 2.321.5-.006.258.3.359.225.309.132.236.21.034.762.355.953.42.511.175.084.322.087.077.627.189 1.416.317 1.133.161.148.035-.077-.409-.264-.08-.874-.275-.743-.222-.148-.054-.068-.1-.209-.068-.4-.167-.184-.231-.292-.417-.892-.372-1.185-.752-.9-1.167 2.14.8.4.426.6-.139 1.3.789 1.377.837 1.57.608.506.357.008.036.3.35.828.311.591.6.86.2.745.121-.022-.188-.145-.044-.663-.28-.718-.413-.386-.339-.626-.287-.53-.753 1.677.257.378.138.045.221.309.315.664.323.988.574.853.079.772.145.888.163.624.078.246.01.023-.193h.01l-.009-.009v.005l-.576-.215-.459-.245-1.321-.216-.526-.128-.687-.447-.736-.364-.274-.2-.186-.307 1.136.275 1.388.6 1.758.324.388.443.507.171 1.031.27.184.182.693.263.391.192.071.307 1.069.165 1.073.147 1.285-.07.158-.145.6.193-.218-.2-.48-.229-.075-.055-.19.1-.935-.009-1.152-.254-.441-.111-.25-.078-.266-.3.006-.347-.878-.357-.224-.064-.2.043v-.318l-.53-.139-.52-.219-.174-.266-.263-.4 1.108.529 1.416.48 1.482.813 3.288-.166 1.032-.028.19.645 2.345.469z" fill="#db9825"/><path d="m4828.241 509.1.344.01h.887l1.056.186 2-.094 1.382.186.857.26.7-.2.881-.179.358-.049.958.178.99.06.673.059h.3l.549.466h1.063l.245.066.625-.588.489-.065h.342l1.1.21 1.29-.3.408-.147.467.01.187.046.387-.151.132-.04-.5.662-1.476.3-1.706.132-.235.007-.2.233-.694.044-.07.919-1.227.128-1.7.031-.568-.387-.64.018-.026-.447-1.058.1-.2.694-.646-.01-1.473.016-1.907.086-.177-.288-.273-.009-.132-.322-1.152-.175-.112-.4.917-.019 1.329.1.508.186.74-.027 1.266-.145.622-.039.573-.132.366-.1.515.045.45.012.256.1.43-.06.12-.031.447-.288-.264-.076-.683-.016h-.843l-.863-.033-1.249.022-.2.126-.035.087-.239.057-.816-.1-.536-.145-.893-.09-.939-.04-.855.033-1.355-.016-.6.016-.255.023-.4-.7z" fill="#a84b11"/><path d="m4807.814 507.574-.6-.193-.158.145-1.285.07-1.073-.147-1.069-.165-.071-.307-.391-.192-.693-.263-.184-.182-1.031-.27-.507-.171-.388-.443.649-1.087.263.4.174.266.52.219.53.139v.318l.2-.043.224.064.878.357-.006.347.266.3.25.078.441.111 1.152.254.935.009.19-.1.075.055.48.229z" fill="#a84b11"/><path d="m4800.852 506.377-.023.193-.246-.01-.624-.078-.888-.163-.772-.145-.853-.079-.988-.574-.664-.323-.309-.315-.045-.221.645-.405.186.307.274.2.736.364.688.447.526.128 1.321.216.459.245z" fill="#a84b11"/><path d="m4796.452 506.383.022.188-.745-.121-.86-.2-.591-.6-.828-.311-.3-.35-.008-.036.243-.686.53.753.626.287.386.339.718.413.663.28z" fill="#a84b11"/><path d="m4791.4 505.177.077.409-.148-.035-1.133-.161-1.416-.317-.627-.189-.087-.077-.084-.322-.511-.175-.953-.42-.762-.355-.21-.034-.132-.236-.225-.309-.3-.359.006-.258.345-1.068.9 1.167 1.185.752.892.372.292.417.184.231.4.167.209.068.068.1.148.054.743.222.874.275z" fill="#a84b11"/><path d="m4819.783 507.221h-.006l-.289.178-.3.021-.429.2-.351.158.046.616-.292 1.3-.918.19-1.652.039-1.664-.056-1.527.059-2.419.376-1.472.251-.717.067-.99.612-1.309-.085-1.132.093-1.03-.14-.509-.11-.118-.222-1.465-.083-4.09-.149-.363.218v.555l-3.2-.062-3.484-.14-2.5-.779-1.342-.246-1.578-.624-.194-.8-.111-1.4-.49-.66-.038-.727-1-.22-.757-.361-.8-.342-.194-1.021.295-.548.232-.783.2-.69.147-.2.618.134 1.035 1.259.457.01.029.616-.185.505.865.444 1.507.746.953.605.059.667 1.055-.134 3.827 1.085.586.153.215.325.588.157.646.578 1.1.164 1.065-.6-.193-.951 1.835.309 3.152 1.059.546.122.478-.3 1.828-.135.1.253-.6.486.145.761 1.377.107 1.509-.009.1-.868-.264-.424 1.572-.244 2.158-.1.011.1 1.323-.325.755.031.46-.633-.786-.547-2.345-.47-.19-.645h.066l2.544-1.662.178.781 1.081.613.606.087.41-.186.285-.077.168.243.434-1.106h.18l.8-.127 1.363-.109.018.492.558.009.2.045.513-.346.387-.044.3.039a4.887 4.887 0 0 0 .328 2.572z" fill="#a84b11"/><path d="m4819.607 503.783-.654 1.158-.067 1.62-.216.8.078.549 1.208-.411z" fill="#692f06"/><path d="m4824.052 505.164c-.03 1.372.453 2.784 1.452 2.876l-4.841-.154a1.032 1.032 0 0 1 -.882-.665 4.887 4.887 0 0 1 -.352-2.574c.016-.149.038-.3.066-.435l.5 2 .266-.838h1.912l.216.937.133-.8.964.033.2.216.116-.6z" fill="#004d5c"/><path d="m4826.782 504.353a4.333 4.333 0 0 1 .106.966c0 1.3-.543 2.361-1.213 2.361-.471 0-.88-.523-1.08-1.287a5.215 5.215 0 0 1 2.187-2.04z" fill="#277c82"/><path d="m4825.675 502.957c.493 0 .917.573 1.107 1.4a5.215 5.215 0 0 0 -2.187 2.04 4.18 4.18 0 0 1 -.134-1.074c0-1.308.539-2.366 1.214-2.366z" fill="#004d5c"/><path d="m4827.209 505.567a3.5 3.5 0 0 1 -.67 2.052 1.147 1.147 0 0 1 -.881.426l-.152-.005c-1-.092-1.482-1.5-1.452-2.876.028-1.292.512-2.547 1.452-2.634h.152a1.111 1.111 0 0 1 .788.329 3.707 3.707 0 0 1 .763 2.708zm-.427-1.214c-.19-.823-.614-1.4-1.107-1.4-.671 0-1.214 1.058-1.214 2.362a4.18 4.18 0 0 0 .134 1.074c.2.764.609 1.287 1.08 1.287.67 0 1.213-1.058 1.213-2.361a4.333 4.333 0 0 0 -.106-.962z" fill="#43b8b3"/><path d="m4820.665 502.685 4.841-.155c-.94.087-1.424 1.342-1.452 2.634h-.247l-.116.6-.2-.216-.964-.033-.133.8-.216-.937h-1.912l-.266.838-.5-2c.169-.863.558-1.531 1.165-1.531z" fill="url(#aD)"/><path d="m4820.537 502.78c-.453.138-.7.655-.861 1.319l4.446.321a2.5 2.5 0 0 1 .9-1.725z" fill="url(#aE)"/><path d="m4784.15 497.616v.253l1.107.249v-.5z" fill="#004d5c" opacity=".25"/><ellipse cx="4804.759" cy="507.742" fill="#980aab" opacity=".5" rx="1.737" ry=".506"/><path d="m4803.195 507.055a8.676 8.676 0 0 0 2.184.632 6.892 6.892 0 0 0 1.607-1.592 12.628 12.628 0 0 0 -1.755-1.5 5.341 5.341 0 0 0 -1.739.115 3.873 3.873 0 0 0 -.297 2.345z" fill="#de985b"/><path d="m4803.346 505.021a1.837 1.837 0 0 1 .146-.307 5.341 5.341 0 0 1 1.739-.115 12.628 12.628 0 0 1 1.755 1.5l-.015.019a6.223 6.223 0 0 1 -2.628.248 4.023 4.023 0 0 1 -.997-1.345z" fill="#f2dec2"/><path d="m4801.257 507.6c0 .16.447.29 1 .29s1-.13 1-.29-.447-.291-1-.291-1 .132-1 .291z" fill="#980aab" opacity=".5"/><path d="m4805.348 507.738-.17-.533a2.973 2.973 0 0 1 .863-.747 3.78 3.78 0 0 1 1.466.921 1.086 1.086 0 0 1 -.093.315 4.5 4.5 0 0 1 -.854.48 10.528 10.528 0 0 1 -1.212-.436z" fill="#de985b"/><path d="m4807.5 507.368a3.174 3.174 0 0 1 -.319.241 9.765 9.765 0 0 1 -1.331-.318 2.084 2.084 0 0 1 .11-.794.7.7 0 0 1 .085-.039 3.788 3.788 0 0 1 1.455.91z" fill="#f2dec2"/><path d="m4804.027 507.411a5.375 5.375 0 0 1 -1.315.432 8.389 8.389 0 0 1 -.882-.439 1.9 1.9 0 0 1 -.15-.618 9.539 9.539 0 0 1 1.285-.96 3.957 3.957 0 0 1 .951.2 3.29 3.29 0 0 1 .111 1.385z" fill="#de985b"/><path d="m4803.933 506.086c0-.019-.01-.04-.017-.059a3.957 3.957 0 0 0 -.951-.2 9.539 9.539 0 0 0 -1.285.96 1.9 1.9 0 0 0 .15.618s.314.179.607.32a3.493 3.493 0 0 0 1.496-1.639z" fill="#f2dec2"/><ellipse cx="4791.816" cy="505.308" fill="#980aab" opacity=".5" rx="1.83" ry=".506"/><path d="m4790.149 505.138a8.585 8.585 0 0 0 2.269.155 6.854 6.854 0 0 0 1.233-1.895 12.677 12.677 0 0 0 -2.031-1.091 5.354 5.354 0 0 0 -1.676.48 3.887 3.887 0 0 0 .205 2.351z" fill="#de985b"/><path d="m4789.866 503.118a1.942 1.942 0 0 1 .078-.331 5.354 5.354 0 0 1 1.676-.48 12.677 12.677 0 0 1 2.031 1.091l-.01.022a6.223 6.223 0 0 1 -2.516.8 4.034 4.034 0 0 1 -1.259-1.102z" fill="#f2dec2"/><path d="m4792.4 505.351-.279-.485a2.957 2.957 0 0 1 .686-.913 3.779 3.779 0 0 1 1.627.59 1.077 1.077 0 0 1 -.024.327 4.486 4.486 0 0 1 -.734.65 10.569 10.569 0 0 1 -1.276-.169z" fill="#de985b"/><path d="m4794.419 504.535a3.442 3.442 0 0 1 -.261.3 9.77 9.77 0 0 1 -1.368-.03 2.081 2.081 0 0 1 -.06-.8.669.669 0 0 1 .075-.055 3.773 3.773 0 0 1 1.614.585z" fill="#f2dec2"/><ellipse cx="4816.077" cy="503.168" fill="#980aab" opacity=".5" rx=".935" ry=".272"/><path d="m4816.918 502.8a4.659 4.659 0 0 1 -1.175.34 3.724 3.724 0 0 1 -.865-.856 6.841 6.841 0 0 1 .944-.806 2.853 2.853 0 0 1 .936.063 2.075 2.075 0 0 1 .16 1.259z" fill="#de985b"/><path d="m4816.837 501.7a.912.912 0 0 0 -.079-.165 2.853 2.853 0 0 0 -.936-.063 6.841 6.841 0 0 0 -.944.806l.008.01a3.351 3.351 0 0 0 1.414.133 2.157 2.157 0 0 0 .537-.721z" fill="#f2dec2"/><path d="m4817.961 503.092c0 .086-.241.156-.538.156s-.537-.07-.537-.156.24-.156.537-.156.538.07.538.156z" fill="#980aab" opacity=".5"/><path d="m4815.76 503.166.091-.287a1.592 1.592 0 0 0 -.464-.4 2.027 2.027 0 0 0 -.789.495.566.566 0 0 0 .05.17 2.412 2.412 0 0 0 .46.258 5.7 5.7 0 0 0 .652-.236z" fill="#de985b"/><path d="m4814.6 502.967a1.814 1.814 0 0 0 .172.129 5.234 5.234 0 0 0 .716-.171 1.126 1.126 0 0 0 -.06-.427.242.242 0 0 0 -.045-.021 2.024 2.024 0 0 0 -.783.49z" fill="#f2dec2"/><path d="m4816.47 502.989a2.869 2.869 0 0 0 .708.233 4.494 4.494 0 0 0 .474-.236 1.008 1.008 0 0 0 .081-.333 5.094 5.094 0 0 0 -.691-.516 2.1 2.1 0 0 0 -.512.108 1.782 1.782 0 0 0 -.06.744z" fill="#de985b"/><path d="m4816.521 502.277.009-.032a2.1 2.1 0 0 1 .512-.108 5.094 5.094 0 0 1 .691.516 1.008 1.008 0 0 1 -.081.333s-.168.1-.326.172a1.881 1.881 0 0 1 -.805-.881z" fill="#f2dec2"/><path d="m4832.508 509.179a1.757 1.757 0 0 1 -.616-.4 4.048 4.048 0 0 1 .582-.048 1.773 1.773 0 0 1 -.909-.73 2.06 2.06 0 0 1 1.1.584 4.775 4.775 0 0 1 -.641-1.115 3.379 3.379 0 0 1 .834 1.035 3.763 3.763 0 0 1 -.009-1.627 5.294 5.294 0 0 1 .085 1.592 8.97 8.97 0 0 1 .6-1.544 5.448 5.448 0 0 1 -.29 1.547 4.191 4.191 0 0 1 .771-1.128 6.779 6.779 0 0 1 -.549 1.366 2.367 2.367 0 0 1 .881-.825 3.057 3.057 0 0 1 -.655.88 1.966 1.966 0 0 1 .739-.321 1.565 1.565 0 0 1 -.61.545 3.23 3.23 0 0 1 .722 0 1.3 1.3 0 0 1 -.941.239.182.182 0 0 0 .018-.071l-.237.088c-.013-.044-.02-.085-.033-.129 0-.015-.012-.033-.028-.035s-.023.008-.032.018l-.125.134c-.083-.089-.157-.174-.24-.263a.735.735 0 0 1 -.041.215c-.093-.056-.192-.1-.285-.155a.339.339 0 0 1 .031.14c-.03 0-.093.007-.122.008z" fill="#ac5f00"/><path d="m4831.246 509.151c0 .16.463.355 1 .355s.953-.093.953-.253-.438-.392-.978-.392-.975.13-.975.29z" fill="#980aab" opacity=".5"/><path d="m4831.3 509.038a4.4 4.4 0 0 0 1.11.321 3.488 3.488 0 0 0 .817-.809 6.481 6.481 0 0 0 -.892-.761 2.731 2.731 0 0 0 -.884.059 1.967 1.967 0 0 0 -.151 1.19z" fill="#de985b"/><path d="m4831.375 508a.953.953 0 0 1 .075-.156 2.731 2.731 0 0 1 .884-.059 6.481 6.481 0 0 1 .892.761l-.008.01a3.175 3.175 0 0 1 -1.335.126 2.051 2.051 0 0 1 -.508-.682z" fill="#f2dec2"/><path d="m4832.548 509.22-.086-.271a1.493 1.493 0 0 1 .439-.38 1.914 1.914 0 0 1 .745.468.568.568 0 0 1 -.047.16 2.3 2.3 0 0 1 -.435.244 5.584 5.584 0 0 1 -.616-.221z" fill="#de985b"/><path d="m4833.64 509.031a1.761 1.761 0 0 1 -.162.123 4.978 4.978 0 0 1 -.677-.162 1.067 1.067 0 0 1 .057-.4.448.448 0 0 1 .043-.019 1.916 1.916 0 0 1 .739.458z" fill="#f2dec2"/></g></svg>