<svg xmlns="http://www.w3.org/2000/svg" width="31.698" height="23.318" viewBox="0 0 31.698 23.318">
  <g id="follwers" transform="translate(-1249.188 -1292.738)">
    <path id="Path_6934" data-name="Path 6934" d="M1265.114,1316.056a36.259,36.259,0,0,1-4.755-.382,10.053,10.053,0,0,1-2.479-.721,2.288,2.288,0,0,1-1.16-2.841,4,4,0,0,1,1.564-1.852,13.88,13.88,0,0,1,3.262-1.714,1.6,1.6,0,0,0,1.131-.938,1.846,1.846,0,0,0-.263-2,7.809,7.809,0,0,1-1.577-2.782,6.41,6.41,0,0,1-.264-3.683,4.364,4.364,0,0,1,2.121-2.916,4.7,4.7,0,0,1,3.314-.493,4.318,4.318,0,0,1,2.759,1.766,4.413,4.413,0,0,1,.825,2.355,6.684,6.684,0,0,1-.2,2.408,9.164,9.164,0,0,1-.675,1.672,18.773,18.773,0,0,1-1.247,1.889,1.862,1.862,0,0,0,.422,2.439,10.147,10.147,0,0,0,1.146.49,11.552,11.552,0,0,1,3.654,2.305,2.779,2.779,0,0,1,.675,2.553,1.762,1.762,0,0,1-.887,1.144,6.169,6.169,0,0,1-1.873.724A27.538,27.538,0,0,1,1265.114,1316.056Z" fill="#fff"/>
    <path id="Path_6935" data-name="Path 6935" d="M1269.157,1306.8c.429-.7.894-1.359,1.262-2.072a9.1,9.1,0,0,0,1.081-4.023,7.561,7.561,0,0,0-.426-2.787,6.222,6.222,0,0,0-1.714-2.522.335.335,0,0,1-.08-.3,3.633,3.633,0,0,1,1.835-1.92,4.213,4.213,0,0,1,2.672-.351,3.884,3.884,0,0,1,2.656,1.8,4.924,4.924,0,0,1,.676,2.2,7.628,7.628,0,0,1-.6,3.475,7.154,7.154,0,0,1-1.235,2.015,1.073,1.073,0,0,0,.461,1.845,14.922,14.922,0,0,1,2.96,1.378,5.138,5.138,0,0,1,1.852,1.693,2.16,2.16,0,0,1-.676,2.988,6.22,6.22,0,0,1-2.3.762c-.772.095-1.542.2-2.312.31a.308.308,0,0,1-.375-.2,5.081,5.081,0,0,0-1.5-1.914,12.742,12.742,0,0,0-3.271-1.958C1269.793,1307.083,1269.463,1306.932,1269.157,1306.8Z" fill="#fff"/>
    <path id="Path_6936" data-name="Path 6936" d="M1260.871,1306.732c-1.039.544-2.131,1.056-3.16,1.673a5.932,5.932,0,0,0-2.472,2.522c-.172.373-.371.388-.694.342-.77-.109-1.55-.156-2.311-.307a5.506,5.506,0,0,1-2.278-.89,2.036,2.036,0,0,1-.679-2.293,3.256,3.256,0,0,1,1.454-1.831,14.105,14.105,0,0,1,2.841-1.532c.333-.146.679-.264,1.023-.381a.556.556,0,0,0,.408-.489,1.623,1.623,0,0,0-.341-1.373,6.662,6.662,0,0,1-1.234-2.171,7.6,7.6,0,0,1-.5-2.516,4.4,4.4,0,0,1,1.9-4.1,3.953,3.953,0,0,1,2.9-.581,3.829,3.829,0,0,1,2.391,1.268,6.55,6.55,0,0,1,.648.977.4.4,0,0,1-.1.359,6.076,6.076,0,0,0-1.734,2.64,7.773,7.773,0,0,0-.27,3.8,10.914,10.914,0,0,0,1.024,3.007C1260.033,1305.529,1260.5,1306.148,1260.871,1306.732Z" fill="#fff"/>
  </g>
</svg>
