<svg height="53.406" viewBox="0 0 53.569 53.406" width="53.569" xmlns="http://www.w3.org/2000/svg" xmlns:xlink="http://www.w3.org/1999/xlink"><linearGradient id="a" gradientUnits="objectBoundingBox" x1=".843" x2=".147" y1=".844" y2=".146"><stop offset="0" stop-color="#fff"/><stop offset="1" stop-color="#cbceda"/></linearGradient><linearGradient id="b" x1=".843" x2=".149" xlink:href="#a" y1=".844" y2=".148"/><linearGradient id="c" x1=".844" x2=".15" xlink:href="#a" y1=".845" y2=".149"/><linearGradient id="d" x1=".844" x2=".151" xlink:href="#a" y1=".845" y2=".15"/><linearGradient id="e" x1=".844" x2=".153" xlink:href="#a" y1=".845" y2=".152"/><linearGradient id="f" x1=".844" x2=".154" xlink:href="#a" y1=".845" y2=".153"/><linearGradient id="g" x1=".845" x2=".156" xlink:href="#a" y1=".846" y2=".155"/><linearGradient id="h" x1=".845" x2=".157" xlink:href="#a" y1=".846" y2=".156"/><linearGradient id="i" x1=".845" x2=".158" xlink:href="#a" y1=".846" y2=".157"/><linearGradient id="j" x1=".845" x2=".16" xlink:href="#a" y1=".846" y2=".159"/><linearGradient id="k" x1=".845" x2=".161" xlink:href="#a" y1=".847" y2=".16"/><linearGradient id="l" x1=".846" x2=".163" xlink:href="#a" y1=".847" y2=".162"/><linearGradient id="m" x1=".846" x2=".164" xlink:href="#a" y1=".847" y2=".163"/><linearGradient id="n" x1=".846" x2=".165" xlink:href="#a" y1=".847" y2=".164"/><linearGradient id="o" x1=".846" x2=".167" xlink:href="#a" y1=".847" y2=".166"/><linearGradient id="p" x1=".847" x2=".168" xlink:href="#a" y1=".848" y2=".167"/><linearGradient id="q" x1=".847" x2=".17" xlink:href="#a" y1=".848" y2=".169"/><linearGradient id="r" x1=".847" x2=".171" xlink:href="#a" y1=".848" y2=".17"/><linearGradient id="s" x1=".847" x2=".172" xlink:href="#a" y1=".848" y2=".171"/><linearGradient id="t" x1=".848" x2=".174" xlink:href="#a" y1=".849" y2=".173"/><linearGradient id="u" x1=".848" x2=".175" xlink:href="#a" y1=".849" y2=".174"/><linearGradient id="v" x1=".848" x2=".177" xlink:href="#a" y1=".849" y2=".176"/><linearGradient id="w" x1=".848" x2=".178" xlink:href="#a" y1=".849" y2=".177"/><linearGradient id="x" x1=".849" x2=".179" xlink:href="#a" y1=".85" y2=".178"/><linearGradient id="y" x1=".849" x2=".181" xlink:href="#a" y1=".85" y2=".18"/><linearGradient id="z" x1=".849" x2=".182" xlink:href="#a" y1=".85" y2=".181"/><linearGradient id="A" x1=".849" x2=".184" xlink:href="#a" y1=".85" y2=".183"/><linearGradient id="B" x1="71.551" x2="70.885" xlink:href="#a" y1="-23.255" y2="-23.923"/><linearGradient id="C" x1="72.282" x2="71.616" xlink:href="#a" y1="-23.505" y2="-24.173"/><linearGradient id="D" x1="73.03" x2="72.364" xlink:href="#a" y1="-23.759" y2="-24.427"/><linearGradient id="E" x1="73.792" x2="73.127" xlink:href="#a" y1="-24.02" y2="-24.688"/><linearGradient id="F" x1="74.573" x2="73.908" xlink:href="#a" y1="-24.286" y2="-24.954"/><linearGradient id="G" x1="75.371" x2="74.705" xlink:href="#a" y1="-24.558" y2="-25.225"/><linearGradient id="H" x1="76.185" x2="75.519" xlink:href="#a" y1="-24.835" y2="-25.503"/><linearGradient id="I" x1="77.017" x2="76.351" xlink:href="#a" y1="-25.119" y2="-25.786"/><linearGradient id="J" x1="77.866" x2="77.201" xlink:href="#a" y1="-25.409" y2="-26.076"/><linearGradient id="K" x1="78.736" x2="78.07" xlink:href="#a" y1="-25.705" y2="-26.373"/><linearGradient id="L" x1="79.627" x2="78.962" xlink:href="#a" y1="-26.009" y2="-26.677"/><linearGradient id="M" x1="80.538" x2="79.873" xlink:href="#a" y1="-26.32" y2="-26.987"/><linearGradient id="N" x1="81.47" x2="80.804" xlink:href="#a" y1="-26.637" y2="-27.304"/><linearGradient id="O" x1="82.422" x2="81.757" xlink:href="#a" y1="-26.962" y2="-27.63"/><linearGradient id="P" x1="83.399" x2="82.733" xlink:href="#a" y1="-27.295" y2="-27.963"/><linearGradient id="Q" x1="84.399" x2="83.734" xlink:href="#a" y1="-27.636" y2="-28.304"/><linearGradient id="R" x1="85.424" x2="84.758" xlink:href="#a" y1="-27.986" y2="-28.654"/><linearGradient id="S" x1="86.476" x2="85.81" xlink:href="#a" y1="-28.343" y2="-29.011"/><linearGradient id="T" x1="87.551" x2="86.886" xlink:href="#a" y1="-28.711" y2="-29.378"/><linearGradient id="U" x1="88.655" x2="87.989" xlink:href="#a" y1="-29.087" y2="-29.755"/><linearGradient id="V" x1="89.786" x2="89.121" xlink:href="#a" y1="-29.473" y2="-30.14"/><linearGradient id="W" x1="90.95" x2="90.285" xlink:href="#a" y1="-29.87" y2="-30.538"/><linearGradient id="X" gradientUnits="objectBoundingBox" x1=".19" x2=".953" y1=".189" y2=".954"><stop offset="0" stop-color="#009790"/><stop offset=".24" stop-color="#009891"/><stop offset=".35" stop-color="#009891"/><stop offset=".57" stop-color="#00787e"/><stop offset=".88" stop-color="#122559"/><stop offset="1" stop-color="#13245a"/></linearGradient><g transform="translate(-7257.107 -96.149)"><g><path d="m7310.676 122.852a26.785 26.785 0 1 1 -26.784-26.7 26.743 26.743 0 0 1 26.784 26.7z" fill="url(#a)"/><path d="m7310.407 122.852a26.516 26.516 0 1 1 -26.515-26.435 26.475 26.475 0 0 1 26.515 26.435z" fill="url(#b)"/><path d="m7310.139 122.852a26.247 26.247 0 1 1 -26.247-26.167 26.208 26.208 0 0 1 26.247 26.167z" fill="url(#c)"/><path d="m7309.87 122.852a25.978 25.978 0 1 1 -25.978-25.9 25.939 25.939 0 0 1 25.978 25.9z" fill="url(#d)"/><path d="m7309.6 122.852a25.709 25.709 0 1 1 -25.709-25.63 25.671 25.671 0 0 1 25.709 25.63z" fill="url(#e)"/><path d="m7309.332 122.852a25.441 25.441 0 1 1 -25.44-25.362 25.4 25.4 0 0 1 25.44 25.362z" fill="url(#f)"/><path d="m7309.063 122.852a25.172 25.172 0 1 1 -25.171-25.094 25.133 25.133 0 0 1 25.171 25.094z" fill="url(#g)"/><path d="m7308.794 122.852a24.9 24.9 0 1 1 -24.9-24.826 24.864 24.864 0 0 1 24.9 24.826z" fill="url(#h)"/><path d="m7308.525 122.852a24.634 24.634 0 1 1 -24.633-24.558 24.6 24.6 0 0 1 24.633 24.558z" fill="url(#i)"/><path d="m7308.256 122.852a24.365 24.365 0 1 1 -24.364-24.29 24.327 24.327 0 0 1 24.364 24.29z" fill="url(#j)"/><path d="m7307.987 122.852a24.1 24.1 0 1 1 -24.095-24.022 24.058 24.058 0 0 1 24.095 24.022z" fill="url(#k)"/><path d="m7307.718 122.852a23.827 23.827 0 1 1 -23.826-23.752 23.79 23.79 0 0 1 23.826 23.752z" fill="url(#l)"/><path d="m7307.449 122.852a23.558 23.558 0 1 1 -23.557-23.486 23.522 23.522 0 0 1 23.557 23.486z" fill="url(#m)"/><path d="m7307.18 122.852a23.289 23.289 0 1 1 -23.288-23.217 23.253 23.253 0 0 1 23.288 23.217z" fill="url(#n)"/><path d="m7306.911 122.852a23.02 23.02 0 1 1 -23.019-22.952 22.985 22.985 0 0 1 23.019 22.952z" fill="url(#o)"/><path d="m7306.642 122.852a22.751 22.751 0 1 1 -22.75-22.681 22.716 22.716 0 0 1 22.75 22.681z" fill="url(#p)"/><path d="m7306.373 122.852a22.482 22.482 0 1 1 -22.481-22.413 22.447 22.447 0 0 1 22.481 22.413z" fill="url(#q)"/><path d="m7306.1 122.852a22.213 22.213 0 1 1 -22.212-22.145 22.179 22.179 0 0 1 22.212 22.145z" fill="url(#r)"/><path d="m7305.835 122.852a21.943 21.943 0 1 1 -21.943-21.877 21.91 21.91 0 0 1 21.943 21.877z" fill="url(#s)"/><path d="m7305.566 122.852a21.675 21.675 0 1 1 -21.674-21.609 21.642 21.642 0 0 1 21.674 21.609z" fill="url(#t)"/><path d="m7305.3 122.852a21.406 21.406 0 1 1 -21.406-21.341 21.374 21.374 0 0 1 21.406 21.341z" fill="url(#u)"/><path d="m7305.029 122.852a21.137 21.137 0 1 1 -21.137-21.073 21.106 21.106 0 0 1 21.137 21.073z" fill="url(#v)"/><path d="m7304.76 122.852a20.868 20.868 0 1 1 -20.868-20.8 20.837 20.837 0 0 1 20.868 20.8z" fill="url(#w)"/><path d="m7304.491 122.852a20.6 20.6 0 1 1 -20.6-20.536 20.569 20.569 0 0 1 20.6 20.536z" fill="url(#x)"/><path d="m7304.222 122.852a20.331 20.331 0 1 1 -20.33-20.268 20.3 20.3 0 0 1 20.33 20.268z" fill="url(#y)"/><path d="m7303.953 122.852a20.062 20.062 0 1 1 -20.061-20 20.031 20.031 0 0 1 20.061 20z" fill="url(#z)"/><path d="m7303.684 122.852a19.793 19.793 0 1 1 -19.792-19.732 19.762 19.762 0 0 1 19.792 19.732z" fill="url(#A)"/></g><g><path d="m7258.907 122.852a24.984 24.984 0 1 1 24.985 24.908 24.947 24.947 0 0 1 -24.985-24.908z" fill="url(#B)" opacity="0"/><path d="m7259.163 122.852a24.729 24.729 0 1 1 24.729 24.653 24.691 24.691 0 0 1 -24.729-24.653z" fill="url(#C)" opacity=".048"/><path d="m7259.419 122.852a24.473 24.473 0 1 1 24.473 24.4 24.436 24.436 0 0 1 -24.473-24.4z" fill="url(#D)" opacity=".095"/><path d="m7259.675 122.852a24.217 24.217 0 1 1 24.217 24.142 24.18 24.18 0 0 1 -24.217-24.142z" fill="url(#E)" opacity=".143"/><path d="m7259.932 122.852a23.96 23.96 0 1 1 23.96 23.887 23.924 23.924 0 0 1 -23.96-23.887z" fill="url(#F)" opacity=".19"/><path d="m7260.188 122.852a23.7 23.7 0 1 1 23.7 23.631 23.668 23.668 0 0 1 -23.7-23.631z" fill="url(#G)" opacity=".238"/><path d="m7260.444 122.852a23.448 23.448 0 1 1 23.448 23.376 23.412 23.412 0 0 1 -23.448-23.376z" fill="url(#H)" opacity=".286"/><path d="m7260.7 122.852a23.192 23.192 0 1 1 23.192 23.121 23.156 23.156 0 0 1 -23.192-23.121z" fill="url(#I)" opacity=".333"/><path d="m7260.956 122.852a22.936 22.936 0 1 1 22.936 22.865 22.9 22.9 0 0 1 -22.936-22.865z" fill="url(#J)" opacity=".381"/><path d="m7261.212 122.852a22.68 22.68 0 1 1 22.68 22.61 22.645 22.645 0 0 1 -22.68-22.61z" fill="url(#K)" opacity=".429"/><path d="m7261.469 122.852a22.423 22.423 0 1 1 22.423 22.354 22.389 22.389 0 0 1 -22.423-22.354z" fill="url(#L)" opacity=".476"/><path d="m7261.725 122.852a22.167 22.167 0 1 1 22.167 22.1 22.133 22.133 0 0 1 -22.167-22.1z" fill="url(#M)" opacity=".524"/><path d="m7261.981 122.852a21.911 21.911 0 1 1 21.911 21.844 21.878 21.878 0 0 1 -21.911-21.844z" fill="url(#N)" opacity=".571"/><path d="m7262.237 122.852a21.655 21.655 0 1 1 21.655 21.588 21.622 21.622 0 0 1 -21.655-21.588z" fill="url(#O)" opacity=".619"/><path d="m7262.493 122.852a21.4 21.4 0 1 1 21.4 21.333 21.366 21.366 0 0 1 -21.4-21.333z" fill="url(#P)" opacity=".667"/><path d="m7262.75 122.852a21.142 21.142 0 1 1 21.142 21.077 21.11 21.11 0 0 1 -21.142-21.077z" fill="url(#Q)" opacity=".714"/><path d="m7263.006 122.852a20.886 20.886 0 1 1 20.886 20.822 20.853 20.853 0 0 1 -20.886-20.822z" fill="url(#R)" opacity=".762"/><path d="m7263.262 122.852a20.629 20.629 0 1 1 20.63 20.567 20.6 20.6 0 0 1 -20.63-20.567z" fill="url(#S)" opacity=".81"/><path d="m7263.518 122.852a20.374 20.374 0 1 1 20.374 20.311 20.343 20.343 0 0 1 -20.374-20.311z" fill="url(#T)" opacity=".857"/><path d="m7263.774 122.852a20.118 20.118 0 1 1 20.118 20.056 20.087 20.087 0 0 1 -20.118-20.056z" fill="url(#U)" opacity=".905"/><path d="m7264.03 122.852a19.862 19.862 0 1 1 19.862 19.8 19.831 19.831 0 0 1 -19.862-19.8z" fill="url(#V)" opacity=".952"/><path d="m7264.287 122.852a19.605 19.605 0 1 1 19.6 19.545 19.574 19.574 0 0 1 -19.6-19.545z" fill="url(#W)"/></g><path d="m7305.364 122.852c0 .346-.008.692-.032 1.038a21.277 21.277 0 1 1 .032-1.038z" fill="url(#X)"/><g fill="#fbfcff"><path d="m7280.8 135.99c-.434.035-.547-.289-.67-.6q-1.872-4.746-3.749-9.489c-.162-.406-.207-.665.243-.969a3.406 3.406 0 0 0 1.276-2.194 18.41 18.41 0 0 0 .405-4.4 5.551 5.551 0 0 1 .849-3.177 5.913 5.913 0 0 0 .472-4.72 17.473 17.473 0 0 0 -.568-2.089c-.255-.733.016-1.072.717-1.22a2.981 2.981 0 0 1 3.131 1.124 6.555 6.555 0 0 1 1.266 5.117 12.364 12.364 0 0 0 -.074 2.975c.124 1 .4 1.138 1.294.754a58.481 58.481 0 0 1 5.757-2.128 3.541 3.541 0 0 1 3.57 1.707 1.731 1.731 0 0 1 -.178 1.031 1.275 1.275 0 0 0 .637 1.748 1.372 1.372 0 0 1 .672 2.086 1.348 1.348 0 0 0 .426 1.838 1.619 1.619 0 0 1 .468 2.308 2.364 2.364 0 0 0 .148 2.7 4.447 4.447 0 0 1 -2.638 3.618c-1.343.615-2.742 1.077-4.1 1.632-3.011 1.226-6.212 1.658-9.354 2.348z"/><path d="m7274.666 139.037a2.112 2.112 0 0 1 -1.029-1.185c-1.175-3.024-2.391-6.032-3.579-9.051-.48-1.22-.237-1.743.978-2.235.7-.282 1.39-.569 2.09-.84 1.252-.486 1.717-.289 2.255.93.072.164.162.32.244.48 1.125 2.87 2.243 5.742 3.38 8.607.28.7.405 1.475-.315 1.849a10.624 10.624 0 0 1 -4.024 1.445z"/></g></g></svg>