<svg xmlns="http://www.w3.org/2000/svg" width="19.97" height="18.436" viewBox="0 0 19.97 18.436">
  <path id="home" d="M4185.848,788.466a.758.758,0,0,1-.565-.188.739.739,0,0,1-.213-.581v-5.941h-.311c-.772,0-1.545,0-2.317,0q0,2.56,0,5.121v.8a.708.708,0,0,1-.792.791h-4.6a1.49,1.49,0,0,1-1.349-.72,1.692,1.692,0,0,1-.222-.912v-5.826c0-.389,0-.779,0-1.168-.345,0-.737,0-1,0h0a.727.727,0,0,1-.483-1.267c1.285-1.156,8.069-7.264,9.253-8.334a.723.723,0,0,1,1.018,0c1.6,1.445,6.368,5.755,8.444,7.632l.773.7a.728.728,0,0,1-.485,1.268h-.963c0,.481,0,.96,0,1.441v2.185q0,1.7,0,3.393a1.611,1.611,0,0,1-1.607,1.606Zm-9.891-9.865a.757.757,0,0,1,.758.765c0,.547,0,1.093,0,1.641v5.825a.56.56,0,0,0,.041.268c.034.057.078.129.294.129h4.16v-.355q0-2.8,0-5.593a.724.724,0,0,1,.759-.765h0q1.4.006,2.791,0h.762a.709.709,0,0,1,.785.786v5.924h4.124a.372.372,0,0,0,.371-.371q0-1.7,0-3.392V781.28c0-.634,0-1.266,0-1.9a.765.765,0,0,1,.218-.574.69.69,0,0,1,.569-.206h.088c-2.036-1.841-6.137-5.55-7.917-7.157-1.468,1.324-5.819,5.242-7.947,7.157C4175.864,778.6,4175.91,778.6,4175.957,778.6Zm0,1.236h0Zm-1.137-.347h0Zm8.613-8.333,0,0Z" transform="translate(-4173.755 -770.03)" fill="#fff"/>
</svg>
