<svg xmlns="http://www.w3.org/2000/svg" width="25.406" height="20.341" viewBox="0 0 25.406 20.341">
  <g id="logout" transform="translate(-21.076 -1453.212)">
    <path id="Path_6845" data-name="Path 6845" d="M22.907,1457.533a15.607,15.607,0,0,1,1.121-1.341l.691-.629a15.192,15.192,0,0,1,1.242-.884,11.424,11.424,0,0,1,1.942-.912l.465-.151a13.779,13.779,0,0,1,1.5-.316l.061,0a.066.066,0,0,0,.069-.016,14.65,14.65,0,0,1,1.839-.063.378.378,0,0,0,.074.017,10.873,10.873,0,0,1,1.865.287l.375.1.062.02.061.013c.485.174.965.358,1.435.569a12.066,12.066,0,0,1,1.536.934q.206.153.409.308l.154.126c.22.205.444.405.658.615a1.176,1.176,0,0,1,.351.773,1.759,1.759,0,0,1-.073.55,1.268,1.268,0,0,1-1.063.759,1.3,1.3,0,0,1-1.032-.446c-.1-.113-.23-.208-.345-.311a4.089,4.089,0,0,0-.56-.439,6.834,6.834,0,0,0-1.927-1.007,5.807,5.807,0,0,0-1.12-.306,2.847,2.847,0,0,0-.862-.089,1.543,1.543,0,0,0-.161-.041c-.239,0-.477-.017-.717-.005a5.91,5.91,0,0,0-1.093.129,6.515,6.515,0,0,0-1.937.628,6.649,6.649,0,0,0-1.69,1.093,2.166,2.166,0,0,0-.314.284c-.078.074-.159.146-.234.224a6.945,6.945,0,0,0-1.109,1.465,5.876,5.876,0,0,0-.587,1.222,3.746,3.746,0,0,0-.226.716,7,7,0,0,0-.262,1.974l-.005.059a.959.959,0,0,0,.018.316,5.928,5.928,0,0,0,.248,1.593,3.366,3.366,0,0,0,.224.714,5.691,5.691,0,0,0,.582,1.229,6.944,6.944,0,0,0,1.381,1.723,1.307,1.307,0,0,0,.283.252,7.028,7.028,0,0,0,1.693,1.111l.1.047a6.948,6.948,0,0,0,1.74.553c.062.051.14.033.21.044a6.862,6.862,0,0,0,1.86.077,6.5,6.5,0,0,0,1.938-.4,7,7,0,0,0,1.969-1.015,4.142,4.142,0,0,0,.5-.391,4.722,4.722,0,0,0,.357-.319,1.329,1.329,0,0,1,1.083-.472c.09.021.182.037.271.064a1.259,1.259,0,0,1,.787.737,1.372,1.372,0,0,1,.017.752,1.3,1.3,0,0,1-.366.588c-.2.185-.4.368-.594.551a.307.307,0,0,0-.118.1,11.48,11.48,0,0,1-1.969,1.255,14.9,14.9,0,0,1-1.408.558l-.532.153a.562.562,0,0,0-.093.011,10.735,10.735,0,0,1-1.843.281,12.829,12.829,0,0,1-1.97-.07c-.493-.087-.983-.185-1.467-.311a.06.06,0,0,0-.066-.022l-.061-.011A1.976,1.976,0,0,0,27.9,1473c-.219-.088-.438-.174-.657-.263a13.727,13.727,0,0,1-1.282-.644,13.923,13.923,0,0,1-1.284-.931l-.62-.568a12.262,12.262,0,0,1-1.159-1.376,13.1,13.1,0,0,1-.819-1.4l-.244-.533a.3.3,0,0,0-.012-.061,10.383,10.383,0,0,1-.561-1.876,10.79,10.79,0,0,1-.188-1.973c.009-.228.016-.455.026-.683.019-.4.087-.792.141-1.187a12.244,12.244,0,0,1,.4-1.494c.065-.179.131-.359.2-.538a2.07,2.07,0,0,0,.213-.531.077.077,0,0,0,.057-.047A12.151,12.151,0,0,1,22.907,1457.533Z" fill="#030303"/>
    <path id="Path_6846" data-name="Path 6846" d="M43.564,1466.343l-.941.939c-.355.329-.7.674-1.033,1.023-.069.037-.113.136-.213.089s-.087-.152-.088-.243l-.006-.868c0-.276,0-.551.008-.827,0-.069-.02-.089-.088-.088q-.774.006-1.546.008h-1.97c-.657-.011-1.313-.014-1.969,0-.647-.015-1.293-.012-1.939,0H31.84c-.331,0-.663-.005-.994-.006a.391.391,0,0,1-.442-.436q0-.31,0-.621l0-1.937,0-1.971c0-.2,0-.4.005-.594a.37.37,0,0,1,.418-.408c.339,0,.677,0,1.015-.007h7.817c.513,0,1.026,0,1.54.007.076,0,.1-.024.1-.1-.005-.28-.005-.559-.007-.839,0-.3,0-.6.007-.9,0-.075,0-.151.078-.189s.138.011.194.059l1.067,1.059.9.89,1.061,1.053.88.874c.308.308.615.617.926.922a.209.209,0,0,1,.08.2c-.042.046-.082.093-.126.136l-.852.858c-.3.281-.6.566-.876.87C44.254,1465.632,43.912,1465.991,43.564,1466.343Z" fill="#030303"/>
  </g>
</svg>
