<svg xmlns="http://www.w3.org/2000/svg" xmlns:xlink="http://www.w3.org/1999/xlink" width="26.167" height="20.112" viewBox="0 0 26.167 20.112">
  <defs>
    <linearGradient id="linear-gradient" y1="0.5" x2="1" y2="0.5" gradientUnits="objectBoundingBox">
      <stop offset="0" stop-color="#1ea1d5"/>
      <stop offset="0.5" stop-color="#09648f"/>
      <stop offset="1" stop-color="#073f99"/>
    </linearGradient>
    <linearGradient id="linear-gradient-2" x1="0" y1="0.5" x2="1" y2="0.5" xlink:href="#linear-gradient"/>
  </defs>
  <g id="menu" transform="translate(-6192.791 -25.314)">
    <path id="Path_11670" data-name="Path 11670" d="M6208.91,25.317c2.678,0,5.356-.009,8.033.005a2.006,2.006,0,0,1,.48,3.956,2.269,2.269,0,0,1-.558.059q-7.97,0-15.94,0a2.006,2.006,0,0,1-.542-3.955,3.145,3.145,0,0,1,.746-.061Q6205.02,25.314,6208.91,25.317Z" fill="url(#linear-gradient)"/>
    <path id="Path_11671" data-name="Path 11671" d="M6202.879,33.36q3.891,0,7.782,0a2.022,2.022,0,1,1-.011,4.02q-7.812,0-15.625,0a2.022,2.022,0,1,1,.01-4.02Q6198.957,33.357,6202.879,33.36Z" fill="url(#linear-gradient-2)"/>
    <path id="Path_11672" data-name="Path 11672" d="M6208.9,41.4c2.677,0,5.355-.009,8.032.005a2,2,0,0,1,.5,3.952,2.275,2.275,0,0,1-.558.061q-7.971.006-15.94,0a2.007,2.007,0,0,1-.557-3.954,3.191,3.191,0,0,1,.745-.063Q6205.012,41.4,6208.9,41.4Z" fill="url(#linear-gradient-2)"/>
  </g>
</svg>
