<svg xmlns="http://www.w3.org/2000/svg" width="20.499" height="18.434" viewBox="0 0 20.499 18.434">
  <path id="message" d="M4378.428,788.465a.8.8,0,0,1-.711-1.172,5.311,5.311,0,0,0,.644-1.737,2.593,2.593,0,0,0-.531-1.77c-.467-.619-1.011-1.215-1.49-1.74a9.57,9.57,0,0,1-1.117-1.405,5.929,5.929,0,0,1-.813-2.441,5.711,5.711,0,0,1,1.248-4.191,9.366,9.366,0,0,1,3.868-2.939,12.4,12.4,0,0,1,3.921-.986,12.794,12.794,0,0,1,6.445,1.05,9.865,9.865,0,0,1,2.459,1.57,6.639,6.639,0,0,1,2.507,4.684,6.937,6.937,0,0,1-3.064,6.13,11.558,11.558,0,0,1-4.753,1.777,14.279,14.279,0,0,1-2.336.167h-1.133a1.136,1.136,0,0,0-.858.414,8.305,8.305,0,0,1-4.072,2.562h0A.83.83,0,0,1,4378.428,788.465Zm6.242-17.2c-.368,0-.741.017-1.117.049a11.161,11.161,0,0,0-3.53.887,8.174,8.174,0,0,0-3.376,2.549,4.462,4.462,0,0,0-1.01,3.3,4.737,4.737,0,0,0,.64,1.944,8.425,8.425,0,0,0,.976,1.216c.5.545,1.062,1.164,1.563,1.827a3.83,3.83,0,0,1,.777,2.612,4.471,4.471,0,0,1-.334,1.255,6.941,6.941,0,0,0,2.514-1.834,2.369,2.369,0,0,1,1.8-.848h1.138a10.947,10.947,0,0,0,2.125-.15,10.363,10.363,0,0,0,4.253-1.572,5.64,5.64,0,0,0,2.537-5.039,5.473,5.473,0,0,0-2.089-3.833,8.641,8.641,0,0,0-2.153-1.371A11.341,11.341,0,0,0,4384.67,771.266Z" transform="translate(-4374.372 -770.031)" fill="#fff"/>
</svg>
