<svg xmlns="http://www.w3.org/2000/svg" width="33.823" height="27.824" viewBox="0 0 33.823 27.824">
  <g id="number_of_item" transform="translate(-1408.136 -1289.908)">
    <path id="Path_6926" data-name="Path 6926" d="M1408.136,1298.009a.831.831,0,0,1,.8-.407c1.134.019,2.268.006,3.4.007.5,0,.629.083.818.55q2.446,6.052,4.885,12.108a.485.485,0,0,0,.542.366q5.977-.018,11.956,0a.42.42,0,0,0,.47-.326c.854-2.191,1.724-4.376,2.589-6.563.036-.091.069-.184.12-.319-.449-.064-.88-.129-1.311-.186q-6.2-.825-12.4-1.647c-1.08-.143-2.16-.28-3.24-.422-.377-.05-.6-.231-.631-.525a.536.536,0,0,1,.352-.607,1.152,1.152,0,0,1,.517-.035c1.222.155,2.443.323,3.664.485l8.243,1.091c1.876.249,3.751.494,5.626.749.579.079.767.416.552.96q-1.587,4.017-3.176,8.033a.7.7,0,0,1-.728.495q-6.656-.006-13.31,0a.747.747,0,0,1-.756-.556q-2.439-6.055-4.88-12.11a.481.481,0,0,0-.549-.362c-.757.021-1.516.007-2.322.007,0,.327-.008.63,0,.933.01.339-.036.644-.4.791-.3.121-.529.027-.84-.33Z" fill="#fff"/>
    <path id="Path_6927" data-name="Path 6927" d="M1441.959,1296.423c-.056.257-.1.515-.168.769a6.211,6.211,0,0,1-11.914.2,5.872,5.872,0,0,1,3.692-7.075,6.2,6.2,0,0,1,8.15,3.891c.1.335.161.682.24,1.023Zm-11.1-.555c.056.357.085.722.172,1.072a4.925,4.925,0,0,0,5.864,3.508,4.717,4.717,0,0,0,3.4-6.551,4.955,4.955,0,0,0-5.075-2.763A4.853,4.853,0,0,0,1430.861,1295.868Z" fill="#fff"/>
    <path id="Path_6928" data-name="Path 6928" d="M1420.985,1312.471a2.632,2.632,0,1,1-2.739,2.6A2.686,2.686,0,0,1,1420.985,1312.471Zm.01,1.186a1.452,1.452,0,0,0-1.509,1.454,1.5,1.5,0,0,0,2.992-.006A1.457,1.457,0,0,0,1420.995,1313.657Z" fill="#fff"/>
    <path id="Path_6929" data-name="Path 6929" d="M1428.1,1312.471a2.633,2.633,0,1,1-2.735,2.627A2.667,2.667,0,0,1,1428.1,1312.471Zm.005,4.081a1.5,1.5,0,0,0,1.493-1.458,1.508,1.508,0,0,0-3.013.028A1.5,1.5,0,0,0,1428.1,1316.552Z" fill="#fff"/>
    <path id="Path_6930" data-name="Path 6930" d="M1424.75,1309.44H1419.4c-.077,0-.155,0-.231,0a.587.587,0,0,1-.041-1.172,4.773,4.773,0,0,1,.561-.011h10.4c.066,0,.132,0,.2,0a.6.6,0,0,1,.593.623.589.589,0,0,1-.618.559c-.858.008-1.717,0-2.575,0h-2.939Z" fill="#fff"/>
    <path id="Path_6931" data-name="Path 6931" d="M1424.715,1307.071h-5.249a2.289,2.289,0,0,1-.362-.012.557.557,0,0,1-.509-.525.545.545,0,0,1,.412-.6,1.31,1.31,0,0,1,.39-.047q5.331,0,10.663,0a1.5,1.5,0,0,1,.391.04.579.579,0,0,1-.091,1.135,2.267,2.267,0,0,1-.33.01Z" fill="#fff"/>
    <path id="Path_6932" data-name="Path 6932" d="M1423.5,1303.524q2.048,0,4.094,0a1.553,1.553,0,0,1,.392.031.576.576,0,0,1-.041,1.127,1.994,1.994,0,0,1-.4.019h-8.153a1.493,1.493,0,0,1-.328-.02.554.554,0,0,1-.473-.557.547.547,0,0,1,.451-.572,1.611,1.611,0,0,1,.393-.029Q1421.468,1303.522,1423.5,1303.524Z" fill="#fff"/>
    <path id="Path_6933" data-name="Path 6933" d="M1437.208,1295.839a1.753,1.753,0,0,1-.385,2.658,1.858,1.858,0,0,1-2.612-.619,2.3,2.3,0,0,1-.234-.877.56.56,0,0,1,.525-.574.606.606,0,0,1,.67.458c.022.085.024.175.045.26a.614.614,0,0,0,.64.46.606.606,0,0,0,.558-.555.6.6,0,0,0-.486-.616c-.064-.013-.132-.006-.2-.017a.59.59,0,0,1-.017-1.172c.064-.012.132-.005.2-.017a.593.593,0,0,0,.5-.6.608.608,0,0,0-.542-.57.614.614,0,0,0-.661.474c-.012.053-.012.109-.022.163a.617.617,0,1,1-1.225-.153,1.85,1.85,0,0,1,2.04-1.666A1.793,1.793,0,0,1,1437.208,1295.839Z" fill="#fff"/>
  </g>
</svg>
