<svg xmlns="http://www.w3.org/2000/svg" width="18.924" height="18.924" viewBox="0 0 18.924 18.924">
  <g id="order" transform="translate(-24.075 -1299.802)">
    <path id="Path_6856" data-name="Path 6856" d="M29.763,1309.089v-.535h-.829v3.222H31.7v-3.222h-.739v.535Zm.654,2.425a.428.428,0,1,1,.429-.428A.427.427,0,0,1,30.417,1311.514Z"/>
    <path id="Path_6857" data-name="Path 6857" d="M33.537,1299.8A9.462,9.462,0,1,0,43,1309.264,9.462,9.462,0,0,0,33.537,1299.8Zm-6.02,7.137,2.632-2.949h.422l-1.738,2.949v.7h.93v-.7l1.755-2.949h.316l-.877,2.879v.765h.877v-.7l.878-2.949h.246v3.644h1.188l-.1-3.644h.386l.7,2.55v1.094h1.089v-.66l-.773-2.984h.457l1.509,2.984v.66h.948v-.66l-1.79-2.984h.456l2.527,2.949v2.15h-.5v3.608H28.014v-3.608h-.5Zm13.384,7.6H26.173a1.381,1.381,0,0,1,1.381-1.381H39.52A1.381,1.381,0,0,1,40.9,1314.538Z"/>
    <path id="Path_6858" data-name="Path 6858" d="M36.223,1309.089v-.535H35.134v.535h-.948l-.015-.535H32.958v.535h-.342v2.687H38.14v-3.222h-.724v.535Z"/>
  </g>
</svg>
