<svg xmlns="http://www.w3.org/2000/svg" width="24.1" height="26.518" viewBox="0 0 24.1 26.518">
  <g id="points" transform="translate(-1258.868 -1508.608)">
    <path id="Path_6937" data-name="Path 6937" d="M1264.878,1523.972c1.509-.871,2.981-1.7,4.428-2.575a.964.964,0,0,0,.4-.688c.035-1.5,0-3,.029-4.5a.785.785,0,0,0-.509-.828,3.553,3.553,0,0,1-1.785-4.087,3.606,3.606,0,0,1,6.966-.022,3.551,3.551,0,0,1-1.815,4.128.739.739,0,0,0-.47.786c.023,1.5-.007,3,.027,4.5a.959.959,0,0,0,.377.7c1.464.885,2.955,1.725,4.445,2.584a3.63,3.63,0,0,1,3.81-.594,3.586,3.586,0,0,1,2.059,4.293,3.6,3.6,0,0,1-7.067-1.03.838.838,0,0,0-.513-.892c-1.328-.739-2.631-1.524-3.962-2.257a.873.873,0,0,0-.723-.008c-1.389.763-2.747,1.579-4.134,2.345-.36.2-.356.453-.349.792a3.6,3.6,0,0,1-7.119.883,3.576,3.576,0,0,1,2.323-4.208A3.616,3.616,0,0,1,1264.878,1523.972Zm6.045-12.922a1.227,1.227,0,0,0-1.159,1.149,1.159,1.159,0,1,0,2.318,0A1.228,1.228,0,0,0,1270.923,1511.05Zm-9.57,15.645a1.081,1.081,0,0,0,1.129,1.127,1.132,1.132,0,1,0,0-2.263A1.091,1.091,0,0,0,1261.353,1526.695Zm19.14.03a1.1,1.1,0,0,0-1.1-1.166,1.129,1.129,0,0,0-1.171,1.1,1.111,1.111,0,0,0,1.109,1.161A1.082,1.082,0,0,0,1280.493,1526.725Z" fill="#fff"/>
    <path id="Path_6938" data-name="Path 6938" d="M1258.879,1516.994a3.608,3.608,0,1,1,3.537,3.658A3.592,3.592,0,0,1,1258.879,1516.994Zm2.474.013a1.094,1.094,0,0,0,1.094,1.169,1.129,1.129,0,0,0,1.173-1.1,1.112,1.112,0,0,0-1.1-1.163A1.079,1.079,0,0,0,1261.353,1517.007Z" fill="#fff"/>
    <path id="Path_6939" data-name="Path 6939" d="M1279.387,1513.434a3.609,3.609,0,0,1-.011,7.218,3.609,3.609,0,1,1,.011-7.218Zm-.008,2.479a1.132,1.132,0,1,0-.029,2.263,1.1,1.1,0,0,0,1.143-1.12A1.081,1.081,0,0,0,1279.379,1515.913Z" fill="#fff"/>
    <path id="Path_6940" data-name="Path 6940" d="M1274.515,1531.573a3.593,3.593,0,1,1-3.521-3.651A3.576,3.576,0,0,1,1274.515,1531.573Zm-3.6-1.214a1.162,1.162,0,1,0,1.164,1.139A1.219,1.219,0,0,0,1270.917,1530.359Z" fill="#fff"/>
  </g>
</svg>
