<svg xmlns="http://www.w3.org/2000/svg" xmlns:xlink="http://www.w3.org/1999/xlink" width="20.407" height="22.909" viewBox="0 0 20.407 22.909">
  <defs>
    <linearGradient id="linear-gradient" y1="0.5" x2="1" y2="0.5" gradientUnits="objectBoundingBox">
      <stop offset="0" stop-color="#009790"/>
      <stop offset="0.24" stop-color="#009891"/>
      <stop offset="0.35" stop-color="#009891"/>
      <stop offset="0.57" stop-color="#00787e"/>
      <stop offset="0.88" stop-color="#122559"/>
      <stop offset="1" stop-color="#13245a"/>
    </linearGradient>
  </defs>
  <g id="privacy" transform="translate(-2027.526 -1436.847)">
    <path id="Path_11226" data-name="Path 11226" d="M2047.934,1440.59a1.254,1.254,0,0,0-.261-.113,17.156,17.156,0,0,1-9.447-3.425.746.746,0,0,0-1.016-.01,16.935,16.935,0,0,1-9.226,3.407c-.55.016-.473.319-.422.685.376,2.72.767,5.438,1.1,8.163a11.123,11.123,0,0,0,5.953,8.887c.872.479,1.711,1.024,2.6,1.468a1.221,1.221,0,0,0,.97.007c1.14-.6,2.263-1.23,3.354-1.912a10.443,10.443,0,0,0,4.927-6.93c.4-1.948.594-3.938.873-5.91C2047.546,1443.469,2047.737,1442.029,2047.934,1440.59Z" fill="#fff"/>
    <path id="Path_11227" data-name="Path 11227" d="M2047.934,1440.59c-.2,1.439-.388,2.879-.591,4.317-.279,1.972-.472,3.962-.873,5.91a10.443,10.443,0,0,1-4.927,6.93c-1.091.682-2.214,1.317-3.354,1.912a1.221,1.221,0,0,1-.97-.007c-.889-.444-1.728-.989-2.6-1.468a11.123,11.123,0,0,1-5.953-8.887c-.337-2.725-.728-5.443-1.1-8.163-.051-.366-.128-.669.422-.685a16.935,16.935,0,0,0,9.226-3.407.746.746,0,0,1,1.016.01,17.156,17.156,0,0,0,9.447,3.425A1.254,1.254,0,0,1,2047.934,1440.59Zm-12.861,5.433c-1.221.2-1.222.2-1.223,1.386,0,1.314.018,2.628-.008,3.942-.013.683.255.963.949.954q2.919-.038,5.839,0c.686.009.978-.26.967-.944-.019-1.241-.005-2.482,0-3.723,0-1.326,0-1.326-1.206-1.641-.259-2.371-1.005-3.4-2.591-3.353a3.436,3.436,0,0,0-1.739.589A2.885,2.885,0,0,0,2035.073,1446.023Z" fill="#fff"/>
    <path id="Path_11228" data-name="Path 11228" d="M2035.073,1446.023a2.885,2.885,0,0,1,.984-2.79,3.436,3.436,0,0,1,1.739-.589c1.586-.046,2.332.982,2.591,3.353,1.206.315,1.206.315,1.206,1.641,0,1.241-.015,2.482,0,3.723.011.684-.281.953-.967.944q-2.919-.036-5.839,0c-.694.009-.962-.271-.949-.954.026-1.314.007-2.628.008-3.942C2033.851,1446.219,2033.852,1446.219,2035.073,1446.023Zm1.219.035h2.84c.1-.822.122-1.576-.647-2.06a1.364,1.364,0,0,0-1.581.022A1.844,1.844,0,0,0,2036.292,1446.058Zm.63,2.325c.214.76.369,1.345.552,1.92a.328.328,0,0,0,.3.109.652.652,0,0,0,.232-.326,6.531,6.531,0,0,0,.4-1.171,1.115,1.115,0,0,0-.118-.852,1.07,1.07,0,0,0-.888-.214C2037.17,1447.913,2037.016,1448.27,2036.922,1448.383Z" fill="url(#linear-gradient)"/>
  </g>
</svg>
