<svg height="83.299" viewBox="0 0 76.064 83.299" width="76.064" xmlns="http://www.w3.org/2000/svg" xmlns:xlink="http://www.w3.org/1999/xlink"><linearGradient id="a" gradientUnits="objectBoundingBox" x1="-45.136" x2="-45.136" y1="-71.662" y2="-72.674"><stop offset=".295"/><stop offset=".553" stop-color="#0e0e0e"/><stop offset=".79" stop-color="#303030"/><stop offset=".897" stop-color="#505050"/><stop offset="1" stop-color="#898989"/></linearGradient><linearGradient id="b" x1="-24.204" x2="-24.088" xlink:href="#a" y1="-23.618" y2="-23.755"/><linearGradient id="c" x1="1624.186" x2="1624.186" xlink:href="#a" y1="-77.192" y2="-78.276"/><pattern id="d" height="100%" preserveAspectRatio="none" viewBox="0 0 0 0" width="100%"><image/></pattern><linearGradient id="e" x1="-88.757" x2="-90.17" xlink:href="#a" y1="-121.601" y2="-122.386"/><linearGradient id="f" x1="-79.98" x2="-78.88" xlink:href="#a" y1="-129.272" y2="-129.93"/><linearGradient id="g" x1="-7.153" x2="-7.153" xlink:href="#a" y1="-20.416" y2="-21.419"/><linearGradient id="h" x1="-51.159" x2="-51.159" xlink:href="#a" y1="-93.578" y2="-94.581"/><linearGradient id="i" x1="1570.418" x2="1570.418" xlink:href="#a" y1="-102.626" y2="-103.719"/><linearGradient id="j" x1="-8.415" x2="-8.415" xlink:href="#a" y1="-26.383" y2="-27.359"/><linearGradient id="k" gradientUnits="objectBoundingBox" x1=".085" x2="1.404" y1=".237" y2="1.073"><stop offset="0" stop-color="#545454"/><stop offset=".124" stop-color="#b5b5b5"/><stop offset=".191" stop-color="#dadada"/><stop offset=".295" stop-color="#fff"/><stop offset=".498" stop-color="#d2d1d0"/><stop offset=".577" stop-color="#9e9e9f"/><stop offset=".662" stop-color="#aaa9aa"/><stop offset=".72" stop-color="#a2a0a0"/><stop offset=".879" stop-color="#545454"/><stop offset="1" stop-color="#707070"/></linearGradient><linearGradient id="l" x1=".011" x2=".992" xlink:href="#k" y1=".179" y2=".823"/><linearGradient id="m" x1="-5.873" x2="-5.873" xlink:href="#a" y1="-4.195" y2="-5.257"/><linearGradient id="n" x1="2167.439" x2="2167.439" xlink:href="#a" y1="-4.271" y2="-5.339"/><radialGradient id="o" cx=".5" cy=".5" gradientTransform="matrix(.262 -.003 0 .262 .075 479.954)" gradientUnits="objectBoundingBox" r="1.908"><stop offset=".07" stop-color="#4e4e4e"/><stop offset=".099" stop-color="#6d6d6d"/><stop offset=".143" stop-color="#989898"/><stop offset=".178" stop-color="#b2b2b2"/><stop offset=".199" stop-color="#bcbcbc"/><stop offset=".29" stop-color="#d0d0d0"/><stop offset=".414" stop-color="#e5e5e5"/><stop offset=".554" stop-color="#f3f3f3"/><stop offset=".721" stop-color="#fcfcfc"/><stop offset=".984" stop-color="#fff"/></radialGradient><radialGradient id="p" cx=".5" cy=".5" gradientTransform="matrix(.262 -.003 0 .262 .038 538.76)" r="1.908" xlink:href="#o"/><radialGradient id="q" cx=".5" cy=".5" gradientTransform="matrix(1 -.003 .003 1 .005 -.001)" gradientUnits="objectBoundingBox" r=".5"><stop offset="0" stop-color="#3e3e3e"/><stop offset=".667" stop-color="#3e3e3e"/><stop offset=".718" stop-color="#565454"/><stop offset=".771" stop-color="#686464"/><stop offset=".828" stop-color="#736e6e"/><stop offset=".892" stop-color="#777272"/><stop offset=".932" stop-color="#746f6f"/><stop offset=".956" stop-color="#6c6868"/><stop offset=".975" stop-color="#5d5b5b"/><stop offset=".992" stop-color="#494848"/><stop offset="1" stop-color="#3e3e3e"/></radialGradient><linearGradient id="r" gradientUnits="objectBoundingBox" x1="-2.185" x2="-2.185" y1="-510.045" y2="-511.045"><stop offset=".387" stop-color="#191919"/><stop offset=".567" stop-color="#1c1c1c"/><stop offset=".73" stop-color="#272727"/><stop offset=".887" stop-color="#393939"/><stop offset=".914" stop-color="#3e3e3e"/></linearGradient><linearGradient id="s" gradientUnits="objectBoundingBox" x1="-.432" x2="-.432" y1="-.951" y2="-1.949"><stop offset="0" stop-color="#8c8c8c"/><stop offset=".235" stop-color="#a3a3a3"/><stop offset=".462" stop-color="#bfbfbf"/><stop offset=".505" stop-color="#a5a5a5"/><stop offset=".594" stop-color="#656565"/><stop offset=".624" stop-color="#4e4e4e"/><stop offset=".633" stop-color="#474747"/><stop offset=".671" stop-color="#323232"/><stop offset=".714" stop-color="#242424"/><stop offset=".764" stop-color="#1b1b1b"/><stop offset=".844" stop-color="#191919"/></linearGradient><linearGradient id="t" gradientUnits="objectBoundingBox" x1="-150.474" x2="-149.474" y1="-1296.465" y2="-1296.465"><stop offset="0" stop-color="#191919"/><stop offset=".042" stop-color="#312f2f"/><stop offset=".129" stop-color="#6e6868"/><stop offset=".177" stop-color="#938b8b"/><stop offset=".231" stop-color="#797373"/><stop offset=".345" stop-color="#393636"/><stop offset=".398" stop-color="#191919"/><stop offset=".683" stop-color="#7b736a"/><stop offset="1" stop-color="#191919"/></linearGradient><linearGradient id="u" x1="-6.528" x2="-5.528" xlink:href="#t" y1="-14.497" y2="-14.497"/><radialGradient id="v" cx=".5" cy=".5" gradientTransform="matrix(1 -.003 .003 1 .005 -.001)" gradientUnits="objectBoundingBox" r=".5"><stop offset="0" stop-color="#242424"/><stop offset=".667" stop-color="#242424"/><stop offset=".718" stop-color="#3c3a3a"/><stop offset=".771" stop-color="#4e4a4a"/><stop offset=".828" stop-color="#595454"/><stop offset=".892" stop-color="#5d5858"/><stop offset=".932" stop-color="#5a5555"/><stop offset=".956" stop-color="#524e4e"/><stop offset=".975" stop-color="#434141"/><stop offset=".992" stop-color="#2f2e2e"/><stop offset="1" stop-color="#242424"/></radialGradient><linearGradient id="w" gradientUnits="objectBoundingBox" x1="-2.133" x2="-2.133" y1="-467.086" y2="-468.086"><stop offset=".387"/><stop offset=".569" stop-color="#030303"/><stop offset=".735" stop-color="#0e0e0e"/><stop offset=".893" stop-color="#202020"/><stop offset=".914" stop-color="#242424"/></linearGradient><linearGradient id="x" gradientUnits="objectBoundingBox" x1="-.354" x2="-.354" y1="-.787" y2="-1.785"><stop offset="0" stop-color="#737373"/><stop offset=".35" stop-color="#8a8a8a"/><stop offset=".677" stop-color="#a5a5a5"/><stop offset=".693" stop-color="#8b8b8b"/><stop offset=".726" stop-color="#4b4b4b"/><stop offset=".737" stop-color="#343434"/><stop offset=".823" stop-color="#757575"/><stop offset="1"/></linearGradient><linearGradient id="y" gradientUnits="objectBoundingBox" x1="-138.31" x2="-137.31" y1="-1187.476" y2="-1187.476"><stop offset="0"/><stop offset=".042" stop-color="#181616"/><stop offset=".129" stop-color="#554f4f"/><stop offset=".177" stop-color="#7a7272"/><stop offset=".231" stop-color="#605a5a"/><stop offset=".345" stop-color="#201d1d"/><stop offset=".398"/><stop offset=".683" stop-color="#615950"/><stop offset="1"/></linearGradient><linearGradient id="z" x1="-5.977" x2="-4.978" xlink:href="#y" y1="-13.234" y2="-13.234"/><radialGradient id="A" cx=".5" cy=".5" gradientTransform="matrix(-.262 .003 0 .262 429.833 478.687)" r="1.908" xlink:href="#o"/><radialGradient id="B" cx=".5" cy=".5" gradientTransform="matrix(-.262 .003 0 .262 483.748 537.416)" r="1.908" xlink:href="#o"/><radialGradient id="C" cx=".5" cy=".5" gradientTransform="matrix(-1 .003 .003 1 2628.933 -4.207)" r=".5" xlink:href="#q"/><linearGradient id="D" x1="974.03" x2="974.03" xlink:href="#r" y1="373.157" y2="372.157"/><linearGradient id="E" x1="1326.253" x2="1326.253" xlink:href="#s" y1="-.975" y2="-1.974"/><linearGradient id="F" x1="4008.746" x2="4009.747" xlink:href="#t" y1="1077.816" y2="1077.816"/><linearGradient id="G" x1="9256.426" x2="9257.426" xlink:href="#t" y1="-14.675" y2="-14.675"/><radialGradient id="H" cx=".5" cy=".5" gradientTransform="matrix(-1 .003 .003 1 2405.411 -3.849)" r=".5" xlink:href="#v"/><linearGradient id="I" x1="890.73" x2="890.73" xlink:href="#w" y1="341.294" y2="340.294"/><linearGradient id="J" x1="1213.419" x2="1213.419" xlink:href="#x" y1="-.807" y2="-1.806"/><linearGradient id="K" x1="3666.085" x2="3667.085" xlink:href="#y" y1="986.092" y2="986.092"/><linearGradient id="L" x1="8469.351" x2="8470.351" xlink:href="#y" y1="-13.368" y2="-13.368"/><linearGradient id="M" gradientUnits="objectBoundingBox" x1="-.381" x2=".03" y1="-1.177" y2="-1.902"><stop offset="0"/><stop offset="1" stop-color="#ffa6a2"/></linearGradient><radialGradient id="N" cx=".5" cy=".5" gradientTransform="matrix(.394 .387 -.014 .076 330.909 10552.661)" gradientUnits="objectBoundingBox" r="1.267"><stop offset="0" stop-color="#a5a5a5"/><stop offset=".008" stop-color="#a1a1a1"/><stop offset=".12" stop-color="#767676"/><stop offset=".237" stop-color="#525252"/><stop offset=".36" stop-color="#343434"/><stop offset=".488" stop-color="#1d1d1d"/><stop offset=".626" stop-color="#0c0c0c"/><stop offset=".779" stop-color="#030303"/><stop offset=".978"/></radialGradient><linearGradient id="O" gradientUnits="objectBoundingBox" x1="1805.161" x2="1804.502" y1="65.052" y2="64.355"><stop offset="0" stop-color="#ff57a5"/><stop offset="1" stop-color="#dd001a"/></linearGradient><linearGradient id="P" gradientUnits="objectBoundingBox" x1="1674.372" x2="1674.772" y1="65.656" y2="66.261"><stop offset="0" stop-color="#ff0857"/><stop offset="1" stop-color="#a20000"/></linearGradient><linearGradient id="Q" x1="1830.773" x2="1831.575" xlink:href="#O" y1="76.858" y2="76.476"/><linearGradient id="R" x1="1625.122" x2="1624.77" xlink:href="#P" y1="83.363" y2="83.905"/><linearGradient id="S" x1="2479.717" x2="2479.521" xlink:href="#O" y1="83.149" y2="82.757"/><linearGradient id="T" x1="1834.568" x2="1834.907" xlink:href="#O" y1="-48.744" y2="-49.084"/><g transform="translate(-2682.285 -1236.681)"><g><path d="m2738.353 1244.6-.426.293-.5-.136-.425.294-.5-.136-.426.293-.5-.135-.426.293-.5-.136-.425.294-.5-.136-.425.293-.5-.136-.424.293-.5-.136-.425.293-.5-.136-.425.293-.5-.136-.425.293-.5-.136-.425.293-.5-.136-.426.294-.5-.136-.425.293-.5-.136-.425.293-.5-.136-.425.293-.5-.136-.424.293-.5-.136-.425.293-.5-.136-.425.293-.5-.136-.424.293-.5-.136-.425.293-.5-.136-.425.293-.5-.136-.424.293-.5-.136-.425.293-.5-.136-.425.293-.5-.136-.425.293-.5-.136-.425.293-.5-.136-.425.293-.5-.135 1.662 9.738 25.4-4.334-1.625-9.523z" fill="#020202"/><path d="m2738.408 1244.918-.548-.014-.385.39-.547-.014-.384.389-.547-.014-.385.39-.486.207 1.407 8.2 3.865-.66-1.532-8.977-.05-.294z" fill="#020202"/><path d="m2738.408 1244.918-.548-.014-.385.39-.547-.014-.384.389-.547-.014-.385.39-.486.207 1.407 8.2 3.865-.66-1.532-8.977-.05-.294z" fill="url(#a)"/><path d="m2739.857 1246.575-.495-.256-.479.193-.457-.241-.48.193-.457-.241-.479.193-.457-.241-.48.193-.457-.241-.492.124 5.186 30.243 4.509-.77z" fill="#020202"/><path d="m2739.857 1246.575-.495-.256-.479.193-.457-.241-.48.193-.457-.241-.479.193-.457-.241-.48.193-.457-.241-.492.124 5.186 30.243 4.509-.77z" fill="url(#b)"/><path d="m2713.936 1249.094.512-.2.492.24.511-.2.492.24.511-.195.492.24.527.034 1.394 8.206-3.865.659-1.532-8.977-.05-.294z" fill="#020202"/><path d="m2713.936 1249.094.512-.2.492.24.511-.2.492.24.511-.195.492.24.527.034 1.394 8.206-3.865.659-1.532-8.977-.05-.294z" fill="url(#c)"/><path d="m2713.117 1251.138.382-.406.516.023.35-.379.517.023.351-.379.516.024.351-.379.517.023.351-.38.5-.045 5.139 30.251-4.509.769z" fill="#020202"/><path d="m0 0h9v4h-9z" fill="url(#d)" transform="translate(2721.349 1242.52)"/><path d="m2720.927 1249.841-.205-1.2c-.08-.469-.16-.936-.24-1.4l-.158-.929.008-.011.916-1.294.841-1.186.773 4.529q.093.552.188 1.1l.006.034zm-.53-3.521.154.9q.12.7.239 1.4l.194 1.137 1.992-.34-.183-1.068-.744-4.365-.744 1.05z"/><path d="m0 0h3v7h-3z" fill="url(#d)" transform="translate(2720.349 1243.52)"/><path d="m2729.931 1248.3-.967-5.666.068.049 1.118.792 1.306.924.052.308c.035.207.071.414.106.621.045.261.089.522.134.784l.2 1.149c.036.214.073.428.11.642l.006.034zm-.871-5.512.928 5.432 1.992-.34c-.035-.2-.07-.405-.1-.608l-.2-1.149c-.044-.261-.089-.522-.133-.783-.036-.207-.071-.415-.106-.622l-.048-.279-1.282-.908c-.452-.315-.887-.624-1.051-.739z"/><path d="m0 0h4v6h-4z" fill="url(#d)" transform="translate(2728.349 1242.52)"/><path d="m2722.069 1243.9-.792 1.118c-.448.631-.917 1.294-.917 1.294l.156.914.24 1.4q.1.585.2 1.171l1.106-.189.955-.163q-.12-.7-.239-1.4-.207-1.213-.413-2.426-.15-.856-.296-1.719z" fill="url(#e)"/><path d="m2729.012 1242.715 1.118.792c.316.223.64.452.884.626l.41.29.156.915q.12.7.239 1.4c.067.39.133.78.2 1.17l-.553.095-.553.094-.955.163q-.119-.7-.238-1.4-.207-1.212-.414-2.425-.146-.856-.294-1.72z" fill="url(#f)"/><path d="m2739.39 1246.434-.395.288-.468-.141-.394.288-.468-.141-.394.288-.467-.141-.395.288-.467-.141-.394.288-.468-.141-.394.288-.468-.141-.394.288-.468-.141-.395.288-.468-.141-.394.288-.467-.141-.394.289-.468-.141-.394.288-.468-.141-.395.288-.467-.141-.395.288-.468-.141-.4.288-.468-.141-.395.288-.468-.141-.395.288-.468-.141-.395.288-.467-.141-.4.288-.469-.141-.395.288-.468-.141-.4.288-.468-.141-.395.288-.468-.141-.395.288-.468-.141-.4.288-.468-.141-.4.288-.468-.141-.4.288-.468-.141-.4.289-.468-.141-.4.288-.468-.141-.4.288-.468-.141-.4.288-.469-.141-.4.288-.469-.141-.4.288 3.959 23.2 1.016 5.952 26.74-4.563-1.015-5.952-3.959-23.2z" fill="#020202"/><path d="m2739.39 1246.434-.395.288-.468-.141-.394.288-.468-.141-.394.288-.467-.141-.395.288-.467-.141-.394.288-.468-.141-.394.288-.468-.141-.394.288-.468-.141-.395.288-.468-.141-.394.288-.467-.141-.394.289-.468-.141-.394.288-.468-.141-.395.288-.467-.141-.395.288-.468-.141-.4.288-.468-.141-.395.288-.468-.141-.395.288-.468-.141-.395.288-.467-.141-.4.288-.469-.141-.395.288-.468-.141-.4.288-.468-.141-.395.288-.468-.141-.395.288-.468-.141-.4.288-.468-.141-.4.288-.468-.141-.4.288-.468-.141-.4.289-.468-.141-.4.288-.468-.141-.4.288-.468-.141-.4.288-.469-.141-.4.288-.469-.141-.4.288 3.959 23.2 1.016 5.952 26.74-4.563-1.015-5.952-3.959-23.2z" fill="url(#g)"/></g><g><path d="m2726.656 1257.3-.4.3-.492-.11-.4.3-.491-.11-.4.3-.491-.11-.4.3-.491-.11-.4.3-.491-.11-.4.3-.491-.11-.4.3-.491-.11-.4.3-.491-.11-.4.3-.491-.11-.4.3-.491-.11-.4.3-.491-.11-.4.3-.49-.11-.4.3-.491-.11-.4.3-.491-.11-.4.3-.49-.11-.4.3-.491-.11-.4.3-.49-.11-.4.3-.49-.11-.4.3-.49-.11-.4.3-.49-.11-.4.3-.49-.111-.4.3-.49-.11-.4.3-.491-.11-.4.3-.49-.11-.4.3-.49-.11-.4.3-.491-.11-.4.3-.49-.11 2.041 9.4 24.512-5.322-2-9.192z" fill="#cb6d00"/><path d="m2726.723 1257.605-.533.01-.358.4-.533.01-.356.4-.532.01-.357.4-.464.223 1.726 7.918 3.731-.81-1.882-8.665-.061-.283z" fill="#cb6d00"/><path d="m2726.723 1257.605-.533.01-.358.4-.533.01-.356.4-.532.01-.357.4-.464.223 1.726 7.918 3.731-.81-1.882-8.665-.061-.283z" fill="url(#h)"/><path d="m2728.205 1259.154-.492-.227-.458.209-.455-.215-.458.209-.455-.215-.458.209-.455-.215-.458.209-.455-.215-.473.143 6.361 29.189 4.352-.945z" fill="#f18000"/><path d="m2703.1 1262.734.49-.212.489.212.489-.212.489.212.489-.212.489.212.514.011 1.714 7.921-3.73.81-1.882-8.665-.061-.284z" fill="#cb6d00"/><path d="m2703.1 1262.734.49-.212.489.212.489-.212.489.212.489-.212.489.212.514.011 1.714 7.921-3.73.81-1.882-8.665-.061-.284z" fill="url(#i)"/><path d="m2702.4 1264.758.354-.411h.5l.325-.384h.5l.325-.384h.5l.324-.384h.5l.325-.385.489-.066 6.316 29.2-4.351.944z" fill="#f18000"/><path d="m2727.744 1259.038-.371.3-.461-.117-.371.3-.461-.117-.371.3-.461-.117-.371.3-.46-.117-.37.3-.461-.117-.371.3-.461-.117-.371.3-.461-.117-.371.3-.461-.117-.371.3-.461-.117-.371.3-.461-.117-.371.3-.461-.117-.371.3-.461-.117-.371.3-.461-.117-.372.3-.461-.116-.371.3-.461-.117-.371.3-.462-.117-.371.3-.461-.117-.372.3-.461-.117-.371.3-.461-.117-.372.3-.461-.117-.371.3-.461-.116-.372.3-.461-.116-.372.3-.461-.117-.372.3-.461-.117-.372.3-.461-.117-.372.3-.461-.117-.372.3-.462-.117-.372.3-.462-.116-.372.3-.462-.116-.372.3-.463-.116-.373.3 4.861 22.389 1.247 5.744 25.81-5.6-1.247-5.744-4.862-22.389z" fill="#f18000"/><path d="m2727.744 1259.038-.371.3-.461-.117-.371.3-.461-.117-.371.3-.461-.117-.371.3-.46-.117-.37.3-.461-.117-.371.3-.461-.117-.371.3-.461-.117-.371.3-.461-.117-.371.3-.461-.117-.371.3-.461-.117-.371.3-.461-.117-.371.3-.461-.117-.371.3-.461-.117-.372.3-.461-.116-.371.3-.461-.117-.371.3-.462-.117-.371.3-.461-.117-.372.3-.461-.117-.371.3-.461-.117-.372.3-.461-.117-.371.3-.461-.116-.372.3-.461-.116-.372.3-.461-.117-.372.3-.461-.117-.372.3-.461-.117-.372.3-.461-.117-.372.3-.462-.117-.372.3-.462-.116-.372.3-.462-.116-.372.3-.463-.116-.373.3 4.861 22.389 1.247 5.744 25.81-5.6-1.247-5.744-4.862-22.389z" fill="url(#j)"/><path d="m2716.491 1273.126a2.9 2.9 0 1 1 -3.413-2.2 2.553 2.553 0 0 1 3.413 2.2zm-3.819.517.1.5c.16.775.543 1.293 1.209 1.155.682-.141.8-.763.634-1.537l-.1-.5c-.161-.775-.513-1.3-1.194-1.158s-.81.766-.649 1.54zm4.391 7.767-1.72.357 4.283-11.99 1.688-.351zm8.808-4.51a2.9 2.9 0 1 1 -3.414-2.2 2.554 2.554 0 0 1 3.414 2.2zm-3.82.518.1.495c.161.775.544 1.293 1.209 1.155.682-.141.8-.763.635-1.537l-.1-.5c-.161-.775-.512-1.3-1.194-1.158-.666.142-.81.77-.65 1.545z"/><path d="m2711.635 1265.88a1.077 1.077 0 1 1 .513-1.434 1.079 1.079 0 0 1 -.513 1.434zm-.69-1.458a.536.536 0 1 0 .714.255.537.537 0 0 0 -.714-.255z" fill="url(#k)"/><path d="m2720.245 1263.892a1.078 1.078 0 1 1 .512-1.435 1.079 1.079 0 0 1 -.512 1.435zm-.691-1.459a.537.537 0 1 0 .715.256.538.538 0 0 0 -.715-.256z" fill="url(#l)"/><path d="m2715.666 1268.979a4.92 4.92 0 0 1 -4.9-3.99.416.416 0 0 1 .816-.164 4.079 4.079 0 0 0 4.8 3.261c1.7-.3 3.506-1.821 3-5.1a.416.416 0 1 1 .822-.128c.564 3.628-1.437 5.653-3.671 6.05a4.919 4.919 0 0 1 -.867.071z" fill="#fff"/><g fill="#ffd161"><path d="m2713.252 1267.424a3.953 3.953 0 0 0 1.277 1.424 5.032 5.032 0 0 0 1.137.131 4.919 4.919 0 0 0 .858-.075 4.7 4.7 0 0 0 .714-.19 4.551 4.551 0 0 1 -2.066-.589 4.224 4.224 0 0 1 -1.92-.701z"/><path d="m2718.653 1266.712a3.555 3.555 0 0 1 -1.216 1.015 8.933 8.933 0 0 0 1.6-.189 4.594 4.594 0 0 0 1.065-1.981 4.957 4.957 0 0 1 -1.449 1.155z"/><path d="m2720.2 1262.854a.416.416 0 1 0 -.822.128 6.385 6.385 0 0 1 .048 1.74 5.284 5.284 0 0 0 .828-1.438c-.019-.141-.037-.284-.054-.43z"/><path d="m2711.582 1264.825a.415.415 0 0 0 -.254-.3 4.552 4.552 0 0 0 -.153 1.688 4.755 4.755 0 0 0 1.495 1.8 7.643 7.643 0 0 1 -.8-2.265 4.476 4.476 0 0 1 -.288-.923z"/></g></g><g><path d="m2739.531 1263.344c-3.566 0-6.467-3.378-6.467-7.531s2.9-7.53 6.467-7.53 6.467 3.378 6.467 7.53-2.898 7.531-6.467 7.531zm0-14.507c-3.26 0-5.913 3.13-5.913 6.976s2.653 6.977 5.913 6.977 5.912-3.13 5.912-6.977-2.652-6.976-5.912-6.976z" fill="#006493"/><path d="m2752.047 1254.753-.457.219-.462-.207-.456.22-.462-.207-.456.22-.462-.207-.456.219-.463-.207-.456.22-.462-.207-.456.22-.462-.207-.455.219-.462-.207-.456.219-.462-.207-.456.219-.462-.207-.456.22-.462-.207-.456.22-.462-.207-.456.22-.462-.207-.456.219-.461-.207-.456.22-.462-.207-.456.219-.462-.207-.455.22-.462-.207-.456.22-.461-.207-.456.22-.462-.207-.455.219-.461-.207-.456.219-.461-.207-.456.22-.461-.207-.455.22-.461-.207-.456.22-.462-.207-.456.219-.462-.207-.455.22-.462-.207-.455.219-.462-.207-.456.22-.462-.207.136 9.676 25.235-.353-.133-9.463z" fill="#006493"/><path d="m2752.052 1255.066-.528-.1-.431.319-.528-.1-.43.319-.527-.1-.431.319-.5.127.12 8.153 3.841-.054-.125-8.92v-.292z" fill="#b70706"/><path d="m2752.052 1255.066-.528-.1-.431.319-.528-.1-.43.319-.527-.1-.431.319-.5.127.12 8.153 3.841-.054-.125-8.92v-.292z" fill="url(#m)"/><path d="m2753.205 1256.889-.441-.323-.492.115-.406-.3-.492.115-.406-.3-.493.115-.406-.3-.493.115-.407-.3-.494.046.444 30.055 4.481-.063z" fill="#020202"/><path d="m2753.205 1256.889-.441-.323-.492.115-.406-.3-.492.115-.406-.3-.493.115-.406-.3-.493.115-.407-.3-.494.046.444 30.055 4.481-.063z" fill="#d00404"/><path d="m2740.122 1265.106c-3.566 0-6.466-3.378-6.466-7.53s2.9-7.531 6.466-7.531 6.467 3.378 6.467 7.531-2.901 7.53-6.467 7.53zm0-14.507c-3.26 0-5.912 3.13-5.912 6.977s2.652 6.976 5.912 6.976 5.913-3.13 5.913-6.976-2.653-6.976-5.913-6.976z" fill="#006493"/><path d="m2727.735 1255.406.525-.111.441.307.524-.112.44.307.524-.111.44.307.5.113.108 8.153-3.841.054-.125-8.92v-.292z" fill="#b70706"/><path d="m2727.735 1255.406.525-.111.441.307.524-.112.44.307.524-.111.44.307.5.113.108 8.153-3.841.054-.125-8.92v-.292z" fill="url(#n)"/><path d="m2726.634 1257.261.431-.335.5.1.4-.314.5.1.4-.314.5.1.4-.314.5.1.4-.314.5.032.4 30.056-4.48.063z" fill="#d00404"/><path d="m2752.774 1256.682-.426.219-.431-.207-.426.219-.431-.207-.425.219-.431-.207-.426.219-.431-.207-.424.219-.431-.207-.425.219-.432-.207-.425.219-.431-.207-.426.219-.431-.208-.425.219-.431-.207-.425.219-.431-.207-.426.219-.431-.208-.425.219-.431-.207-.425.219-.432-.207-.425.219-.432-.207-.426.219-.431-.207-.426.219-.431-.207-.426.219-.431-.207-.427.219-.431-.207-.426.219-.432-.207-.425.219-.432-.207-.425.219-.432-.207-.426.219-.431-.207-.426.219-.431-.207-.426.219-.431-.207-.426.219-.431-.207-.426.219-.431-.207-.426.219-.432-.207-.426.219-.432-.207-.426.219-.432-.207-.426.219-.433-.207-.427.219.323 23.049.083 5.914 26.571-.372-.083-5.914-.323-23.049z" fill="#d70d0c"/><path d="m2752.774 1256.682-.426.219-.431-.207-.426.219-.431-.207-.425.219-.431-.207-.426.219-.431-.207-.424.219-.431-.207-.425.219-.432-.207-.425.219-.431-.207-.426.219-.431-.208-.425.219-.431-.207-.425.219-.431-.207-.426.219-.431-.208-.425.219-.431-.207-.425.219-.432-.207-.425.219-.432-.207-.426.219-.431-.207-.426.219-.431-.207-.426.219-.431-.207-.427.219-.431-.207-.426.219-.432-.207-.425.219-.432-.207-.425.219-.432-.207-.426.219-.431-.207-.426.219-.431-.207-.426.219-.431-.207-.426.219-.431-.207-.426.219-.431-.207-.426.219-.432-.207-.426.219-.432-.207-.426.219-.432-.207-.426.219-.433-.207-.427.219.323 23.049.083 5.914 26.571-.372-.083-5.914-.323-23.049z" fill="#006493"/><path d="m2738.664 1268.256a2.9 2.9 0 1 1 -2.9-2.848 2.553 2.553 0 0 1 2.9 2.848zm-3.844-.269v.506c0 .791.269 1.376.949 1.376.7 0 .934-.585.934-1.376v-.506c0-.791-.238-1.377-.934-1.377-.68 0-.949.59-.949 1.377zm2.721 8.5h-1.756l6.629-10.87h1.725zm9.54-2.627a2.9 2.9 0 1 1 -2.9-2.848 2.553 2.553 0 0 1 2.9 2.844zm-3.844-.269v.507c0 .791.269 1.376.949 1.376.7 0 .934-.585.934-1.376v-.507c0-.791-.238-1.376-.934-1.376-.68-.004-.949.585-.949 1.372z" fill="#fff"/></g><g><path d="m0 0h61v8h-61z" fill="url(#d)" transform="translate(2697.349 1311.52)"/><path d="m2722.4 1316.786c-.006-1.743-5.4-3.139-12.056-3.117s-12.041 1.451-12.036 3.194 5.4 3.138 12.056 3.117 12.036-1.452 12.036-3.194z" fill="url(#o)"/><path d="m2723.382 1313.76c-.005-1.549-4.8-2.79-10.717-2.771s-10.7 1.29-10.7 2.839 4.8 2.79 10.716 2.771 10.706-1.29 10.701-2.839z" fill="url(#p)"/><path d="m2715.777 1310.881a3.12 3.12 0 1 0 -3.11 3.131 3.12 3.12 0 0 0 3.11-3.131z" fill="url(#q)"/><path d="m2714.97 1308.8a3.12 3.12 0 1 0 -.218 4.407 3.12 3.12 0 0 0 .218-4.407z" fill="url(#r)"/><path d="m2710.266 1305.652 5.881-.018c.194.082.085.469 0 .58s-1.478 4.063-1.779 5a1.878 1.878 0 0 1 -1.984 1.222c-.746-.053-1.632-.851-1.414-1.68s.653-3.206-.7-4.472c-.279-.189-.253-.631-.004-.632z" fill="#ef7d74"/><path d="m2710.429 1305.651 5.55-.017c.183.081.08.461 0 .57s-1.4 3.993-1.678 4.916a1.766 1.766 0 0 1 -1.873 1.2 1.487 1.487 0 0 1 -1.334-1.65c.206-.815.615-3.15-.665-4.394-.26-.189-.235-.624 0-.625z" fill="#ff4e3f"/><path d="m2710.266 1305.652 5.881-.018c.194.082.085.469 0 .58s-1.478 4.063-1.779 5a1.878 1.878 0 0 1 -1.984 1.222c-.746-.053-1.632-.851-1.414-1.68s.653-3.206-.7-4.472c-.279-.189-.253-.631-.004-.632z" fill="url(#s)"/><path d="m2710.266 1305.652 5.881-.018c.194.082.085.469 0 .58s-1.478 4.063-1.779 5a1.878 1.878 0 0 1 -1.984 1.222c-.746-.053-1.632-.851-1.414-1.68s.653-3.206-.7-4.472c-.279-.189-.253-.631-.004-.632z" fill="url(#s)"/><path d="m2713.568 1310.888a.911.911 0 1 0 -.908.915.91.91 0 0 0 .908-.915z" fill="#d8d8d8"/><path d="m2713.49 1310.889a.833.833 0 1 0 -.83.836.834.834 0 0 0 .83-.836z" fill="#9e9e9e"/><path d="m2713.4 1310.465a.857.857 0 1 0 -.318 1.17.858.858 0 0 0 .318-1.17z" fill="url(#t)"/><path d="m2713.246 1310.889a.589.589 0 1 0 -.587.592.589.589 0 0 0 .587-.592z" fill="#727272"/><path d="m2713.1 1310.89a.443.443 0 1 0 -.442.445.443.443 0 0 0 .442-.445z" fill="#dadada"/><path d="m2713.1 1310.89a.443.443 0 1 0 -.442.445.443.443 0 0 0 .442-.445z" fill="url(#u)"/><path d="m2713.752 1313.549a3.409 3.409 0 1 0 -3.4 3.42 3.41 3.41 0 0 0 3.4-3.42z" fill="url(#v)"/><path d="m2712.869 1311.272a3.409 3.409 0 1 0 -.238 4.815 3.408 3.408 0 0 0 .238-4.815z" fill="url(#w)"/><path d="m2707.73 1307.836 6.426-.02c.211.09.092.513 0 .634s-1.615 4.439-1.944 5.466a2.051 2.051 0 0 1 -2.168 1.335c-.815-.058-1.783-.93-1.544-1.836s.713-3.5-.77-4.885c-.3-.21-.272-.693 0-.694z" fill="#d5635a"/><path d="m2707.908 1307.836 6.064-.019c.2.088.087.5 0 .622s-1.523 4.363-1.834 5.372a1.929 1.929 0 0 1 -2.045 1.311 1.627 1.627 0 0 1 -1.458-1.8c.225-.889.673-3.44-.727-4.8-.283-.211-.256-.685 0-.686z" fill="#e53425"/><path d="m2707.73 1307.836 6.426-.02c.211.09.092.513 0 .634s-1.615 4.439-1.944 5.466a2.051 2.051 0 0 1 -2.168 1.335c-.815-.058-1.783-.93-1.544-1.836s.713-3.5-.77-4.885c-.3-.21-.272-.693 0-.694z" fill="url(#x)"/><path d="m2707.73 1307.836 6.426-.02c.211.09.092.513 0 .634s-1.615 4.439-1.944 5.466a2.051 2.051 0 0 1 -2.168 1.335c-.815-.058-1.783-.93-1.544-1.836s.713-3.5-.77-4.885c-.3-.21-.272-.693 0-.694z" fill="url(#x)"/><path d="m2711.338 1313.557a1 1 0 1 0 -.992 1 1 1 0 0 0 .992-1z" fill="#bebebe"/><path d="m2711.253 1313.558a.911.911 0 1 0 -.908.913.911.911 0 0 0 .908-.913z" fill="#848484"/><path d="m2711.155 1313.095a.936.936 0 1 0 -.347 1.278.936.936 0 0 0 .347-1.278z" fill="url(#y)"/><path d="m2710.986 1313.558a.644.644 0 1 0 -.641.646.643.643 0 0 0 .641-.646z" fill="#585858"/><path d="m2710.827 1313.559a.484.484 0 1 0 -.483.486.483.483 0 0 0 .483-.486z" fill="#c0c0c0"/><path d="m2710.827 1313.559a.484.484 0 1 0 -.483.486.483.483 0 0 0 .483-.486z" fill="url(#z)"/><path d="m2734.121 1316.749c-.005-1.744 5.383-3.173 12.036-3.2s12.05 1.375 12.055 3.118-5.383 3.172-12.036 3.194-12.049-1.37-12.055-3.112z" fill="url(#A)"/><path d="m2733.119 1313.729c0-1.549 4.785-2.821 10.7-2.839s10.712 1.222 10.716 2.771-4.784 2.82-10.7 2.839-10.712-1.222-10.716-2.771z" fill="url(#B)"/><path d="m2740.7 1310.8a3.12 3.12 0 1 1 3.13 3.11 3.121 3.121 0 0 1 -3.13-3.11z" fill="url(#C)"/><path d="m2741.5 1308.712a3.12 3.12 0 1 1 .246 4.406 3.121 3.121 0 0 1 -.246-4.406z" fill="url(#D)"/><path d="m2746.183 1305.538-5.882.018c-.193.084-.081.471 0 .58s1.5 4.055 1.811 4.993a1.877 1.877 0 0 0 1.992 1.209c.745-.058 1.626-.861 1.4-1.689s-.673-3.2.676-4.476c.281-.194.252-.636.003-.635z" fill="#ef7d74"/><path d="m2746.02 1305.538-5.55.018c-.183.082-.077.461 0 .57s1.42 3.984 1.71 4.905a1.764 1.764 0 0 0 1.88 1.188 1.487 1.487 0 0 0 1.323-1.659c-.211-.813-.635-3.145.638-4.4.261-.188.233-.622-.001-.622z" fill="#ff4e3f"/><path d="m2746.183 1305.538-5.882.018c-.193.084-.081.471 0 .58s1.5 4.055 1.811 4.993a1.877 1.877 0 0 0 1.992 1.209c.745-.058 1.626-.861 1.4-1.689s-.673-3.2.676-4.476c.281-.194.252-.636.003-.635z" fill="url(#E)"/><path d="m2746.183 1305.538-5.882.018c-.193.084-.081.471 0 .58s1.5 4.055 1.811 4.993a1.877 1.877 0 0 0 1.992 1.209c.745-.058 1.626-.861 1.4-1.689s-.673-3.2.676-4.476c.281-.194.252-.636.003-.635z" fill="url(#E)"/><path d="m2742.914 1310.8a.911.911 0 1 1 .914.908.911.911 0 0 1 -.914-.908z" fill="#d8d8d8"/><path d="m2742.992 1310.8a.833.833 0 1 1 .835.83.833.833 0 0 1 -.835-.83z" fill="#9e9e9e"/><path d="m2743.078 1310.371a.857.857 0 1 1 .325 1.168.859.859 0 0 1 -.325-1.168z" fill="url(#F)"/><path d="m2743.236 1310.794a.589.589 0 1 1 .59.587.588.588 0 0 1 -.59-.587z" fill="#727272"/><path d="m2743.382 1310.793a.443.443 0 1 1 .444.442.443.443 0 0 1 -.444-.442z" fill="#dadada"/><path d="m2743.382 1310.793a.443.443 0 1 1 .444.442.443.443 0 0 1 -.444-.442z" fill="url(#G)"/><path d="m2742.747 1313.457a3.409 3.409 0 1 1 3.42 3.4 3.41 3.41 0 0 1 -3.42-3.4z" fill="url(#H)"/><path d="m2743.615 1311.174a3.409 3.409 0 1 1 .269 4.814 3.409 3.409 0 0 1 -.269-4.814z" fill="url(#I)"/><path d="m2748.732 1307.706-6.425.021c-.211.091-.09.513 0 .633s1.643 4.429 1.978 5.454a2.05 2.05 0 0 0 2.176 1.321c.815-.063 1.777-.941 1.533-1.845s-.735-3.5.739-4.89c.303-.212.267-.7-.001-.694z" fill="#d5635a"/><path d="m2748.554 1307.707-6.063.019c-.2.09-.084.5 0 .623s1.551 4.352 1.868 5.359a1.929 1.929 0 0 0 2.054 1.3 1.626 1.626 0 0 0 1.446-1.813c-.231-.889-.694-3.436.7-4.805.281-.21.251-.684-.005-.683z" fill="#e53425"/><path d="m2748.732 1307.706-6.425.021c-.211.091-.09.513 0 .633s1.643 4.429 1.978 5.454a2.05 2.05 0 0 0 2.176 1.321c.815-.063 1.777-.941 1.533-1.845s-.735-3.5.739-4.89c.303-.212.267-.7-.001-.694z" fill="url(#J)"/><path d="m2748.732 1307.706-6.425.021c-.211.091-.09.513 0 .633s1.643 4.429 1.978 5.454a2.05 2.05 0 0 0 2.176 1.321c.815-.063 1.777-.941 1.533-1.845s-.735-3.5.739-4.89c.303-.212.267-.7-.001-.694z" fill="url(#J)"/><path d="m2745.161 1313.45a1 1 0 1 1 1 .992 1 1 0 0 1 -1-.992z" fill="#bebebe"/><path d="m2745.246 1313.449a.91.91 0 1 1 .913.908.909.909 0 0 1 -.913-.908z" fill="#848484"/><path d="m2745.341 1312.986a.936.936 0 1 1 .355 1.276.937.937 0 0 1 -.355-1.276z" fill="url(#K)"/><path d="m2745.513 1313.448a.644.644 0 1 1 .645.642.642.642 0 0 1 -.645-.642z" fill="#585858"/><path d="m2745.672 1313.448a.484.484 0 1 1 .486.483.484.484 0 0 1 -.486-.483z" fill="#c0c0c0"/><path d="m2745.672 1313.448a.484.484 0 1 1 .486.483.484.484 0 0 1 -.486-.483z" fill="url(#L)"/><path d="m0 0h48v16h-48z" fill="url(#d)" transform="translate(2703.349 1290.52)"/><path d="m2721.545 1292.376a1.224 1.224 0 0 1 -.245.378 1.128 1.128 0 0 1 -.2.183.714.714 0 0 1 -.3.111 12.936 12.936 0 0 1 -.269-1.826h.018a.9.9 0 0 1 .824.329 1 1 0 0 1 .193.423.863.863 0 0 1 -.021.402zm29.337 12.188a.984.984 0 0 0 -.8-.566l.006 1.846a1.053 1.053 0 0 0 .738-.442 1.185 1.185 0 0 0 .117-.443.991.991 0 0 0 -.061-.395z" fill="#b7b7b7"/><path d="m0 0h51v17h-51z" fill="url(#d)" transform="translate(2701.349 1291.52)"/><path d="m2720.845 1293.549a1.274 1.274 0 0 1 -.257.4 1.208 1.208 0 0 1 -.206.193.756.756 0 0 1 -.316.116 13.649 13.649 0 0 1 -.282-1.918h.019a.943.943 0 0 1 .866.346 1.056 1.056 0 0 1 .2.444.927.927 0 0 1 -.024.419zm31.295 12.808a1.035 1.035 0 0 0 -.836-.6l.006 1.94a1.1 1.1 0 0 0 .775-.464 1.219 1.219 0 0 0 .124-.466 1.069 1.069 0 0 0 -.069-.41z" fill="#848484"/><g fill="url(#d)"><path d="m0 0h72v43h-72z" transform="translate(2684.349 1250.52)"/><path d="m0 0h16v33h-16z" transform="translate(2697.349 1260.52)"/><path d="m0 0h15v31h-15z" transform="translate(2702.349 1261.52)"/><path d="m0 0h14v31h-14z" transform="translate(2707.349 1261.52)"/><path d="m0 0h12v30h-12z" transform="translate(2713.349 1261.52)"/><path d="m0 0h10v29h-10z" transform="translate(2718.349 1262.52)"/><path d="m0 0h9v28h-9z" transform="translate(2723.349 1262.52)"/><path d="m0 0h8v28h-8z" transform="translate(2728.349 1262.52)"/><path d="m0 0h7v26h-7z" transform="translate(2733.349 1263.52)"/><path d="m0 0h5v26h-5z" transform="translate(2739.349 1263.52)"/><path d="m0 0h4v25h-4z" transform="translate(2744.349 1263.52)"/><path d="m0 0h2v24h-2z" transform="translate(2749.349 1264.52)"/><path d="m0 0h73v44h-73z" transform="translate(2684.349 1250.52)"/><path d="m0 0h14v12h-14z" transform="translate(2685.349 1249.52)"/><path d="m0 0h65v5h-65z" transform="translate(2692.349 1260.52)"/><path d="m0 0h58v2h-58z" transform="translate(2698.349 1272.52)"/><path d="m0 0h53v6h-53z" transform="translate(2703.349 1280.52)"/></g><path d="m2690.62 1250.358-5.183-2.125a2.135 2.135 0 0 0 -2.785 1.165l-.207.505a2.135 2.135 0 0 0 1.166 2.785l5.183 2.125z" fill="#801d15"/><path d="m2690.62 1250.358-5.154-2.113a2.126 2.126 0 0 0 -2.782 1.133l-.206.5a2.157 2.157 0 0 0 1.173 2.794l5.154 2.113z" fill="#881f16"/><path d="m2690.62 1250.358-5.124-2.1a2.119 2.119 0 0 0 -2.781 1.1l-.2.5a2.18 2.18 0 0 0 1.18 2.8l5.124 2.1z" fill="#922118"/><path d="m2690.62 1250.358-5.1-2.088a2.11 2.11 0 0 0 -2.779 1.068l-.2.5a2.205 2.205 0 0 0 1.187 2.814l5.095 2.089z" fill="#9b2319"/><path d="m2690.62 1250.358-5.065-2.076a2.1 2.1 0 0 0 -2.777 1.036l-.2.493a2.229 2.229 0 0 0 1.194 2.824l5.066 2.076z" fill="#a4251b"/><path d="m2690.62 1250.358-5.036-2.064a2.1 2.1 0 0 0 -2.775 1l-.2.49a2.252 2.252 0 0 0 1.2 2.833l5.036 2.065z" fill="#ad271c"/><path d="m2690.62 1250.358-5.006-2.052a2.091 2.091 0 0 0 -2.773.971l-.2.488a2.278 2.278 0 0 0 1.209 2.843l5.006 2.053z" fill="#b72a1e"/><path d="m2690.62 1250.358-4.977-2.04a2.086 2.086 0 0 0 -2.771.939l-.2.485a2.3 2.3 0 0 0 1.216 2.853l4.977 2.04z" fill="#c02c1f"/><path d="m2690.62 1250.358-4.947-2.028a2.08 2.08 0 0 0 -2.769.907l-.2.482a2.33 2.33 0 0 0 1.224 2.863l4.947 2.028z" fill="#c92e21"/><path d="m2690.62 1250.358-4.918-2.016a2.076 2.076 0 0 0 -2.767.875l-.2.479a2.354 2.354 0 0 0 1.231 2.872l4.918 2.016z" fill="#d23022"/><path d="m2690.62 1250.358-4.888-2a2.073 2.073 0 0 0 -2.766.843l-.194.476a2.381 2.381 0 0 0 1.238 2.882l4.888 2z" fill="#dc3224"/><path d="m2690.62 1250.358-4.859-1.992a2.068 2.068 0 0 0 -2.763.811l-.194.473a2.408 2.408 0 0 0 1.246 2.892l4.858 1.992z" fill="#e53425"/><path d="m2685.437 1248.233a2.135 2.135 0 0 0 -2.447.606 2.132 2.132 0 0 1 2.2-.36l4.55 1.865c.534.2.6.33.4.884l-1.348 3.585 1.826-4.455z" fill="#ff4c3d"/><path d="m2690.62 1250.358-5.183-2.125a2.135 2.135 0 0 0 -2.785 1.165l-.207.505a2.135 2.135 0 0 0 1.166 2.785l5.183 2.125z" fill="url(#M)" opacity=".5"/><path d="m2690.5 1250.67a19.553 19.553 0 0 0 -5.94-2.493 19.626 19.626 0 0 0 5.94 2.493z" fill="url(#N)"/></g><g><path d="m2734.655 1239.383a1.017 1.017 0 0 0 -.689.068 5.79 5.79 0 0 0 -3.257 3.807l.052-.034c-.1.206-.18.415-.256.625l-.248-.057a7.837 7.837 0 0 1 2.379-4.723 3.657 3.657 0 0 1 1.759-.654 1.49 1.49 0 0 1 .493.055 1.942 1.942 0 0 1 -.23 1 .257.257 0 0 0 -.003-.087z" fill="#800000"/><path d="m2734.655 1239.383a1.017 1.017 0 0 0 -.689.068 5.79 5.79 0 0 0 -3.257 3.807l.052-.034c-.1.206-.18.415-.256.625l-.248-.057a7.837 7.837 0 0 1 2.379-4.723 3.657 3.657 0 0 1 1.759-.654 1.49 1.49 0 0 1 .493.055 1.942 1.942 0 0 1 -.23 1 .257.257 0 0 0 -.003-.087z" fill="url(#O)"/><path d="m2730.544 1243.859-.039-.01c.076-.21.159-.419.256-.625 3.163-2.147 3.847-3.371 3.9-3.75a1.944 1.944 0 0 0 .231-.948 4.8 4.8 0 0 0 .609 1.313 9.94 9.94 0 0 1 -4.765 3.948l-.123-.187c-.027.086-.049.171-.069.259z" fill="#c41a00"/><path d="m2730.544 1243.859-.039-.01c.076-.21.159-.419.256-.625 3.163-2.147 3.847-3.371 3.9-3.75a1.944 1.944 0 0 0 .231-.948 4.8 4.8 0 0 0 .609 1.313 9.94 9.94 0 0 1 -4.765 3.948l-.123-.187c-.027.086-.049.171-.069.259z" fill="url(#P)"/></g><g><path d="m2730.1 1244.062a8.805 8.805 0 0 0 -.645-1.575l.132.117c-1.133-3-2.613-4.45-3.39-4.851a1.183 1.183 0 0 0 -.368-.131.228.228 0 0 0 -.066 0 .379.379 0 0 0 -.006.133 1.221 1.221 0 0 1 .109-1.068 3.6 3.6 0 0 1 2.065 1.277 12 12 0 0 1 2.254 6.078z" fill="#800000"/><path d="m2730.1 1244.062a8.805 8.805 0 0 0 -.645-1.575l.132.117c-1.133-3-2.613-4.45-3.39-4.851a1.183 1.183 0 0 0 -.368-.131.228.228 0 0 0 -.066 0 .379.379 0 0 0 -.006.133 1.221 1.221 0 0 1 .109-1.068 3.6 3.6 0 0 1 2.065 1.277 12 12 0 0 1 2.254 6.078z" fill="url(#Q)"/><path d="m2725.84 1236.681h.022a1.221 1.221 0 0 0 -.109 1.068c.046.495.669 2.051 3.7 4.736.146.314.306.632.437.954a20.677 20.677 0 0 1 -4.082-3.469 4.228 4.228 0 0 1 -.992-2.32 6.088 6.088 0 0 0 1.024-.969z" fill="#c41a00"/><path d="m2725.84 1236.681h.022a1.221 1.221 0 0 0 -.109 1.068c.046.495.669 2.051 3.7 4.736.146.314.306.632.437.954a20.677 20.677 0 0 1 -4.082-3.469 4.228 4.228 0 0 1 -.992-2.32 6.088 6.088 0 0 0 1.024-.969z" fill="url(#R)"/></g><path d="m2726.907 1250.72c1.541-6.073 2.854-6.9 3.3-6.991-.936 1.49-2.323 6.91-2.633 8.229a5.532 5.532 0 0 0 -.667-1.238z" fill="#800000"/><path d="m2726.907 1250.72c1.541-6.073 2.854-6.9 3.3-6.991-.936 1.49-2.323 6.91-2.633 8.229a5.532 5.532 0 0 0 -.667-1.238z" fill="url(#S)"/><g><path d="m2730.365 1243.973.054-.051z" fill="#800"/><path d="m2730.364 1243.973.055-.051.345-.318c.15.164 3.558 3.956 4.365 12.155a4.738 4.738 0 0 0 -.873.806c-.445-6.037-2.808-11.511-3.892-12.592z" fill="#800"/><path d="m2730.364 1243.973.055-.051.345-.318c.15.164 3.558 3.956 4.365 12.155a4.738 4.738 0 0 0 -.873.806c-.445-6.037-2.808-11.511-3.892-12.592z" fill="url(#T)"/></g><g><path d="m2729.114 1243.657c1.551-1.623.97-.726 1.86-.328s.653.313.125.88-.445.6-1.059.131-1.234-.36-.926-.683z" fill="#a60300"/><path d="m2730.373 1242.518c1.453 1.387.649.867.293 1.663s-.279.585-.787.112-.536-.4-.118-.947.322-1.105.612-.828z" fill="#c21700"/><path d="m2730.373 1242.518c1.453 1.387.649.867.293 1.663-.046.1-.084.189-.118.26a3.637 3.637 0 0 0 -.363-1.962c.043-.053.096-.049.188.039z" fill="#8b0000"/><path d="m2729.879 1244.293c-.508-.473-.536-.4-.118-.947a4.889 4.889 0 0 0 .424-.867 3.637 3.637 0 0 1 .363 1.962c-.228.477-.228.259-.669-.148z" fill="#c21700"/></g></g></svg>