<svg xmlns="http://www.w3.org/2000/svg" width="19.718" height="24.243" viewBox="0 0 19.718 24.243">
  <g id="profile_in_profile" data-name="profile in profile" transform="translate(-30.737 -1133.878)">
    <path id="Path_6904" data-name="Path 6904" d="M41.746,1152.242a4.6,4.6,0,0,0-.354-2.129,5.975,5.975,0,0,1,.326-1.207l-.52-.376h-.53l-.563.358a6.533,6.533,0,0,1,.345,1.225,4.614,4.614,0,0,0-.354,2.129l0,5.492h1.65Z" fill="#241f20"/>
    <path id="Path_6905" data-name="Path 6905" d="M49.991,1149.767c-.141-.562-.861-.878-.861-.878l-3.8-1.8a6.941,6.941,0,0,0-1.6-3.487,7.511,7.511,0,0,0,.463-1.289,1.263,1.263,0,0,0,.229-.141,6.813,6.813,0,0,0,.8-2.273c.077-.356-.143-.5-.438-.5h0l.148-.106s.18-.145.108-2.023c-.145-2.744-3.72-3.394-4.442-3.394s-1.661.217-1.878.65l.047.042a1.317,1.317,0,0,0-1.2.283,4.4,4.4,0,0,0-.95,4.546c-.276.012-.469.161-.385.5a6.881,6.881,0,0,0,.863,2.262,1.278,1.278,0,0,0,.256.143,8.266,8.266,0,0,0,.4,1.216,3.661,3.661,0,0,0,.323.565,6.87,6.87,0,0,0-.516,2.219l1.059-1c.013-.025.014-.013.014-.013l-.014.013a5.066,5.066,0,0,0-.214.636c-.2.661,1.065,2.141,1.415,2.709a2.4,2.4,0,0,0,1.056.785c.287,0,.709-.353,1.124-.79h0c.3-.316,1.727-1.972,1.507-2.7a5.02,5.02,0,0,0-.213-.634l-.015-.015s0-.012.015.015l1.318,1.283.616,4.16a5.808,5.808,0,0,0-1.314-1.456,4.133,4.133,0,0,1-.335,1.632c-.83,2.677-2.039,6.273-2.228,6.508H40.5c-.189-.235-1-3.035-2.087-6.368a5.576,5.576,0,0,1-.379-1.635A6.78,6.78,0,0,0,36.5,1150.8l.843-4.368-.639.336-4.465,2.258a1.412,1.412,0,0,0-.845.772c-.157.3-.223.247-.658,5.2a18.175,18.175,0,0,0,10.627,3.122c6.671,0,9.091-4.126,9.091-4.126C49.93,1149.081,50.073,1150.092,49.991,1149.767Z" fill="#241f20"/>
  </g>
</svg>
