<svg xmlns="http://www.w3.org/2000/svg" width="20.774" height="19.665" viewBox="0 0 20.774 19.665">
  <g id="profile" transform="translate(-4440.874 -769.888)">
    <g id="Group_4253" data-name="Group 4253">
      <g id="Group_4252" data-name="Group 4252">
        <path id="Path_11269" data-name="Path 11269" d="M4451.249,779.941a5.026,5.026,0,1,1,5.025-5.025A5.032,5.032,0,0,1,4451.249,779.941Zm0-8.473a3.447,3.447,0,1,0,3.446,3.448A3.453,3.453,0,0,0,4451.249,771.468Z" fill="#fff"/>
      </g>
    </g>
    <g id="Group_4255" data-name="Group 4255">
      <g id="Group_4254" data-name="Group 4254">
        <path id="Path_11270" data-name="Path 11270" d="M4441.662,788.069" fill="#fff"/>
      </g>
    </g>
    <g id="Group_4257" data-name="Group 4257">
      <g id="Group_4256" data-name="Group 4256">
        <path id="Path_11271" data-name="Path 11271" d="M4460.858,789.553a.79.79,0,0,1-.79-.79,8.819,8.819,0,0,0-17.616-.638.79.79,0,0,1-1.576-.111,10.4,10.4,0,0,1,20.772.749A.788.788,0,0,1,4460.858,789.553Z" fill="#fff"/>
      </g>
    </g>
  </g>
</svg>
