<svg xmlns="http://www.w3.org/2000/svg" width="27.254" height="27.259" viewBox="0 0 27.254 27.259">
  <path id="share" d="M41.194,1401.908h.584c.04.008.079.019.119.025.225.033.452.05.673.1A5.112,5.112,0,0,1,42,1412.11a5.023,5.023,0,0,1-4.264-1.6c-.15-.156-.282-.329-.426-.5l-7.989,4.01c.012.049.02.085.031.121a5.067,5.067,0,0,1,.041,2.663.156.156,0,0,0,.1.22q3.88,1.941,7.757,3.892a.154.154,0,0,0,.235-.051,5.109,5.109,0,1,1,5.139,8.163c-.307.066-.621.1-.932.142h-.417c-.147-.018-.294-.033-.44-.053a5.112,5.112,0,0,1-4.431-5.644.145.145,0,0,0-.086-.175q-4.078-2.042-8.154-4.09a.142.142,0,0,0-.19.03,5.02,5.02,0,0,1-4.43,1.339,5.1,5.1,0,0,1-4.076-3.857c-.06-.269-.093-.545-.139-.818v-.723c.008-.031.018-.061.023-.093.045-.264.071-.533.136-.792a5.109,5.109,0,0,1,8.375-2.535.16.16,0,0,0,.213.029q1.922-.969,3.846-1.931,2.184-1.095,4.368-2.189c.084-.042.1-.087.1-.18a8.85,8.85,0,0,1,.03-1.164,5.1,5.1,0,0,1,4.048-4.3C40.708,1401.969,40.952,1401.943,41.194,1401.908Z" transform="translate(-19.331 -1401.908)"/>
</svg>
