<svg xmlns="http://www.w3.org/2000/svg" width="18.091" height="25.499" viewBox="0 0 18.091 25.499">
  <g id="statistic" transform="translate(-27.633 -1191.438)">
    <path id="Path_6859" data-name="Path 6859" d="M36.28,1196.345a9.293,9.293,0,0,1,4.907,1.2c.047.027.094.055.14.084a.3.3,0,0,1,.1.48c-.237.346-.48.688-.72,1.032l-3.438,4.914c-.2.285-.4.568-.6.855a.351.351,0,0,1-.346.166q-2.9-.258-5.795-.51-1.212-.107-2.426-.209c-.3-.026-.4-.143-.345-.44a8.973,8.973,0,0,1,3.438-5.712A8.575,8.575,0,0,1,36.28,1196.345Z"/>
    <path id="Path_6860" data-name="Path 6860" d="M36.383,1210.046v3.988c0,.321-.1.416-.412.389a8.833,8.833,0,0,1-4.977-1.98,8.953,8.953,0,0,1-3.312-6.116,10.032,10.032,0,0,1-.049-1.027c0-.3.114-.385.408-.359l4.3.373q1.863.164,3.727.327c.23.02.317.121.317.367Q36.383,1208.027,36.383,1210.046Z"/>
    <path id="Path_6861" data-name="Path 6861" d="M45.721,1205.4A8.77,8.77,0,0,1,44.486,1210c-.158.27-.3.3-.557.117l-5.231-3.671-1.3-.91c-.221-.156-.247-.286-.093-.507q1.682-2.4,3.364-4.807.6-.864,1.2-1.73c.182-.261.324-.286.562-.082a8.9,8.9,0,0,1,3.229,5.935c.022.195.041.39.051.586C45.728,1205.085,45.721,1205.244,45.721,1205.4Z"/>
    <path id="Path_6862" data-name="Path 6862" d="M38.153,1212.83v-3.595c0-.033,0-.066,0-.1a.335.335,0,0,1,.152-.353c.148-.081.271-.011.392.074q.888.625,1.779,1.248l4.028,2.822c.1.072.2.146.3.22a.291.291,0,0,1,.064.484,8.508,8.508,0,0,1-1.867,1.722,8.859,8.859,0,0,1-4.439,1.58c-.3.023-.413-.076-.413-.377Q38.152,1214.694,38.153,1212.83Z"/>
    <path id="Path_6863" data-name="Path 6863" d="M32.221,1196.926v-.755q0-2.181.005-4.362c0-.278.094-.371.374-.371q1.266,0,2.532.005a.288.288,0,0,1,.329.317q0,2.025,0,4.051a.673.673,0,0,1-.01.079A9.366,9.366,0,0,0,32.221,1196.926Z"/>
    <path id="Path_6864" data-name="Path 6864" d="M27.871,1201.57v-.17q0-2.975,0-5.951c0-.293.084-.38.377-.381h2.5c.26,0,.357.1.358.353,0,.67,0,1.34.008,2.011a.309.309,0,0,1-.139.284,9.321,9.321,0,0,0-2.563,2.846c-.164.282-.3.581-.446.873-.024.046-.047.093-.07.14Z"/>
  </g>
</svg>
