<svg xmlns="http://www.w3.org/2000/svg" width="24.396" height="24.394" viewBox="0 0 24.396 24.394">
  <g id="theme" transform="translate(-21.496 -1352.939)">
    <path id="Path_6865" data-name="Path 6865" d="M34.3,1352.939a1.281,1.281,0,0,1,.207.86c-.009,1.133,0,2.266,0,3.4,0,.479-.141.616-.623.619-.177,0-.355.006-.532,0a.434.434,0,0,1-.466-.463c-.006-1.319,0-2.639,0-3.958,0-.186.147-.3.2-.453Z" fill="#4d4d4d"/>
    <path id="Path_6866" data-name="Path 6866" d="M33.705,1359.444a5.691,5.691,0,1,1-5.7,5.686A5.712,5.712,0,0,1,33.705,1359.444Zm-.011,5.69q0-1.55,0-3.1c0-.254,0-.508,0-.762,0-.136-.056-.208-.2-.2-.084,0-.169,0-.253.014a4.074,4.074,0,0,0,.1,8.107c.322.021.348,0,.349-.326Q33.7,1367,33.694,1365.134Z" fill="#4d4d4d"/>
    <path id="Path_6867" data-name="Path 6867" d="M23.921,1365.948c-.618,0-1.235,0-1.852,0-.415,0-.565-.154-.57-.568,0-.194-.006-.389,0-.583a.433.433,0,0,1,.46-.468q1.98-.011,3.958,0a.426.426,0,0,1,.451.449c.012.194.007.389,0,.584,0,.433-.151.584-.578.586C25.172,1365.95,24.546,1365.948,23.921,1365.948Z" fill="#4d4d4d"/>
    <path id="Path_6868" data-name="Path 6868" d="M43.446,1365.947c-.626,0-1.251,0-1.877,0-.4,0-.55-.158-.556-.556,0-.161,0-.322,0-.482,0-.433.149-.584.578-.585q1.534,0,3.07,0c.245,0,.49-.005.735,0a.449.449,0,0,1,.491.491c.008.195,0,.389,0,.584-.007.384-.159.543-.54.546C44.714,1365.951,44.08,1365.947,43.446,1365.947Z" fill="#4d4d4d"/>
    <path id="Path_6869" data-name="Path 6869" d="M34.507,1374.908c0,.617,0,1.235,0,1.852,0,.415-.154.564-.568.57-.195,0-.39.007-.584,0a.434.434,0,0,1-.467-.461q-.01-1.978,0-3.957a.419.419,0,0,1,.424-.448,6.207,6.207,0,0,1,.761,0c.286.018.43.2.433.52C34.51,1373.623,34.506,1374.265,34.507,1374.908Z" fill="#4d4d4d"/>
    <path id="Path_6870" data-name="Path 6870" d="M25.658,1356.136a.442.442,0,0,1,.335.156q1.374,1.373,2.747,2.749a.429.429,0,0,1,0,.689c-.15.161-.305.318-.468.466a.413.413,0,0,1-.65,0q-1.4-1.384-2.785-2.783a.43.43,0,0,1-.006-.655c.16-.175.333-.337.5-.5A.41.41,0,0,1,25.658,1356.136Z" fill="#4d4d4d"/>
    <path id="Path_6871" data-name="Path 6871" d="M42.693,1357.09a.431.431,0,0,1-.15.337c-.922.922-1.842,1.847-2.768,2.765a.414.414,0,0,1-.65.012c-.175-.159-.344-.327-.5-.5a.414.414,0,0,1,.018-.65q1.378-1.388,2.767-2.765a.433.433,0,0,1,.655-.019c.175.159.338.333.5.5A.41.41,0,0,1,42.693,1357.09Z" fill="#4d4d4d"/>
    <path id="Path_6872" data-name="Path 6872" d="M27.956,1369.917a.413.413,0,0,1,.13.036,2.355,2.355,0,0,1,.792.8.358.358,0,0,1-.106.439q-1.407,1.413-2.822,2.818a.416.416,0,0,1-.616-.005c-.181-.165-.356-.339-.52-.521a.421.421,0,0,1,.01-.617q1.4-1.407,2.8-2.8A.5.5,0,0,1,27.956,1369.917Z" fill="#4d4d4d"/>
    <path id="Path_6873" data-name="Path 6873" d="M42.693,1373.189a.372.372,0,0,1-.1.282c-.183.188-.362.382-.558.555a.413.413,0,0,1-.6-.017q-1.416-1.4-2.82-2.819a.389.389,0,0,1-.016-.592,5.719,5.719,0,0,1,.556-.556c.223-.195.42-.167.667.079q1.116,1.11,2.228,2.226.252.252.5.505A.423.423,0,0,1,42.693,1373.189Z" fill="#4d4d4d"/>
    <path id="Path_6874" data-name="Path 6874" d="M33.694,1365.134q0,1.867,0,3.734c0,.325-.027.347-.349.326a4.074,4.074,0,0,1-.1-8.107c.084-.011.169-.01.253-.014.141-.007.2.065.2.2,0,.254,0,.508,0,.762Q33.7,1363.584,33.694,1365.134Z" fill="#fff"/>
  </g>
</svg>
