<svg xmlns="http://www.w3.org/2000/svg" width="38.331" height="20.525" viewBox="0 0 38.331 20.525">
  <g id="todatyOrder" transform="translate(-1404.254 -1090.334)">
    <path id="Path_6916" data-name="Path 6916" d="M1412.4,1105.3h7.856c.756,0,1.513-.005,2.269,0,.451,0,.738.249.743.616a.657.657,0,0,1-.729.639q-5.265.008-10.53,0a.707.707,0,0,1-.746-.64q-.881-3.721-1.78-7.437c-.481-2.009-.97-4.017-1.436-6.029-.066-.281-.179-.372-.454-.366-.681.014-1.362.011-2.042,0-.519-.006-.783-.219-.793-.612-.01-.417.25-.633.8-.637.923-.007,1.846.005,2.768,0a.7.7,0,0,1,.77.611c.154.646.319,1.288.49,1.975h16.477l-2.281,9.234H1411.91Z" fill="none" stroke="#fff" stroke-miterlimit="10" stroke-width="1"/>
    <path id="Path_6917" data-name="Path 6917" d="M1442.585,1092.67v3.256h-13.454c.108-.438.21-.868.321-1.3.14-.54.311-1.073.423-1.619.06-.295.2-.346.464-.346q4.266.01,8.532,0Z" fill="#fff"/>
    <path id="Path_6918" data-name="Path 6918" d="M1411.925,1109.355a1.478,1.478,0,0,1,1.47-1.466,1.513,1.513,0,0,1,1.509,1.489,1.5,1.5,0,0,1-1.51,1.481A1.463,1.463,0,0,1,1411.925,1109.355Z" fill="#fff"/>
    <path id="Path_6919" data-name="Path 6919" d="M1421.095,1110.858a1.484,1.484,0,1,1,1.477-1.5A1.467,1.467,0,0,1,1421.095,1110.858Z" fill="#fff"/>
  </g>
</svg>
