<svg xmlns="http://www.w3.org/2000/svg" width="49.618" height="20.024" viewBox="0 0 49.618 20.024">
  <g id="totalOrder" transform="translate(-1242.858 -1086.013)">
    <path id="Path_6920" data-name="Path 6920" d="M1250.5,1100.477h7.855c.757,0,1.513-.005,2.27,0,.451,0,.738.249.743.616a.658.658,0,0,1-.729.639q-5.265.006-10.531,0a.708.708,0,0,1-.746-.64c-.586-2.481-1.185-4.958-1.779-7.437-.482-2.009-.97-4.017-1.437-6.03-.065-.281-.178-.371-.453-.365-.681.014-1.362.01-2.043,0-.519-.006-.783-.219-.792-.613-.01-.416.25-.632.8-.637.922-.007,1.845.005,2.768,0a.7.7,0,0,1,.77.611c.154.645.319,1.288.49,1.974h16.476l-2.28,9.235h-11.873Z" fill="#fff"/>
    <path id="Path_6921" data-name="Path 6921" d="M1280.689,1087.849v3.256h-13.454c.108-.439.21-.868.321-1.295.14-.54.311-1.074.422-1.619.06-.3.2-.347.464-.346q4.266.011,8.533,0Z" fill="#fff"/>
    <path id="Path_6922" data-name="Path 6922" d="M1286.388,1092.905v3.256h-13.454c.108-.439.21-.868.321-1.3.14-.54.312-1.074.423-1.619.06-.3.2-.347.464-.346q4.266.01,8.532,0Z" fill="#fff"/>
    <path id="Path_6923" data-name="Path 6923" d="M1292.476,1099.57v3.256h-13.454c.109-.438.211-.868.321-1.3.141-.54.312-1.073.423-1.619.06-.3.2-.346.464-.346q4.266.01,8.532,0Z" fill="#fff"/>
    <path id="Path_6924" data-name="Path 6924" d="M1250.028,1104.534a1.478,1.478,0,0,1,1.471-1.466,1.511,1.511,0,0,1,1.508,1.488,1.5,1.5,0,0,1-1.51,1.481A1.463,1.463,0,0,1,1250.028,1104.534Z" fill="#fff"/>
    <path id="Path_6925" data-name="Path 6925" d="M1259.2,1106.037a1.484,1.484,0,1,1,1.478-1.5A1.467,1.467,0,0,1,1259.2,1106.037Z" fill="#fff"/>
  </g>
</svg>
