<svg height="67.289" viewBox="0 0 85.726 67.289" width="85.726" xmlns="http://www.w3.org/2000/svg"><g transform="translate(-4629.535 -441.182)"><path d="m4634.289 477.711h8.561v.529h1.6v.353h5.622v-2.813h9.547v5.779h3.3v-3.848h8.562v3.068h7.225v-5h11.082v4.248h4.349v2.98h1.535v-4.93h-.048v-4.072h-4.35v-5.8h-11.074v6.83l-2.722-.069v-12.221h-9.957v8.1h-3.108v5.255h-3.3v-7.9h-9.547v3.842h-5.623v-.48h-1.6v-.724h-8.561v4.192h-3.36a40.708 40.708 0 0 0 -.4 5.688v.059h2.273z" fill="#2c888c"/><path d="m4644.4 500.413h5.6v.207h7.655v.167h7.77v-.374h13.087v.207h5.346v.146h7.933v.021h16.9a44.451 44.451 0 0 0 4.6-19.8c0-.324 0-.647-.012-.969h-6.229v3.663h-1.759v-5.7h-9.89v5.412h-1.527v-3.138h-4.331v-4.475h-11.033v5.265h-7.195v-3.231h-8.524v4.052h-3.291v-6.086h-9.5v2.962h-5.6v-.371h-1.6v-.557h-8.524v3.231h-2.263a44.437 44.437 0 0 0 4.52 19.575h7.862z" fill="#1f6d6d"/><path d="m4658.186 481.27h21.057v4.371h-21.057z" fill="#7a7979"/><path d="m4664.87 476.635h13.933v4.141h-13.933z" fill="#7a7979"/><path d="m4665.934 476.604h12.585v.365h-12.585z" fill="#5e5d5d"/><path d="m4659.03 481.711h19.749v.365h-19.749z" fill="#5e5d5d"/><path d="m4660.364 486.355h16.84v3.865h-16.84z" fill="#5e5d5d"/><path d="m4660.385 486.634h16.822v.583h-16.822z" fill="#444343"/><path d="m4666.992 477.199h2.701v2.668h-2.701z" fill="#3d3d3d"/><path d="m4667.24 477.199h2.453v2.668h-2.453z" fill="#474747"/><path d="m4674.021 477.164h2.7v2.669h-2.7z" fill="#3d3d3d"/><path d="m4674.268 477.164h2.453v2.669h-2.453z" fill="#474747"/><path d="m4674.021 477.164h2.7v2.669h-2.7z" fill="#3d3d3d"/><path d="m4674.268 477.164h2.453v2.669h-2.453z" fill="#474747"/><path d="m4662.21 480.235h6.587v.69h-6.587z" fill="#474747"/><path d="m4668.879 485.204h6.725v.506h-6.725z" fill="#474747"/><path d="m4658.269 473.081h1.047v17.116h-1.047z" fill="#68717e"/><path d="m4658.104 473.081h.937v17.116h-.937z" fill="#434f59"/><path d="m4664.883 473.081h1.047v17.116h-1.047z" fill="#68717e"/><path d="m4664.718 473.081h.937v17.116h-.937z" fill="#434f59"/><path d="m4671.333 476.578h1.047v13.619h-1.047z" fill="#68717e"/><path d="m4671.167 476.578h.937v13.619h-.937z" fill="#434f59"/><path d="m4678.279 472.782h1.047v17.415h-1.047z" fill="#434f59"/><path d="m4678.113 472.782h.937v17.415h-.937z" fill="#434f59"/><path d="m4682.164 469.492h1.048v20.705h-1.048z" fill="#68717e"/><path d="m4681.999 469.492h.937v20.705h-.937z" fill="#434f59"/><path d="m4657.194 485.618h23.482v1.058h-23.482z" fill="#68717e"/><path d="m4657.194 486.124h23.482v.552h-23.482z" fill="#434f59"/><path d="m4657.194 480.649h25.825v1.058h-25.825z" fill="#68717e"/><path d="m4657.194 481.155h25.825v.552h-25.825z" fill="#434f59"/><path d="m4657.194 475.611h27.176v1.058h-27.176z" fill="#434f59"/><path d="m4657.194 476.117h27.176v.552h-27.176z" fill="#434f59"/><path d="m4660.336 482.306h2.701v2.668h-2.701z" fill="#3d3d3d"/><path d="m4660.584 482.306h2.453v2.668h-2.453z" fill="#474747"/><path d="m4667.281 482.306h2.701v2.668h-2.701z" fill="#3d3d3d"/><path d="m4667.53 482.306h2.453v2.668h-2.453z" fill="#474747"/><path d="m4673.979 482.306h2.701v2.668h-2.701z" fill="#3d3d3d"/><path d="m4674.227 482.306h2.453v2.668h-2.453z" fill="#474747"/><path d="m4657.718 473.736h26.542v.173h-26.542z" fill="#68717e"/><path d="m4657.718 474.289h26.542v.172h-26.542z" fill="#68717e"/><path d="m4664.209 478.158h19.761v.233h-19.761z" fill="#68717e"/><path d="m4664.209 478.848h19.761v.233h-19.761z" fill="#434f59"/><path d="m4708.632 478.446h-1.732v-7.391h-9.741v6.814h8.283v5.409h1.733v-3.478h6.136a41.574 41.574 0 0 0 -.586-6.106h-4.091z" fill="#2c888c"/><path d="m4657.913 499.368h-7.657v-.2h-5.6v.2h-7.865c.027.053.054.106.082.158h21.041z" fill="#afd9e3" opacity=".4"/><path d="m4684.126 499.506v-.138h-5.349v-.2h-13.092v.355h26.376v-.02z" fill="#afd9e3" opacity=".4"/><path d="m4691.174 458.235h8.358v45.392h-8.358z" fill="#4e85a0"/><g fill="#5db3ce"><path d="m4691.174 502.886 8.358-4.481-3.026.027-5.328 2.756z"/><path d="m4691.165 500.69 4.316-2.249-1.109-.023-3.208 1.577z"/><path d="m4691.174 496.577 8.358-4.481-3.026.028-5.328 2.757z"/><path d="m4691.165 494.382 4.316-2.249-1.109-.023-3.208 1.577z"/><path d="m4691.174 490.27 8.358-4.481-3.026.027-5.328 2.756z"/><path d="m4691.165 488.074 4.316-2.249-1.109-.023-3.208 1.577z"/><path d="m4691.174 484.333 8.358-4.481-3.026.028-5.328 2.756z"/><path d="m4691.165 482.138 4.316-2.25-1.109-.023-3.208 1.577z"/><path d="m4691.174 478.025 8.358-4.481-3.026.028-5.328 2.756z"/><path d="m4691.165 475.829 4.316-2.249-1.109-.023-3.208 1.577z"/><path d="m4691.174 471.717 8.358-4.481-3.026.028-5.328 2.756z"/><path d="m4691.165 469.522 4.316-2.25-1.109-.023-3.208 1.577z"/><path d="m4691.174 466.522 8.358-4.481-3.026.028-5.328 2.756z"/><path d="m4691.165 464.326 4.316-2.249-1.109-.023-3.208 1.577z"/><path d="m4691.174 461.328 8.358-4.481-3.026.028-5.328 2.756z"/><path d="m4691.165 459.132 4.316-2.25-1.109-.023-3.208 1.577z"/></g><path d="m4699.532 458.235h4.735v45.392h-4.735z" fill="#434f59"/><path d="m4699.532 461.543 4.736-3.308h-4.736z" opacity=".1"/><path d="m4699.532 466.367 4.7-3.942-4.7.092z" opacity=".1"/><path d="m4699.532 472.675 4.7-5.38-4.7.127z" opacity=".1"/><path d="m4699.532 478.983 4.7-5.38-4.7.126z" opacity=".1"/><path d="m4699.532 484.874 4.7-4.963-4.7.117z" opacity=".1"/><path d="m4699.532 491.228 4.7-5.379-4.7.126z" opacity=".1"/><path d="m4699.532 497.536 4.7-5.38-4.7.126z" opacity=".1"/><path d="m4699.532 503.659 4.7-5.38-4.7.126z" opacity=".1"/><path d="m4704.923 458.235h4.735v45.392h-4.735z" fill="#434f59"/><path d="m4704.923 461.543 4.735-3.308h-4.735z" opacity=".1"/><path d="m4704.923 466.367 4.7-3.942-4.7.092z" opacity=".1"/><path d="m4704.923 472.675 4.7-5.38-4.7.127z" opacity=".1"/><path d="m4704.923 478.983 4.7-5.38-4.7.126z" opacity=".1"/><path d="m4704.923 484.874 4.7-4.963-4.7.117z" opacity=".1"/><path d="m4704.923 491.228 4.7-5.379-4.7.126z" opacity=".1"/><path d="m4704.923 497.536 4.7-5.38-4.7.126z" opacity=".1"/><path d="m4704.923 503.659 4.7-5.38-4.7.126z" opacity=".1"/><path d="m4704.25 458.235h.65v45.392h-.65z" fill="#68717e"/><path d="m4686.44 458.235h4.734v45.392h-4.734z" fill="#434f59"/><path d="m4686.44 461.543 4.734-3.308h-4.734z" opacity=".1"/><path d="m4686.44 466.367 4.7-3.942-4.7.092z" opacity=".1"/><path d="m4686.44 472.675 4.7-5.38-4.7.127z" opacity=".1"/><path d="m4686.44 478.983 4.7-5.38-4.7.126z" opacity=".1"/><path d="m4686.44 484.874 4.7-4.963-4.7.117z" opacity=".1"/><path d="m4686.44 491.228 4.7-5.379-4.7.126z" opacity=".1"/><path d="m4686.44 497.536 4.7-5.38-4.7.126z" opacity=".1"/><path d="m4686.44 503.659 4.7-5.38-4.7.126z" opacity=".1"/><path d="m4685.877 458.235h.563v45.392h-.563z" fill="#68717e"/><path d="m4686.229 461.575h23.411v.866h-23.411z" fill="#68717e"/><path d="m4686.229 466.398h23.411v.866h-23.411z" fill="#68717e"/><path d="m4686.229 472.707h23.411v.865h-23.411z" fill="#68717e"/><path d="m4686.229 479.014h23.399v.866h-23.399z" fill="#68717e"/><path d="m4685.765 455.514h24.197v2.721h-24.197z" fill="#ced5d7"/><path d="m4685.764 456.874h24.198v1.361h-24.198z" opacity=".4"/><path d="m4686.503 461.543h23.114v.418h-23.114z" fill="#b0bdce"/><path d="m4686.503 466.367h23.114v.417h-23.114z" fill="#b0bdce"/><path d="m4686.503 472.675h23.114v.418h-23.114z" fill="#b0bdce"/><path d="m4686.503 478.983h23.102v.418h-23.102z" fill="#b0bdce"/><path d="m4686.229 484.951h23.394v.865h-23.394z" fill="#68717e"/><path d="m4686.503 484.921h23.096v.417h-23.096z" fill="#b0bdce"/><path d="m4686.229 491.259h23.44v.865h-23.44z" fill="#68717e"/><path d="m4686.504 491.228h23.142v.418h-23.142z" fill="#b0bdce"/><path d="m4686.229 497.567h23.458v.865h-23.458z" fill="#68717e"/><path d="m4686.504 497.536h23.16v.418h-23.16z" fill="#b0bdce"/><path d="m4709.405 458.235h.563v45.392h-.563z" fill="#68717e"/><path d="m4704.827 455.514h5.194v48.113h-5.194z" fill="#fff" opacity=".3"/><path d="m4652.354 461.195h4.185v29.065h-4.185z" fill="#a0a0a0"/><path d="m4636.782 461.195h15.738v1.45h-15.738z" fill="#5e5d5d"/><path d="m4636.108 462.645h16.434v30.464h-16.434z" fill="#444343"/><path d="m4633.83 491.926h20.882v8.147h-20.882z" fill="#474747"/><path d="m4634.971 490.244h18.257v1.724h-18.257z" fill="#474747"/><path d="m4634.456 493.468h2.714v3.423h-2.714z" fill="#3d3d3d"/><path d="m4634.705 493.468h2.464v3.423h-2.464z" fill="#474747"/><path d="m4638.881 493.468h2.715v3.423h-2.715z" fill="#3d3d3d"/><path d="m4639.131 493.468h2.465v3.423h-2.465z" fill="#474747"/><path d="m4643.307 493.468h2.715v3.423h-2.715z" fill="#3d3d3d"/><path d="m4643.557 493.468h2.465v3.423h-2.465z" fill="#474747"/><path d="m4647.417 493.468h2.715v3.423h-2.715z" fill="#3d3d3d"/><path d="m4647.667 493.468h2.465v3.423h-2.465z" fill="#474747"/><path d="m4651.527 493.468h2.714v3.423h-2.714z" fill="#3d3d3d"/><path d="m4651.776 493.468h2.465v3.423h-2.465z" fill="#9da59d"/><path d="m4636.131 463.639h16.419v3.272h-16.419z" fill="#95cae5"/><path d="m4636.131 466.91 8.4-3.272h6.612l-7.37 3.307z" fill="#aedbed"/><path d="m4652.55 463.639-6.936 3.307 1.625-.07 5.31-2.428z" fill="#aedbed"/><path d="m4636.131 467.914h16.419v3.272h-16.419z" fill="#95cae5"/><path d="m4636.131 471.186 8.4-3.272h6.612l-7.37 3.307z" fill="#aedbed"/><path d="m4652.55 467.914-6.936 3.307 1.625-.071 5.31-2.427z" fill="#aedbed"/><path d="m4636.131 472.342h16.419v3.273h-16.419z" fill="#95cae5"/><path d="m4636.131 475.615 8.4-3.273h6.612l-7.37 3.308z" fill="#aedbed"/><path d="m4652.55 472.342-6.936 3.308 1.625-.07 5.31-2.428z" fill="#aedbed"/><path d="m4636.131 476.771h16.419v3.273h-16.419z" fill="#95cae5"/><path d="m4636.131 480.044 8.4-3.273h6.612l-7.37 3.307z" fill="#aedbed"/><path d="m4652.55 476.771-6.936 3.307 1.625-.071 5.31-2.427z" fill="#aedbed"/><path d="m4636.131 481.046h16.419v3.273h-16.419z" fill="#95cae5"/><path d="m4636.131 484.319 8.4-3.273h6.612l-7.37 3.309z" fill="#aedbed"/><path d="m4652.55 481.046-6.936 3.309 1.625-.07 5.31-2.429z" fill="#aedbed"/><path d="m4636.131 485.474h16.419v3.273h-16.419z" fill="#95cae5"/><path d="m4636.131 488.748 8.4-3.273h6.612l-7.37 3.307z" fill="#aedbed"/><path d="m4652.55 485.474-6.936 3.307 1.625-.07 5.31-2.428z" fill="#aedbed"/><path d="m4635.188 466.794h17.362v.51h-17.362z" fill="#aaa9a9"/><path d="m4635.188 466.794h17.353v.254h-17.353z" fill="#c4c4c4"/><path d="m4635.188 471.07h17.885v.508h-17.885z" fill="#aaa9a9"/><path d="m4635.188 471.07h17.909v.254h-17.909z" fill="#c4c4c4"/><path d="m4635.188 475.498h17.372v.509h-17.372z" fill="#aaa9a9"/><path d="m4635.188 475.498h17.395v.255h-17.395z" fill="#c4c4c4"/><path d="m4635.188 479.927h17.808v.508h-17.808z" fill="#aaa9a9"/><path d="m4635.188 479.927h17.831v.254h-17.831z" fill="#c4c4c4"/><path d="m4635.188 484.202h17.808v.51h-17.808z" fill="#aaa9a9"/><path d="m4635.188 484.202h17.831v.255h-17.831z" fill="#c4c4c4"/><path d="m4635.188 488.63h17.928v.509h-17.928z" fill="#aaa9a9"/><path d="m4635.188 488.63h17.952v.254h-17.952z" fill="#c4c4c4"/><path d="m4653.229 490.244h3.586v1.7h-3.586z" fill="#5b5a5a"/><path d="m4654.712 491.926h2.797v8.15h-2.797z" fill="#5b5a5a"/><path d="m4652.519 461.195h4.039v1.431h-4.039z" fill="#c4c4c4"/><path d="m4652.519 462.645h4.011v.991h-4.011z" fill="#5e5d5d"/><path d="m4652.546 466.928h4.003v.991h-4.003z" fill="#5e5d5d"/><path d="m4652.541 466.794h4.008v.271h-4.008z" fill="#e6e7e8"/><path d="m4652.541 467.048h4.017v.258h-4.017z" fill="#c6c5c5"/><path d="m4652.55 463.639h3.98v3.162h-3.98z" fill="#a8deff"/><path d="m4652.55 467.921h3.98v3.251h-3.98z" fill="#a8deff"/><path d="m4652.55 472.252h3.98v3.251h-3.98z" fill="#a8deff"/><path d="m4652.546 475.734h4.003v1.019h-4.003z" fill="#5e5d5d"/><path d="m4652.541 475.506h4.008v.279h-4.008z" fill="#e6e7e8"/><path d="m4652.541 475.767h4.017v.265h-4.017z" fill="#c6c5c5"/><path d="m4652.55 476.751h3.981v3.175h-3.981z" fill="#a8deff"/><path d="m4652.546 480.074h4.002v.973h-4.002z" fill="#5e5d5d"/><path d="m4652.549 479.929h4.008v.266h-4.008z" fill="#e6e7e8"/><path d="m4652.549 480.179h4.018v.253h-4.018z" fill="#c6c5c5"/><path d="m4652.563 481.046h3.981v3.269h-3.981z" fill="#a8deff"/><path d="m4652.55 485.476h3.981v3.268h-3.981z" fill="#a8deff"/><path d="m4652.546 484.476h4.002v1.002h-4.002z" fill="#5e5d5d"/><path d="m4652.542 484.2h4.008v.274h-4.008z" fill="#e6e7e8"/><path d="m4652.542 484.457h4.018v.26h-4.018z" fill="#c6c5c5"/><path d="m4652.553 488.897h4.002v1.002h-4.002z" fill="#5e5d5d"/><path d="m4652.549 488.621h4.008v.274h-4.008z" fill="#e6e7e8"/><path d="m4652.549 488.878h4.018v.26h-4.018z" fill="#c6c5c5"/><path d="m4652.546 471.304h4.003v1.019h-4.003z" fill="#5e5d5d"/><path d="m4652.541 471.075h4.008v.279h-4.008z" fill="#e6e7e8"/><path d="m4652.541 471.337h4.017v.265h-4.017z" fill="#c6c5c5"/><path d="m4656.321 461.195h.402v29.112h-.402z" fill="#5e5d5d"/><path d="m4652.574 461.195h.419v27.958h-.419z" fill="#5e5d5d"/><path d="m4652.176 461.213h.419v27.958h-.419z" fill="#444343"/><path d="m4658.808 457.434h-26.608a1.684 1.684 0 0 1 2.2-2.542 3.4 3.4 0 0 1 2.862-2.7 3.005 3.005 0 0 1 3.274.682c.271-.73 1.158-.747 2.114-.825a3.406 3.406 0 0 1 3.307 1.455c1.445-1.231 4.142.2 6.051 1.471 3.446-2.016 5.437 1.225 6.8 2.459z" fill="#eaeaea"/><path d="m4708.757 452.7h-16.657a1.194 1.194 0 0 1 .146-1.5c1.352-1.451 2.075-.551 3.126.037a1.941 1.941 0 0 1 2.318-1.066 4.256 4.256 0 0 1 1.834 1.175c.441-.974 2.77-.8 4.147-.065 2.538-1.448 4.303.349 5.086 1.419z" fill="#eaeaea"/><path d="m4678.8 453.964h-12.172a.84.84 0 0 1 .107-1.1 1.91 1.91 0 0 1 2.284.027 1.42 1.42 0 0 1 1.694-.779 3.2 3.2 0 0 1 1.391.794c.366-1.423 2.3-.7 3.308-.162 2.356-1.044 2.819.44 3.388 1.22z" fill="#fff"/><path d="m4686.669 446.592h-26.607a1.8 1.8 0 0 1 2.326-2.71 3.085 3.085 0 0 1 2.735-2.531 3.472 3.472 0 0 1 3.526.808c.271-.73.906-.873 1.862-.951 1.24-.092 2.94 1.025 3.854 2.3 1.445-1.232 3.6-.422 5.51.848 3.776-2.407 5.432 1 6.794 2.236z" fill="#fff"/><path d="m4697.213 500.149-9.538-.039-.051.137h9.588z" opacity=".1"/><path d="m4697.85 486.742 5.688 14.795-5.7 1z" opacity=".2"/><path d="m4644.176 497.094s-.789 1.46-1.6 1.609l-.17.485a2.541 2.541 0 0 0 1.77-2.094z" fill="#a16324"/><path d="m4644.176 497.094a2.971 2.971 0 0 1 -1.6 1.859l.1-.3s.61-.015 1.5-1.559z" opacity=".1"/><path d="m4640.993 496.986s.692 1.511 1.493 1.715l.138.5a2.552 2.552 0 0 1 -1.631-2.215z" fill="#a16324"/><path d="m4640.993 496.986a2.979 2.979 0 0 0 1.479 1.964l-.082-.31s-.611-.053-1.397-1.654z" opacity=".1"/><path d="m4642.894 495.388a1.433 1.433 0 1 1 -1.368-1.211 1.3 1.3 0 0 1 1.368 1.211z" fill="#b5d13c"/><path d="m4643.973 494.654a1.355 1.355 0 1 1 -1.294-1.146 1.232 1.232 0 0 1 1.294 1.146z" fill="#b5d13c"/><path d="m4642.248 496.656a1.33 1.33 0 1 1 -1.27-1.125 1.208 1.208 0 0 1 1.27 1.125z" fill="#b5d13c"/><path d="m4643.757 496.624a1.329 1.329 0 1 1 -1.269-1.125 1.209 1.209 0 0 1 1.269 1.125z" fill="#b5d13c"/><path d="m4645.4 495.555a1.33 1.33 0 1 1 -1.269-1.124 1.208 1.208 0 0 1 1.269 1.124z" fill="#b5d13c"/><path d="m4645.46 496.806a1.33 1.33 0 1 1 -1.269-1.125 1.206 1.206 0 0 1 1.269 1.125z" fill="#b5d13c"/><path d="m4645.189 496.116a.945.945 0 0 0 .212-.561 1.162 1.162 0 0 0 -1.012-1.1 1.994 1.994 0 0 1 .03.4 2.514 2.514 0 0 1 -2.76 2.208 2.894 2.894 0 0 1 -1.948-.813.912.912 0 0 0 -.074.326 1.213 1.213 0 0 0 1.27 1.131 1.517 1.517 0 0 1 1.509-.033 1.474 1.474 0 0 0 .773-.182 1.447 1.447 0 0 0 .93.366 1.212 1.212 0 0 0 1.341-1.044.98.98 0 0 0 -.271-.698z" fill="#88931c"/><path d="m4641.4 496.544a1.451 1.451 0 0 0 .973 1.01l.006-.2s-.357.073-.979-.81z" fill="#a16324"/><path d="m4641.4 496.544s.363.8.975.917v-.105s-.401.018-.975-.812z" opacity=".1"/><path d="m4643.146 497.067a.85.85 0 0 1 -.61.555v-.116s.209.056.61-.439z" fill="#a16324"/><path d="m4643.146 497.067s-.244.458-.607.5v-.061s.237.026.607-.439z" opacity=".1"/><path d="m4645.2 496.124a.941.941 0 0 0 .211-.557 1.211 1.211 0 0 0 -1.27-1.125 1.49 1.49 0 0 0 -.177.005 1.3 1.3 0 0 0 -1.275-.928h-.063l-.136 4.15a1.477 1.477 0 0 0 .71-.182 1.451 1.451 0 0 0 .93.364 1.208 1.208 0 0 0 1.34-1.037.971.971 0 0 0 -.27-.69z" opacity=".1"/><path d="m4642.381 497.2a21.265 21.265 0 0 1 -.215 2.7l.852.07s-.45-2.345-.46-2.8z" fill="#a16324"/><path d="m4642.466 497.188.108 2.742.444.038-.461-2.8z" opacity=".1"/><path d="m4639.613 491.507a1.373 1.373 0 0 1 1.264.746.761.761 0 0 1 .266-.05.8.8 0 0 1 0 1.6.771.771 0 0 1 -.581-.266 1.464 1.464 0 0 1 -.949.336 1.2 1.2 0 1 1 0-2.369z" fill="#b4ca32"/><path d="m4639.573 493.038s-.669 1.661-1.4 1.858l-.139.548a2.7 2.7 0 0 0 1.539-2.406z" fill="#a16324"/><path d="m4639.573 493.038a3.363 3.363 0 0 1 -1.392 2.137l.083-.342s.552-.033 1.309-1.795z" opacity=".1"/><path d="m4639.141 491.581a1.177 1.177 0 0 0 -.05.332 1.451 1.451 0 0 0 1.542 1.336 1.626 1.626 0 0 0 1.237-.54.81.81 0 0 1 .056.3.792.792 0 0 1 -.783.8.771.771 0 0 1 -.581-.266 1.464 1.464 0 0 1 -.949.336 1.281 1.281 0 0 1 -1.361-1.184 1.206 1.206 0 0 1 .889-1.114z" fill="#88931c"/><path d="m4639.613 491.507a1.453 1.453 0 0 1 .34.041v2.289a1.569 1.569 0 0 1 -.34.039 1.2 1.2 0 1 1 0-2.369z" opacity=".1"/><path d="m4637.5 488.951-.335 9.819 1.322-.03-.567-9.8z" fill="#a16324"/><path d="m4637.691 488.949.1 9.8.7-.007-.567-9.8z" opacity=".1"/><path d="m4642.606 486.42a1.828 1.828 0 0 0 -1.9-1.741 2.022 2.022 0 0 0 -1 .26 2.159 2.159 0 0 0 -4.008-.505 3.438 3.438 0 0 0 -.469-.035 2.741 2.741 0 1 0 0 5.435 3.334 3.334 0 0 0 2.074-.7 2.834 2.834 0 0 0 1.26.286 2.991 2.991 0 0 0 .665-.075 1.4 1.4 0 0 0 1.239.632 1.227 1.227 0 0 0 1.35-1.046.991.991 0 0 0 -.554-.842 1.77 1.77 0 0 0 1.343-1.669z" fill="#b4ca32"/><path d="m4642.606 486.42a1.828 1.828 0 0 0 -1.9-1.741 2.022 2.022 0 0 0 -1 .26c-.011-.051-.025-.1-.039-.15 0 .067.007.134.007.2 0 1.943-1.919 3.518-4.286 3.518a4.712 4.712 0 0 1 -3.244-1.22 2.951 2.951 0 0 0 3.085 2.544 3.334 3.334 0 0 0 2.074-.7 2.834 2.834 0 0 0 1.26.286 2.991 2.991 0 0 0 .665-.075 1.4 1.4 0 0 0 1.239.632 1.227 1.227 0 0 0 1.35-1.046.991.991 0 0 0 -.554-.842 1.77 1.77 0 0 0 1.343-1.666z" fill="#88931c"/><path d="m4642.606 486.443a1.83 1.83 0 0 0 -1.9-1.742 2.033 2.033 0 0 0 -1 .261 2.13 2.13 0 0 0 -2.017-1.652v6a2.939 2.939 0 0 0 .873.131 2.994 2.994 0 0 0 .666-.074 1.4 1.4 0 0 0 1.239.632 1.227 1.227 0 0 0 1.35-1.045.991.991 0 0 0 -.554-.843 1.77 1.77 0 0 0 1.343-1.668z" opacity=".1"/><path d="m4635.961 490.6a1.37 1.37 0 0 0 -1.263.746.77.77 0 0 0 -.268-.049.8.8 0 0 0 0 1.6.773.773 0 0 0 .582-.266 1.469 1.469 0 0 0 .949.336 1.2 1.2 0 1 0 0-2.369z" fill="#b4ca32"/><path d="m4636 492.132s.668 1.662 1.4 1.858l.139.548a2.7 2.7 0 0 1 -1.539-2.406z" fill="#a16324"/><path d="m4636 492.132a3.363 3.363 0 0 0 1.392 2.137l-.083-.342s-.551-.037-1.309-1.795z" opacity=".1"/><path d="m4636.432 490.675a1.167 1.167 0 0 1 .051.333 1.451 1.451 0 0 1 -1.543 1.335 1.626 1.626 0 0 1 -1.237-.541.83.83 0 0 0 -.055.3.791.791 0 0 0 .782.8.773.773 0 0 0 .582-.266 1.469 1.469 0 0 0 .949.336 1.281 1.281 0 0 0 1.36-1.185 1.2 1.2 0 0 0 -.889-1.112z" fill="#88931c"/><path d="m4635.961 490.6a1.571 1.571 0 0 0 -.34.04v2.29a1.511 1.511 0 0 0 .34.039 1.2 1.2 0 1 0 0-2.369z" opacity=".1"/><path d="m4635.376 487.349c-.644.212-1.936-.1-2.133-.726s.773-1.336 1.417-1.548a1.191 1.191 0 0 1 1.523.752 1.232 1.232 0 0 1 -.807 1.522z" fill="#c9d551"/><path d="m4636.934 487.386a.339.339 0 1 1 -.339-.347.343.343 0 0 1 .339.347z" fill="#919c24"/><path d="m4635.656 498.869s-.518.956-1.049 1.054l-.111.317a1.666 1.666 0 0 0 1.16-1.371z" fill="#a16324"/><path d="m4635.656 498.869a1.946 1.946 0 0 1 -1.05 1.217l.066-.2s.402-.006.984-1.017z" opacity=".1"/><path d="m4633.572 498.8s.453.989.977 1.122l.09.324a1.668 1.668 0 0 1 -1.067-1.446z" fill="#a16324"/><path d="m4633.572 498.8a1.954 1.954 0 0 0 .968 1.285l-.054-.2s-.399-.038-.914-1.085z" opacity=".1"/><path d="m4634.816 497.753a.938.938 0 1 1 -.9-.792.852.852 0 0 1 .9.792z" fill="#b5d13c"/><path d="m4635.522 497.272a.887.887 0 1 1 -.847-.749.806.806 0 0 1 .847.749z" fill="#b5d13c"/><path d="m4634.394 498.582a.871.871 0 1 1 -.832-.735.792.792 0 0 1 .832.735z" fill="#b5d13c"/><path d="m4635.382 498.561a.87.87 0 1 1 -.831-.735.792.792 0 0 1 .831.735z" fill="#b5d13c"/><path d="m4636.457 497.863a.87.87 0 1 1 -.831-.736.79.79 0 0 1 .831.736z" fill="#b5d13c"/><path d="m4636.5 498.681a.87.87 0 1 1 -.831-.736.791.791 0 0 1 .831.736z" fill="#b5d13c"/><path d="m4636.319 498.23a.622.622 0 0 0 .138-.367.759.759 0 0 0 -.662-.722 1.346 1.346 0 0 1 .02.263 1.644 1.644 0 0 1 -1.806 1.445 1.893 1.893 0 0 1 -1.276-.532.639.639 0 0 0 -.049.213.8.8 0 0 0 .832.741.957.957 0 0 0 .544-.142.99.99 0 0 0 .444.121.968.968 0 0 0 .506-.12.943.943 0 0 0 .608.239.791.791 0 0 0 .877-.682.645.645 0 0 0 -.176-.457z" fill="#88931c"/><path d="m4633.837 498.509a.95.95 0 0 0 .636.662v-.13s-.227.047-.636-.532z" fill="#a16324"/><path d="m4633.837 498.509s.238.526.638.6v-.069s-.261.013-.638-.531z" opacity=".1"/><path d="m4634.981 498.852a.557.557 0 0 1 -.4.363v-.076s.138.036.4-.287z" fill="#a16324"/><path d="m4634.981 498.852s-.159.3-.4.327v-.04s.158.017.4-.287z" opacity=".1"/><path d="m4636.326 498.235a.61.61 0 0 0 .139-.365.792.792 0 0 0 -.832-.736 1.1 1.1 0 0 0 -.115 0 .848.848 0 0 0 -.834-.607h-.042l-.089 2.716a.981.981 0 0 0 .465-.118.944.944 0 0 0 .608.237.788.788 0 0 0 .877-.678.63.63 0 0 0 -.177-.449z" opacity=".1"/><path d="m4634.48 498.94a13.99 13.99 0 0 1 -.14 1.765l.558.046s-.295-1.535-.3-1.834z" fill="#a16324"/><path d="m4634.537 498.931.07 1.794.292.026-.3-1.834z" opacity=".1"/><path d="m4711.5 499.111s-.789 1.46-1.6 1.609l-.171.486a2.543 2.543 0 0 0 1.771-2.095z" fill="#a16324"/><path d="m4711.5 499.111a2.97 2.97 0 0 1 -1.6 1.859l.1-.3s.606-.015 1.5-1.559z" opacity=".1"/><path d="m4708.313 499s.693 1.511 1.494 1.715l.137.5a2.552 2.552 0 0 1 -1.631-2.215z" fill="#a16324"/><path d="m4708.313 499a2.982 2.982 0 0 0 1.479 1.964l-.081-.31s-.611-.054-1.398-1.654z" opacity=".1"/><path d="m4710.214 497.4a1.433 1.433 0 1 1 -1.367-1.211 1.3 1.3 0 0 1 1.367 1.211z" fill="#b5d13c"/><path d="m4711.294 496.672a1.356 1.356 0 1 1 -1.295-1.147 1.233 1.233 0 0 1 1.295 1.147z" fill="#b5d13c"/><path d="m4709.569 498.673a1.33 1.33 0 1 1 -1.27-1.125 1.209 1.209 0 0 1 1.27 1.125z" fill="#b5d13c"/><path d="m4711.078 498.641a1.33 1.33 0 1 1 -1.269-1.125 1.21 1.21 0 0 1 1.269 1.125z" fill="#b5d13c"/><path d="m4712.722 497.572a1.33 1.33 0 1 1 -1.27-1.124 1.21 1.21 0 0 1 1.27 1.124z" fill="#b5d13c"/><path d="m4712.781 498.823a1.33 1.33 0 1 1 -1.27-1.125 1.207 1.207 0 0 1 1.27 1.125z" fill="#b5d13c"/><path d="m4712.509 498.133a.94.94 0 0 0 .213-.561 1.163 1.163 0 0 0 -1.013-1.1 1.94 1.94 0 0 1 .03.4 2.513 2.513 0 0 1 -2.759 2.209 2.9 2.9 0 0 1 -1.949-.813.916.916 0 0 0 -.074.326 1.214 1.214 0 0 0 1.27 1.131 1.457 1.457 0 0 0 .833-.217 1.517 1.517 0 0 0 1.45 0 1.436 1.436 0 0 0 .93.367 1.212 1.212 0 0 0 1.341-1.044.985.985 0 0 0 -.272-.698z" fill="#88931c"/><path d="m4708.718 498.561a1.452 1.452 0 0 0 .973 1.01v-.2s-.348.074-.973-.81z" fill="#a16324"/><path d="m4708.718 498.561s.363.8.974.917v-.105s-.398.018-.974-.812z" opacity=".1"/><path d="m4710.466 499.085a.848.848 0 0 1 -.609.554v-.116s.209.056.609-.438z" fill="#a16324"/><path d="m4710.466 499.085s-.244.457-.607.5v-.062s.241.026.607-.438z" opacity=".1"/><path d="m4712.522 498.141a.941.941 0 0 0 .211-.557 1.211 1.211 0 0 0 -1.27-1.125 1.709 1.709 0 0 0 -.176 0 1.3 1.3 0 0 0 -1.275-.927c-.022 0-.042 0-.064 0l-.135 4.15a1.481 1.481 0 0 0 .71-.182 1.441 1.441 0 0 0 .929.364 1.209 1.209 0 0 0 1.341-1.037.97.97 0 0 0 -.271-.686z" opacity=".1"/><path d="m4709.7 499.218a21.366 21.366 0 0 1 -.215 2.7l.852.07s-.451-2.345-.461-2.8z" fill="#a16324"/><path d="m4709.787 499.205.108 2.742.444.038-.46-2.8z" opacity=".1"/><path d="m4706.933 493.524a1.37 1.37 0 0 1 1.264.746.769.769 0 0 1 .267-.049.8.8 0 0 1 0 1.6.775.775 0 0 1 -.582-.266 1.462 1.462 0 0 1 -.949.336 1.2 1.2 0 1 1 0-2.369z" fill="#b4ca32"/><path d="m4706.894 495.055s-.67 1.661-1.4 1.858l-.139.548a2.7 2.7 0 0 0 1.539-2.406z" fill="#a16324"/><path d="m4706.894 495.055a3.368 3.368 0 0 1 -1.392 2.137l.083-.342s.551-.037 1.309-1.795z" opacity=".1"/><path d="m4706.462 493.6a1.159 1.159 0 0 0 -.05.332 1.449 1.449 0 0 0 1.541 1.336 1.622 1.622 0 0 0 1.237-.54.805.805 0 0 1 .057.3.792.792 0 0 1 -.783.8.775.775 0 0 1 -.582-.266 1.462 1.462 0 0 1 -.949.336 1.281 1.281 0 0 1 -1.36-1.184 1.2 1.2 0 0 1 .889-1.114z" fill="#88931c"/><path d="m4706.933 493.524a1.467 1.467 0 0 1 .341.041v2.289a1.584 1.584 0 0 1 -.341.039 1.2 1.2 0 1 1 0-2.369z" opacity=".1"/><path d="m4704.825 490.968-.336 9.819 1.322-.03-.567-9.8z" fill="#a16324"/><path d="m4705.012 490.966.1 9.8.7-.007-.567-9.8z" opacity=".1"/><path d="m4709.927 488.437a1.828 1.828 0 0 0 -1.906-1.741 2.036 2.036 0 0 0 -1 .26 2.159 2.159 0 0 0 -4.008-.505 3.423 3.423 0 0 0 -.469-.034 2.74 2.74 0 1 0 0 5.434 3.334 3.334 0 0 0 2.074-.7 2.838 2.838 0 0 0 1.26.286 2.985 2.985 0 0 0 .665-.075 1.407 1.407 0 0 0 1.24.632 1.227 1.227 0 0 0 1.35-1.046.993.993 0 0 0 -.554-.842 1.77 1.77 0 0 0 1.348-1.669z" fill="#b4ca32"/><path d="m4709.927 488.437a1.828 1.828 0 0 0 -1.906-1.741 2.036 2.036 0 0 0 -1 .26c-.011-.05-.024-.1-.039-.15 0 .067.008.134.008.2 0 1.943-1.919 3.519-4.287 3.519a4.714 4.714 0 0 1 -3.244-1.221 2.951 2.951 0 0 0 3.085 2.544 3.334 3.334 0 0 0 2.074-.7 2.838 2.838 0 0 0 1.26.286 2.985 2.985 0 0 0 .665-.075 1.407 1.407 0 0 0 1.24.632 1.227 1.227 0 0 0 1.35-1.046.993.993 0 0 0 -.554-.842 1.77 1.77 0 0 0 1.348-1.666z" fill="#88931c"/><path d="m4709.927 488.46a1.83 1.83 0 0 0 -1.906-1.742 2.036 2.036 0 0 0 -1 .261 2.127 2.127 0 0 0 -2.016-1.651v6a2.937 2.937 0 0 0 .872.131 2.987 2.987 0 0 0 .666-.074 1.4 1.4 0 0 0 1.24.632 1.227 1.227 0 0 0 1.35-1.045.993.993 0 0 0 -.554-.843 1.77 1.77 0 0 0 1.348-1.669z" opacity=".1"/><path d="m4703.282 492.618a1.372 1.372 0 0 0 -1.264.746.766.766 0 0 0 -.267-.049.8.8 0 0 0 0 1.6.772.772 0 0 0 .581-.267 1.474 1.474 0 0 0 .95.336 1.2 1.2 0 1 0 0-2.369z" fill="#b4ca32"/><path d="m4703.322 494.149s.668 1.662 1.4 1.858l.14.548a2.7 2.7 0 0 1 -1.54-2.406z" fill="#a16324"/><path d="m4703.322 494.149a3.36 3.36 0 0 0 1.391 2.137l-.082-.342s-.553-.037-1.309-1.795z" opacity=".1"/><path d="m4703.753 492.692a1.15 1.15 0 0 1 .05.333 1.45 1.45 0 0 1 -1.542 1.335 1.625 1.625 0 0 1 -1.237-.541.813.813 0 0 0 -.055.3.792.792 0 0 0 .782.8.772.772 0 0 0 .581-.267 1.474 1.474 0 0 0 .95.336 1.28 1.28 0 0 0 1.359-1.185 1.2 1.2 0 0 0 -.888-1.111z" fill="#88931c"/><path d="m4703.282 492.618a1.569 1.569 0 0 0 -.34.04v2.29a1.509 1.509 0 0 0 .34.039 1.2 1.2 0 1 0 0-2.369z" opacity=".1"/><path d="m4702.7 489.366c-.644.212-1.936-.1-2.132-.726s.772-1.336 1.417-1.548a1.189 1.189 0 0 1 1.522.752 1.23 1.23 0 0 1 -.807 1.522z" fill="#c9d551"/><path d="m4704.255 489.4a.339.339 0 1 1 -.34-.347.344.344 0 0 1 .34.347z" fill="#919c24"/><path d="m4702.976 500.886s-.518.957-1.049 1.054l-.111.318a1.668 1.668 0 0 0 1.16-1.372z" fill="#a16324"/><path d="m4702.976 500.886a1.946 1.946 0 0 1 -1.05 1.217l.067-.2s.401-.003.983-1.017z" opacity=".1"/><path d="m4700.893 500.816s.452.989.977 1.122l.089.324a1.668 1.668 0 0 1 -1.066-1.446z" fill="#a16324"/><path d="m4700.893 500.816a1.949 1.949 0 0 0 .967 1.285l-.053-.2s-.4-.037-.914-1.085z" opacity=".1"/><path d="m4702.137 499.77a.938.938 0 1 1 -.9-.792.852.852 0 0 1 .9.792z" fill="#b5d13c"/><path d="m4702.843 499.289a.887.887 0 1 1 -.847-.749.806.806 0 0 1 .847.749z" fill="#b5d13c"/><path d="m4701.714 500.6a.87.87 0 1 1 -.831-.736.79.79 0 0 1 .831.736z" fill="#b5d13c"/><path d="m4702.7 500.578a.87.87 0 1 1 -.831-.735.792.792 0 0 1 .831.735z" fill="#b5d13c"/><path d="m4703.777 499.88a.87.87 0 1 1 -.831-.736.789.789 0 0 1 .831.736z" fill="#b5d13c"/><path d="m4703.816 500.7a.87.87 0 1 1 -.83-.736.789.789 0 0 1 .83.736z" fill="#b5d13c"/><path d="m4703.639 500.247a.619.619 0 0 0 .138-.367.76.76 0 0 0 -.662-.722 1.275 1.275 0 0 1 .02.263 1.644 1.644 0 0 1 -1.806 1.445 1.893 1.893 0 0 1 -1.276-.532.6.6 0 0 0 -.048.214.8.8 0 0 0 .832.74.967.967 0 0 0 .544-.141 1 1 0 0 0 .443.12.971.971 0 0 0 .507-.12.935.935 0 0 0 .607.239.79.79 0 0 0 .877-.682.638.638 0 0 0 -.176-.457z" fill="#88931c"/><path d="m4701.158 500.526a.946.946 0 0 0 .635.662v-.13s-.227.047-.635-.532z" fill="#a16324"/><path d="m4701.158 500.526s.237.526.637.6v-.069s-.261.013-.637-.531z" opacity=".1"/><path d="m4702.3 500.869a.556.556 0 0 1 -.4.363v-.076s.14.037.4-.287z" fill="#a16324"/><path d="m4702.3 500.869s-.158.3-.4.328v-.041s.159.018.4-.287z" opacity=".1"/><path d="m4703.647 500.252a.624.624 0 0 0 .139-.365.793.793 0 0 0 -.832-.736c-.038 0-.078 0-.115 0a.848.848 0 0 0 -.835-.607h-.041l-.09 2.716a.987.987 0 0 0 .466-.118.943.943 0 0 0 .607.237.791.791 0 0 0 .878-.678.634.634 0 0 0 -.177-.449z" opacity=".1"/><path d="m4701.8 500.957a14.092 14.092 0 0 1 -.141 1.765l.559.046s-.3-1.535-.3-1.834z" fill="#a16324"/><path d="m4701.857 500.948.07 1.794.292.026-.3-1.834z" opacity=".1"/><path d="m4715.261 503.995a4.312 4.312 0 0 1 -4.126 4.476h-77.473a4.312 4.312 0 0 1 -4.127-4.476 4.312 4.312 0 0 1 4.127-4.475h77.473a4.311 4.311 0 0 1 4.126 4.475z" fill="#525254"/><path d="m4710.219 504.941c0 .7-7.338 1.261-16.389 1.261s-16.389-.565-16.389-1.261 7.338-1.261 16.389-1.261 16.389.565 16.389 1.261z" fill="#464647"/><path d="m4674.163 505.906c0 .7-4.822 1.26-10.77 1.26s-10.77-.564-10.77-1.26 4.822-1.261 10.77-1.261 10.77.564 10.77 1.261z" fill="#464647"/><path d="m4647.521 505.233c0 .7-3.562 1.261-7.955 1.261s-7.955-.565-7.955-1.261 3.562-1.261 7.955-1.261 7.955.565 7.955 1.261z" fill="#464647"/><path d="m4636.013 498.558h.569v2.125h-.569z" fill="#b26e60"/><path d="m4638.988 498.558 2.31.028-.012 2.275h-2.271z" fill="#fcc491"/><path d="m4639.014 500.86-1.789-.027.04-2.238 1.749-.037z" fill="#fcc491"/><path d="m4639.014 500.86-.569-.013-.038-2.27.607-.018z" fill="#b26e60"/><path d="m4636.559 498.548 2.354.016v2.289h-2.328z" fill="#fcc491"/><path d="m4636.585 500.85h-1.761l.012-2.265 1.749-.037z" fill="#cb8371"/><path d="m4638.067 498.913-.76-.008v-.354l.764.008z" fill="#eab488"/><path d="m4640.587 498.932-.76-.008v-.354l.764.008z" fill="#eab488"/><path d="m4640.084 500.812 2.31.027-.014 2.2-2.27.036z" fill="#fcc491"/><path d="m4640.11 503.08h-1.761l.013-2.231 1.749-.036z" fill="#cb8371"/><path d="m4640.11 503.08h-.59l.019-2.265h.569z" fill="#b26e60"/><path d="m4634.739 500.79h.569v2.124h-.569z" fill="#b26e60"/><path d="m4637.714 500.79 2.31.028-.012 2.274h-2.271z" fill="#fcc491"/><path d="m4637.74 503.091-1.79-.027.042-2.237 1.748-.037z" fill="#fcc491"/><path d="m4637.74 503.091-.569-.013-.038-2.27.607-.018z" fill="#b26e60"/><path d="m4635.285 500.778 2.354.016v2.289h-2.327z" fill="#fcc491"/><path d="m4635.312 503.08h-1.762l.013-2.264 1.75-.038z" fill="#cb8371"/><path d="m4636.793 501.144-.76-.008v-.354l.764.009z" fill="#eab488"/><path d="m4639.313 501.163-.76-.009v-.354l.763.008z" fill="#eab488"/><path d="m4641.725 501.191-.76-.009v-.353l.764.008z" fill="#eab488"/><path d="m4640.427 503.018 2.574.03-.015 2.457-2.53.04z" fill="#efb789"/><path d="m4640.455 505.545h-1.963l.014-2.487 1.949-.04z" fill="#cb8371"/><path d="m4640.455 505.545h-.658l.021-2.525h.635z" fill="#b26e60"/><path d="m4634.462 502.984h.635v2.368h-.635z" fill="#b26e60"/><path d="m4637.779 502.984 2.574.031-.014 2.535h-2.532z" fill="#efb789"/><path d="m4637.808 505.549-1.995-.03.046-2.495 1.949-.04z" fill="#cb8371"/><path d="m4637.808 505.549-.635-.015-.042-2.53.677-.02z" fill="#b26e60"/><path d="m4635.07 502.971 2.625.018v2.551h-2.595z" fill="#efb789"/><path d="m4635.1 505.537h-1.964l.014-2.524 1.95-.042z" fill="#cb8371"/><path d="m4636.752 503.379-.847-.009v-.395l.851.009z" fill="#d3a17d"/><path d="m4639.561 503.4-.848-.009v-.395l.851.009z" fill="#d3a17d"/><path d="m4642.25 503.431-.848-.009v-.395l.852.009z" fill="#d3a17d"/><path d="m4634.818 500.784h1.772v-2.237z" fill="#b26e60"/><path d="m4635.308 500.79-.008 2.182-1.75.044z" fill="#b26e60"/><path d="m4635.1 502.984v2.553h-1.964z" fill="#b26e60"/><path d="m4659.499 486.742h38.334v15.792h-38.334z" fill="#d8d8d8"/><path d="m4678.076 489.815h.371v12.41h-.371z" fill="#586783"/><path d="m4675.653 489.85h.37v12.375h-.37z" fill="#586783"/><path d="m4678.32 489.815h.203v12.41h-.203z" fill="#b8b8ba"/><path d="m4675.957 489.85h.202v12.41h-.202z" fill="#b8b8ba"/><path d="m4675.687 493.663h2.508v.358h-2.508z" fill="#586783"/><path d="m4675.687 491.678h2.508v.359h-2.508z" fill="#586783"/><path d="m4675.687 497.796h2.508v.358h-2.508z" fill="#586783"/><path d="m4675.687 500.11h2.508v.359h-2.508z" fill="#586783"/><path d="m4675.687 495.647h2.457v.358h-2.457z" fill="#586783"/><path d="m4675.96 498.158h2.121v.082h-2.121z" fill="#e8e9ef"/><path d="m4675.96 500.472h2.121v.082h-2.121z" fill="#b8b8ba"/><path d="m4675.96 496.008h2.121v.082h-2.121z" fill="#b8b8ba"/><path d="m4675.96 494.025h2.121v.082h-2.121z" fill="#e8e9ef"/><path d="m4675.96 492.04h2.121v.083h-2.121z" fill="#b8b8ba"/><path d="m4672.723 491.98 1.653.024-.01 1.97-1.625.032z" fill="#eab488"/><path d="m4672.742 494.007h-1.261l.009-1.994 1.251-.033z" fill="#cb8371"/><path d="m4672.742 491.98-1.254 1.891v-1.858z" fill="#b26e60"/><path d="m4675.88 491.963 1.654.024-.009 1.959-1.626.031z" fill="#fcc491"/><path d="m4675.9 493.977h-1.26l.009-1.981 1.25-.033z" fill="#cb8371"/><path d="m4675.49 491.973h.407v2.005h-.407z" fill="#b26e60"/><path d="m4674.155 491.94 1.653.025-.01 2.009-1.625.032z" fill="#fcc491"/><path d="m4674.173 494.007h-1.26l.008-2.033 1.251-.033z" fill="#cb8371"/><path d="m4674.173 491.957-1.253 1.91v-1.878z" fill="#b26e60"/><path d="m4672.725 489.972 1.639.025-.009 1.971-1.611.032z" fill="#eab488"/><path d="m4672.743 492h-1.25l.009-2 1.241-.033z" fill="#cb8371"/><path d="m4672.743 489.972-1.243 1.891v-1.858z" fill="#b26e60"/><path d="m4675.868 489.957 1.652.023-.008 1.957-1.625.033z" fill="#fcc491"/><path d="m4675.886 491.97h-1.261l.009-1.982 1.252-.031z" fill="#cb8371"/><path d="m4675.477 489.966h.408v2.004h-.408z" fill="#b26e60"/><path d="m4674.141 489.933 1.654.025-.01 2.009-1.625.034z" fill="#fcc491"/><path d="m4674.16 492h-1.26l.009-2.034 1.251-.033z" fill="#cb8371"/><path d="m4674.16 489.933-1.255 1.928v-1.895z" fill="#b26e60"/><path d="m4674.155 491.94h3.369v.093h-3.369z" fill="#995e55"/><path d="m4671.491 491.933h2.68v.1h-2.68z" fill="#995e55"/><path d="m4675.271 492.438h-.691l-.01-.4h.695z" fill="#eab488"/><path d="m4677.087 492.438h-.691l-.006-.4h.693z" fill="#eab488"/><path d="m4675.279 490.352h-.69l-.01-.4h.693z" fill="#eab488"/><path d="m4677.078 490.378-.691-.006v-.4h.693z" fill="#eab488"/><path d="m4672.469 496.65 1.315.02-.006 1.567-1.293.026z" fill="#eab488"/><path d="m4672.485 498.263h-1l.007-1.587 1-.026z" fill="#cb8371"/><path d="m4672.485 496.65-1 1.505v-1.479z" fill="#b26e60"/><path d="m4674.981 496.637 1.314.02-.007 1.557-1.292.024z" fill="#fcc491"/><path d="m4675 498.239h-1l.008-1.575 1-.027z" fill="#cb8371"/><path d="m4674.669 496.644h.324v1.595h-.324z" fill="#b26e60"/><path d="m4673.607 496.619 1.315.02-.006 1.6-1.292.027z" fill="#fcc491"/><path d="m4673.624 498.263h-1l.009-1.618 1-.027z" fill="#cb8371"/><path d="m4673.624 496.632-1 1.52v-1.494z" fill="#b26e60"/><path d="m4672.471 495.053 1.3.02-.008 1.567-1.281.026z" fill="#eab488"/><path d="m4672.485 496.666h-.994l.007-1.587.987-.026z" fill="#cb8371"/><path d="m4672.485 495.053-.989 1.5v-1.479z" fill="#b26e60"/><path d="m4674.97 495.041 1.315.02-.008 1.557-1.292.025z" fill="#fcc491"/><path d="m4674.985 496.642h-1l.007-1.576 1-.026z" fill="#cb8371"/><path d="m4674.658 495.047h.325v1.595h-.325z" fill="#b26e60"/><path d="m4673.6 495.022 1.315.02-.008 1.6-1.293.026z" fill="#fcc491"/><path d="m4673.612 496.666h-1l.007-1.618 1-.026z" fill="#cb8371"/><path d="m4673.612 495.022-1 1.533v-1.507z" fill="#b26e60"/><path d="m4673.607 496.619h2.68v.073h-2.68z" fill="#995e55"/><path d="m4671.49 496.613h2.131v.078h-2.131z" fill="#995e55"/><path d="m4674.5 497.015h-.549l-.008-.322h.552z" fill="#eab488"/><path d="m4675.94 497.015h-.55v-.322h.552z" fill="#eab488"/><path d="m4674.5 495.355h-.55l-.009-.322h.554z" fill="#eab488"/><path d="m4675.934 495.376h-.55v-.322h.553z" fill="#eab488"/><path d="m4678.524 494.278h-6.866v-.454h6.883z" fill="#60728c"/><path d="m4671.658 493.824-2.739.013v.41l2.739.032z" fill="#60728c"/><path d="m4671.658 493.824h6.879v.201h-6.879z" fill="#52617a"/><path d="m4678.524 498.666h-6.866v-.454h6.883z" fill="#60728c"/><path d="m4671.658 498.212-2.739.013v.41l2.739.031z" fill="#60728c"/><path d="m4671.658 498.212h6.879v.203h-6.879z" fill="#52617a"/><path d="m4663.116 493.842 1.653.023-.01 1.971-1.624.033z" fill="#eab488"/><path d="m4663.135 495.869h-1.262l.009-2 1.253-.031z" fill="#cb8371"/><path d="m4663.135 493.842-1.255 1.89v-1.859z" fill="#b26e60"/><path d="m4666.273 493.825 1.653.025-.009 1.956-1.625.033z" fill="#e8b182"/><path d="m4666.291 495.839h-1.26l.009-1.981 1.251-.033z" fill="#cb8371"/><path d="m4665.882 493.836h.407v2.004h-.407z" fill="#b26e60"/><path d="m4664.547 493.8 1.653.024-.009 2.009-1.625.034z" fill="#e8b182"/><path d="m4664.566 495.869h-1.266l.009-2.033 1.252-.033z" fill="#cb8371"/><path d="m4664.566 493.819-1.255 1.911v-1.878z" fill="#b26e60"/><path d="m4663.117 491.835 1.639.025-.01 1.97-1.611.032z" fill="#eab488"/><path d="m4663.136 493.862h-1.25l.009-1.995 1.241-.033z" fill="#cb8371"/><path d="m4663.136 491.835-1.243 1.891v-1.858z" fill="#b26e60"/><path d="m4666.259 491.818 1.654.024-.009 1.958-1.625.031z" fill="#e8b182"/><path d="m4666.278 493.832h-1.26l.008-1.981 1.252-.033z" fill="#cb8371"/><path d="m4665.868 491.828h.408v2.005h-.408z" fill="#b26e60"/><path d="m4664.534 491.795 1.653.025-.009 2.009-1.625.033z" fill="#e8b182"/><path d="m4664.552 493.862h-1.261l.009-2.034 1.251-.033z" fill="#cb8371"/><path d="m4664.552 491.795-1.254 1.928v-1.895z" fill="#b26e60"/><path d="m4664.547 493.802h3.369v.092h-3.369z" fill="#995e55"/><path d="m4661.883 493.796h2.68v.099h-2.68z" fill="#995e55"/><path d="m4670.996 488.485h.369v13.702h-.369z" fill="#586783"/><path d="m4668.572 488.524h.37v13.664h-.37z" fill="#586783"/><path d="m4671.24 488.485h.201v13.702h-.201z" fill="#b8b8ba"/><path d="m4668.875 488.524h.202v13.702h-.202z" fill="#b8b8ba"/><path d="m4668.606 492.734h2.508v.395h-2.508z" fill="#586783"/><path d="m4668.606 490.544h2.508v.395h-2.508z" fill="#586783"/><path d="m4668.606 497.297h2.508v.396h-2.508z" fill="#d7d9e4"/><path d="m4668.606 499.853h2.508v.395h-2.508z" fill="#60728c"/><path d="m4668.606 494.924h2.457v.396h-2.457z" fill="#586783"/><path d="m4668.879 497.697h2.12v.09h-2.12z" fill="#e8e9ef"/><path d="m4668.879 500.253h2.12v.092h-2.12z" fill="#e8e9ef"/><path d="m4668.879 495.324h2.12v.092h-2.12z" fill="#e8e9ef"/><path d="m4668.879 493.134h2.12v.091h-2.12z" fill="#e8e9ef"/><path d="m4668.879 490.942h2.12v.091h-2.12z" fill="#e8e9ef"/><path d="m4668.631 496.556 2.1.032-.013 2.555-2.064.042z" fill="#e8b182"/><path d="m4668.654 499.185h-1.6l.011-2.586 1.59-.042z" fill="#cb8371"/><path d="m4668.134 496.553h.518v2.442h-.518z" fill="#b26e60"/><path d="m4663.729 496.521h.517v2.424h-.517z" fill="#b26e60"/><path d="m4671.244 491.519h-6.866v-.455h6.883z" fill="#60728c"/><path d="m4664.377 491.064-2.739.013v.409l2.739.033z" fill="#60728c"/><path d="m4664.377 495.709h6.867v.455h-6.867z" fill="#60728c"/><path d="m4664.377 495.709-2.739.013v.409l2.739.033z" fill="#60728c"/><path d="m4664.377 491.064h6.879v.202h-6.879z" fill="#52617a"/><path d="m4664.371 495.715h6.879v.202h-6.879z" fill="#52617a"/><path d="m4666.435 496.521 2.1.032-.012 2.552-2.064.041z" fill="#e8b182"/><path d="m4666.458 499.146h-1.6l.011-2.583 1.59-.042z" fill="#cb8371"/><path d="m4666.455 498.957h-.517v-2.424l.52-.012z" fill="#b26e60"/><path d="m4664.226 496.509 2.116.019-.029 2.565-2.063.042z" fill="#e8b182"/><path d="m4664.25 499.134h-1.6l.012-2.583 1.591-.042z" fill="#cb8371"/><path d="m4664.377 498.941h6.867v.454h-6.867z" fill="#60728c"/><path d="m4664.377 498.941-2.739.012v.41l2.739.032z" fill="#60728c"/><path d="m4664.371 498.947h6.879v.202h-6.879z" fill="#52617a"/><path d="m4664.25 496.509-1.594 2.449v-2.407z" fill="#b26e60"/><path d="m4663.586 488.451h.37v13.702h-.37z" fill="#60728c"/><path d="m4661.163 488.49h.37v13.663h-.37z" fill="#60728c"/><path d="m4663.83 488.451h.202v13.702h-.202z" fill="#b8b8ba"/><path d="m4661.465 488.49h.202v13.702h-.202z" fill="#b8b8ba"/><path d="m4661.196 492.7h2.508v.395h-2.508z" fill="#60728c"/><path d="m4661.196 490.509h2.508v.396h-2.508z" fill="#586783"/><path d="m4661.196 497.264h2.508v.394h-2.508z" fill="#60728c"/><path d="m4661.196 499.819h2.508v.395h-2.508z" fill="#60728c"/><path d="m4661.196 494.89h2.458v.396h-2.458z" fill="#60728c"/><path d="m4661.47 497.663h2.121v.092h-2.121z" fill="#b8b8ba"/><path d="m4661.47 500.218h2.121v.092h-2.121z" fill="#b8b8ba"/><path d="m4661.47 495.29h2.121v.091h-2.121z" fill="#b8b8ba"/><path d="m4661.47 493.099h2.121v.092h-2.121z" fill="#b8b8ba"/><path d="m4661.47 490.909h2.121v.09h-2.121z" fill="#b8b8ba"/><path d="m4665.6 496.926-.691-.009v-.4l.694.009z" fill="#d39e76"/><path d="m4667.888 496.947-.69-.01v-.4l.693.01z" fill="#d39e76"/><path d="m4670.082 496.979-.691-.01v-.4l.695.01z" fill="#d39e76"/><path d="m4665.664 494.3h-.691l-.01-.4h.694z" fill="#d39e76"/><path d="m4667.479 494.3h-.691l-.006-.4h.694z" fill="#d39e76"/><path d="m4665.672 492.213h-.691l-.011-.4h.694z" fill="#d39e76"/><path d="m4667.471 492.239-.691-.005-.006-.4.695.005z" fill="#d39e76"/><path d="m4659.89 502.534h-15.541v-15.917l8.021-4.888 7.52 4.888z" fill="#7ac0c4"/><path d="m4652.37 481.729 36.9-.181 8.564 5.195h-37.989z" fill="#1e434c"/><path d="m4644.349 487.212 8.021-4.888 7.52 4.92v-.5l-7.52-5.013-8.021 4.888z" fill="#1e434c"/><path d="m4673.175 486.742h24.661v15.792h-24.661z" fill="#92dce8"/><path d="m4672.298 486.742h.877v15.792h-.877z" fill="#008b99"/><path d="m4659.89 486.742h37.96v.501h-37.96z" fill="#1b545e"/><path d="m4645.685 488.64h12.638v2.522h-12.638z" fill="#dadce5"/><path d="m4645.801 488.79h12.39v2.203h-12.39z" fill="#fff"/><path d="m4645.976 489.093h11.976v1.646h-11.976z" fill="#a8c7e2"/><path d="m4645.976 490.739 11.976-1.646h-11.976z" fill="#809eba"/><path d="m4645.685 492.399h12.638v2.524h-12.638z" fill="#dadce5"/><path d="m4645.801 492.551h12.39v2.203h-12.39z" fill="#fff"/><path d="m4645.976 492.852h11.976v1.647h-11.976z" fill="#a8c7e2"/><path d="m4645.976 494.5 11.976-1.647h-11.976z" fill="#809eba"/><path d="m4645.685 496.16h12.638v2.523h-12.638z" fill="#dadce5"/><path d="m4645.801 496.311h12.39v2.203h-12.39z" fill="#fff"/><path d="m4645.976 496.612h11.976v1.647h-11.976z" fill="#a8c7e2"/><path d="m4645.976 498.259 11.976-1.647h-11.976z" fill="#809eba"/><path d="m4644.349 501.907h53.508v.877h-53.508z" fill="#b8b8ba"/><path d="m4644.349 501.907h53.484v.542h-53.484z" fill="#fff"/><path d="m4674.525 491.832h6.35v8.141h-6.35z" fill="#6196c1"/><path d="m4674.812 491.832h6.349v8.141h-6.349z" fill="#5c7d9e"/><path d="m4675.119 492.315h5.667v7.187h-5.667z" fill="#d8d8d8"/><path d="m4675.404 492.315h5.489v7.187h-5.489z" fill="#eaeaea"/><path d="m4675.87 492.974h4.392v5.863h-4.392z" fill="#02a8c4"/><path d="m4680.261 492.974-4.392 5.863v-5.863z" opacity=".1"/><path d="m4682.19 491.776h6.349v8.142h-6.349z" fill="#6196c1"/><path d="m4682.476 491.776h6.349v8.142h-6.349z" fill="#5c7d9e"/><path d="m4682.783 492.26h5.667v7.187h-5.667z" fill="#d8d8d8"/><path d="m4683.068 492.26h5.488v7.187h-5.488z" fill="#eaeaea"/><path d="m4683.534 492.919h4.391v5.863h-4.391z" fill="#02a8c4"/><path d="m4687.926 492.919-4.392 5.863v-5.863z" opacity=".1"/><path d="m4689.95 491.832h6.349v8.141h-6.349z" fill="#6196c1"/><path d="m4690.234 491.832h6.35v8.141h-6.35z" fill="#5c7d9e"/><path d="m4690.542 492.315h5.667v7.187h-5.667z" fill="#d8d8d8"/><path d="m4690.827 492.315h5.49v7.187h-5.49z" fill="#eaeaea"/><path d="m4691.293 492.974h4.391v5.863h-4.391z" fill="#02a8c4"/><path d="m4695.685 492.974-4.391 5.863v-5.863z" opacity=".1"/><path d="m4677.788 488.8.135.693c.034.177.069.364.1.557h.007c.034-.193.083-.388.124-.554l.181-.7h.416l.169.675c.045.191.09.382.125.575h.006c.025-.193.06-.384.1-.578l.145-.672h.516l-.519 1.694h-.5l-.159-.6c-.041-.166-.073-.319-.107-.527h-.007a3.966 3.966 0 0 1 -.111.527l-.17.6h-.495l-.492-1.694z" fill="#fff"/><path d="m4680.994 490.495-.031-.17h-.01a.615.615 0 0 1 -.486.208.519.519 0 0 1 -.547-.52c0-.439.4-.651.994-.647v-.025c0-.09-.048-.218-.308-.218a.957.957 0 0 0 -.468.128l-.1-.339a1.4 1.4 0 0 1 .658-.149.658.658 0 0 1 .745.731v.589a2.721 2.721 0 0 0 .024.412zm-.063-.8c-.277 0-.492.062-.492.267a.19.19 0 0 0 .208.2.288.288 0 0 0 .274-.2.355.355 0 0 0 .01-.09z" fill="#fff"/><path d="m4681.861 489.359c0-.25-.007-.412-.014-.558h.454l.017.312h.014a.5.5 0 0 1 .458-.35.546.546 0 0 1 .111.007v.5a.762.762 0 0 0 -.142-.014.339.339 0 0 0 -.361.267.629.629 0 0 0 -.011.118v.859h-.526z" fill="#fff"/><path d="m4683.556 489.816c.017.219.231.322.478.322a1.5 1.5 0 0 0 .468-.069l.068.357a1.672 1.672 0 0 1 -.612.1.813.813 0 0 1 -.9-.863.848.848 0 0 1 .856-.9.751.751 0 0 1 .755.845 1.269 1.269 0 0 1 -.017.208zm.62-.36a.306.306 0 0 0 -.3-.343.346.346 0 0 0 -.326.343z" fill="#fff"/><path d="m4684.981 488.035h.526v.965h.007a.611.611 0 0 1 .208-.173.588.588 0 0 1 .274-.066c.335 0 .593.232.593.741v.991h-.527v-.932c0-.222-.076-.374-.274-.374a.28.28 0 0 0 -.263.183.311.311 0 0 0 -.018.118v1.005h-.526z" fill="#fff"/><path d="m4688.685 489.629a.849.849 0 0 1 -.894.9.829.829 0 0 1 -.876-.873.845.845 0 0 1 .9-.9.824.824 0 0 1 .87.873zm-1.227.017c0 .291.122.51.347.51.2 0 .336-.205.336-.51 0-.252-.1-.509-.336-.509s-.347.263-.347.509z" fill="#fff"/><path d="m4690.609 489.951c0 .222.007.4.014.544h-.458l-.024-.239h-.01a.6.6 0 0 1 -.53.277c-.343 0-.6-.215-.6-.738v-.995h.53v.911c0 .246.08.394.263.394a.283.283 0 0 0 .263-.182.276.276 0 0 0 .018-.115v-1.008h.53z" fill="#fff"/><path d="m4691.029 490.035a1.044 1.044 0 0 0 .454.128c.16 0 .225-.057.225-.143s-.052-.128-.249-.194c-.35-.118-.485-.308-.481-.509 0-.315.269-.554.689-.554a1.13 1.13 0 0 1 .477.1l-.093.363a.833.833 0 0 0 -.367-.1c-.128 0-.2.053-.2.139s.066.121.274.194c.322.111.457.274.46.523 0 .316-.249.548-.734.548a1.208 1.208 0 0 1 -.548-.118z" fill="#fff"/><path d="m4692.942 489.816c.017.219.232.322.478.322a1.5 1.5 0 0 0 .469-.069l.068.357a1.673 1.673 0 0 1 -.613.1.813.813 0 0 1 -.9-.863.848.848 0 0 1 .856-.9.751.751 0 0 1 .755.845 1.407 1.407 0 0 1 -.017.208zm.621-.36a.306.306 0 0 0 -.3-.343.345.345 0 0 0 -.325.343z" fill="#fff"/><path d="m4673.183 487.243h24.673v1.713h-24.673z" opacity=".1"/><path d="m4658.518 496.077h.548v5.04h-.548z" fill="#22231f"/><path d="m4658.518 496.077h.31v5.04h-.31z" fill="#323230"/><path d="m4657.503 501.361h4.104v1.433h-4.104z" fill="#3f3f3d"/><path d="m4657.807 500.057h1.825v1.651h-1.825z" fill="#3f3f3d"/><path d="m4657.818 500.057h.804v1.259h-.804z" fill="#323230"/><path d="m4656.439 501.316h2.183v1.304h-2.183z" fill="#323230"/><path d="m4658.752 496.43a15.406 15.406 0 0 1 1.45 6.044h.391s-.1-4.737-1.474-6.065z" fill="#323230"/><path d="m4661.9 496.186a15.387 15.387 0 0 1 1.449 6.043h.391s-.1-4.737-1.473-6.065z" fill="#323230"/><path d="m4656.172 496.077h.548v5.04h-.548z" fill="#22231f"/><path d="m4656.172 496.077h.31v5.04h-.31z" fill="#323230"/><path d="m4656.165 496.452 2.956.022s1.027 1.141 1.469 6.071l.442-.014s-.325-4.819-1.678-6.522c-.017-.021-3.189-.014-3.189-.014z" fill="#22231f"/><path d="m4659.284 496.452 2.963.022s1.026 1.141 1.469 6.071l.444-.014s-.326-4.819-1.681-6.522c-.017-.021-3.3 0-3.3 0z" fill="#22231f"/><path d="m4655.139 502.931h2.404v2.046h-2.404z" fill="#dd9505"/><path d="m4661.866 505.011 2.363.015v-1.645l-3.149-.014z" fill="#ffd200"/><path d="m4655.132 501.1.007 2a1.689 1.689 0 0 1 2.046 1.9l2.389.013v-1.18l-.927-.028-1.843-2.671z" fill="#dd9505"/><path d="m4664.847 506.243h.794a1.538 1.538 0 0 0 .7-1.8 1.817 1.817 0 0 0 -.62-.931h-.878z" fill="#323230"/><path d="m4665.784 504.876c0 .756-.419 1.367-.937 1.367s-.937-.611-.937-1.367.419-1.366.937-1.366.937.612.937 1.366z" fill="#22231f"/><path d="m4656.8 501.132h.521l1.673 2.418 1.041.028-.464.254-.927-.028z" fill="#ffd604"/><path d="m4656.8 501.132 1.843 2.671.927.028v.26l-1.005-.006-2.045-2.967z" fill="#fff444"/><path d="m4658.242 502.463h4.913l.073 1.174-4.23-.091z" fill="#dd9505"/><path d="m4663.235 504.468.047.693 5.842-.2-5.233-.126-.094-.429z" fill="#b77808"/><path d="m4663.472 504.43.078.517 5.574.016-5.842.2-.047-.693z" fill="#8b631f"/><path d="m4662.192 504.524.047.693 5.842-.2-5.233-.127-.094-.428z" fill="#b77808"/><path d="m4662.429 504.486.078.517 5.574.016-5.842.2-.047-.693z" fill="#8b631f"/><path d="m4660.06 506.3.9-.03a1.48 1.48 0 0 0 .687-1.788 1.808 1.808 0 0 0 -.668-.926l-.936.007z" fill="#323230"/><path d="m4661.049 504.922c.006.756-.437 1.372-.989 1.376s-1-.605-1.009-1.361.437-1.372.989-1.376 1.004.605 1.009 1.361z" fill="#22231f"/><path d="m4660.778 504.9a.769.769 0 1 0 -.741.957.867.867 0 0 0 .741-.957z" fill="#ecf0f1"/><path d="m4660 504.091a.538.538 0 0 1 .384.169.53.53 0 0 0 -.213-.045.7.7 0 0 0 .011 1.383.511.511 0 0 0 .211-.049.528.528 0 0 1 -.381.175.846.846 0 0 1 -.012-1.633z" fill="#c4c4c4"/><path d="m4659.59 504.911a.647.647 0 0 1 .582-.7.53.53 0 0 1 .213.045.984.984 0 0 1 .009 1.289.511.511 0 0 1 -.211.049.647.647 0 0 1 -.593-.683z" fill="#c9c9c9"/><path d="m4660.287 504.9c0-.292-.181-.528-.4-.526s-.391.24-.388.532.179.528.4.526.39-.239.388-.532z" fill="#c9c9c9"/><path d="m4660.273 505.55a.983.983 0 0 0 -.01-1.289.554.554 0 0 0 -.323-.166.41.41 0 0 1 .061 0 .538.538 0 0 1 .384.169.984.984 0 0 1 .009 1.289.528.528 0 0 1 -.381.175.431.431 0 0 1 -.062 0 .552.552 0 0 0 .322-.178z" fill="#c9c9c9"/><path d="m4660.124 504.916c0-.194-.118-.35-.262-.349s-.259.159-.256.352.118.349.261.348.259-.158.257-.351z" fill="#e2e2e2"/><path d="m4661.108 505.037h.782a1.625 1.625 0 0 0 -.95-1.635l-.84-.008a1.476 1.476 0 0 1 1.008 1.643z" fill="#bcbcbc"/><path d="m4660.1 503.389a1.385 1.385 0 0 0 -1.175 1.673l.205-.008c-.061-.956.489-1.44.943-1.443s1.056.268 1.035 1.426h.24a1.392 1.392 0 0 0 -1.248-1.648z" fill="#c9c9c9"/><path d="m4656.11 506.3.9-.03a1.48 1.48 0 0 0 .688-1.788 1.812 1.812 0 0 0 -.669-.926l-.935.007z" fill="#323230"/><path d="m4657.1 504.922c.006.756-.436 1.372-.988 1.376s-1-.605-1.009-1.361.437-1.372.989-1.376 1.001.605 1.008 1.361z" fill="#22231f"/><path d="m4656.827 504.9a.769.769 0 1 0 -.74.957.867.867 0 0 0 .74-.957z" fill="#ecf0f1"/><path d="m4656.051 504.091a.535.535 0 0 1 .383.169.523.523 0 0 0 -.212-.045.7.7 0 0 0 .01 1.383.51.51 0 0 0 .212-.049.53.53 0 0 1 -.382.175.846.846 0 0 1 -.011-1.633z" fill="#c4c4c4"/><path d="m4655.64 504.911a.646.646 0 0 1 .582-.7.523.523 0 0 1 .212.045.979.979 0 0 1 .01 1.289.51.51 0 0 1 -.212.049.646.646 0 0 1 -.592-.683z" fill="#c9c9c9"/><path d="m4656.335 504.9c0-.292-.179-.528-.4-.526s-.391.24-.389.532.18.528.4.526.392-.239.389-.532z" fill="#c9c9c9"/><path d="m4656.323 505.55a.982.982 0 0 0 -.01-1.289.555.555 0 0 0 -.324-.166.423.423 0 0 1 .062 0 .535.535 0 0 1 .383.169.979.979 0 0 1 .01 1.289.53.53 0 0 1 -.382.175.417.417 0 0 1 -.061 0 .556.556 0 0 0 .322-.178z" fill="#c9c9c9"/><path d="m4656.174 504.916c0-.194-.119-.35-.263-.349s-.258.159-.256.352.119.349.262.348.258-.158.257-.351z" fill="#e2e2e2"/><path d="m4657.158 505.037h.782a1.624 1.624 0 0 0 -.95-1.635l-.84-.008a1.477 1.477 0 0 1 1.008 1.643z" fill="#bcbcbc"/><path d="m4656.15 503.389a1.385 1.385 0 0 0 -1.175 1.673l.205-.008c-.061-.956.489-1.44.943-1.443s1.055.268 1.035 1.426h.24a1.392 1.392 0 0 0 -1.248-1.648z" fill="#c9c9c9"/><path d="m4665.462 498.785h2.133v1.985h-2.133z" fill="#fcc491"/><path d="m4663.89 498.785h1.619v1.985h-1.619z" fill="#cb8371"/><path d="m4666.022 498.785h.953v.503h-.953z" fill="#eab488"/><path d="m4663.89 500.771 1.619-1.985v1.985z" fill="#b26e60"/><path d="m4666.43 500.599h2.113v2.068h-2.113z" fill="#fcc491"/><path d="m4664.871 500.599h1.603v2.068h-1.603z" fill="#cb8371"/><path d="m4666.984 500.6h.944v.524h-.944z" fill="#eab488"/><path d="m4664.871 502.667 1.6-2.068v2.068z" fill="#b26e60"/><path d="m4664.272 500.599h2.112v2.068h-2.112z" fill="#fcc491"/><path d="m4662.715 500.599h1.603v2.068h-1.603z" fill="#cb8371"/><path d="m4664.827 500.6h.944v.524h-.944z" fill="#eab488"/><path d="m4662.715 502.667 1.6-2.068v2.068z" fill="#b26e60"/><path d="m4666.646 502.569h2.571v2.394h-2.571z" fill="#fcc491"/><path d="m4664.749 502.569h1.951v2.394h-1.951z" fill="#cb8371"/><path d="m4667.319 502.569h1.149v.607h-1.149z" fill="#eab488"/><path d="m4664.749 504.963 1.951-2.394v2.394z" fill="#b26e60"/><path d="m4664.019 502.569h2.571v2.394h-2.571z" fill="#fcc491"/><path d="m4662.122 502.569h1.952v2.394h-1.952z" fill="#cb8371"/><path d="m4664.694 502.569h1.149v.607h-1.149z" fill="#eab488"/><path d="m4662.122 504.963 1.952-2.394v2.394z" fill="#b26e60"/><path d="m4698.21 505.334 1.009-.029a1.8 1.8 0 0 0 .789-2.134 2.175 2.175 0 0 0 -.744-1.117h-1.054z" fill="#323230"/><path d="m4699.335 503.694c0 .906-.5 1.64-1.125 1.64s-1.124-.734-1.124-1.64.5-1.64 1.124-1.64 1.125.734 1.125 1.64z" fill="#22231f"/><path d="m4684.89 505.4.877-.03a1.645 1.645 0 0 0 .722-1.954 1.984 1.984 0 0 0 -.682-1.023h-.964z" fill="#323230"/><path d="m4685.873 503.9c0 .829-.461 1.5-1.03 1.5s-1.03-.674-1.03-1.5.461-1.5 1.03-1.5 1.03.666 1.03 1.5z" fill="#22231f"/><path d="m4708.014 505.343.851-.027a1.555 1.555 0 0 0 .681-1.843 1.88 1.88 0 0 0 -.643-.965h-.91z" fill="#323230"/><path d="m4708.964 503.925c0 .782-.434 1.416-.971 1.416s-.971-.634-.971-1.416.436-1.417.971-1.417.971.634.971 1.417z" fill="#22231f"/><path d="m4699.602 502.707h7.284v1.167h-7.284z" fill="#353535"/><path d="m4699.588 494.112h7.946v8.598h-7.946z" fill="#9da3a1"/><path d="m4703.988 495.326h6.673v.403h-6.673z" fill="#ffd805"/><path d="m4703.988 495.729h6.673v.572h-6.673z" fill="#fdee4a"/><path d="m4703.971 496.3h6.683v.907h-6.683z" fill="#ffd805"/><path d="m4703.994 497.88h6.66v2.79h-6.66z" fill="#03bce8"/><path d="m4703.917 500.67h6.748v1.983h-6.748z" fill="#ffd805"/><path d="m4707.837 495.4.022-1.305s2.771-.082 2.792 1.305z" fill="#edc107"/><path d="m4701.164 494.148 7.11-.044-.218 1.288-5.945-.023z" fill="#edc107"/><path d="m4701.181 495.326h2.813v7.387h-2.813z" fill="#d8b007"/><path d="m4701.181 495.46-.017-1.312s2.809-.076 2.83 1.312z" fill="#d8b007"/><path d="m4701.181 495.729h2.819v.56h-2.819z" fill="#edc107"/><path d="m4703.994 500.67 1.574 2 3.514.033 1.584-2.034z" fill="#363836"/><path d="m4704 497.906 2.942 2.748 1.58.016-3.043-2.773z" fill="#2fcfea"/><path d="m4706.291 497.906 2.941 2.748h.708l-2.975-2.74z" fill="#2fcfea"/><path d="m4701.187 497.466h9.472v.437h-9.472z" fill="#352f33"/><path d="m4701.182 497.208h9.469v.258h-9.469z" fill="#363836"/><path d="m4701.182 497.208h2.823v.698h-2.823z" opacity=".1"/><path d="m4703.988 500.654h6.673v.487h-6.673z" fill="#d8b007"/><path d="m4703.994 502.654h6.769v.516h-6.769z" fill="#ffd805"/><path d="m4703.921 503.73h6.842v.515h-6.842z" fill="#ffd805"/><path d="m4703.915 503.17h6.837v.56h-6.837z" fill="#363836"/><path d="m4705.192 501.5h4.292v.117h-4.292z" fill="#cde0cd"/><path d="m4705.192 501.716h4.292v.117h-4.292z" fill="#cde0cd"/><path d="m4705.192 501.932h4.292v.117h-4.292z" fill="#cde0cd"/><path d="m4703.917 502.654h1.623v.513h-1.623z" fill="#dae0de"/><path d="m4709.161 502.654h1.624v.513h-1.624z" fill="#dae0de"/><path d="m4701.752 497.886h1.613v4.872h-1.613z" fill="#363836"/><path d="m4701.752 497.88h.157v4.83h-.157z" fill="#352f33"/><path d="m4703.231 497.88h.157v4.83h-.157z" fill="#352f33"/><path d="m4702.088 498.183h.908v2.437h-.908z" fill="#03bce8"/><path d="m4702.1 499.091.9 1.529v-.582l-.908-1.53z" fill="#2fcfea"/><path d="m4702.088 498.317.912 1.383v-.48l-.661-1.033h-.248z" fill="#2fcfea"/><path d="m4677.481 494.112h22.107v8.042h-22.107z" fill="#bfc9c6"/><path d="m4677.481 494.112h22.074v3.14h-22.074z" fill="#ccd6d3"/><path d="m4703.921 503.73h6.833v.206h-6.833z" fill="#d8b007"/><path d="m4677.475 502.139h22.13v.265h-22.13z" fill="#ccd6d3"/><path d="m4677.475 502.138h22.128v.58h-22.128z" fill="#2f302b"/><path d="m4700.684 504.276.539.038s.372-1.42.9-1.628l-.423-.286a1.6 1.6 0 0 0 -1.016 1.876z" fill="#131314"/><path d="m4701.867 505.361.874-.027a1.461 1.461 0 0 0 .711-1.771 1.8 1.8 0 0 0 -.671-.927h-.949z" fill="#323230"/><path d="m4702.845 504c0 .751-.453 1.361-1.013 1.361s-1.013-.61-1.013-1.361.454-1.362 1.013-1.362 1.013.607 1.013 1.362z" fill="#22231f"/><path d="m4702.57 503.971a.776.776 0 1 0 -.757.946.868.868 0 0 0 .757-.946z" fill="#ecf0f1"/><path d="m4702.176 503.334a.548.548 0 0 0 -.388-.171.838.838 0 0 0 0 1.625.552.552 0 0 0 .388-.171.962.962 0 0 0 0-1.283z" fill="#c9c9c9"/><path d="m4702.072 503.97c0-.291-.178-.527-.4-.527a.547.547 0 1 0 .4.527z" fill="#c9c9c9"/><path d="m4702.054 504.617a.963.963 0 0 0 0-1.283.57.57 0 0 0 -.327-.168.6.6 0 0 1 .061 0 .548.548 0 0 1 .388.171.962.962 0 0 1 0 1.283.552.552 0 0 1 -.388.171.4.4 0 0 1 -.061 0 .574.574 0 0 0 .327-.174z" fill="#c9c9c9"/><path d="m4701.907 503.984c0-.193-.117-.348-.263-.348a.362.362 0 1 0 .263.348z" fill="#e2e2e2"/><path d="m4702.827 504.354.859.02s.129-1.954-1.064-2.063l-.989-.029a2.061 2.061 0 0 1 1.194 2.072z" fill="#49595a"/><path d="m4700.684 504.276s.025-1.866 1.155-1.708c0 0 .988.1.821 1.8l.167-.01s.191-2.033-1.117-2.063c0 0-1.232-.058-1.18 1.985z" fill="#424f4f"/><path d="m4677.475 502.249h17.834v.906h-17.834z" fill="#2f302b"/><path d="m4677.475 502.618h22.116v.53h-22.116z" fill="#22231f"/><path d="m4691.809 504.257.57.042s.394-1.5.95-1.722l-.448-.3a1.685 1.685 0 0 0 -1.072 1.98z" fill="#131314"/><path d="m4693.06 505.4.925-.028a1.546 1.546 0 0 0 .751-1.873 1.887 1.887 0 0 0 -.709-.98h-1z" fill="#323230"/><path d="m4694.1 503.964c0 .794-.479 1.439-1.071 1.439s-1.072-.645-1.072-1.439.48-1.44 1.072-1.44 1.071.644 1.071 1.44z" fill="#22231f"/><path d="m4693.8 503.936a.821.821 0 1 0 -.8 1 .917.917 0 0 0 .8-1z" fill="#ecf0f1"/><path d="m4693.387 503.261a.578.578 0 0 0 -.409-.181.886.886 0 0 0 0 1.719.578.578 0 0 0 .409-.181 1.016 1.016 0 0 0 0-1.357z" fill="#c9c9c9"/><path d="m4693.277 503.934a.438.438 0 1 0 -.421.557c.233 0 .421-.249.421-.557z" fill="#c9c9c9"/><path d="m4693.258 504.618a1.015 1.015 0 0 0 0-1.357.6.6 0 0 0 -.346-.176.489.489 0 0 1 .066-.005.578.578 0 0 1 .409.181 1.016 1.016 0 0 1 0 1.357.578.578 0 0 1 -.409.181.488.488 0 0 1 -.066 0 .6.6 0 0 0 .346-.181z" fill="#c9c9c9"/><path d="m4693.1 503.949c0-.2-.124-.368-.277-.368a.382.382 0 0 0 0 .736c.156 0 .277-.165.277-.368z" fill="#e2e2e2"/><path d="m4694.075 504.341.909.02s.136-2.066-1.126-2.181l-1.044-.031a2.179 2.179 0 0 1 1.261 2.192z" fill="#49595a"/><path d="m4691.809 504.257s.028-1.972 1.222-1.8c0 0 1.044.1.868 1.9l.176-.01s.2-2.15-1.18-2.181c0 0-1.3-.063-1.248 2.1z" fill="#424f4f"/><path d="m4694.813 504.257.571.042s.392-1.5.949-1.722l-.448-.3a1.684 1.684 0 0 0 -1.072 1.98z" fill="#131314"/><path d="m4696.064 505.4.924-.028a1.546 1.546 0 0 0 .752-1.873 1.9 1.9 0 0 0 -.709-.98h-1z" fill="#323230"/><path d="m4697.1 503.964c0 .794-.478 1.439-1.07 1.439s-1.072-.645-1.072-1.439.48-1.44 1.072-1.44 1.07.644 1.07 1.44z" fill="#22231f"/><path d="m4696.808 503.936a.821.821 0 1 0 -.8 1 .917.917 0 0 0 .8-1z" fill="#ecf0f1"/><path d="m4696.392 503.261a.586.586 0 0 0 -.411-.181.887.887 0 0 0 0 1.719.586.586 0 0 0 .411-.181 1.019 1.019 0 0 0 0-1.357z" fill="#c9c9c9"/><path d="m4696.281 503.934a.438.438 0 1 0 -.42.557c.231 0 .42-.249.42-.557z" fill="#c9c9c9"/><path d="m4696.262 504.618a1.019 1.019 0 0 0 0-1.357.606.606 0 0 0 -.346-.176.463.463 0 0 1 .065-.005.586.586 0 0 1 .411.181 1.019 1.019 0 0 1 0 1.357.586.586 0 0 1 -.411.181.464.464 0 0 1 -.065 0 .6.6 0 0 0 .346-.181z" fill="#c9c9c9"/><path d="m4696.107 503.949c0-.2-.125-.368-.277-.368a.382.382 0 0 0 0 .736c.152 0 .277-.165.277-.368z" fill="#e2e2e2"/><path d="m4697.079 504.341.909.02s.136-2.066-1.126-2.181l-1.045-.031a2.18 2.18 0 0 1 1.262 2.192z" fill="#49595a"/><path d="m4694.813 504.257s.027-1.972 1.221-1.8c0 0 1.045.1.869 1.9l.176-.01s.2-2.15-1.18-2.181c0 0-1.3-.063-1.248 2.1z" fill="#424f4f"/><path d="m4678.482 504.173.569.042s.394-1.5.949-1.722l-.447-.3a1.683 1.683 0 0 0 -1.071 1.98z" fill="#131314"/><path d="m4679.732 505.321.925-.028a1.547 1.547 0 0 0 .752-1.873 1.9 1.9 0 0 0 -.71-.98h-1z" fill="#323230"/><path d="m4680.767 503.88c0 .794-.479 1.438-1.071 1.438s-1.072-.644-1.072-1.438.48-1.44 1.072-1.44 1.071.644 1.071 1.44z" fill="#22231f"/><path d="m4680.476 503.852a.821.821 0 1 0 -.8 1 .917.917 0 0 0 .8-1z" fill="#ecf0f1"/><path d="m4680.059 503.178a.58.58 0 0 0 -.41-.182.887.887 0 0 0 0 1.719.579.579 0 0 0 .41-.181 1.015 1.015 0 0 0 0-1.356z" fill="#c9c9c9"/><path d="m4679.949 503.851a.5.5 0 0 0 -.42-.557c-.233 0-.421.249-.421.557a.5.5 0 0 0 .421.557c.231 0 .42-.25.42-.557z" fill="#c9c9c9"/><path d="m4679.93 504.534a1.018 1.018 0 0 0 0-1.356.6.6 0 0 0 -.346-.177.47.47 0 0 1 .065-.005.58.58 0 0 1 .41.182 1.015 1.015 0 0 1 0 1.356.579.579 0 0 1 -.41.181c-.021 0-.044 0-.065 0a.6.6 0 0 0 .346-.181z" fill="#c9c9c9"/><path d="m4679.775 503.865c0-.2-.125-.368-.278-.368a.383.383 0 1 0 .278.368z" fill="#e2e2e2"/><path d="m4680.748 504.257.908.02s.136-2.066-1.126-2.18l-1.044-.031a2.179 2.179 0 0 1 1.262 2.191z" fill="#49595a"/><path d="m4678.482 504.173s.027-1.972 1.221-1.8c0 0 1.045.1.868 1.9l.177-.01s.2-2.15-1.181-2.181c0 0-1.3-.062-1.248 2.1z" fill="#424f4f"/><path d="m4681.485 504.173.57.042s.394-1.5.95-1.722l-.448-.3a1.685 1.685 0 0 0 -1.072 1.98z" fill="#131314"/><path d="m4682.736 505.321.924-.028a1.547 1.547 0 0 0 .753-1.873 1.9 1.9 0 0 0 -.711-.98h-1z" fill="#323230"/><path d="m4683.771 503.88c0 .794-.479 1.438-1.071 1.438s-1.072-.644-1.072-1.438.479-1.44 1.072-1.44 1.071.644 1.071 1.44z" fill="#22231f"/><path d="m4683.479 503.852a.821.821 0 1 0 -.8 1 .916.916 0 0 0 .8-1z" fill="#ecf0f1"/><path d="m4683.063 503.178a.581.581 0 0 0 -.41-.182.887.887 0 0 0 0 1.719.58.58 0 0 0 .41-.181 1.018 1.018 0 0 0 0-1.356z" fill="#c9c9c9"/><path d="m4682.953 503.851a.438.438 0 1 0 -.421.557.5.5 0 0 0 .421-.557z" fill="#c9c9c9"/><path d="m4682.934 504.534a1.018 1.018 0 0 0 0-1.356.6.6 0 0 0 -.346-.177.459.459 0 0 1 .065-.005.581.581 0 0 1 .41.182 1.018 1.018 0 0 1 0 1.356.58.58 0 0 1 -.41.181c-.022 0-.044 0-.065 0a.6.6 0 0 0 .346-.181z" fill="#c9c9c9"/><path d="m4682.779 503.865c0-.2-.125-.368-.278-.368a.383.383 0 1 0 .278.368z" fill="#e2e2e2"/><path d="m4683.751 504.257.909.02s.136-2.066-1.126-2.18l-1.045-.031a2.179 2.179 0 0 1 1.262 2.191z" fill="#49595a"/><path d="m4681.485 504.173s.027-1.972 1.221-1.8c0 0 1.045.1.869 1.9l.176-.01s.2-2.15-1.18-2.181c0 0-1.3-.062-1.249 2.1z" fill="#424f4f"/><path d="m4677.475 501.764h22.128v.497h-22.128z" fill="#22231f"/></g></svg>