<svg xmlns="http://www.w3.org/2000/svg" xmlns:xlink="http://www.w3.org/1999/xlink" width="107.326" height="107.356" viewBox="0 0 107.326 107.356">
  <defs>
    <linearGradient id="linear-gradient" y1="0.5" x2="1" y2="0.5" gradientUnits="objectBoundingBox">
      <stop offset="0" stop-color="#009790"/>
      <stop offset="0.24" stop-color="#009891"/>
      <stop offset="0.35" stop-color="#009891"/>
      <stop offset="0.57" stop-color="#00787e"/>
      <stop offset="0.88" stop-color="#122559"/>
      <stop offset="1" stop-color="#13245a"/>
    </linearGradient>
  </defs>
  <g id="true" transform="translate(-6314.831 -1155.244)">
    <path id="Path_5771" data-name="Path 5771" d="M6368.911,1155.244c29.47.013,53.264,24.249,53.246,54.236-.018,29.349-24.357,53.142-54.339,53.12-29.386-.023-53.018-24.314-52.987-54.467C6314.861,1178.994,6339.158,1155.231,6368.911,1155.244Zm33.732,53.368a34.637,34.637,0,1,0-34.744,34.468A34.611,34.611,0,0,0,6402.643,1208.612Z" fill="#e1d9eb"/>
    <path id="Path_5772" data-name="Path 5772" d="M6402.643,1208.612a34.637,34.637,0,1,1-34.461-34.824A34.459,34.459,0,0,1,6402.643,1208.612Zm-12.426-8.954c-.138-2.325-1.985-3.535-3.615-4.806s-2.979-.347-4.225.907c-5.716,5.754-11.543,11.4-17.149,17.259-1.984,2.073-3.352,2.585-5.365.117-1.734-2.126-3.955-3.848-5.778-5.91-2.4-2.716-4.228-1.837-6.411.375s-2.267,3.976-.01,6.139c3.981,3.816,7.955,7.654,11.682,11.712,2.412,2.625,4.167,2.147,6.406-.136,7.382-7.528,14.882-14.94,22.333-22.4C6389,1202,6390.018,1201.151,6390.217,1199.658Z" fill="url(#linear-gradient)"/>
    <path id="Path_5773" data-name="Path 5773" d="M6390.217,1199.658c-.2,1.493-1.219,2.343-2.132,3.257-7.451,7.46-14.951,14.872-22.333,22.4-2.239,2.283-3.994,2.761-6.406.136-3.727-4.058-7.7-7.9-11.682-11.712-2.257-2.163-2.181-3.918.01-6.139s4.011-3.091,6.411-.375c1.823,2.062,4.044,3.784,5.778,5.91,2.013,2.468,3.381,1.956,5.365-.117,5.606-5.859,11.433-11.505,17.149-17.259,1.246-1.254,2.584-2.186,4.225-.907S6390.079,1197.333,6390.217,1199.658Z" fill="#fff"/>
  </g>
</svg>
