<svg height="64.851" viewBox="0 0 83.236 64.851" width="83.236" xmlns="http://www.w3.org/2000/svg" xmlns:xlink="http://www.w3.org/1999/xlink"><linearGradient id="a" gradientUnits="objectBoundingBox" x1=".5" x2=".5" y1=".772" y2=".108"><stop offset="0" stop-color="#fbdad0"/><stop offset="1" stop-color="#fbd0c4"/></linearGradient><linearGradient id="b" x1=".5" x2=".5" xlink:href="#a" y1=".772" y2=".108"/><linearGradient id="c" gradientUnits="objectBoundingBox" x1=".602" x2=".201" y1=".367" y2="1.323"><stop offset="0" stop-color="#fbb8a6"/><stop offset="1" stop-color="#fbdad0" stop-opacity=".102"/></linearGradient><radialGradient id="d" cx=".5" cy=".5" gradientTransform="matrix(.798 -.351 .152 .476 31.334 -724.097)" gradientUnits="objectBoundingBox" r=".599"><stop offset="0" stop-color="#fa8787"/><stop offset="1" stop-color="#facdab" stop-opacity="0"/></radialGradient><g transform="translate(-4765.738 -309.677)"><g><path d="m4812.416 335.3s-7.446-.2-7.938-.168-1.47.365-1.9.173-1.051-1.246-1.437-1.212a.628.628 0 0 0 -.58.425c-.008.106-.095.892-.326 1.072s-.579.243-.606.142.171-1.066.162-1.515a2.075 2.075 0 0 1 .73-1.3c.235-.135.806-.47 1.126-.649s.721-.04 1.1.279a4.418 4.418 0 0 0 1.084.7c.093-.009 7.816-1.617 7.816-1.617s.978.922.769 3.67z" fill="#f2c1b3"/><path d="m4812.892 325.734c-.212.532-.5 4.186-.682 4.359s-.445.067-.386.284-.03.191-.1.235-.721-.23-.754 0-.045.588-.072.787a31.2 31.2 0 0 0 1.351 3.739 5.523 5.523 0 0 0 2.521.323c.25-.205.243-1.131.6-1.326a1.886 1.886 0 0 0 1.243-1.39c.13-.9 1.781-2.821 1.967-5.146s-.957-4-2.238-4.281-2.763.69-3.45 2.416z" fill="#ffa43c"/><path d="m4810.917 331.214a4.572 4.572 0 0 1 1.216 1.964 6.153 6.153 0 0 1 .338 2.059.482.482 0 0 1 -.4.336c-.312.062-1.39.259-1.574.253a.642.642 0 0 1 -.358-.176 4.3 4.3 0 0 0 -.3-1.57 11.428 11.428 0 0 0 -.83-1.7s-.167-.207-.077-.278 1.099-.502 1.985-.888z" fill="#e6851e"/><path d="m4811.835 336.627s-7.4-.872-7.89-.889-1.5.229-1.9 0-.933-1.337-1.321-1.338a.627.627 0 0 0 -.616.369c-.018.106-.176.88-.423 1.039s-.6.189-.616.086.267-1.046.3-1.494a2.069 2.069 0 0 1 .846-1.227c.246-.112.845-.395 1.18-.544s.722.026 1.074.379a4.4 4.4 0 0 0 1.016.792c.093 0 7.931-.9 7.931-.9s.877 1.007.419 3.727z" fill="url(#a)"/><path d="m4826.393 368.335s.518.371.589.442.079.308-.079.607-2.862 4.6-2.995 4.782a1.056 1.056 0 0 1 -.889.362h-5.556a.214.214 0 0 1 -.207-.177v-.451s4.618-.317 5.477-1.2 3.66-4.365 3.66-4.365z" fill="#fff"/><path d="m4819.774 372.233s.614-.3.72-.581 1.044-2.378 1.044-2.378h1.525s-.615 2.611-1.6 3.118a5.871 5.871 0 0 1 -1.268.554z" fill="#ffa13c"/><path d="m4822.441 369.323s-.655 2.518-1.113 2.853a7.958 7.958 0 0 1 -1.092.634v1.09h2.4a1.22 1.22 0 0 0 .968-.6c.3-.423 2.646-4.121 2.752-4.346s.238-.4 0-.673a5.133 5.133 0 0 0 -1.876-1.308z" fill="#13245a"/><path d="m4821.819 372.587a.3.3 0 1 1 -.3-.3.3.3 0 0 1 .3.3z" fill="#333"/><path d="m4821.532 372.746a.159.159 0 0 1 -.139-.082 2.664 2.664 0 0 0 -1-.8.159.159 0 0 1 -.076-.211.157.157 0 0 1 .21-.076 2.913 2.913 0 0 1 1.144.937.159.159 0 0 1 -.062.215.165.165 0 0 1 -.077.017z" fill="#fff"/><path d="m4822.355 371.778a.3.3 0 1 1 -.3-.3.3.3 0 0 1 .3.3z" fill="#333"/><path d="m4822.068 371.936a.159.159 0 0 1 -.123-.058 2.6 2.6 0 0 0 -1.232-.665.159.159 0 0 1 .069-.31 2.9 2.9 0 0 1 1.409.775.159.159 0 0 1 -.023.223.156.156 0 0 1 -.1.035z" fill="#fff"/><path d="m4822.733 370.813a.3.3 0 1 1 -.3-.3.3.3 0 0 1 .3.3z" fill="#333"/><path d="m4822.446 370.972a.159.159 0 0 1 -.1-.036 3.115 3.115 0 0 0 -1.311-.434.159.159 0 0 1 .032-.316 3.377 3.377 0 0 1 1.478.5.159.159 0 0 1 -.1.282z" fill="#fff"/><path d="m4820.1 368.125s-.185.247-.115.432.511.281.669.827.132.687.212.863a.634.634 0 0 0 .678.22 5.466 5.466 0 0 0 2.386-1.743c.881-1.189.986-1.392.986-1.621s.044-.361-.141-.528-.651-.5-.915-.748-.432-.564-.573-.617a1.161 1.161 0 0 0 -.44 0z" fill="#b8c1d6"/><path d="m4824.069 368.2c-.127-.182-1.061-1.154-1.345-1.409a1.063 1.063 0 0 0 -.675-.265l.005.211a.818.818 0 0 1 .529.21c.27.245 1.195 1.2 1.314 1.374a1.119 1.119 0 0 1 .139.249l.143-.2a1.645 1.645 0 0 0 -.11-.17z" fill="#ad6e42"/><path d="m4823.766 368.646c-.127-.182-1.062-1.153-1.345-1.409a1.062 1.062 0 0 0 -.675-.265v.211a.814.814 0 0 1 .528.21c.271.245 1.2 1.2 1.314 1.374a1.342 1.342 0 0 1 .126.213c.05-.057.1-.117.146-.179-.025-.054-.06-.101-.094-.155z" fill="#ad6e42"/><path d="m4820.712 373.9a4.056 4.056 0 0 0 -.37-1.3c-.255-.378-.409-.475-.475-.471a10.319 10.319 0 0 0 -1.964.612c-.524.286-.647.472-.647.753v.4z" fill="#d9d9d9"/><path d="m4818.589 342.848s-4.57 9.838-5.415 11.508-.819 2.912.5 4.84 5.236 7.124 5.308 7.78-.245 1.149.178 1.273a1.765 1.765 0 0 0 1.58-.164 6.619 6.619 0 0 0 1.991-1.888 3.388 3.388 0 0 0 .44-1.1c.1-.264.158-.581 0-.753s-.779-.264-1.03-.475a27.838 27.838 0 0 1 -1.872-4.437 8.459 8.459 0 0 0 -.774-2.217 4.383 4.383 0 0 0 -.511-.54s.4-.414.264-.692-.357-.5-.3-.647 5.032-4.6 6.38-6.34 2.641-4.042.977-7.054-5.682-3.459-7.716.906z" fill="#2b3752"/><path d="m4848.337 368.335s.518.371.588.442.08.308-.079.607-2.862 4.6-2.994 4.782a1.056 1.056 0 0 1 -.889.362h-5.557a.215.215 0 0 1 -.207-.177v-.451s4.619-.317 5.477-1.2 3.661-4.365 3.661-4.365z" fill="#fff"/><path d="m4841.718 372.233s.614-.3.72-.581 1.043-2.378 1.043-2.378h1.526s-.616 2.611-1.6 3.118a5.858 5.858 0 0 1 -1.268.554z" fill="#ffa13c"/><path d="m4844.385 369.323s-.655 2.518-1.113 2.853a8.03 8.03 0 0 1 -1.092.634v1.09h2.4a1.221 1.221 0 0 0 .969-.6c.3-.423 2.646-4.121 2.752-4.346s.237-.4 0-.673a5.129 5.129 0 0 0 -1.876-1.308z" fill="#13245a"/><path d="m4843.763 372.587a.3.3 0 1 1 -.3-.3.3.3 0 0 1 .3.3z" fill="#333"/><path d="m4843.476 372.746a.16.16 0 0 1 -.139-.082 2.661 2.661 0 0 0 -1-.8.159.159 0 1 1 .135-.287 2.908 2.908 0 0 1 1.143.937.157.157 0 0 1 -.062.215.159.159 0 0 1 -.077.017z" fill="#fff"/><path d="m4844.3 371.778a.3.3 0 1 1 -.3-.3.3.3 0 0 1 .3.3z" fill="#333"/><path d="m4844.011 371.936a.156.156 0 0 1 -.122-.058 2.609 2.609 0 0 0 -1.232-.665.159.159 0 0 1 .069-.31 2.886 2.886 0 0 1 1.408.775.158.158 0 0 1 -.023.223.154.154 0 0 1 -.1.035z" fill="#fff"/><path d="m4844.676 370.813a.3.3 0 1 1 -.3-.3.3.3 0 0 1 .3.3z" fill="#333"/><path d="m4844.389 370.972a.155.155 0 0 1 -.1-.036 3.117 3.117 0 0 0 -1.311-.434.159.159 0 1 1 .032-.316 3.373 3.373 0 0 1 1.477.5.157.157 0 0 1 .025.222.162.162 0 0 1 -.123.064z" fill="#fff"/><path d="m4842.039 368.125s-.185.247-.114.432.51.281.669.827.132.687.211.863a.633.633 0 0 0 .678.22 5.464 5.464 0 0 0 2.387-1.743c.88-1.189.986-1.392.986-1.621s.044-.361-.141-.528-.652-.5-.916-.748-.432-.564-.572-.617a1.164 1.164 0 0 0 -.441 0z" fill="#b8c1d6"/><path d="m4846.013 368.2c-.127-.182-1.062-1.154-1.345-1.409a1.062 1.062 0 0 0 -.675-.265v.211a.816.816 0 0 1 .528.21c.271.245 1.2 1.2 1.314 1.374a1.094 1.094 0 0 1 .14.249c.05-.069.1-.134.143-.2a1.915 1.915 0 0 0 -.105-.17z" fill="#ad6e42"/><path d="m4845.71 368.646c-.128-.182-1.062-1.153-1.346-1.409a1.059 1.059 0 0 0 -.675-.265v.211a.817.817 0 0 1 .529.21c.27.245 1.195 1.2 1.314 1.374a1.309 1.309 0 0 1 .125.213c.05-.057.1-.117.147-.179-.026-.054-.06-.101-.094-.155z" fill="#ad6e42"/><path d="m4842.656 373.9a4.064 4.064 0 0 0 -.37-1.3c-.256-.378-.41-.475-.476-.471a10.327 10.327 0 0 0 -1.964.612c-.524.286-.647.472-.647.753v.4z" fill="#d9d9d9"/><path d="m4833.533 334.769a17.737 17.737 0 0 1 2.016.1c.37.092.515.307.383.569a10.389 10.389 0 0 1 -2.139 3.01 7.367 7.367 0 0 0 -1.533 1.254 5.071 5.071 0 0 1 -1.466.688l-.687-1.585.053-.846z" fill="#d48026"/><path d="m4831.824 338.036a3.931 3.931 0 0 1 -2.028 1.007c-1.02.059-.983-1.364-.983-1.364l1.928-.616z" fill="#ffa13c"/><path d="m4820.835 341.743s7.4 15.674 8.207 17.048 1.409 1.726 3.381 2.642a57.917 57.917 0 0 1 7.961 5.292c.528.581.264 1.189.66 1.427a2.094 2.094 0 0 0 2.087-.212 12.7 12.7 0 0 0 1.836-2.391c.066-.277.185-.977-.092-1.149s-1.123-.29-1.757-.634-5.112-6.1-6.089-6.548-1.916-.611-2.127-.822-.3-.423-.528-.463-.463-.039-.41-.224-.039-.449-.224-.449-.344-.231-.383-.466-1.268-11.193-1.744-13.051-.845-3.482-1.823-4.176z" fill="#334161"/><path d="m4822.538 316.761a5.613 5.613 0 0 1 -2.69.643 3.553 3.553 0 0 0 -2.62.659c-.458.384-3.018 3.162-3.219 4.818l3.673-.634z" fill="#ffa13c"/><path d="m4814.415 324.748a11.479 11.479 0 0 0 0 6.5c1.072 3.324 3.223 6.367 3.54 8.375a6.765 6.765 0 0 1 0 2.858 2.07 2.07 0 0 0 .344 1.047 15.922 15.922 0 0 1 3.672-1.047c1.981-.3 7.872-1.749 8.665-4.972a19.05 19.05 0 0 1 -6.1-5.877 64.421 64.421 0 0 1 -3.83-8.811z" fill="#fff"/><g fill="#d3e0d3"><path d="m4821.3 324.446a18.082 18.082 0 0 1 -6.372 1.792c-.287.025-.576.061-.861.1-.029.2-.056.421-.077.653.329-.053.664-.1.993-.126a19.847 19.847 0 0 0 6.546-1.827c-.082-.205-.159-.405-.229-.592z"/><path d="m4816.177 329.6a20.023 20.023 0 0 0 6.455-1.865c-.085-.2-.169-.391-.25-.584a18.214 18.214 0 0 1 -6.267 1.818 16.747 16.747 0 0 0 -2.106.359q.035.312.09.631a16.334 16.334 0 0 1 2.078-.359z"/><path d="m4828.292 335.842q-.239-.193-.485-.407c-1.871 1.914-5.845 2.868-7.534 3.1a17.768 17.768 0 0 0 -2.443.541 4.752 4.752 0 0 1 .125.544c0 .027.008.051.012.078a17.13 17.13 0 0 1 2.392-.535c.066-.008 5.5-.789 7.933-3.321z"/><path d="m4823.226 329.063c-.089-.192-.177-.385-.264-.577a18.211 18.211 0 0 1 -6.253 1.851 17.524 17.524 0 0 0 -2.427.45q.059.23.133.459c.016.05.035.1.052.15a16.783 16.783 0 0 1 2.307-.428 19.978 19.978 0 0 0 6.452-1.905z"/><path d="m4830.271 337.281c-.144-.092-.325-.212-.536-.357-1.1 2.7-6.277 4.048-8.274 4.345a20.033 20.033 0 0 0 -3.463.9 2.341 2.341 0 0 0 -.043.306 1.275 1.275 0 0 0 .042.369 19.9 19.9 0 0 1 3.557-.952c.075-.007 7.146-1.105 8.717-4.611z"/><path d="m4822.068 326.4c-.083-.2-.163-.4-.239-.59a18.16 18.16 0 0 1 -6.308 1.8 15.692 15.692 0 0 0 -1.578.236v.646a15.232 15.232 0 0 1 1.632-.25 19.953 19.953 0 0 0 6.493-1.842z"/><path d="m4819.762 337.8c.062-.008 4.891-.672 7.5-2.853q-.229-.213-.46-.441c-2 1.64-5.55 2.459-7.12 2.666a17.386 17.386 0 0 0 -2.373.507c.09.2.173.4.248.59a16.616 16.616 0 0 1 2.205-.469z"/><path d="m4819.164 336.432c.059-.007 4.411-.582 7.093-2.491-.143-.155-.284-.313-.423-.477a17.16 17.16 0 0 1 -6.749 2.339 17.449 17.449 0 0 0 -2.426.508c.1.2.192.391.284.581a16.538 16.538 0 0 1 2.221-.46z"/><path d="m4820.957 340.53c.07-.01 6.249-.933 8.358-3.9-.16-.115-.328-.241-.506-.377-1.6 2.263-6.111 3.39-7.942 3.653a18.446 18.446 0 0 0 -2.794.662c.022.257.03.473.028.658a18.263 18.263 0 0 1 2.856-.696z"/><path d="m4817.372 332.334a19.887 19.887 0 0 0 6.486-1.966c-.095-.187-.189-.377-.282-.568a18.162 18.162 0 0 1 -6.273 1.9 17.869 17.869 0 0 0 -2.547.495q.114.3.237.6a16.966 16.966 0 0 1 2.379-.461z"/><path d="m4817.969 333.7a19.712 19.712 0 0 0 6.571-2.059l-.007-.011c-.1-.176-.2-.358-.3-.542a18.022 18.022 0 0 1 -6.337 1.982 17.884 17.884 0 0 0 -2.561.515q.133.3.271.585a16.98 16.98 0 0 1 2.363-.47z"/><path d="m4818.567 335.066a19.324 19.324 0 0 0 6.769-2.225q-.19-.254-.369-.516a17.756 17.756 0 0 1 -6.476 2.112 17.672 17.672 0 0 0 -2.507.514c.1.2.192.39.287.581a16.839 16.839 0 0 1 2.296-.466z"/></g><path d="m4814.706 323.638a13.789 13.789 0 0 0 -.185 5.944c.555 3.778 2.246 4.7 2.695 6.525s.739 3.514.739 3.514a50.476 50.476 0 0 0 -2.377-4.9 33.182 33.182 0 0 1 -2.44-7.154c-.07-.863-.369-1.462-.246-1.832s1.162-2.1 1.162-2.1z" fill="#ffc43c"/><path d="m4813.332 323.031a10.042 10.042 0 0 0 .993 4.412 15.873 15.873 0 0 0 .038-1.876 17.5 17.5 0 0 0 -.354-2.048z" fill="#ffa13c"/><path d="m4815.109 334.131a3.321 3.321 0 0 1 -2.316-2c-.8-2.062.388-4.9 1.125-6.116l.361.22c-.562.927-1.856 3.765-1.092 5.744a2.923 2.923 0 0 0 2.042 1.745z" fill="#fff"/><path d="m4812.152 323.04a15.448 15.448 0 0 1 1.876.9c.079.14.326 1.9.326 1.9a2.758 2.758 0 0 0 2.322-.89c.83-1.065.87-3.6.87-3.6l-2.853-2.245z" fill="url(#b)"/><path d="m4815.174 319.486-.481-.378-2.541 3.932a15.448 15.448 0 0 1 1.876.9 6.187 6.187 0 0 0 1.146-4.454z" fill="url(#c)"/><path d="m4809.088 321.254a3.682 3.682 0 0 1 .658 1.372c.027.517 1.411-1.506.887-1.845s-1.545.473-1.545.473z" fill="#dd6f76"/><path d="m4808.859 321.428s.145.216.189.264.181.057.379-.035a4.356 4.356 0 0 0 1.206-.7l-.185-.176z" fill="#fff"/><path d="m4808.049 315.515a9.328 9.328 0 0 0 -.159 1.889c.053.766.331 1.268.159 1.717a14.522 14.522 0 0 1 -.806 1.215.771.771 0 0 0 .561.39c.344.046.443.006.5.171s.013.35.072.423.337.278.516.2a11.041 11.041 0 0 1 1.327-.475c.192-.02.324-.02.291.271a1.036 1.036 0 0 1 -.423.766c-.284.211-.627.416-.654.455a.55.55 0 0 0 -.033.37c.053.106.324.093.377.238s.3.68.376.845.277.225.832.08a3.85 3.85 0 0 0 1.222-.469 12.837 12.837 0 0 0 1.94-1.889 18.954 18.954 0 0 0 .554-2.659 3.775 3.775 0 0 0 -2.474-7.036 4.752 4.752 0 0 0 -4.178 3.498z" fill="url(#b)"/><path d="m4812.538 314.207a18.866 18.866 0 0 0 .041 2.246 3.513 3.513 0 0 1 .516 1.043 12.372 12.372 0 0 0 .1 1.532 8.982 8.982 0 0 0 .74-.528l2.615 2.1s.145-1.677.383-2.84a19.48 19.48 0 0 0 .423-2.219 5.044 5.044 0 0 0 -.581-1.334z" fill="#705440"/><path d="m4817.361 315.541a5.044 5.044 0 0 0 -.581-1.334h-4.242s-.02.814-.012 1.465a4.726 4.726 0 0 0 1.82.335s-.086-.481-.27-.589a11.093 11.093 0 0 0 3.244.5 2.342 2.342 0 0 0 .041-.377z" fill="#5c4535"/><path d="m4807.972 316a2.119 2.119 0 0 1 3.379-.078 2.7 2.7 0 0 0 -.211-1 5.366 5.366 0 0 0 3.236.54s-.159-.461-.357-.54a12.571 12.571 0 0 0 3.738-.067s-.317-.506-.541-.583a3.8 3.8 0 0 0 1.347-.447s-.489-.449-.766-.647a1.312 1.312 0 0 0 .766-1.123 13.311 13.311 0 0 1 -2.074-.581 4.4 4.4 0 0 0 .846-1.03c-1.493-.04-3.329-.37-4.584.224a3.429 3.429 0 0 0 .516-.99c-1.758.33-3.158.647-3.831 1.624a1.8 1.8 0 0 0 -.278-.858c-.647.753-1.677 1.583-1.822 2.4a4.611 4.611 0 0 0 -.094 1.236 2.136 2.136 0 0 0 -.95-.462c.528 1.241.334 1.582.634 1.922a1.215 1.215 0 0 0 1.046.46z" fill="#947057"/><path d="m4813.795 318.877s.145-.905.165-1 .667-.786.865-.713.64.5.647.733a7.388 7.388 0 0 1 -.238 1.545 2.209 2.209 0 0 1 -1.129.687c-.231.009-.347-1.029-.31-1.252z" fill="url(#a)"/><path d="m4808.037 317.876a2.146 2.146 0 0 0 1.126-.187c.569-.27 1.045-.442 1.045-.442a6.3 6.3 0 0 0 -1.578.186c-.595.194-.593.443-.593.443z" fill="#705440"/><path d="m4809.445 318.214a2.54 2.54 0 0 0 -.74.483 1.288 1.288 0 0 0 .18.477c.15.233.234.3.287.291a1.322 1.322 0 0 0 .6-.4 1.492 1.492 0 0 0 .326-.812 1.548 1.548 0 0 0 -.653-.039z" fill="#fff"/><path d="m4808.663 318.7a2.018 2.018 0 0 0 .175.473c.112.195.284.31.334.295a.636.636 0 0 0 .165-.585c-.086-.363-.294-.436-.294-.436z" fill="#ab7a59"/><path d="m4809.41 318.4c.029.058-.06.161-.2.23s-.273.076-.3.018.059-.162.2-.23.271-.08.3-.018z" fill="#fff"/><path d="m4808.454 318.94a7.337 7.337 0 0 1 .933-.656 2.588 2.588 0 0 1 .657.022l.1.177.224-.42s-.933.023-1 .05-.761.528-.761.528-.162.238-.153.299z" fill="#705440"/><path d="m4812.367 319.208a1.71 1.71 0 1 1 -2.038-.678 1.537 1.537 0 0 1 2.038.678z" fill="url(#d)" opacity=".4"/><path d="m4811.591 319.058c.01.037-.131.116-.318.177s-.349.081-.362.044.13-.117.318-.178.349-.08.362-.043z" fill="#fff3f0"/><path d="m4808.284 320.675s-.122-.12-.017-.145a.736.736 0 0 1 .36.077c.008.017-.234-.007-.343.068z" fill="#dd8076"/><path d="m4815.745 327.214s-.3-4.861.74-6.217a13.592 13.592 0 0 1 4.086-3.135c1.2-.652 1.884-1.216 2.148-1.1s.952.185.969.643-.317 1 .722 1.423 1.391.461 1.339 1.078-.159 1.63-2.255 2.8a3.9 3.9 0 0 1 1.171 2.328c.238 1.559 1.4 6.9 1.612 7.318s1.18.616 1.268 1.092.035.707.317.952 2.589 1.83 2.589 1.83-4.4 1.462-7.1.511a11.81 11.81 0 0 1 -7.606-9.523z" fill="#13245a"/><path d="m4819.937 334.769a37.2 37.2 0 0 0 3.124-8.872l-5.225 6.633a11.967 11.967 0 0 0 2.101 2.239z" fill="#ffa13c"/><path d="m4821.549 335.894a12.792 12.792 0 0 0 6.286 2.115c2.84.172 3.237.132 3.4.132s.4.093.594-.1 1.348-.991 1.638-1.823a4.605 4.605 0 0 0 .331-1.387c0-.158-.185-.456-.331-.426s-2.6.7-4.028 1.245-4.786 1.523-7.89.244z" fill="#ffa13c"/><path d="m4818.047 322.28c-.3.485-2.008 4.65-2.82 6.808s-.722 2.608-.945 2.726-.448-.052-.448.172-.079.177-.158.2-.634-.412-.727-.2-.2.555-.277.74a31.142 31.142 0 0 0 .317 3.962 5.522 5.522 0 0 0 2.347.978c.295-.132.532-1.028.929-1.121a1.888 1.888 0 0 0 1.565-1.013 15.6 15.6 0 0 1 1.477-2.738 37.51 37.51 0 0 0 3.615-6.461c.792-2.193.132-4.113-1.03-4.72s-2.992-.687-3.845.667z" fill="#13245a"/><path d="m4818.047 322.28a18.748 18.748 0 0 0 -2.33 4.238 4.259 4.259 0 0 0 .086 1.079 54.245 54.245 0 0 1 2.244-5.317z" fill="#ffa13c"/><path d="m4818.759 327.373a1.967 1.967 0 0 1 -.2-.01 2.508 2.508 0 0 1 -2.489-2.659l.421.035-.211-.018.211.017a2.074 2.074 0 0 0 2.108 2.2 4.285 4.285 0 0 0 2.619-1.186c1.554-1.126 3.315-2.4 5.777-.679l-.242.346c-2.216-1.549-3.777-.419-5.287.675a4.993 4.993 0 0 1 -2.707 1.279z" fill="#fff"/><path d="m4812.738 332.555a4.569 4.569 0 0 1 .656 2.214 6.08 6.08 0 0 1 -.218 2.075.48.48 0 0 1 -.478.219c-.317-.022-1.408-.118-1.585-.171a.646.646 0 0 1 -.3-.265 4.309 4.309 0 0 0 .123-1.594 11.348 11.348 0 0 0 -.352-1.86s-.106-.245 0-.289 1.199-.192 2.154-.329z" fill="#ffa13c"/><path d="m4823.494 322.71a5.557 5.557 0 0 0 -3.311-1.521 6.579 6.579 0 0 1 4.685.539 4.728 4.728 0 0 1 -1.374.982z" fill="#ffa13c"/></g><g><circle cx="4773.574" cy="372.474" fill="#ffc43c" r="2.055"/><path d="m4775.049 372.473a1.475 1.475 0 1 1 -1.475-1.475 1.476 1.476 0 0 1 1.475 1.475z" fill="#ccd5e8"/><path d="m4771.583 368.824h1.317v1.595h-1.317z" fill="#afb6c7"/><path d="m4773.3 370.611a.536.536 0 0 0 -.081-.16 2.055 2.055 0 0 0 -1.7 1.857l.849.661a1.475 1.475 0 0 0 .776.267h.5a.306.306 0 0 0 .31-.416z" fill="#dbdbdb"/><path d="m4771.189 370.3a.436.436 0 0 1 .434-.435h1.195a.621.621 0 0 1 .559.416l.66 2.209a.306.306 0 0 1 -.31.416h-.5a1.477 1.477 0 0 1 -.777-.267l-.917-.715a1.01 1.01 0 0 1 -.342-.7z" fill="#fff"/><path d="m4773.769 372.473a.2.2 0 1 1 -.195-.195.195.195 0 0 1 .195.195z" fill="#314573"/><path d="m4773.146 372.473a.2.2 0 1 1 -.195-.195.195.195 0 0 1 .195.195z" fill="#314573"/><path d="m4806.02 372.473a2.054 2.054 0 1 1 -2.055-2.054 2.055 2.055 0 0 1 2.055 2.054z" fill="#ffc43c"/><path d="m4805.441 372.473a1.475 1.475 0 1 1 -1.476-1.475 1.476 1.476 0 0 1 1.476 1.475z" fill="#ccd5e8"/><path d="m4803.284 370.3h-1.3v-1.87c0-.206-.277-.488-.525-.612-.368-.183-1.465-.692-1.476-.7l.548-1.183c.046.022 1.126.522 1.51.715a2.14 2.14 0 0 1 1.246 1.777z" fill="#afb6c7"/><path d="m4803.7 370.611a.5.5 0 0 0 -.082-.16 2.055 2.055 0 0 0 -1.695 1.857l.848.661a1.478 1.478 0 0 0 .777.267h.5a.306.306 0 0 0 .31-.416z" fill="#dbdbdb"/><path d="m4801.58 370.3a.436.436 0 0 1 .435-.435h1.195a.622.622 0 0 1 .559.416l.66 2.209a.306.306 0 0 1 -.31.416h-.5a1.476 1.476 0 0 1 -.777-.267l-.917-.715a1.011 1.011 0 0 1 -.343-.7z" fill="#fff"/><path d="m4804.161 372.473a.2.2 0 1 1 -.2-.195.2.2 0 0 1 .2.195z" fill="#314573"/><path d="m4803.538 372.473a.2.2 0 1 1 -.2-.195.2.2 0 0 1 .2.195z" fill="#314573"/><g fill="#13245a"><path d="m4791.42 356.837c-.961-.091-23.542-2.224-24.054-2.31a1.867 1.867 0 0 1 -1.4-2.034v-10.209a1.532 1.532 0 0 1 1.28-1.732c.982-.182 27.205-2.524 28.321-2.624l.058.649c-9.441.843-27.5 2.474-28.26 2.615-.625.116-.747.488-.747 1.092v10.209c0 .923.458 1.326.85 1.392.437.069 15.9 1.537 24.008 2.3z"/><path d="m4791.277 355.583c-1-.091-24.486-2.224-25.014-2.308l.069-.429c.411.066 16.522 1.536 24.984 2.3z"/><path d="m4791.778 353.624c-.248-.017-24.788-1.681-25.5-1.74l.036-.433c.707.058 25.245 1.722 25.493 1.739z"/><path d="m4792.28 351.664c-.251-.011-25.1-1.139-25.991-1.173l.017-.434c.9.034 25.743 1.162 25.993 1.173z"/><path d="m4792.781 349.7c-.254-.006-25.4-.6-26.485-.606v-.434c1.085.009 26.238.6 26.492.606z"/><path d="m4793.282 347.745c-.257 0-25.713-.055-26.982-.04v-.434c1.272-.015 26.731.039 26.988.039z"/><path d="m4766.3 346.312-.012-.434c1.459-.04 27.224-.523 27.484-.528l.008.435c-.257.005-26.02.487-27.48.527z"/><path d="m4766.306 344.919-.017-.434 27.978-1.094.017.434z"/><path d="m4766.308 343.526-.021-.434c1.831-.09 28.206-1.645 28.472-1.661l.026.434c-.266.015-26.643 1.571-28.477 1.661z"/><path d="m4766.31 342.133-.025-.434c2.018-.114 28.7-2.206 28.967-2.227l.034.433c-.27.021-26.954 2.113-28.976 2.228z"/><path d="m0 0h17.536v.434h-17.536z" transform="matrix(.206 -.979 .979 .206 4788.967 356.25)"/><path d="m0 0h17.081v.434h-17.081z" transform="matrix(.19015791 -.98175352 .98175352 .19015791 4787.13 356.065)"/><path d="m0 0h16.631v.434h-16.631z" transform="matrix(.17394037 -.98475619 .98475619 .17394037 4785.292 355.88)"/><path d="m0 0h16.186v.434h-16.186z" transform="matrix(.15638275 -.98769653 .98769653 .15638275 4783.455 355.696)"/><path d="m0 0h15.746v.434h-15.746z" transform="matrix(.138 -.99 .99 .138 4781.619 355.511)"/><path d="m0 0h15.312v.434h-15.312z" transform="matrix(.11826532 -.99298203 .99298203 .11826532 4779.782 355.327)"/><path d="m0 0h14.885v.434h-14.885z" transform="matrix(.09695756 -.99528852 .99528852 .09695756 4777.949 355.144)"/><path d="m0 0h14.464v.434h-14.464z" transform="matrix(.07510056 -.99717597 .99717597 .07510056 4776.111 354.961)"/><path d="m0 0h14.051v.435h-14.051z" transform="matrix(.052 -.999 .999 .052 4774.274 354.777)"/><path d="m0 0h13.646v.435h-13.646z" transform="matrix(.02659568 -.99964627 .99964627 .02659568 4772.44 354.595)"/><path d="m4770.605 341.162h.434v13.251h-.434z"/><path d="m4795.339 337.7c-1.116.1-27.339 2.442-28.321 2.624a1.532 1.532 0 0 0 -1.28 1.732v10.208a2.271 2.271 0 0 0 1.528 2.379c.512.084 1.859.244 2.063.244s.584-.1.584-.47v-10.694c0-1.412.149-1.683 1.642-1.819s23.23-1.8 23.23-1.8z"/><path d="m4799.578 362.025a19.46 19.46 0 0 0 -2.545-1.335c-1-.475-2.139-1.013-3.247-1.64a2.857 2.857 0 0 1 -1.431-3.54c.271-1.031 4.548-19.506 4.73-20.292l-1.482-.343c-.044.192-4.453 19.239-4.718 20.248a4.336 4.336 0 0 0 2.152 5.25c1.156.654 2.319 1.205 3.345 1.691a19.384 19.384 0 0 1 2.321 1.205 2.51 2.51 0 0 1 .9 2.968c-.468 1.125-1.532 1.433-4.945 1.433h-24.9a.226.226 0 0 0 -.226.227v1.066a.226.226 0 0 0 .226.227h24.9c3.239 0 5.431-.164 6.349-2.368a4.032 4.032 0 0 0 -1.429-4.797z"/><path d="m4802.531 334.275a.835.835 0 0 1 -.723.934l-5.333.678a.834.834 0 0 1 -.933-.723.834.834 0 0 1 .723-.933l5.333-.679a.834.834 0 0 1 .933.723z"/></g></g></g></svg>